  0
SECTION
  2
HEADER
  9
$ACADVER
  1
AC1015
  9
$ACADMAINTVER
 70
     6
  9
$DWGCODEPAGE
  3
ANSI_1252
  9
$INSBASE
 10
0.0
 20
0.0
 30
0.0
  9
$EXTMIN
 10
-35.0
 20
-35.0
 30
0.0
  9
$EXTMAX
 10
35.0
 20
35.0
 30
0.0
  9
$LIMMIN
 10
0.0
 20
0.0
  9
$LIMMAX
 10
420.0
 20
297.0
  9
$ORTHOMODE
 70
     0
  9
$REGENMODE
 70
     1
  9
$FILLMODE
 70
     1
  9
$QTEXTMODE
 70
     0
  9
$MIRRTEXT
 70
     1
  9
$LTSCALE
 40
1.0
  9
$ATTMODE
 70
     1
  9
$TEXTSIZE
 40
6.35
  9
$TRACEWID
 40
1.0
  9
$TEXTSTYLE
  7
Standard
  9
$CLAYER
  8
0
  9
$CELTYPE
  6
ByLayer
  9
$CECOLOR
 62
   256
  9
$CELTSCALE
 40
1.0
  9
$DISPSILH
 70
     0
  9
$DIMSCALE
 40
1.0
  9
$DIMASZ
 40
5.9944
  9
$DIMEXO
 40
0.9906
  9
$DIMDLI
 40
3.75
  9
$DIMRND
 40
0.0
  9
$DIMDLE
 40
0.0
  9
$DIMEXE
 40
0.9906
  9
$DIMTP
 40
0.0
  9
$DIMTM
 40
0.0
  9
$DIMTXT
 40
6.35
  9
$DIMCEN
 40
2.5
  9
$DIMTSZ
 40
0.0
  9
$DIMTOL
 70
     0
  9
$DIMLIM
 70
     0
  9
$DIMTIH
 70
     1
  9
$DIMTOH
 70
     1
  9
$DIMSE1
 70
     0
  9
$DIMSE2
 70
     0
  9
$DIMTAD
 70
     1
  9
$DIMZIN
 70
     0
  9
$DIMBLK
  1

  9
$DIMASO
 70
     1
  9
$DIMSHO
 70
     1
  9
$DIMPOST
  1

  9
$DIMAPOST
  1

  9
$DIMALT
 70
     0
  9
$DIMALTD
 70
     3
  9
$DIMALTF
 40
0.0393700787
  9
$DIMLFAC
 40
1.0
  9
$DIMTOFL
 70
     1
  9
$DIMTVP
 40
0.0
  9
$DIMTIX
 70
     0
  9
$DIMSOXD
 70
     0
  9
$DIMSAH
 70
     0
  9
$DIMBLK1
  1

  9
$DIMBLK2
  1

  9
$DIMSTYLE
  2
ISO-25
  9
$DIMCLRD
 70
     0
  9
$DIMCLRE
 70
     0
  9
$DIMCLRT
 70
     0
  9
$DIMTFAC
 40
1.0
  9
$DIMGAP
 40
1.524
  9
$DIMJUST
 70
     0
  9
$DIMSD1
 70
     0
  9
$DIMSD2
 70
     0
  9
$DIMTOLJ
 70
     0
  9
$DIMTZIN
 70
     0
  9
$DIMALTZ
 70
     0
  9
$DIMALTTZ
 70
     0
  9
$DIMUPT
 70
     0
  9
$DIMDEC
 70
     2
  9
$DIMTDEC
 70
     2
  9
$DIMALTU
 70
     2
  9
$DIMALTTD
 70
     3
  9
$DIMTXSTY
  7
Standard
  9
$DIMAUNIT
 70
     0
  9
$DIMADEC
 70
     2
  9
$DIMALTRND
 40
0.0
  9
$DIMAZIN
 70
     0
  9
$DIMDSEP
 70
    44
  9
$DIMATFIT
 70
     3
  9
$DIMFRAC
 70
     0
  9
$DIMLDRBLK
  1

  9
$DIMLUNIT
 70
     2
  9
$DIMLWD
 70
    -2
  9
$DIMLWE
 70
    -2
  9
$DIMTMOVE
 70
     0
  9
$LUNITS
 70
     2
  9
$LUPREC
 70
     2
  9
$SKETCHINC
 40
1.0
  9
$FILLETRAD
 40
10.0
  9
$AUNITS
 70
     0
  9
$AUPREC
 70
     2
  9
$MENU
  1
.
  9
$ELEVATION
 40
0.0
  9
$PELEVATION
 40
0.0
  9
$THICKNESS
 40
0.0
  9
$LIMCHECK
 70
     0
  9
$CHAMFERA
 40
0.0
  9
$CHAMFERB
 40
0.0
  9
$CHAMFERC
 40
0.0
  9
$CHAMFERD
 40
0.0
  9
$SKPOLY
 70
     0
  9
$TDCREATE
 40
2457611.48857603
  9
$TDUCREATE
 40
2457611.780242697
  9
$TDUPDATE
 40
2457611.488661458
  9
$TDUUPDATE
 40
2457611.780328125
  9
$TDINDWG
 40
0.0000000116
  9
$TDUSRTIMER
 40
0.0000000116
  9
$USRTIMER
 70
     1
  9
$ANGBASE
 50
0.0
  9
$ANGDIR
 70
     0
  9
$PDMODE
 70
     0
  9
$PDSIZE
 40
-1.0
  9
$PLINEWID
 40
0.0
  9
$SPLFRAME
 70
     0
  9
$SPLINETYPE
 70
     6
  9
$SPLINESEGS
 70
     8
  9
$HANDSEED
  5
B5
  9
$SURFTAB1
 70
     6
  9
$SURFTAB2
 70
     6
  9
$SURFTYPE
 70
     6
  9
$SURFU
 70
     6
  9
$SURFV
 70
     6
  9
$UCSBASE
  2

  9
$UCSNAME
  2

  9
$UCSORG
 10
0.0
 20
0.0
 30
0.0
  9
$UCSXDIR
 10
1.0
 20
0.0
 30
0.0
  9
$UCSYDIR
 10
0.0
 20
1.0
 30
0.0
  9
$UCSORTHOREF
  2

  9
$UCSORTHOVIEW
 70
     0
  9
$UCSORGTOP
 10
0.0
 20
0.0
 30
0.0
  9
$UCSORGBOTTOM
 10
0.0
 20
0.0
 30
0.0
  9
$UCSORGLEFT
 10
0.0
 20
0.0
 30
0.0
  9
$UCSORGRIGHT
 10
0.0
 20
0.0
 30
0.0
  9
$UCSORGFRONT
 10
0.0
 20
0.0
 30
0.0
  9
$UCSORGBACK
 10
0.0
 20
0.0
 30
0.0
  9
$PUCSBASE
  2

  9
$PUCSNAME
  2

  9
$PUCSORG
 10
0.0
 20
0.0
 30
0.0
  9
$PUCSXDIR
 10
1.0
 20
0.0
 30
0.0
  9
$PUCSYDIR
 10
0.0
 20
1.0
 30
0.0
  9
$PUCSORTHOREF
  2

  9
$PUCSORTHOVIEW
 70
     0
  9
$PUCSORGTOP
 10
0.0
 20
0.0
 30
0.0
  9
$PUCSORGBOTTOM
 10
0.0
 20
0.0
 30
0.0
  9
$PUCSORGLEFT
 10
0.0
 20
0.0
 30
0.0
  9
$PUCSORGRIGHT
 10
0.0
 20
0.0
 30
0.0
  9
$PUCSORGFRONT
 10
0.0
 20
0.0
 30
0.0
  9
$PUCSORGBACK
 10
0.0
 20
0.0
 30
0.0
  9
$USERI1
 70
     0
  9
$USERI2
 70
     0
  9
$USERI3
 70
     0
  9
$USERI4
 70
     0
  9
$USERI5
 70
     0
  9
$USERR1
 40
0.0
  9
$USERR2
 40
0.0
  9
$USERR3
 40
0.0
  9
$USERR4
 40
0.0
  9
$USERR5
 40
0.0
  9
$WORLDVIEW
 70
     1
  9
$SHADEDGE
 70
     3
  9
$SHADEDIF
 70
    70
  9
$TILEMODE
 70
     1
  9
$MAXACTVP
 70
    64
  9
$PINSBASE
 10
0.0
 20
0.0
 30
0.0
  9
$PLIMCHECK
 70
     0
  9
$PEXTMIN
 10
1.0000000000E+20
 20
1.0000000000E+20
 30
1.0000000000E+20
  9
$PEXTMAX
 10
-1.0000000000E+20
 20
-1.0000000000E+20
 30
-1.0000000000E+20
  9
$PLIMMIN
 10
0.0
 20
0.0
  9
$PLIMMAX
 10
420.0
 20
297.0
  9
$UNITMODE
 70
     0
  9
$VISRETAIN
 70
     1
  9
$PLINEGEN
 70
     0
  9
$PSLTSCALE
 70
     1
  9
$TREEDEPTH
 70
  3020
  9
$CMLSTYLE
  2
Standard
  9
$CMLJUST
 70
     0
  9
$CMLSCALE
 40
20.0
  9
$PROXYGRAPHICS
 70
     1
  9
$MEASUREMENT
 70
     1
  9
$CELWEIGHT
370
    -1
  9
$ENDCAPS
280
     0
  9
$JOINSTYLE
280
     0
  9
$LWDISPLAY
290
     1
  9
$INSUNITS
 70
     4
  9
$HYPERLINKBASE
  1

  9
$STYLESHEET
  1

  9
$XEDIT
290
     1
  9
$CEPSNTYPE
380
     0
  9
$PSTYLEMODE
290
     1
  9
$FINGERPRINTGUID
  2
{F7E2015F-8A5F-41A8-9F76-09BAF20946BC}
  9
$VERSIONGUID
  2
{FAEB1C32-E019-11D5-929B-00C0DF256EC4}
  9
$EXTNAMES
290
     1
  9
$PSVPSCALE
 40
0.0
  9
$OLESTARTUP
290
     0
  0
ENDSEC
  0
SECTION
  2
CLASSES
  0
CLASS
  1
ACDBDICTIONARYWDFLT
  2
AcDbDictionaryWithDefault
  3
ObjectDBX Classes
 90
        0
280
     0
281
     0
  0
CLASS
  1
VISUALSTYLE
  2
AcDbVisualStyle
  3
ObjectDBX Classes
 90
     4095
280
     0
281
     0
  0
CLASS
  1
MATERIAL
  2
AcDbMaterial
  3
ObjectDBX Classes
 90
     1153
280
     0
281
     0
  0
CLASS
  1
SCALE
  2
AcDbScale
  3
ObjectDBX Classes
 90
     1153
280
     0
281
     0
  0
CLASS
  1
TABLESTYLE
  2
AcDbTableStyle
  3
ObjectDBX Classes
 90
     4095
280
     0
281
     0
  0
CLASS
  1
MLEADERSTYLE
  2
AcDbMLeaderStyle
  3
ACDB_MLEADERSTYLE_CLASS
 90
     4095
280
     0
281
     0
  0
CLASS
  1
SUN
  2
AcDbSun
  3
SCENEOE
 90
     1153
280
     0
281
     0
  0
CLASS
  1
ACDBPLACEHOLDER
  2
AcDbPlaceHolder
  3
ObjectDBX Classes
 90
        0
280
     0
281
     0
  0
CLASS
  1
LAYOUT
  2
AcDbLayout
  3
ObjectDBX Classes
 90
        0
280
     0
281
     0
  0
ENDSEC
  0
SECTION
  2
TABLES
  0
TABLE
  2
VPORT
  5
8
330
0
100
AcDbSymbolTable
 70
     1
  0
VPORT
  5
29
330
8
100
AcDbSymbolTableRecord
100
AcDbViewportTableRecord
  2
*Active
 70
     0
 10
0.0
 20
0.0
 11
1.0
 21
1.0
 12
0.0
 22
0.0
 13
0.0
 23
0.0
 14
10.0
 24
10.0
 15
10.0
 25
10.0
 16
0.0
 26
0.0
 36
1.0
 17
0.0
 27
0.0
 37
0.0
 40
71.4
 41
1.0
 42
50.0
 43
0.0
 44
0.0
 50
0.0
 51
0.0
 71
     0
 72
   100
 73
     1
 74
     3
 75
     0
 76
     0
 77
     0
 78
     0
281
     0
 65
     1
110
0.0
120
0.0
130
0.0
111
1.0
121
0.0
131
0.0
112
0.0
122
1.0
132
0.0
 79
     0
146
0.0
  0
ENDTAB
  0
TABLE
  2
LTYPE
  5
5
330
0
100
AcDbSymbolTable
 70
     6
  0
LTYPE
  5
14
330
5
100
AcDbSymbolTableRecord
100
AcDbLinetypeTableRecord
  2
ByBlock
 70
     0
  3

 72
    65
 73
     0
 40
0.0
  0
LTYPE
  5
15
330
5
100
AcDbSymbolTableRecord
100
AcDbLinetypeTableRecord
  2
ByLayer
 70
     0
  3

 72
    65
 73
     0
 40
0.0
  0
LTYPE
  5
16
330
5
100
AcDbSymbolTableRecord
100
AcDbLinetypeTableRecord
  2
Continuous
 70
     0
  3
Solid line
 72
    65
 73
     0
 40
0.0
  0
LTYPE
  5
6E
330
5
100
AcDbSymbolTableRecord
100
AcDbLinetypeTableRecord
  2
HIDDEN
 70
     0
  3
Hidden __ __ __ __ __ __ __ __ __ __ __ __ __ __
 72
    65
 73
     2
 40
1.905
 49
1.27
 74
     0
 49
-0.635
 74
     0
  0
LTYPE
  5
6F
330
5
100
AcDbSymbolTableRecord
100
AcDbLinetypeTableRecord
  2
PHANTOM
 70
     0
  3
Phantom ______  __  __  ______  __  __  ______
 72
    65
 73
     6
 40
12.7
 49
6.35
 74
     0
 49
-1.27
 74
     0
 49
1.27
 74
     0
 49
-1.27
 74
     0
 49
1.27
 74
     0
 49
-1.27
 74
     0
  0
LTYPE
  5
70
330
5
100
AcDbSymbolTableRecord
100
AcDbLinetypeTableRecord
  2
CENTER
 70
     0
  3
Center ____ _ ____ _ ____ _ ____ _ ____ _ ____
 72
    65
 73
     4
 40
10.16
 49
6.35
 74
     0
 49
-1.27
 74
     0
 49
1.27
 74
     0
 49
-1.27
 74
     0
  0
LTYPE
  5
71
330
5
100
AcDbSymbolTableRecord
100
AcDbLinetypeTableRecord
  2
CENTERX2
 70
     0
  3
Center (2x) ________  __  ________  __  _____
 72
    65
 73
     4
 40
20.32
 49
12.7
 74
     0
 49
-2.54
 74
     0
 49
2.54
 74
     0
 49
-2.54
 74
     0
  0
LTYPE
  5
72
330
5
100
AcDbSymbolTableRecord
100
AcDbLinetypeTableRecord
  2
DOT2
 70
     0
  3
Dot (.5x) ........................................
 72
    65
 73
     2
 40
0.635
 49
0.0
 74
     0
 49
-0.635
 74
     0
  0
ENDTAB
  0
TABLE
  2
LAYER
  5
2
330
0
100
AcDbSymbolTable
 70
     1
  0
LAYER
  5
10
330
2
100
AcDbSymbolTableRecord
100
AcDbLayerTableRecord
  2
0
 70
     0
 62
     7
  6
Continuous
370
    -3
390
F
  0
ENDTAB
  0
TABLE
  2
STYLE
  5
3
330
0
100
AcDbSymbolTable
 70
     1
  0
STYLE
  5
11
330
3
100
AcDbSymbolTableRecord
100
AcDbTextStyleTableRecord
  2
Standard
 70
     0
 40
0.0
 41
1.0
 50
0.0
 71
     0
 42
6.35
  3
txt
  4

  0
ENDTAB
  0
TABLE
  2
VIEW
  5
6
330
0
100
AcDbSymbolTable
 70
     0
  0
ENDTAB
  0
TABLE
  2
UCS
  5
7
330
0
100
AcDbSymbolTable
 70
     0
  0
ENDTAB
  0
TABLE
  2
APPID
  5
9
330
0
100
AcDbSymbolTable
 70
     1
  0
APPID
  5
12
330
9
100
AcDbSymbolTableRecord
100
AcDbRegAppTableRecord
  2
ACAD
 70
     0
  0
ENDTAB
  0
TABLE
  2
DIMSTYLE
  5
A
330
0
100
AcDbSymbolTable
 70
     1
100
AcDbDimStyleTable
  0
DIMSTYLE
105
27
330
A
100
AcDbSymbolTableRecord
100
AcDbDimStyleTableRecord
  2
ISO-25
 70
     0
 41
2.5
 42
0.625
 43
3.75
 44
1.25
 73
     0
 74
     0
 77
     1
 78
     8
140
2.5
141
2.5
143
0.0393700787
147
0.625
171
     3
172
     1
178
     0
271
     2
272
     2
274
     3
278
    44
283
     0
284
     8
340
11
  0
ENDTAB
  0
TABLE
  2
BLOCK_RECORD
  5
1
330
0
100
AcDbSymbolTable
 70
     1
  0
BLOCK_RECORD
  5
1F
330
1
100
AcDbSymbolTableRecord
100
AcDbBlockTableRecord
  2
*Model_Space
340
22
  0
BLOCK_RECORD
  5
1B
330
1
100
AcDbSymbolTableRecord
100
AcDbBlockTableRecord
  2
*Paper_Space
340
1E
  0
BLOCK_RECORD
  5
23
330
1
100
AcDbSymbolTableRecord
100
AcDbBlockTableRecord
  2
*Paper_Space0
340
26
  0
ENDTAB
  0
ENDSEC
  0
SECTION
  2
BLOCKS
  0
BLOCK
  5
20
330
1F
100
AcDbEntity
  8
0
100
AcDbBlockBegin
  2
*Model_Space
 70
     0
 10
0.0
 20
0.0
 30
0.0
  3
*Model_Space
  1

  0
ENDBLK
  5
21
330
1F
100
AcDbEntity
  8
0
100
AcDbBlockEnd
  0
BLOCK
  5
1C
330
1B
100
AcDbEntity
 67
     1
  8
0
100
AcDbBlockBegin
  2
*Paper_Space
 70
     0
 10
0.0
 20
0.0
 30
0.0
  3
*Paper_Space
  1

  0
ENDBLK
  5
1D
330
1B
100
AcDbEntity
 67
     1
  8
0
100
AcDbBlockEnd
  0
BLOCK
  5
24
330
23
100
AcDbEntity
  8
0
100
AcDbBlockBegin
  2
*Paper_Space0
 70
     0
 10
0.0
 20
0.0
 30
0.0
  3
*Paper_Space0
  1

  0
ENDBLK
  5
25
330
23
100
AcDbEntity
  8
0
100
AcDbBlockEnd
  0
ENDSEC
  0
SECTION
  2
ENTITIES
  0
CIRCLE
  5
73
330
1F
100
AcDbEntity
  8
0
  6
Continuous
 62
     7
370
    15
100
AcDbCircle
 10
0.0
 20
0.0
 30
0.0
 40
28.00000000000001
  0
CIRCLE
  5
74
330
1F
100
AcDbEntity
  8
0
  6
Continuous
 62
     7
370
    15
100
AcDbCircle
 10
13.0399986549
 20
3.4940571089
 30
0.0
 40
1.142999999999995
  0
SPLINE
  5
77
330
1F
100
AcDbEntity
  8
0
  6
Continuous
 62
     7
370
    15
100
AcDbSpline
210
0.0
220
0.0
230
1.0
 70
     8
 71
     3
 72
    15
 73
    11
 74
     0
 42
0.000000001
 43
0.00000001
 40
0.0
 40
0.0
 40
0.0
 40
0.0
 40
0.0751731173762219
 40
0.1647462575118012
 40
0.2680168809877796
 40
0.3859118756529554
 40
0.5177894792733976
 40
0.6636909770022812
 40
0.8244132205366416
 40
1.0
 40
1.0
 40
1.0
 40
1.0
 10
-5.273119518552453
 20
15.35554138482737
 30
0.0
 10
-5.312901967365447
 20
15.34708140487176
 30
0.0
 10
-5.400087517005413
 20
15.32854086691143
 30
0.0
 10
-5.543675027242179
 20
15.30784266663571
 30
0.0
 10
-5.710853084571995
 20
15.29017587682069
 30
0.0
 10
-5.901393506704521
 20
15.27692952720934
 30
0.0
 10
-6.115125262776522
 20
15.26558957299969
 30
0.0
 10
-6.352163972503342
 20
15.2565760312266
 30
0.0
 10
-6.612974941100089
 20
15.25162329641139
 30
0.0
 10
-6.794895626784385
 20
15.25136785804841
 30
0.0
 10
-6.889876329449887
 20
15.25123449380173
 30
0.0
  0
SPLINE
  5
78
330
1F
100
AcDbEntity
  8
0
  6
Continuous
 62
     7
370
    15
100
AcDbSpline
210
0.0
220
0.0
230
1.0
 70
     8
 71
     3
 72
    23
 73
    19
 74
     0
 42
0.000000001
 43
0.00000001
 40
0.0
 40
0.0
 40
0.0
 40
0.0
 40
0.0701188944197161
 40
0.1371923527859709
 40
0.2020161807247504
 40
0.2646314069747445
 40
0.3261165471458186
 40
0.3860103046676416
 40
0.4458118469576792
 40
0.5052976967309597
 40
0.5646332777264881
 40
0.6242826253338398
 40
0.68390203190375
 40
0.7439527709382701
 40
0.8053877310076346
 40
0.8683880308962796
 40
0.933084028252477
 40
1.0
 40
1.0
 40
1.0
 40
1.0
 10
-4.006172403167835
 20
16.96721005469916
 30
0.0
 10
-4.006936988033235
 20
16.91499894538473
 30
0.0
 10
-4.008432949962708
 20
16.81284438365508
 30
0.0
 10
-4.026387639059318
 20
16.66339661079846
 30
0.0
 10
-4.050572415281837
 20
16.52057896013114
 30
0.0
 10
-4.087759924504044
 20
16.38470809999376
 30
0.0
 10
-4.136465645696863
 20
16.25659091642536
 30
0.0
 10
-4.193601227288326
 20
16.1342695383306
 30
0.0
 10
-4.262514203816348
 20
16.01982499074314
 30
0.0
 10
-4.341698394862546
 20
15.91284179177472
 30
0.0
 10
-4.429784858975363
 20
15.81321952229044
 30
0.0
 10
-4.526400903899681
 20
15.7216801094251
 30
0.0
 10
-4.631156477435877
 20
15.63875938114423
 30
0.0
 10
-4.743718660374423
 20
15.5642714433241
 30
0.0
 10
-4.865184814692145
 20
15.49994362194972
 30
0.0
 10
-4.993712721885148
 20
15.44232679729911
 30
0.0
 10
-5.130419543107777
 20
15.39393787299784
 30
0.0
 10
-5.225020961320233
 20
15.36848333298138
 30
0.0
 10
-5.273119518552453
 20
15.35554138482737
 30
0.0
  0
SPLINE
  5
79
330
1F
100
AcDbEntity
  8
0
  6
Continuous
 62
     7
370
    15
100
AcDbSpline
210
0.0
220
0.0
230
1.0
 70
     8
 71
     3
 72
    23
 73
    19
 74
     0
 42
0.000000001
 43
0.00000001
 40
0.0
 40
0.0
 40
0.0
 40
0.0
 40
0.0624813386352047
 40
0.12349038268729
 40
0.1834110942063114
 40
0.2431532209997794
 40
0.3021267353720885
 40
0.3617096708329057
 40
0.4218422916948798
 40
0.482931901446669
 40
0.5445522544313237
 40
0.6056807199653579
 40
0.6676797383436885
 40
0.729984387538063
 40
0.7945509212861304
 40
0.8603456197120823
 40
0.9289073562657084
 40
1.0
 40
1.0
 40
1.0
 40
1.0
 10
-5.222238108296041
 20
18.57506261880172
 30
0.0
 10
-5.178344125571297
 20
18.56304850982136
 30
0.0
 10
-5.091590466914987
 20
18.53930338930954
 30
0.0
 10
-4.966584288716319
 20
18.49174420528944
 30
0.0
 10
-4.847650883344784
 20
18.43535227704248
 30
0.0
 10
-4.734382198737098
 20
18.37108312902728
 30
0.0
 10
-4.628170133737084
 20
18.29617931971632
 30
0.0
 10
-4.527430030841611
 20
18.21367718467504
 30
0.0
 10
-4.433050923733708
 20
18.12167191026505
 30
0.0
 10
-4.345563541315274
 20
18.02119542511329
 30
0.0
 10
-4.265218265698682
 20
17.91393447289971
 30
0.0
 10
-4.196040127036516
 20
17.79828785578185
 30
0.0
 10
-4.138115015133314
 20
17.67620220529157
 30
0.0
 10
-4.088433936869198
 20
17.54776244047753
 30
0.0
 10
-4.052677169475083
 20
17.41188999642897
 30
0.0
 10
-4.025740651438047
 20
17.26952896112151
 30
0.0
 10
-4.00864349847823
 20
17.12069459461309
 30
0.0
 10
-4.007005993579612
 20
17.01898597782523
 30
0.0
 10
-4.006172403167835
 20
16.96721005469916
 30
0.0
  0
SPLINE
  5
7A
330
1F
100
AcDbEntity
  8
0
  6
Continuous
 62
     7
370
    15
100
AcDbSpline
210
0.0
220
0.0
230
1.0
 70
     8
 71
     3
 72
    15
 73
    11
 74
     0
 42
0.000000001
 43
0.00000001
 40
0.0
 40
0.0
 40
0.0
 40
0.0
 40
0.1769557521312504
 40
0.3390550796425809
 40
0.4863182249420764
 40
0.6187809228353771
 40
0.7356188277673807
 40
0.8387424767201108
 40
0.9264570678763175
 40
1.0
 40
1.0
 40
1.0
 40
1.0
 10
-6.668542194834502
 20
18.6704652630325
 30
0.0
 10
-6.58288812224506
 20
18.67037110842411
 30
0.0
 10
-6.418771115288517
 20
18.67019070401306
 30
0.0
 10
-6.183430942788106
 20
18.66472109372938
 30
0.0
 10
-5.96969042969461
 20
18.65741552378964
 30
0.0
 10
-5.778010452870413
 20
18.64728837471071
 30
0.0
 10
-5.607801246341901
 20
18.63532027526166
 30
0.0
 10
-5.459833002878854
 20
18.61853443239117
 30
0.0
 10
-5.332942664958884
 20
18.601007896173
 30
0.0
 10
-5.256912392391633
 20
18.58318905863067
 30
0.0
 10
-5.222238108296041
 20
18.57506261880172
 30
0.0
  0
CIRCLE
  5
7E
330
1F
100
AcDbEntity
  8
0
  6
Continuous
 62
     7
370
    15
100
AcDbCircle
 10
-10.6251840892
 20
2.8470094961
 30
0.0
 40
1.142999999999995
  0
CIRCLE
  5
7F
330
1F
100
AcDbEntity
  8
0
  6
Continuous
 62
     7
370
    15
100
AcDbCircle
 10
-7.7781745931
 20
-7.7781745931
 30
0.0
 40
1.142999999999998
  0
CIRCLE
  5
80
330
1F
100
AcDbEntity
  8
0
  6
Continuous
 62
     7
370
    15
100
AcDbCircle
 10
2.8470094961
 20
-10.6251840892
 30
0.0
 40
1.142999999999997
  0
CIRCLE
  5
81
330
1F
100
AcDbEntity
  8
0
  6
Continuous
 62
     7
370
    15
100
AcDbCircle
 10
10.6251840892
 20
-2.8470094961
 30
0.0
 40
1.142999999999997
  0
CIRCLE
  5
82
330
1F
100
AcDbEntity
  8
0
  6
Continuous
 62
     7
370
    15
100
AcDbCircle
 10
7.7781745931
 20
7.7781745931
 30
0.0
 40
1.142999999999997
  0
CIRCLE
  5
83
330
1F
100
AcDbEntity
  8
0
  6
Continuous
 62
     7
370
    15
100
AcDbCircle
 10
-2.8470094961
 20
10.6251840892
 30
0.0
 40
1.143000000000001
  0
CIRCLE
  5
84
330
1F
100
AcDbEntity
  8
0
  6
Continuous
 62
     7
370
    15
100
AcDbCircle
 10
4.6587428118
 20
17.3866648732
 30
0.0
 40
2.349999999999993
  0
CIRCLE
  5
85
330
1F
100
AcDbEntity
  8
0
  6
Continuous
 62
     7
370
    15
100
AcDbCircle
 10
-4.6587428118
 20
-17.3866648732
 30
0.0
 40
2.349999999999993
  0
SPLINE
  5
92
330
1F
100
AcDbEntity
  8
0
  6
Continuous
 62
     7
370
    15
100
AcDbSpline
210
0.0
220
0.0
230
1.0
 70
     8
 71
     3
 72
    23
 73
    19
 74
     0
 42
0.000000001
 43
0.00000001
 40
0.0
 40
0.0
 40
0.0
 40
0.0
 40
0.0652265038922755
 40
0.1285689957067288
 40
0.190320378104467
 40
0.251377988624063
 40
0.312387528333694
 40
0.3737887042767234
 40
0.4364311597804502
 40
0.5005667553098538
 40
0.5646867953847436
 40
0.6271355178835134
 40
0.6884554088949795
 40
0.7492457464637473
 40
0.8101551773646782
 40
0.8716709256529235
 40
0.9347734961077241
 40
1.0
 40
1.0
 40
1.0
 40
1.0
 10
-9.216428813424248
 20
15.49800933354532
 30
0.0
 10
-9.219240833860805
 20
15.38378653801269
 30
0.0
 10
-9.224783651915752
 20
15.15864017522897
 30
0.0
 10
-9.27226129115879
 20
14.82817992651924
 30
0.0
 10
-9.346721391111663
 20
14.51051537718721
 30
0.0
 10
-9.453031759757257
 20
14.20617683572413
 30
0.0
 10
-9.589512270683505
 20
13.91484325575046
 30
0.0
 10
-9.757615224021077
 20
13.63728121085054
 30
0.0
 10
-9.955628563510384
 20
13.37339970663608
 30
0.0
 10
-10.18097527895655
 20
13.12608958544456
 30
0.0
 10
-10.42663145518204
 20
12.89930846004329
 30
0.0
 10
-10.69012065353543
 20
12.70169849987435
 30
0.0
 10
-10.96551710539396
 20
12.53165615953066
 30
0.0
 10
-11.2563647187688
 20
12.39597720819371
 30
0.0
 10
-11.55880621415392
 20
12.28753386681479
 30
0.0
 10
-11.8755484289002
 20
12.21359695232928
 30
0.0
 10
-12.20510717694491
 20
12.16590474528625
 30
0.0
 10
-12.42984456955816
 20
12.16042829489596
 30
0.0
 10
-12.54407304419348
 20
12.15764475021198
 30
0.0
  0
SPLINE
  5
93
330
1F
100
AcDbEntity
  8
0
  6
Continuous
 62
     7
370
    15
100
AcDbSpline
210
0.0
220
0.0
230
1.0
 70
     8
 71
     3
 72
    23
 73
    19
 74
     0
 42
0.000000001
 43
0.00000001
 40
0.0
 40
0.0
 40
0.0
 40
0.0
 40
0.0665700352151799
 40
0.1307490414821778
 40
0.1934128000295041
 40
0.2549893988897086
 40
0.3161135558759002
 40
0.3772617579089843
 40
0.4394007841555528
 40
0.5029705893719761
 40
0.566524976360731
 40
0.628231102513309
 40
0.6890906105998631
 40
0.7493446689958043
 40
0.8101695933722061
 40
0.8716098243170436
 40
0.9348691840727638
 40
1.0
 40
1.0
 40
1.0
 40
1.0
 10
-12.59495445444989
 20
18.83328577585301
 30
0.0
 10
-12.47737403373103
 20
18.83030766327979
 30
0.0
 10
-12.24643638653933
 20
18.82445840447866
 30
0.0
 10
-11.90702907209725
 20
18.77968345945677
 30
0.0
 10
-11.58300654208096
 20
18.70222182337363
 30
0.0
 10
-11.27172929025488
 20
18.59905612658718
 30
0.0
 10
-10.97692060419361
 20
18.46143459882491
 30
0.0
 10
-10.69636147067498
 20
18.29509154398036
 30
0.0
 10
-10.43071942816287
 20
18.09828425451894
 30
0.0
 10
-10.18357492167561
 20
17.87253408580245
 30
0.0
 10
-9.957411597590372
 20
17.62690981943818
 30
0.0
 10
-9.758156061073251
 20
17.36478561116302
 30
0.0
 10
-9.591165042445706
 20
17.08774635554949
 30
0.0
 10
-9.454030828588762
 20
16.79662456281379
 30
0.0
 10
-9.346446208144254
 20
16.49207862091694
 30
0.0
 10
-9.272207371734158
 20
16.17248493022901
 30
0.0
 10
-9.224785299313831
 20
15.83991422109829
 30
0.0
 10
-9.219241246017448
 20
15.61307976652806
 30
0.0
 10
-9.216428813424248
 20
15.49800933354532
 30
0.0
  0
SPLINE
  5
94
330
1F
100
AcDbEntity
  8
0
  6
Continuous
 62
     7
370
    15
100
AcDbSpline
210
0.0
220
0.0
230
1.0
 70
     8
 71
     3
 72
    31
 73
    27
 74
     0
 42
0.000000001
 43
0.00000001
 40
0.0
 40
0.0
 40
0.0
 40
0.0
 40
0.0432089861713363
 40
0.0858728716306183
 40
0.1281200066967022
 40
0.1701519644541991
 40
0.2119176209878609
 40
0.2537530026191241
 40
0.2960064088559503
 40
0.338443357144784
 40
0.3810153681620335
 40
0.4228204794407608
 40
0.4640890557943133
 40
0.5051258486836863
 40
0.5459749706852408
 40
0.5869852111338596
 40
0.6283385916346623
 40
0.6700838015912063
 40
0.7119916023637222
 40
0.7530391548630189
 40
0.7940493953116377
 40
0.8348855427015817
 40
0.8754983129295132
 40
0.9165472998303793
 40
0.9580037786449609
 40
1.0
 40
1.0
 40
1.0
 40
1.0
 10
-15.89206983906527
 20
15.46748048739147
 30
0.0
 10
-15.891099857506
 20
15.54301404425369
 30
0.0
 10
-15.88917213113923
 20
15.69312826832997
 30
0.0
 10
-15.86596434623151
 20
15.91604338574921
 30
0.0
 10
-15.83228811689931
 20
16.13537357912647
 30
0.0
 10
-15.78402464698826
 20
16.35049515614745
 30
0.0
 10
-15.72090262259847
 20
16.56088151410733
 30
0.0
 10
-15.64642251576185
 20
16.76798361239614
 30
0.0
 10
-15.55545451061322
 20
16.96970265404853
 30
0.0
 10
-15.45261962059988
 20
17.16699423615301
 30
0.0
 10
-15.33784462604418
 20
17.35678286531313
 30
0.0
 10
-15.21107005203845
 20
17.53617868045874
 30
0.0
 10
-15.07674874067531
 20
17.70668706033511
 30
0.0
 10
-14.92949515509299
 20
17.86388948158594
 30
0.0
 10
-14.77416246166691
 20
18.01235911532196
 30
0.0
 10
-14.60823083276625
 20
18.14981433048722
 30
0.0
 10
-14.43271276084588
 20
18.27749459865123
 30
0.0
 10
-14.24685301469975
 20
18.3925572174686
 30
0.0
 10
-14.05523128741826
 20
18.4966230759859
 30
0.0
 10
-13.8576977048757
 20
18.5859255770546
 30
0.0
 10
-13.65693506800115
 20
18.662572002938
 30
0.0
 10
-13.45200306390778
 20
18.72469464293835
 30
0.0
 10
-13.24344589170487
 20
18.77373847966669
 30
0.0
 10
-13.03080836826552
 20
18.80713467853845
 30
0.0
 10
-12.81425989487281
 20
18.83040165527717
 30
0.0
 10
-12.66837078763498
 20
18.83232026602921
 30
0.0
 10
-12.59495445444989
 20
18.83328577585301
 30
0.0
  0
SPLINE
  5
95
330
1F
100
AcDbEntity
  8
0
  6
Continuous
 62
     7
370
    15
100
AcDbSpline
210
0.0
220
0.0
230
1.0
 70
     8
 71
     3
 72
    23
 73
    19
 74
     0
 42
0.000000001
 43
0.00000001
 40
0.0
 40
0.0
 40
0.0
 40
0.0
 40
0.065818876843307
 40
0.1297465269068312
 40
0.1920719544880058
 40
0.2534594242982025
 40
0.3145695877964202
 40
0.3762798811880263
 40
0.4390256536685598
 40
0.5032670288290859
 40
0.5674928228792948
 40
0.6297047956052448
 40
0.6909996492157556
 40
0.751451650917447
 40
0.8120043642646944
 40
0.8731496810680428
 40
0.9356354837317855
 40
1.0
 40
1.0
 40
1.0
 40
1.0
 10
-12.54407304419348
 20
12.15764475021198
 30
0.0
 10
-12.65914288005643
 20
12.16045578064762
 30
0.0
 10
-12.88597615754459
 20
12.16599706991821
 30
0.0
 10
-13.21896477887645
 20
12.21349761863049
 30
0.0
 10
-13.53878297128598
 20
12.28777684124126
 30
0.0
 10
-13.84451615134268
 20
12.39392967552348
 30
0.0
 10
-14.1363348093285
 20
12.5311209369814
 30
0.0
 10
-14.41480967364576
 20
12.69840602471365
 30
0.0
 10
-14.67882298364132
 20
12.8969018379985
 30
0.0
 10
-14.92618586654897
 20
13.12217548045257
 30
0.0
 10
-15.15251655467997
 20
13.36741529625265
 30
0.0
 10
-15.34983713629422
 20
13.63018601618023
 30
0.0
 10
-15.51715984188762
 20
13.90533234466195
 30
0.0
 10
-15.65389045941474
 20
14.19361785269497
 30
0.0
 10
-15.76213883565443
 20
14.49364889873961
 30
0.0
 10
-15.83598900570677
 20
14.80742685075619
 30
0.0
 10
-15.8837699473174
 20
15.13316281130589
 30
0.0
 10
-15.88927602593424
 20
15.35494635541036
 30
0.0
 10
-15.89206983906527
 20
15.46748048739147
 30
0.0
  0
SPLINE
  5
96
330
1F
100
AcDbEntity
  8
0
  6
Continuous
 62
     7
370
    15
100
AcDbSpline
210
0.0
220
0.0
230
1.0
 70
     8
 71
     3
 72
    23
 73
    19
 74
     0
 42
0.000000001
 43
0.00000001
 40
0.0
 40
0.0
 40
0.0
 40
0.0
 40
0.0645039992970558
 40
0.1268993215900403
 40
0.1877465401000116
 40
0.2481497329298263
 40
0.3085860647627415
 40
0.3695830050869941
 40
0.4318269653810495
 40
0.4961797225241574
 40
0.5606678546118796
 40
0.6235044551176645
 40
0.6852604113304277
 40
0.7465368217511666
 40
0.8083273517367074
 40
0.8704861878877675
 40
0.9343168833592462
 40
1.0
 40
1.0
 40
1.0
 40
1.0
 10
-15.32219804419348
 20
15.47002455790429
 30
0.0
 10
-15.31988508035622
 20
15.37829024301883
 30
0.0
 10
-15.31533476494929
 20
15.19782046668942
 30
0.0
 10
-15.27549745916864
 20
14.93335540564102
 30
0.0
 10
-15.21413473408993
 20
14.67919522898836
 30
0.0
 10
-15.12367922641191
 20
14.43673062212726
 30
0.0
 10
-15.01055739696162
 20
14.20387742327569
 30
0.0
 10
-14.87080861032043
 20
13.98270129048563
 30
0.0
 10
-14.70523855507376
 20
13.77314244699723
 30
0.0
 10
-14.51716329966763
 20
13.57666388758071
 30
0.0
 10
-14.31156353197981
 20
13.39732935703188
 30
0.0
 10
-14.09324557910865
 20
13.23991574420437
 30
0.0
 10
-13.86454831981027
 20
13.10672857666747
 30
0.0
 10
-13.62487536631763
 20
12.99822508820048
 30
0.0
 10
-13.37550625979298
 20
12.91224656390801
 30
0.0
 10
-13.11483413148219
 20
12.85332104743375
 30
0.0
 10
-12.84459544052335
 20
12.81453986412344
 30
0.0
 10
-12.66038982330431
 20
12.81081557838082
 30
0.0
 10
-12.56696967880886
 20
12.80892680149403
 30
0.0
  0
SPLINE
  5
97
330
1F
100
AcDbEntity
  8
0
  6
Continuous
 62
     7
370
    15
100
AcDbSpline
210
0.0
220
0.0
230
1.0
 70
     8
 71
     3
 72
    31
 73
    27
 74
     0
 42
0.000000001
 43
0.00000001
 40
0.0
 40
0.0
 40
0.0
 40
0.0
 40
0.0420233285259235
 40
0.0836449111687117
 40
0.1249837954173947
 40
0.1662474611728953
 40
0.2077015560969881
 40
0.2496310707996498
 40
0.2917417703321309
 40
0.3347428753531984
 40
0.3774601685508656
 40
0.4195563188419396
 40
0.4610441763330341
 40
0.5020962839443968
 40
0.5428907140755999
 40
0.5838008186265056
 40
0.6248635833101929
 40
0.6662246890691707
 40
0.7073991864779363
 40
0.7485566775366932
 40
0.7896545909521802
 40
0.8307397264898324
 40
0.8720701422586048
 40
0.9139933952421326
 40
0.9564981300675887
 40
1.0
 40
1.0
 40
1.0
 40
1.0
 10
-12.56696967880886
 20
18.18200372457095
 30
0.0
 10
-12.62723051395724
 20
18.18126913796864
 30
0.0
 10
-12.7471760865653
 20
18.17980698746198
 30
0.0
 10
-12.92549231661296
 20
18.16054704635251
 30
0.0
 10
-13.10146339656315
 20
18.13309710493304
 30
0.0
 10
-13.27512566793165
 20
18.09394206011739
 30
0.0
 10
-13.44575250723139
 20
18.04059470722811
 30
0.0
 10
-13.61493436193114
 20
17.9791976309416
 30
0.0
 10
-13.78112847395016
 20
17.90441079514707
 30
0.0
 10
-13.94378618748954
 20
17.81991460293355
 30
0.0
 10
-14.10147496668298
 20
17.72639013233247
 30
0.0
 10
-14.25026943932233
 20
17.62302706928305
 30
0.0
 10
-14.39055480765657
 20
17.51224940657725
 30
0.0
 10
-14.52198759144078
 20
17.39379861590697
 30
0.0
 10
-14.64418186095738
 20
17.26707148122872
 30
0.0
 10
-14.75954267645024
 20
17.13398920427225
 30
0.0
 10
-14.86344606029384
 20
16.99074791623592
 30
0.0
 10
-14.95866989253695
 20
16.84123189234886
 30
0.0
 10
-15.043882974183
 20
16.68563588073263
 30
0.0
 10
-15.11965726060811
 20
16.52559798776084
 30
0.0
 10
-15.18164053372666
 20
16.35981275603435
 30
0.0
 10
-15.2321908449851
 20
16.19007878443173
 30
0.0
 10
-15.27410050180706
 20
16.016664893328
 30
0.0
 10
-15.30065062123537
 20
15.83825556757683
 30
0.0
 10
-15.32012218766362
 20
15.65574729289452
 30
0.0
 10
-15.32150076441333
 20
15.53240878627513
 30
0.0
 10
-15.32219804419348
 20
15.47002455790429
 30
0.0
  0
SPLINE
  5
98
330
1F
100
AcDbEntity
  8
0
  6
Continuous
 62
     7
370
    15
100
AcDbSpline
210
0.0
220
0.0
230
1.0
 70
     8
 71
     3
 72
    31
 73
    27
 74
     0
 42
0.000000001
 43
0.00000001
 40
0.0
 40
0.0
 40
0.0
 40
0.0
 40
0.0436332182657581
 40
0.0865377766972011
 40
0.129177336089892
 40
0.1714363236638287
 40
0.2134158945709081
 40
0.2552659545538503
 40
0.297369481156624
 40
0.3399407478985553
 40
0.3823474587518117
 40
0.4239529468152706
 40
0.4648711632610171
 40
0.5055722941182729
 40
0.5460025771083165
 40
0.5865679748069134
 40
0.6270647991481677
 40
0.6682706840331738
 40
0.7095492248503333
 40
0.7504281535131891
 40
0.7910961944485935
 40
0.8320271447794345
 40
0.8731359553359674
 40
0.9146107643654493
 40
0.9569559864804373
 40
1.0
 40
1.0
 40
1.0
 40
1.0
 10
-12.56696967880886
 20
12.80892680149404
 30
0.0
 10
-12.50417815445529
 20
12.80978950227267
 30
0.0
 10
-12.3796437027472
 20
12.81150049702175
 30
0.0
 10
-12.19441325504999
 20
12.82873381071146
 30
0.0
 10
-12.01251984233812
 20
12.85636877379869
 30
0.0
 10
-11.83421859169819
 20
12.89615724897475
 30
0.0
 10
-11.65971186246845
 20
12.94595432349427
 30
0.0
 10
-11.48827129110276
 20
13.00511405850574
 30
0.0
 10
-11.32172296438017
 20
13.07892138518803
 30
0.0
 10
-11.15796583008375
 20
13.16046981162425
 30
0.0
 10
-11.00121836301549
 20
13.25343409743479
 30
0.0
 10
-10.85158418300213
 20
13.3532890261024
 30
0.0
 10
-10.71283490526542
 20
13.46390352367593
 30
0.0
 10
-10.58150044711601
 20
13.58059441214863
 30
0.0
 10
-10.45880449708661
 20
13.70571453611812
 30
0.0
 10
-10.34557676856381
 20
13.83910122432606
 30
0.0
 10
-10.24219852880569
 20
13.98159641673479
 30
0.0
 10
-10.14701085567219
 20
14.13088565286358
 30
0.0
 10
-10.06209636467239
 20
14.28690742559246
 30
0.0
 10
-9.988111427826157
 20
14.44752555558453
 30
0.0
 10
-9.92534418910107
 20
14.61234453972123
 30
0.0
 10
-9.874673901767974
 20
14.78160210512315
 30
0.0
 10
-9.834967421285677
 20
14.95497678789309
 30
0.0
 10
-9.807608138024063
 20
15.13270072970011
 30
0.0
 10
-9.7884702564788
 20
15.31441839393216
 30
0.0
 10
-9.787027759297256
 20
15.43732510403415
 30
0.0
 10
-9.786300608296044
 20
15.49928136880173
 30
0.0
  0
SPLINE
  5
99
330
1F
100
AcDbEntity
  8
0
  6
Continuous
 62
     7
370
    15
100
AcDbSpline
210
0.0
220
0.0
230
1.0
 70
     8
 71
     3
 72
    31
 73
    27
 74
     0
 42
0.000000001
 43
0.00000001
 40
0.0
 40
0.0
 40
0.0
 40
0.0
 40
0.0429150821010496
 40
0.0851299705846988
 40
0.1264733185549985
 40
0.1674530378853888
 40
0.2079763328949881
 40
0.24824937806376
 40
0.2887499869834432
 40
0.3296698569108726
 40
0.3705372867119747
 40
0.4111285639171174
 40
0.4518189126736379
 40
0.4924058769342639
 40
0.5334858617420227
 40
0.5752630624415515
 40
0.6174406128021904
 40
0.6606716882923647
 40
0.7039402042434887
 40
0.7468675221598701
 40
0.7890793003947231
 40
0.8311040424574039
 40
0.8732379898547747
 40
0.915165769659333
 40
0.9573806581429823
 40
1.0
 40
1.0
 40
1.0
 40
1.0
 10
-9.786300608296042
 20
15.49928136880173
 30
0.0
 10
-9.787028341842149
 20
15.56081378368878
 30
0.0
 10
-9.7884719353841
 20
15.68287466328831
 30
0.0
 10
-9.807598996488284
 20
15.86332500517244
 30
0.0
 10
-9.834996326159285
 20
16.03977011741781
 30
0.0
 10
-9.874480096459552
 20
16.21151730285348
 30
0.0
 10
-9.925371089665605
 20
16.37861034118889
 30
0.0
 10
-9.98812238908536
 20
16.54089229773246
 30
0.0
 10
-10.0621185752736
 20
16.69896773738347
 30
0.0
 10
-10.14704206808034
 20
16.85244596194026
 30
0.0
 10
-10.24250220495895
 20
16.99972012943183
 30
0.0
 10
-10.34681318925159
 20
17.14051307787082
 30
0.0
 10
-10.4617760351648
 20
17.27218076567717
 30
0.0
 10
-10.58410610886438
 20
17.39797371058447
 30
0.0
 10
-10.71685900081861
 20
17.51520902458719
 30
0.0
 10
-10.85943336293361
 20
17.62392559778016
 30
0.0
 10
-11.01009832115798
 20
17.72674710970437
 30
0.0
 10
-11.1696234483007
 20
17.81950348618669
 30
0.0
 10
-11.33425890721421
 20
17.90516359410919
 30
0.0
 10
-11.50319423096448
 20
17.97855327124297
 30
0.0
 10
-11.67451559741112
 20
18.04091411641719
 30
0.0
 10
-11.84778734407085
 20
18.09410346729467
 30
0.0
 10
-12.02446789047934
 20
18.13294375055613
 30
0.0
 10
-12.20336340853016
 20
18.16057178387357
 30
0.0
 10
-12.38422639194588
 20
18.17980028399451
 30
0.0
 10
-12.50586194773006
 20
18.18126691362427
 30
0.0
 10
-12.56696967880886
 20
18.18200372457095
 30
0.0
  0
SPLINE
  5
9D
330
1F
100
AcDbEntity
  8
0
  6
Continuous
 62
     7
370
    15
100
AcDbSpline
210
0.0
220
0.0
230
1.0
 70
     8
 71
     3
 72
    23
 73
    19
 74
     0
 42
0.000000001
 43
0.00000001
 40
0.0
 40
0.0
 40
0.0
 40
0.0
 40
0.0700437554181556
 40
0.1392383167626463
 40
0.2081974550441379
 40
0.2791733744245679
 40
0.3499868116864764
 40
0.418353845662656
 40
0.4876095837571502
 40
0.5574110731083873
 40
0.5953301567632409
 40
0.6379640515652191
 40
0.6859127777112931
 40
0.738185164652479
 40
0.7961026471849428
 40
0.8585165439469269
 40
0.926657726468519
 40
1.0
 40
1.0
 40
1.0
 40
1.0
 10
-4.576044198039631
 20
16.96466598418634
 30
0.0
 10
-4.578334999538673
 20
17.01571728715784
 30
0.0
 10
-4.582888829396305
 20
17.11720095906915
 30
0.0
 10
-4.616735895416388
 20
17.26593385331822
 30
0.0
 10
-4.673612507711664
 20
17.40787577413424
 30
0.0
 10
-4.752455186331461
 20
17.54026980041831
 30
0.0
 10
-4.848142664974326
 20
17.66035520189811
 30
0.0
 10
-4.959357187470235
 20
17.76467141814074
 30
0.0
 10
-5.085836961604183
 20
17.84853079309575
 30
0.0
 10
-5.203490180763577
 20
17.90265688980122
 30
0.0
 10
-5.307995189699093
 20
17.93570460380136
 30
0.0
 10
-5.398767459773966
 20
17.95882738577376
 30
0.0
 10
-5.501257683484901
 20
17.97728884281813
 30
0.0
 10
-5.615499226310847
 20
17.99223765503409
 30
0.0
 10
-5.740606624922444
 20
18.0050346489679
 30
0.0
 10
-5.877654710516964
 20
18.01371777909243
 30
0.0
 10
-6.02612432043956
 20
18.01880042112156
 30
0.0
 10
-6.129194927580254
 20
18.01905252565869
 30
0.0
 10
-6.182624726885785
 20
18.01918321175044
 30
0.0
  0
SPLINE
  5
9E
330
1F
100
AcDbEntity
  8
0
  6
Continuous
 62
     7
370
    15
100
AcDbSpline
210
0.0
220
0.0
230
1.0
 70
     8
 71
     3
 72
    23
 73
    19
 74
     0
 42
0.000000001
 43
0.00000001
 40
0.0
 40
0.0
 40
0.0
 40
0.0
 40
0.0725383714064944
 40
0.1400338305012519
 40
0.202495680633624
 40
0.2605750556694164
 40
0.3132283378464659
 40
0.3615831937532652
 40
0.404878361295127
 40
0.4441274373055402
 40
0.5163996933371985
 40
0.5865066709977665
 40
0.6550853737960489
 40
0.7243837831470369
 40
0.7939735287256634
 40
0.8616376821817765
 40
0.9301109423064045
 40
1.0
 40
1.0
 40
1.0
 40
1.0
 10
-6.232234101885786
 20
15.88852415726326
 30
0.0
 10
-6.177950807911029
 20
15.88849610189076
 30
0.0
 10
-6.073158028033009
 20
15.88844194157256
 30
0.0
 10
-5.921780880166991
 20
15.89567227559916
 30
0.0
 10
-5.78133831606003
 20
15.90401895629027
 30
0.0
 10
-5.652261729311285
 20
15.9162398459999
 30
0.0
 10
-5.534492933891558
 20
15.9335141274355
 30
0.0
 10
-5.427835560076481
 20
15.95095256622985
 30
0.0
 10
-5.333116632538585
 20
15.97618086694433
 30
0.0
 10
-5.222265223620545
 20
16.01014986381102
 30
0.0
 10
-5.098742578912659
 20
16.06808475222453
 30
0.0
 10
-4.964362883734871
 20
16.15217669560743
 30
0.0
 10
-4.850479105640422
 20
16.25936598048476
 30
0.0
 10
-4.751930195801579
 20
16.37988504589141
 30
0.0
 10
-4.673723817256199
 20
16.51395918070726
 30
0.0
 10
-4.616472231196306
 20
16.65741282305305
 30
0.0
 10
-4.582833274265299
 20
16.80877477861385
 30
0.0
 10
-4.578322608632866
 20
16.91234897339396
 30
0.0
 10
-4.576044198039631
 20
16.96466598418634
 30
0.0
  0
CIRCLE
  5
9F
330
1F
100
AcDbEntity
  8
0
  6
Continuous
 62
     7
370
    15
100
AcDbCircle
 10
0.0
 20
0.0
 30
0.0
 40
34.99999999999998
  0
CIRCLE
  5
A0
330
1F
100
AcDbEntity
  8
0
  6
Continuous
 62
     7
370
    15
100
AcDbCircle
 10
0.0
 20
0.0
 30
0.0
 40
33.99999999999997
  0
LINE
  5
A1
330
1F
100
AcDbEntity
  8
0
  6
Continuous
 62
     7
370
    15
100
AcDbLine
 10
-7.343992916
 20
15.2512344938
 30
0.0
 11
-7.343992916
 21
12.320465263
 31
0.0
  0
LINE
  5
A2
330
1F
100
AcDbEntity
  8
0
  6
Continuous
 62
     7
370
    15
100
AcDbLine
 10
-6.8898763294
 20
15.2512344938
 30
0.0
 11
-7.343992916
 21
15.2512344938
 31
0.0
  0
LINE
  5
A3
330
1F
100
AcDbEntity
  8
0
  6
Continuous
 62
     7
370
    15
100
AcDbLine
 10
-7.9138647109
 20
18.670465263
 30
0.0
 11
-6.6685421948
 21
18.670465263
 31
0.0
  0
LINE
  5
A4
330
1F
100
AcDbEntity
  8
0
  6
Continuous
 62
     7
370
    15
100
AcDbLine
 10
-7.9138647109
 20
12.320465263
 30
0.0
 11
-7.9138647109
 21
18.670465263
 31
0.0
  0
LINE
  5
A5
330
1F
100
AcDbEntity
  8
0
  6
Continuous
 62
     7
370
    15
100
AcDbLine
 10
-7.343992916
 20
12.320465263
 30
0.0
 11
-7.9138647109
 21
12.320465263
 31
0.0
  0
LINE
  5
A6
330
1F
100
AcDbEntity
  8
0
  6
Continuous
 62
     7
370
    15
100
AcDbLine
 10
-1.0
 20
7.9372539332
 30
0.0
 11
-1.0
 21
9.0
 31
0.0
  0
LINE
  5
A7
330
1F
100
AcDbEntity
  8
0
  6
Continuous
 62
     7
370
    15
100
AcDbLine
 10
1.0
 20
9.0
 30
0.0
 11
1.0
 21
7.9372539332
 31
0.0
  0
LINE
  5
A8
330
1F
100
AcDbEntity
  8
0
  6
Continuous
 62
     7
370
    15
100
AcDbLine
 10
-17.9273262493
 20
12.320465263
 30
0.0
 11
-18.4971980442
 21
12.320465263
 31
0.0
  0
LINE
  5
A9
330
1F
100
AcDbEntity
  8
0
  6
Continuous
 62
     7
370
    15
100
AcDbLine
 10
-17.9273262493
 20
18.0191832118
 30
0.0
 11
-17.9273262493
 21
12.320465263
 31
0.0
  0
LINE
  5
AA
330
1F
100
AcDbEntity
  8
0
  6
Continuous
 62
     7
370
    15
100
AcDbLine
 10
-16.5433518903
 20
18.0191832118
 30
0.0
 11
-17.9273262493
 21
18.0191832118
 31
0.0
  0
LINE
  5
AB
330
1F
100
AcDbEntity
  8
0
  6
Continuous
 62
     7
370
    15
100
AcDbLine
 10
-16.5433518903
 20
18.670465263
 30
0.0
 11
-16.5433518903
 21
18.0191832118
 31
0.0
  0
LINE
  5
AC
330
1F
100
AcDbEntity
  8
0
  6
Continuous
 62
     7
370
    15
100
AcDbLine
 10
-19.8811724032
 20
18.670465263
 30
0.0
 11
-16.5433518903
 21
18.670465263
 31
0.0
  0
LINE
  5
AD
330
1F
100
AcDbEntity
  8
0
  6
Continuous
 62
     7
370
    15
100
AcDbLine
 10
-19.8811724032
 20
18.0191832118
 30
0.0
 11
-19.8811724032
 21
18.670465263
 31
0.0
  0
LINE
  5
AE
330
1F
100
AcDbEntity
  8
0
  6
Continuous
 62
     7
370
    15
100
AcDbLine
 10
-18.4971980442
 20
18.0191832118
 30
0.0
 11
-19.8811724032
 21
18.0191832118
 31
0.0
  0
LINE
  5
AF
330
1F
100
AcDbEntity
  8
0
  6
Continuous
 62
     7
370
    15
100
AcDbLine
 10
-18.4971980442
 20
12.320465263
 30
0.0
 11
-18.4971980442
 21
18.0191832118
 31
0.0
  0
LINE
  5
B0
330
1F
100
AcDbEntity
  8
0
  6
Continuous
 62
     7
370
    15
100
AcDbLine
 10
-7.343992916
 20
15.9025165451
 30
0.0
 11
-6.2322341019
 21
15.8885241573
 31
0.0
  0
LINE
  5
B1
330
1F
100
AcDbEntity
  8
0
  6
Continuous
 62
     7
370
    15
100
AcDbLine
 10
-7.343992916
 20
18.0191832118
 30
0.0
 11
-7.343992916
 21
15.9025165451
 31
0.0
  0
LINE
  5
B2
330
1F
100
AcDbEntity
  8
0
  6
Continuous
 62
     7
370
    15
100
AcDbLine
 10
-6.1826247269
 20
18.0191832118
 30
0.0
 11
-7.343992916
 21
18.0191832118
 31
0.0
  0
ARC
  5
B3
330
1F
100
AcDbEntity
  8
0
  6
Continuous
 62
     7
370
    15
100
AcDbCircle
 10
0.0
 20
9.0
 30
0.0
 40
1.0
100
AcDbArc
 50
0.0
 51
180.0
  0
ARC
  5
B4
330
1F
100
AcDbEntity
  8
0
  6
Continuous
 62
     7
370
    15
100
AcDbCircle
 10
0.0
 20
0.0
 30
0.0
 40
8.000000000000012
100
AcDbArc
 50
97.1807557815
 51
82.8192442185
  0
ENDSEC
  0
SECTION
  2
OBJECTS
  0
DICTIONARY
  5
C
330
0
100
AcDbDictionary
281
     1
  3
ACAD_GROUP
350
D
  3
ACAD_LAYOUT
350
1A
  3
ACAD_MLINESTYLE
350
17
  3
ACAD_PLOTSETTINGS
350
19
  3
ACAD_PLOTSTYLENAME
350
E
  3
ACAD_SCALELIST
350
47
  0
DICTIONARY
  5
D
102
{ACAD_REACTORS
330
C
102
}
330
C
100
AcDbDictionary
281
     1
  0
DICTIONARY
  5
1A
102
{ACAD_REACTORS
330
C
102
}
330
C
100
AcDbDictionary
281
     1
  3
Layout1
350
1E
  3
Layout2
350
26
  3
Model
350
22
  0
DICTIONARY
  5
17
102
{ACAD_REACTORS
330
C
102
}
330
C
100
AcDbDictionary
281
     1
  3
Standard
350
18
  0
DICTIONARY
  5
19
102
{ACAD_REACTORS
330
C
102
}
330
C
100
AcDbDictionary
281
     1
  0
ACDBDICTIONARYWDFLT
  5
E
102
{ACAD_REACTORS
330
C
102
}
330
C
100
AcDbDictionary
281
     1
  3
Normal
350
F
100
AcDbDictionaryWithDefault
340
F
  0
DICTIONARY
  5
47
102
{ACAD_REACTORS
330
C
102
}
330
C
100
AcDbDictionary
281
     1
  3
A0
350
48
  3
A1
350
49
  3
A2
350
4A
  3
A3
350
4B
  3
A4
350
4C
  3
A5
350
4D
  3
A6
350
4E
  3
A7
350
4F
  3
A8
350
50
  3
A9
350
51
  3
B0
350
52
  3
B1
350
53
  3
B2
350
54
  3
B3
350
55
  3
B4
350
56
  3
B5
350
57
  3
B6
350
58
  3
B7
350
59
  3
B8
350
5A
  3
B9
350
5B
  3
C0
350
5C
  3
C1
350
5D
  3
C2
350
5E
  3
C3
350
5F
  3
C4
350
60
  3
C5
350
61
  3
C6
350
62
  3
C7
350
63
  3
C8
350
64
  3
C9
350
65
  3
D0
350
66
  3
D1
350
67
  3
D2
350
68
  0
LAYOUT
  5
1E
102
{ACAD_REACTORS
330
1A
102
}
330
1A
100
AcDbPlotSettings
  1

  2
none_device
  4

  6

 40
0.0
 41
0.0
 42
0.0
 43
0.0
 44
0.0
 45
0.0
 46
0.0
 47
0.0
 48
0.0
 49
0.0
140
0.0
141
0.0
142
1.0
143
1.0
 70
   688
 72
     1
 73
     0
 74
     5
  7

 75
    16
147
1.0
148
0.0
149
0.0
100
AcDbLayout
  1
Layout1
 70
     1
 71
     1
 10
0.0
 20
0.0
 11
420.0
 21
297.0
 12
0.0
 22
0.0
 32
0.0
 14
1.0000000000E+20
 24
1.0000000000E+20
 34
1.0000000000E+20
 15
-1.0000000000E+20
 25
-1.0000000000E+20
 35
-1.0000000000E+20
146
0.0
 13
0.0
 23
0.0
 33
0.0
 16
1.0
 26
0.0
 36
0.0
 17
0.0
 27
1.0
 37
0.0
 76
     0
330
1B
  0
LAYOUT
  5
26
102
{ACAD_REACTORS
330
1A
102
}
330
1A
100
AcDbPlotSettings
  1

  2
none_device
  4

  6

 40
0.0
 41
0.0
 42
0.0
 43
0.0
 44
0.0
 45
0.0
 46
0.0
 47
0.0
 48
0.0
 49
0.0
140
0.0
141
0.0
142
1.0
143
1.0
 70
   688
 72
     1
 73
     0
 74
     5
  7

 75
    16
147
1.0
148
0.0
149
0.0
100
AcDbLayout
  1
Layout2
 70
     1
 71
     2
 10
0.0
 20
0.0
 11
0.0
 21
0.0
 12
0.0
 22
0.0
 32
0.0
 14
0.0
 24
0.0
 34
0.0
 15
0.0
 25
0.0
 35
0.0
146
0.0
 13
0.0
 23
0.0
 33
0.0
 16
1.0
 26
0.0
 36
0.0
 17
0.0
 27
1.0
 37
0.0
 76
     0
330
23
  0
LAYOUT
  5
22
102
{ACAD_REACTORS
330
1A
102
}
330
1A
100
AcDbPlotSettings
  1

  2
none_device
  4
ANSI_A_(11.00_x_8.50_Inches)
  6

 40
6.35
 41
19.05
 42
6.35000508
 43
19.05000254
 44
279.4
 45
215.9
 46
133.34999746
 47
88.89999873
 48
0.0
 49
0.0
140
0.0
141
0.0
142
0.1202142857
143
1.0
 70
  1696
 72
     0
 73
     0
 74
     0
  7

 75
     0
147
0.0179189148
148
-1300.4909072572
149
0.0
100
AcDbLayout
  1
Model
 70
     1
 71
     0
 10
0.0
 20
0.0
 11
420.0
 21
297.0
 12
0.0
 22
0.0
 32
0.0
 14
-35.0
 24
-35.0
 34
0.0
 15
35.0
 25
35.0
 35
0.0
146
0.0
 13
0.0
 23
0.0
 33
0.0
 16
1.0
 26
0.0
 36
0.0
 17
0.0
 27
1.0
 37
0.0
 76
     0
330
1F
331
29
  0
MLINESTYLE
  5
18
102
{ACAD_REACTORS
330
17
102
}
330
17
100
AcDbMlineStyle
  2
Standard
 70
     0
  3

 62
   256
 51
90.0
 52
90.0
 71
     2
 49
0.5
 62
   256
  6
BYLAYER
 49
-0.5
 62
   256
  6
BYLAYER
  0
ACDBPLACEHOLDER
  5
F
102
{ACAD_REACTORS
330
E
102
}
330
E
  0
SCALE
  5
48
102
{ACAD_REACTORS
330
47
102
}
330
47
100
AcDbScale
 70
     0
300
1:1
140
1.0
141
1.0
290
     1
  0
SCALE
  5
49
102
{ACAD_REACTORS
330
47
102
}
330
47
100
AcDbScale
 70
     0
300
1:2
140
1.0
141
2.0
290
     0
  0
SCALE
  5
4A
102
{ACAD_REACTORS
330
47
102
}
330
47
100
AcDbScale
 70
     0
300
1:4
140
1.0
141
4.0
290
     0
  0
SCALE
  5
4B
102
{ACAD_REACTORS
330
47
102
}
330
47
100
AcDbScale
 70
     0
300
1:5
140
1.0
141
5.0
290
     0
  0
SCALE
  5
4C
102
{ACAD_REACTORS
330
47
102
}
330
47
100
AcDbScale
 70
     0
300
1:8
140
1.0
141
8.0
290
     0
  0
SCALE
  5
4D
102
{ACAD_REACTORS
330
47
102
}
330
47
100
AcDbScale
 70
     0
300
1:10
140
1.0
141
10.0
290
     0
  0
SCALE
  5
4E
102
{ACAD_REACTORS
330
47
102
}
330
47
100
AcDbScale
 70
     0
300
1:16
140
1.0
141
16.0
290
     0
  0
SCALE
  5
4F
102
{ACAD_REACTORS
330
47
102
}
330
47
100
AcDbScale
 70
     0
300
1:20
140
1.0
141
20.0
290
     0
  0
SCALE
  5
50
102
{ACAD_REACTORS
330
47
102
}
330
47
100
AcDbScale
 70
     0
300
1:30
140
1.0
141
30.0
290
     0
  0
SCALE
  5
51
102
{ACAD_REACTORS
330
47
102
}
330
47
100
AcDbScale
 70
     0
300
1:40
140
1.0
141
40.0
290
     0
  0
SCALE
  5
52
102
{ACAD_REACTORS
330
47
102
}
330
47
100
AcDbScale
 70
     0
300
1:50
140
1.0
141
50.0
290
     0
  0
SCALE
  5
53
102
{ACAD_REACTORS
330
47
102
}
330
47
100
AcDbScale
 70
     0
300
1:100
140
1.0
141
100.0
290
     0
  0
SCALE
  5
54
102
{ACAD_REACTORS
330
47
102
}
330
47
100
AcDbScale
 70
     0
300
2:1
140
2.0
141
1.0
290
     0
  0
SCALE
  5
55
102
{ACAD_REACTORS
330
47
102
}
330
47
100
AcDbScale
 70
     0
300
4:1
140
4.0
141
1.0
290
     0
  0
SCALE
  5
56
102
{ACAD_REACTORS
330
47
102
}
330
47
100
AcDbScale
 70
     0
300
8:1
140
8.0
141
1.0
290
     0
  0
SCALE
  5
57
102
{ACAD_REACTORS
330
47
102
}
330
47
100
AcDbScale
 70
     0
300
10:1
140
10.0
141
1.0
290
     0
  0
SCALE
  5
58
102
{ACAD_REACTORS
330
47
102
}
330
47
100
AcDbScale
 70
     0
300
100:1
140
100.0
141
1.0
290
     0
  0
SCALE
  5
59
102
{ACAD_REACTORS
330
47
102
}
330
47
100
AcDbScale
 70
     0
300
1/128" = 1'-0"
140
0.0078125
141
12.0
290
     0
  0
SCALE
  5
5A
102
{ACAD_REACTORS
330
47
102
}
330
47
100
AcDbScale
 70
     0
300
1/64" = 1'-0"
140
0.015625
141
12.0
290
     0
  0
SCALE
  5
5B
102
{ACAD_REACTORS
330
47
102
}
330
47
100
AcDbScale
 70
     0
300
1/32" = 1'-0"
140
0.03125
141
12.0
290
     0
  0
SCALE
  5
5C
102
{ACAD_REACTORS
330
47
102
}
330
47
100
AcDbScale
 70
     0
300
1/16" = 1'-0"
140
0.0625
141
12.0
290
     0
  0
SCALE
  5
5D
102
{ACAD_REACTORS
330
47
102
}
330
47
100
AcDbScale
 70
     0
300
3/32" = 1'-0"
140
0.09375
141
12.0
290
     0
  0
SCALE
  5
5E
102
{ACAD_REACTORS
330
47
102
}
330
47
100
AcDbScale
 70
     0
300
1/8" = 1'-0"
140
0.125
141
12.0
290
     0
  0
SCALE
  5
5F
102
{ACAD_REACTORS
330
47
102
}
330
47
100
AcDbScale
 70
     0
300
3/16" = 1'-0"
140
0.1875
141
12.0
290
     0
  0
SCALE
  5
60
102
{ACAD_REACTORS
330
47
102
}
330
47
100
AcDbScale
 70
     0
300
1/4" = 1'-0"
140
0.25
141
12.0
290
     0
  0
SCALE
  5
61
102
{ACAD_REACTORS
330
47
102
}
330
47
100
AcDbScale
 70
     0
300
3/8" = 1'-0"
140
0.375
141
12.0
290
     0
  0
SCALE
  5
62
102
{ACAD_REACTORS
330
47
102
}
330
47
100
AcDbScale
 70
     0
300
1/2" = 1'-0"
140
0.5
141
12.0
290
     0
  0
SCALE
  5
63
102
{ACAD_REACTORS
330
47
102
}
330
47
100
AcDbScale
 70
     0
300
3/4" = 1'-0"
140
0.75
141
12.0
290
     0
  0
SCALE
  5
64
102
{ACAD_REACTORS
330
47
102
}
330
47
100
AcDbScale
 70
     0
300
1" = 1'-0"
140
1.0
141
12.0
290
     0
  0
SCALE
  5
65
102
{ACAD_REACTORS
330
47
102
}
330
47
100
AcDbScale
 70
     0
300
1-1/2" = 1'-0"
140
1.5
141
12.0
290
     0
  0
SCALE
  5
66
102
{ACAD_REACTORS
330
47
102
}
330
47
100
AcDbScale
 70
     0
300
3" = 1'-0"
140
3.0
141
12.0
290
     0
  0
SCALE
  5
67
102
{ACAD_REACTORS
330
47
102
}
330
47
100
AcDbScale
 70
     0
300
6" = 1'-0"
140
6.0
141
12.0
290
     0
  0
SCALE
  5
68
102
{ACAD_REACTORS
330
47
102
}
330
47
100
AcDbScale
 70
     0
300
1'-0" = 1'-0"
140
12.0
141
12.0
290
     0
  0
ENDSEC
  0
EOF
