  0
SECTION
  2
HEADER
  9
$ACADVER
  1
AC1015
  9
$ACADMAINTVER
 70
     6
  9
$DWGCODEPAGE
  3
ANSI_1252
  9
$INSBASE
 10
0.0
 20
0.0
 30
0.0
  9
$EXTMIN
 10
-50.0
 20
-58.0237020536
 30
0.0
  9
$EXTMAX
 10
50.5
 20
58.0237020536
 30
0.0
  9
$LIMMIN
 10
0.0
 20
0.0
  9
$LIMMAX
 10
420.0
 20
297.0
  9
$ORTHOMODE
 70
     0
  9
$REGENMODE
 70
     1
  9
$FILLMODE
 70
     1
  9
$QTEXTMODE
 70
     0
  9
$MIRRTEXT
 70
     1
  9
$LTSCALE
 40
1.0
  9
$ATTMODE
 70
     1
  9
$TEXTSIZE
 40
6.35
  9
$TRACEWID
 40
1.0
  9
$TEXTSTYLE
  7
Standard
  9
$CLAYER
  8
0
  9
$CELTYPE
  6
ByLayer
  9
$CECOLOR
 62
   256
  9
$CELTSCALE
 40
1.0
  9
$DISPSILH
 70
     0
  9
$DIMSCALE
 40
1.0
  9
$DIMASZ
 40
5.9944
  9
$DIMEXO
 40
0.9906
  9
$DIMDLI
 40
3.75
  9
$DIMRND
 40
0.0
  9
$DIMDLE
 40
0.0
  9
$DIMEXE
 40
0.9906
  9
$DIMTP
 40
0.0
  9
$DIMTM
 40
0.0
  9
$DIMTXT
 40
6.35
  9
$DIMCEN
 40
2.5
  9
$DIMTSZ
 40
0.0
  9
$DIMTOL
 70
     0
  9
$DIMLIM
 70
     0
  9
$DIMTIH
 70
     1
  9
$DIMTOH
 70
     1
  9
$DIMSE1
 70
     0
  9
$DIMSE2
 70
     0
  9
$DIMTAD
 70
     1
  9
$DIMZIN
 70
     0
  9
$DIMBLK
  1

  9
$DIMASO
 70
     1
  9
$DIMSHO
 70
     1
  9
$DIMPOST
  1

  9
$DIMAPOST
  1

  9
$DIMALT
 70
     0
  9
$DIMALTD
 70
     3
  9
$DIMALTF
 40
0.0393700787
  9
$DIMLFAC
 40
1.0
  9
$DIMTOFL
 70
     1
  9
$DIMTVP
 40
0.0
  9
$DIMTIX
 70
     0
  9
$DIMSOXD
 70
     0
  9
$DIMSAH
 70
     0
  9
$DIMBLK1
  1

  9
$DIMBLK2
  1

  9
$DIMSTYLE
  2
ISO-25
  9
$DIMCLRD
 70
     0
  9
$DIMCLRE
 70
     0
  9
$DIMCLRT
 70
     0
  9
$DIMTFAC
 40
1.0
  9
$DIMGAP
 40
1.524
  9
$DIMJUST
 70
     0
  9
$DIMSD1
 70
     0
  9
$DIMSD2
 70
     0
  9
$DIMTOLJ
 70
     0
  9
$DIMTZIN
 70
     0
  9
$DIMALTZ
 70
     0
  9
$DIMALTTZ
 70
     0
  9
$DIMUPT
 70
     0
  9
$DIMDEC
 70
     2
  9
$DIMTDEC
 70
     2
  9
$DIMALTU
 70
     2
  9
$DIMALTTD
 70
     3
  9
$DIMTXSTY
  7
Standard
  9
$DIMAUNIT
 70
     0
  9
$DIMADEC
 70
     2
  9
$DIMALTRND
 40
0.0
  9
$DIMAZIN
 70
     0
  9
$DIMDSEP
 70
    44
  9
$DIMATFIT
 70
     3
  9
$DIMFRAC
 70
     0
  9
$DIMLDRBLK
  1

  9
$DIMLUNIT
 70
     2
  9
$DIMLWD
 70
    -2
  9
$DIMLWE
 70
    -2
  9
$DIMTMOVE
 70
     0
  9
$LUNITS
 70
     2
  9
$LUPREC
 70
     2
  9
$SKETCHINC
 40
1.0
  9
$FILLETRAD
 40
10.0
  9
$AUNITS
 70
     0
  9
$AUPREC
 70
     2
  9
$MENU
  1
.
  9
$ELEVATION
 40
0.0
  9
$PELEVATION
 40
0.0
  9
$THICKNESS
 40
0.0
  9
$LIMCHECK
 70
     0
  9
$CHAMFERA
 40
0.0
  9
$CHAMFERB
 40
0.0
  9
$CHAMFERC
 40
0.0
  9
$CHAMFERD
 40
0.0
  9
$SKPOLY
 70
     0
  9
$TDCREATE
 40
2457611.501005949
  9
$TDUCREATE
 40
2457611.792672616
  9
$TDUPDATE
 40
2457611.501033009
  9
$TDUUPDATE
 40
2457611.792699676
  9
$TDINDWG
 40
0.0000000116
  9
$TDUSRTIMER
 40
0.0000000116
  9
$USRTIMER
 70
     1
  9
$ANGBASE
 50
0.0
  9
$ANGDIR
 70
     0
  9
$PDMODE
 70
     0
  9
$PDSIZE
 40
-1.0
  9
$PLINEWID
 40
0.0
  9
$SPLFRAME
 70
     0
  9
$SPLINETYPE
 70
     6
  9
$SPLINESEGS
 70
     8
  9
$HANDSEED
  5
108
  9
$SURFTAB1
 70
     6
  9
$SURFTAB2
 70
     6
  9
$SURFTYPE
 70
     6
  9
$SURFU
 70
     6
  9
$SURFV
 70
     6
  9
$UCSBASE
  2

  9
$UCSNAME
  2

  9
$UCSORG
 10
0.0
 20
0.0
 30
0.0
  9
$UCSXDIR
 10
1.0
 20
0.0
 30
0.0
  9
$UCSYDIR
 10
0.0
 20
1.0
 30
0.0
  9
$UCSORTHOREF
  2

  9
$UCSORTHOVIEW
 70
     0
  9
$UCSORGTOP
 10
0.0
 20
0.0
 30
0.0
  9
$UCSORGBOTTOM
 10
0.0
 20
0.0
 30
0.0
  9
$UCSORGLEFT
 10
0.0
 20
0.0
 30
0.0
  9
$UCSORGRIGHT
 10
0.0
 20
0.0
 30
0.0
  9
$UCSORGFRONT
 10
0.0
 20
0.0
 30
0.0
  9
$UCSORGBACK
 10
0.0
 20
0.0
 30
0.0
  9
$PUCSBASE
  2

  9
$PUCSNAME
  2

  9
$PUCSORG
 10
0.0
 20
0.0
 30
0.0
  9
$PUCSXDIR
 10
1.0
 20
0.0
 30
0.0
  9
$PUCSYDIR
 10
0.0
 20
1.0
 30
0.0
  9
$PUCSORTHOREF
  2

  9
$PUCSORTHOVIEW
 70
     0
  9
$PUCSORGTOP
 10
0.0
 20
0.0
 30
0.0
  9
$PUCSORGBOTTOM
 10
0.0
 20
0.0
 30
0.0
  9
$PUCSORGLEFT
 10
0.0
 20
0.0
 30
0.0
  9
$PUCSORGRIGHT
 10
0.0
 20
0.0
 30
0.0
  9
$PUCSORGFRONT
 10
0.0
 20
0.0
 30
0.0
  9
$PUCSORGBACK
 10
0.0
 20
0.0
 30
0.0
  9
$USERI1
 70
     0
  9
$USERI2
 70
     0
  9
$USERI3
 70
     0
  9
$USERI4
 70
     0
  9
$USERI5
 70
     0
  9
$USERR1
 40
0.0
  9
$USERR2
 40
0.0
  9
$USERR3
 40
0.0
  9
$USERR4
 40
0.0
  9
$USERR5
 40
0.0
  9
$WORLDVIEW
 70
     1
  9
$SHADEDGE
 70
     3
  9
$SHADEDIF
 70
    70
  9
$TILEMODE
 70
     1
  9
$MAXACTVP
 70
    64
  9
$PINSBASE
 10
0.0
 20
0.0
 30
0.0
  9
$PLIMCHECK
 70
     0
  9
$PEXTMIN
 10
1.0000000000E+20
 20
1.0000000000E+20
 30
1.0000000000E+20
  9
$PEXTMAX
 10
-1.0000000000E+20
 20
-1.0000000000E+20
 30
-1.0000000000E+20
  9
$PLIMMIN
 10
0.0
 20
0.0
  9
$PLIMMAX
 10
420.0
 20
297.0
  9
$UNITMODE
 70
     0
  9
$VISRETAIN
 70
     1
  9
$PLINEGEN
 70
     0
  9
$PSLTSCALE
 70
     1
  9
$TREEDEPTH
 70
  3020
  9
$CMLSTYLE
  2
Standard
  9
$CMLJUST
 70
     0
  9
$CMLSCALE
 40
20.0
  9
$PROXYGRAPHICS
 70
     1
  9
$MEASUREMENT
 70
     1
  9
$CELWEIGHT
370
    -1
  9
$ENDCAPS
280
     0
  9
$JOINSTYLE
280
     0
  9
$LWDISPLAY
290
     1
  9
$INSUNITS
 70
     4
  9
$HYPERLINKBASE
  1

  9
$STYLESHEET
  1

  9
$XEDIT
290
     1
  9
$CEPSNTYPE
380
     0
  9
$PSTYLEMODE
290
     1
  9
$FINGERPRINTGUID
  2
{22FDB541-3611-4848-8862-0F90A560D588}
  9
$VERSIONGUID
  2
{FAEB1C32-E019-11D5-929B-00C0DF256EC4}
  9
$EXTNAMES
290
     1
  9
$PSVPSCALE
 40
0.0
  9
$OLESTARTUP
290
     0
  0
ENDSEC
  0
SECTION
  2
CLASSES
  0
CLASS
  1
ACDBDICTIONARYWDFLT
  2
AcDbDictionaryWithDefault
  3
ObjectDBX Classes
 90
        0
280
     0
281
     0
  0
CLASS
  1
VISUALSTYLE
  2
AcDbVisualStyle
  3
ObjectDBX Classes
 90
     4095
280
     0
281
     0
  0
CLASS
  1
MATERIAL
  2
AcDbMaterial
  3
ObjectDBX Classes
 90
     1153
280
     0
281
     0
  0
CLASS
  1
SCALE
  2
AcDbScale
  3
ObjectDBX Classes
 90
     1153
280
     0
281
     0
  0
CLASS
  1
TABLESTYLE
  2
AcDbTableStyle
  3
ObjectDBX Classes
 90
     4095
280
     0
281
     0
  0
CLASS
  1
MLEADERSTYLE
  2
AcDbMLeaderStyle
  3
ACDB_MLEADERSTYLE_CLASS
 90
     4095
280
     0
281
     0
  0
CLASS
  1
SUN
  2
AcDbSun
  3
SCENEOE
 90
     1153
280
     0
281
     0
  0
CLASS
  1
ACDBPLACEHOLDER
  2
AcDbPlaceHolder
  3
ObjectDBX Classes
 90
        0
280
     0
281
     0
  0
CLASS
  1
LAYOUT
  2
AcDbLayout
  3
ObjectDBX Classes
 90
        0
280
     0
281
     0
  0
ENDSEC
  0
SECTION
  2
TABLES
  0
TABLE
  2
VPORT
  5
8
330
0
100
AcDbSymbolTable
 70
     1
  0
VPORT
  5
29
330
8
100
AcDbSymbolTableRecord
100
AcDbViewportTableRecord
  2
*Active
 70
     0
 10
0.0
 20
0.0
 11
1.0
 21
1.0
 12
0.25
 22
0.0
 13
0.0
 23
0.0
 14
10.0
 24
10.0
 15
10.0
 25
10.0
 16
0.0
 26
0.0
 36
1.0
 17
0.0
 27
0.0
 37
0.0
 40
118.3683521893
 41
0.8660254038
 42
50.0
 43
0.0
 44
0.0
 50
0.0
 51
0.0
 71
     0
 72
   100
 73
     1
 74
     3
 75
     0
 76
     0
 77
     0
 78
     0
281
     0
 65
     1
110
0.0
120
0.0
130
0.0
111
1.0
121
0.0
131
0.0
112
0.0
122
1.0
132
0.0
 79
     0
146
0.0
  0
ENDTAB
  0
TABLE
  2
LTYPE
  5
5
330
0
100
AcDbSymbolTable
 70
     6
  0
LTYPE
  5
14
330
5
100
AcDbSymbolTableRecord
100
AcDbLinetypeTableRecord
  2
ByBlock
 70
     0
  3

 72
    65
 73
     0
 40
0.0
  0
LTYPE
  5
15
330
5
100
AcDbSymbolTableRecord
100
AcDbLinetypeTableRecord
  2
ByLayer
 70
     0
  3

 72
    65
 73
     0
 40
0.0
  0
LTYPE
  5
16
330
5
100
AcDbSymbolTableRecord
100
AcDbLinetypeTableRecord
  2
Continuous
 70
     0
  3
Solid line
 72
    65
 73
     0
 40
0.0
  0
LTYPE
  5
6E
330
5
100
AcDbSymbolTableRecord
100
AcDbLinetypeTableRecord
  2
HIDDEN
 70
     0
  3
Hidden __ __ __ __ __ __ __ __ __ __ __ __ __ __
 72
    65
 73
     2
 40
1.905
 49
1.27
 74
     0
 49
-0.635
 74
     0
  0
LTYPE
  5
6F
330
5
100
AcDbSymbolTableRecord
100
AcDbLinetypeTableRecord
  2
PHANTOM
 70
     0
  3
Phantom ______  __  __  ______  __  __  ______
 72
    65
 73
     6
 40
12.7
 49
6.35
 74
     0
 49
-1.27
 74
     0
 49
1.27
 74
     0
 49
-1.27
 74
     0
 49
1.27
 74
     0
 49
-1.27
 74
     0
  0
LTYPE
  5
70
330
5
100
AcDbSymbolTableRecord
100
AcDbLinetypeTableRecord
  2
CENTER
 70
     0
  3
Center ____ _ ____ _ ____ _ ____ _ ____ _ ____
 72
    65
 73
     4
 40
10.16
 49
6.35
 74
     0
 49
-1.27
 74
     0
 49
1.27
 74
     0
 49
-1.27
 74
     0
  0
LTYPE
  5
71
330
5
100
AcDbSymbolTableRecord
100
AcDbLinetypeTableRecord
  2
CENTERX2
 70
     0
  3
Center (2x) ________  __  ________  __  _____
 72
    65
 73
     4
 40
20.32
 49
12.7
 74
     0
 49
-2.54
 74
     0
 49
2.54
 74
     0
 49
-2.54
 74
     0
  0
LTYPE
  5
72
330
5
100
AcDbSymbolTableRecord
100
AcDbLinetypeTableRecord
  2
DOT2
 70
     0
  3
Dot (.5x) ........................................
 72
    65
 73
     2
 40
0.635
 49
0.0
 74
     0
 49
-0.635
 74
     0
  0
ENDTAB
  0
TABLE
  2
LAYER
  5
2
330
0
100
AcDbSymbolTable
 70
     1
  0
LAYER
  5
10
330
2
100
AcDbSymbolTableRecord
100
AcDbLayerTableRecord
  2
0
 70
     0
 62
     7
  6
Continuous
370
    -3
390
F
  0
ENDTAB
  0
TABLE
  2
STYLE
  5
3
330
0
100
AcDbSymbolTable
 70
     1
  0
STYLE
  5
11
330
3
100
AcDbSymbolTableRecord
100
AcDbTextStyleTableRecord
  2
Standard
 70
     0
 40
0.0
 41
1.0
 50
0.0
 71
     0
 42
6.35
  3
txt
  4

  0
ENDTAB
  0
TABLE
  2
VIEW
  5
6
330
0
100
AcDbSymbolTable
 70
     0
  0
ENDTAB
  0
TABLE
  2
UCS
  5
7
330
0
100
AcDbSymbolTable
 70
     0
  0
ENDTAB
  0
TABLE
  2
APPID
  5
9
330
0
100
AcDbSymbolTable
 70
     1
  0
APPID
  5
12
330
9
100
AcDbSymbolTableRecord
100
AcDbRegAppTableRecord
  2
ACAD
 70
     0
  0
ENDTAB
  0
TABLE
  2
DIMSTYLE
  5
A
330
0
100
AcDbSymbolTable
 70
     1
100
AcDbDimStyleTable
  0
DIMSTYLE
105
27
330
A
100
AcDbSymbolTableRecord
100
AcDbDimStyleTableRecord
  2
ISO-25
 70
     0
 41
2.5
 42
0.625
 43
3.75
 44
1.25
 73
     0
 74
     0
 77
     1
 78
     8
140
2.5
141
2.5
143
0.0393700787
147
0.625
171
     3
172
     1
178
     0
271
     2
272
     2
274
     3
278
    44
283
     0
284
     8
340
11
  0
ENDTAB
  0
TABLE
  2
BLOCK_RECORD
  5
1
330
0
100
AcDbSymbolTable
 70
     1
  0
BLOCK_RECORD
  5
1F
330
1
100
AcDbSymbolTableRecord
100
AcDbBlockTableRecord
  2
*Model_Space
340
22
  0
BLOCK_RECORD
  5
1B
330
1
100
AcDbSymbolTableRecord
100
AcDbBlockTableRecord
  2
*Paper_Space
340
1E
  0
BLOCK_RECORD
  5
23
330
1
100
AcDbSymbolTableRecord
100
AcDbBlockTableRecord
  2
*Paper_Space0
340
26
  0
ENDTAB
  0
ENDSEC
  0
SECTION
  2
BLOCKS
  0
BLOCK
  5
20
330
1F
100
AcDbEntity
  8
0
100
AcDbBlockBegin
  2
*Model_Space
 70
     0
 10
0.0
 20
0.0
 30
0.0
  3
*Model_Space
  1

  0
ENDBLK
  5
21
330
1F
100
AcDbEntity
  8
0
100
AcDbBlockEnd
  0
BLOCK
  5
1C
330
1B
100
AcDbEntity
 67
     1
  8
0
100
AcDbBlockBegin
  2
*Paper_Space
 70
     0
 10
0.0
 20
0.0
 30
0.0
  3
*Paper_Space
  1

  0
ENDBLK
  5
1D
330
1B
100
AcDbEntity
 67
     1
  8
0
100
AcDbBlockEnd
  0
BLOCK
  5
24
330
23
100
AcDbEntity
  8
0
100
AcDbBlockBegin
  2
*Paper_Space0
 70
     0
 10
0.0
 20
0.0
 30
0.0
  3
*Paper_Space0
  1

  0
ENDBLK
  5
25
330
23
100
AcDbEntity
  8
0
100
AcDbBlockEnd
  0
ENDSEC
  0
SECTION
  2
ENTITIES
  0
SPLINE
  5
73
330
1F
100
AcDbEntity
  8
0
  6
Continuous
 62
     7
370
    15
100
AcDbSpline
210
0.0
220
0.0
230
1.0
 70
     8
 71
     3
 72
    23
 73
    19
 74
     0
 42
0.000000001
 43
0.00000001
 40
0.0
 40
0.0
 40
0.0
 40
0.0
 40
0.0652265038922759
 40
0.1285689957067288
 40
0.190320378104467
 40
0.251377988624063
 40
0.312387528333694
 40
0.3737887042767234
 40
0.4364311597804502
 40
0.5005667553098538
 40
0.5646867953847436
 40
0.6271355178835134
 40
0.6884554088949795
 40
0.7492457464637473
 40
0.8101551773646782
 40
0.8716709256529235
 40
0.9347734961077241
 40
1.0
 40
1.0
 40
1.0
 40
1.0
 10
-9.058200652996177
 20
15.81446565440115
 30
0.0
 10
-9.061012673432735
 20
15.70024285886852
 30
0.0
 10
-9.06655549148768
 20
15.4750964960848
 30
0.0
 10
-9.114033130730718
 20
15.14463624737507
 30
0.0
 10
-9.188493230683589
 20
14.82697169804304
 30
0.0
 10
-9.294803599329189
 20
14.52263315657997
 30
0.0
 10
-9.431284110255433
 20
14.2312995766063
 30
0.0
 10
-9.599387063593007
 20
13.95373753170637
 30
0.0
 10
-9.797400403082314
 20
13.68985602749191
 30
0.0
 10
-10.02274711852848
 20
13.44254590630039
 30
0.0
 10
-10.26840329475397
 20
13.21576478089913
 30
0.0
 10
-10.53189249310736
 20
13.01815482073018
 30
0.0
 10
-10.80728894496589
 20
12.84811248038649
 30
0.0
 10
-11.09813655834072
 20
12.71243352904955
 30
0.0
 10
-11.40057805372585
 20
12.60399018767062
 30
0.0
 10
-11.71732026847213
 20
12.53005327318512
 30
0.0
 10
-12.04687901651684
 20
12.48236106614209
 30
0.0
 10
-12.27161640913009
 20
12.47688461575179
 30
0.0
 10
-12.38584488376541
 20
12.47410107106781
 30
0.0
  0
SPLINE
  5
74
330
1F
100
AcDbEntity
  8
0
  6
Continuous
 62
     7
370
    15
100
AcDbSpline
210
0.0
220
0.0
230
1.0
 70
     8
 71
     3
 72
    23
 73
    19
 74
     0
 42
0.000000001
 43
0.00000001
 40
0.0
 40
0.0
 40
0.0
 40
0.0
 40
0.0665700352151799
 40
0.1307490414821778
 40
0.193412800029504
 40
0.2549893988897086
 40
0.3161135558759002
 40
0.3772617579089842
 40
0.4394007841555532
 40
0.502970589371976
 40
0.5665249763607313
 40
0.6282311025133088
 40
0.689090610599863
 40
0.7493446689958041
 40
0.8101695933722064
 40
0.8716098243170439
 40
0.9348691840727634
 40
1.0
 40
1.0
 40
1.0
 40
1.0
 10
-12.43672629402182
 20
19.14974209670884
 30
0.0
 10
-12.31914587330296
 20
19.14676398413562
 30
0.0
 10
-12.08820822611126
 20
19.14091472533449
 30
0.0
 10
-11.74880091166918
 20
19.09613978031261
 30
0.0
 10
-11.42477838165289
 20
19.01867814422947
 30
0.0
 10
-11.11350112982681
 20
18.91551244744301
 30
0.0
 10
-10.81869244376554
 20
18.77789091968075
 30
0.0
 10
-10.53813331024691
 20
18.61154786483619
 30
0.0
 10
-10.2724912677348
 20
18.41474057537477
 30
0.0
 10
-10.02534676124754
 20
18.18899040665828
 30
0.0
 10
-9.799183437162307
 20
17.94336614029401
 30
0.0
 10
-9.599927900645175
 20
17.68124193201885
 30
0.0
 10
-9.432936882017641
 20
17.40420267640533
 30
0.0
 10
-9.295802668160695
 20
17.11308088366963
 30
0.0
 10
-9.188218047716187
 20
16.80853494177277
 30
0.0
 10
-9.113979211306088
 20
16.48894125108485
 30
0.0
 10
-9.066557138885761
 20
16.15637054195412
 30
0.0
 10
-9.061013085589376
 20
15.92953608738389
 30
0.0
 10
-9.058200652996177
 20
15.81446565440115
 30
0.0
  0
SPLINE
  5
75
330
1F
100
AcDbEntity
  8
0
  6
Continuous
 62
     7
370
    15
100
AcDbSpline
210
0.0
220
0.0
230
1.0
 70
     8
 71
     3
 72
    31
 73
    27
 74
     0
 42
0.000000001
 43
0.00000001
 40
0.0
 40
0.0
 40
0.0
 40
0.0
 40
0.043208986171337
 40
0.0858728716306189
 40
0.1281200066967028
 40
0.1701519644541991
 40
0.2119176209878615
 40
0.2537530026191241
 40
0.2960064088559508
 40
0.3384433571447845
 40
0.3810153681620341
 40
0.4228204794407614
 40
0.4640890557943133
 40
0.5051258486836867
 40
0.5459749706852414
 40
0.5869852111338597
 40
0.6283385916346628
 40
0.6700838015912064
 40
0.7119916023637222
 40
0.7530391548630189
 40
0.7940493953116377
 40
0.8348855427015817
 40
0.8754983129295132
 40
0.9165472998303793
 40
0.9580037786449609
 40
1.0
 40
1.0
 40
1.0
 40
1.0
 10
-15.7338416786372
 20
15.7839368082473
 30
0.0
 10
-15.73287169707793
 20
15.85947036510952
 30
0.0
 10
-15.73094397071116
 20
16.0095845891858
 30
0.0
 10
-15.70773618580344
 20
16.23249970660504
 30
0.0
 10
-15.67405995647124
 20
16.4518298999823
 30
0.0
 10
-15.62579648656019
 20
16.66695147700329
 30
0.0
 10
-15.56267446217041
 20
16.87733783496316
 30
0.0
 10
-15.48819435533378
 20
17.08443993325196
 30
0.0
 10
-15.39722635018515
 20
17.28615897490436
 30
0.0
 10
-15.29439146017181
 20
17.48345055700885
 30
0.0
 10
-15.17961646561612
 20
17.67323918616896
 30
0.0
 10
-15.05284189161038
 20
17.85263500131457
 30
0.0
 10
-14.91852058024723
 20
18.02314338119094
 30
0.0
 10
-14.77126699466492
 20
18.18034580244178
 30
0.0
 10
-14.61593430123884
 20
18.32881543617779
 30
0.0
 10
-14.45000267233818
 20
18.46627065134306
 30
0.0
 10
-14.27448460041781
 20
18.59395091950707
 30
0.0
 10
-14.08862485427169
 20
18.70901353832443
 30
0.0
 10
-13.89700312699019
 20
18.81307939684173
 30
0.0
 10
-13.69946954444762
 20
18.90238189791043
 30
0.0
 10
-13.49870690757309
 20
18.97902832379383
 30
0.0
 10
-13.29377490347971
 20
19.04115096379418
 30
0.0
 10
-13.0852177312768
 20
19.09019480052252
 30
0.0
 10
-12.87258020783744
 20
19.12359099939429
 30
0.0
 10
-12.65603173444474
 20
19.146857976133
 30
0.0
 10
-12.51014262720692
 20
19.14877658688504
 30
0.0
 10
-12.43672629402182
 20
19.14974209670884
 30
0.0
  0
SPLINE
  5
76
330
1F
100
AcDbEntity
  8
0
  6
Continuous
 62
     7
370
    15
100
AcDbSpline
210
0.0
220
0.0
230
1.0
 70
     8
 71
     3
 72
    23
 73
    19
 74
     0
 42
0.000000001
 43
0.00000001
 40
0.0
 40
0.0
 40
0.0
 40
0.0
 40
0.065818876843307
 40
0.1297465269068313
 40
0.1920719544880059
 40
0.2534594242982025
 40
0.3145695877964203
 40
0.3762798811880264
 40
0.4390256536685598
 40
0.503267028829086
 40
0.5674928228792949
 40
0.629704795605245
 40
0.6909996492157554
 40
0.7514516509174471
 40
0.8120043642646942
 40
0.8731496810680427
 40
0.9356354837317858
 40
1.0
 40
1.0
 40
1.0
 40
1.0
 10
-12.38584488376541
 20
12.47410107106781
 30
0.0
 10
-12.50091471962836
 20
12.47691210150346
 30
0.0
 10
-12.72774799711652
 20
12.48245339077404
 30
0.0
 10
-13.06073661844838
 20
12.52995393948632
 30
0.0
 10
-13.38055481085791
 20
12.60423316209709
 30
0.0
 10
-13.68628799091461
 20
12.71038599637931
 30
0.0
 10
-13.97810664890043
 20
12.84757725783724
 30
0.0
 10
-14.25658151321769
 20
13.01486234556948
 30
0.0
 10
-14.52059482321326
 20
13.21335815885433
 30
0.0
 10
-14.76795770612089
 20
13.4386318013084
 30
0.0
 10
-14.9942883942519
 20
13.68387161710848
 30
0.0
 10
-15.19160897586615
 20
13.94664233703607
 30
0.0
 10
-15.35893168145955
 20
14.22178866551778
 30
0.0
 10
-15.49566229898667
 20
14.51007417355081
 30
0.0
 10
-15.60391067522636
 20
14.81010521959543
 30
0.0
 10
-15.6777608452787
 20
15.12388317161202
 30
0.0
 10
-15.72554178688933
 20
15.44961913216171
 30
0.0
 10
-15.73104786550617
 20
15.67140267626619
 30
0.0
 10
-15.7338416786372
 20
15.7839368082473
 30
0.0
  0
CIRCLE
  5
A8
330
1F
100
AcDbEntity
  8
0
  6
Continuous
 62
     7
370
    15
100
AcDbCircle
 10
46.0
 20
0.0
 30
0.0
 40
1.0
  0
CIRCLE
  5
A9
330
1F
100
AcDbEntity
  8
0
  6
Continuous
 62
     7
370
    15
100
AcDbCircle
 10
31.0
 20
13.9642400438
 30
0.0
 40
2.000000000000004
  0
CIRCLE
  5
AA
330
1F
100
AcDbEntity
  8
0
  6
Continuous
 62
     7
370
    15
100
AcDbCircle
 10
-27.5933866225
 20
19.8646674954
 30
0.0
 40
2.0
  0
CIRCLE
  5
AB
330
1F
100
AcDbEntity
  8
0
  6
Continuous
 62
     7
370
    15
100
AcDbCircle
 10
-3.4066133776
 20
-33.8289075392
 30
0.0
 40
1.599999999999995
  0
CIRCLE
  5
AC
330
1F
100
AcDbEntity
  8
0
  6
Continuous
 62
     7
370
    15
100
AcDbCircle
 10
-10.6251840892
 20
2.8470094961
 30
0.0
 40
1.150000000000002
  0
CIRCLE
  5
AD
330
1F
100
AcDbEntity
  8
0
  6
Continuous
 62
     7
370
    15
100
AcDbCircle
 10
-2.8292322142
 20
10.6429613711
 30
0.0
 40
1.149999999999999
  0
CIRCLE
  5
AE
330
1F
100
AcDbEntity
  8
0
  6
Continuous
 62
     7
370
    15
100
AcDbCircle
 10
7.8202360936
 20
7.7894449382
 30
0.0
 40
1.15
  0
CIRCLE
  5
AF
330
1F
100
AcDbEntity
  8
0
  6
Continuous
 62
     7
370
    15
100
AcDbCircle
 10
10.6737525266
 20
-2.8600233697
 30
0.0
 40
1.15
  0
CIRCLE
  5
B0
330
1F
100
AcDbEntity
  8
0
  6
Continuous
 62
     7
370
    15
100
AcDbCircle
 10
2.8778006516
 20
-10.6559752447
 30
0.0
 40
1.15
  0
CIRCLE
  5
B1
330
1F
100
AcDbEntity
  8
0
  6
Continuous
 62
     7
370
    15
100
AcDbCircle
 10
-7.7716676563
 20
-7.8024588117
 30
0.0
 40
1.150000000000002
  0
SPLINE
  5
B8
330
1F
100
AcDbEntity
  8
0
  6
Continuous
 62
     7
370
    15
100
AcDbSpline
210
0.0
220
0.0
230
1.0
 70
     8
 71
     3
 72
    15
 73
    11
 74
     0
 42
0.000000001
 43
0.00000001
 40
0.0
 40
0.0
 40
0.0
 40
0.0
 40
0.0751731173762219
 40
0.1647462575118011
 40
0.2680168809877795
 40
0.3859118756529553
 40
0.5177894792733976
 40
0.6636909770022812
 40
0.8244132205366416
 40
1.0
 40
1.0
 40
1.0
 40
1.0
 10
-5.114891358124383
 20
15.6719977056832
 30
0.0
 10
-5.154673806937375
 20
15.66353772572759
 30
0.0
 10
-5.24185935657734
 20
15.64499718776726
 30
0.0
 10
-5.38544686681411
 20
15.62429898749155
 30
0.0
 10
-5.552624924143923
 20
15.60663219767652
 30
0.0
 10
-5.743165346276452
 20
15.59338584806517
 30
0.0
 10
-5.956897102348454
 20
15.58204589385553
 30
0.0
 10
-6.193935812075272
 20
15.57303235208244
 30
0.0
 10
-6.45474678067202
 20
15.56807961726722
 30
0.0
 10
-6.636667466356315
 20
15.56782417890424
 30
0.0
 10
-6.731648169021817
 20
15.56769081465756
 30
0.0
  0
SPLINE
  5
B9
330
1F
100
AcDbEntity
  8
0
  6
Continuous
 62
     7
370
    15
100
AcDbSpline
210
0.0
220
0.0
230
1.0
 70
     8
 71
     3
 72
    23
 73
    19
 74
     0
 42
0.000000001
 43
0.00000001
 40
0.0
 40
0.0
 40
0.0
 40
0.0
 40
0.0701188944197146
 40
0.137192352785971
 40
0.2020161807247506
 40
0.2646314069747431
 40
0.3261165471458173
 40
0.3860103046676404
 40
0.4458118469576793
 40
0.5052976967309598
 40
0.5646332777264871
 40
0.6242826253338399
 40
0.6839020319037503
 40
0.74395277093827
 40
0.8053877310076346
 40
0.8683880308962791
 40
0.9330840282524767
 40
1.0
 40
1.0
 40
1.0
 40
1.0
 10
-3.847944242739765
 20
17.28366637555499
 30
0.0
 10
-3.848708827605165
 20
17.23145526624056
 30
0.0
 10
-3.85020478953464
 20
17.12930070451092
 30
0.0
 10
-3.868159478631245
 20
16.97985293165429
 30
0.0
 10
-3.892344254853768
 20
16.83703528098697
 30
0.0
 10
-3.929531764075974
 20
16.70116442084959
 30
0.0
 10
-3.978237485268795
 20
16.5730472372812
 30
0.0
 10
-4.035373066860259
 20
16.45072585918643
 30
0.0
 10
-4.104286043388278
 20
16.33628131159897
 30
0.0
 10
-4.183470234434475
 20
16.22929811263055
 30
0.0
 10
-4.271556698547293
 20
16.12967584314627
 30
0.0
 10
-4.36817274347161
 20
16.03813643028093
 30
0.0
 10
-4.472928317007805
 20
15.95521570200006
 30
0.0
 10
-4.585490499946353
 20
15.88072776417993
 30
0.0
 10
-4.706956654264078
 20
15.81639994280556
 30
0.0
 10
-4.835484561457079
 20
15.75878311815494
 30
0.0
 10
-4.972191382679708
 20
15.71039419385368
 30
0.0
 10
-5.066792800892163
 20
15.68493965383721
 30
0.0
 10
-5.114891358124383
 20
15.6719977056832
 30
0.0
  0
SPLINE
  5
BA
330
1F
100
AcDbEntity
  8
0
  6
Continuous
 62
     7
370
    15
100
AcDbSpline
210
0.0
220
0.0
230
1.0
 70
     8
 71
     3
 72
    23
 73
    19
 74
     0
 42
0.000000001
 43
0.00000001
 40
0.0
 40
0.0
 40
0.0
 40
0.0
 40
0.0624813386352042
 40
0.1234903826872901
 40
0.1834110942063107
 40
0.2431532209997795
 40
0.3021267353720875
 40
0.3617096708329058
 40
0.4218422916948797
 40
0.482931901446669
 40
0.5445522544313236
 40
0.6056807199653579
 40
0.6676797383436871
 40
0.729984387538063
 40
0.7945509212861288
 40
0.8603456197120822
 40
0.9289073562657085
 40
1.0
 40
1.0
 40
1.0
 40
1.0
 10
-5.064009947867971
 20
18.89151893965755
 30
0.0
 10
-5.020115965143227
 20
18.87950483067719
 30
0.0
 10
-4.933362306486916
 20
18.85575971016538
 30
0.0
 10
-4.808356128288248
 20
18.80820052614526
 30
0.0
 10
-4.689422722916711
 20
18.75180859789831
 30
0.0
 10
-4.57615403830903
 20
18.68753944988311
 30
0.0
 10
-4.469941973309012
 20
18.61263564057216
 30
0.0
 10
-4.369201870413542
 20
18.53013350553087
 30
0.0
 10
-4.274822763305639
 20
18.43812823112088
 30
0.0
 10
-4.187335380887204
 20
18.33765174596911
 30
0.0
 10
-4.106990105270614
 20
18.23039079375555
 30
0.0
 10
-4.037811966608446
 20
18.11474417663767
 30
0.0
 10
-3.979886854705242
 20
17.9926585261474
 30
0.0
 10
-3.93020577644113
 20
17.86421876133337
 30
0.0
 10
-3.894449009047011
 20
17.7283463172848
 30
0.0
 10
-3.867512491009979
 20
17.58598528197734
 30
0.0
 10
-3.850415338050159
 20
17.43715091546892
 30
0.0
 10
-3.848777833151542
 20
17.33544229868107
 30
0.0
 10
-3.847944242739765
 20
17.28366637555499
 30
0.0
  0
SPLINE
  5
BB
330
1F
100
AcDbEntity
  8
0
  6
Continuous
 62
     7
370
    15
100
AcDbSpline
210
0.0
220
0.0
230
1.0
 70
     8
 71
     3
 72
    15
 73
    11
 74
     0
 42
0.000000001
 43
0.00000001
 40
0.0
 40
0.0
 40
0.0
 40
0.0
 40
0.1769557521312504
 40
0.3390550796425809
 40
0.4863182249420762
 40
0.6187809228353771
 40
0.7356188277673805
 40
0.8387424767201105
 40
0.9264570678763175
 40
1.0
 40
1.0
 40
1.0
 40
1.0
 10
-6.510314034406433
 20
18.98692158388833
 30
0.0
 10
-6.424659961816989
 20
18.98682742927994
 30
0.0
 10
-6.260542954860444
 20
18.98664702486889
 30
0.0
 10
-6.025202782360032
 20
18.9811774145852
 30
0.0
 10
-5.81146226926654
 20
18.97387184464548
 30
0.0
 10
-5.619782292442342
 20
18.96374469556654
 30
0.0
 10
-5.449573085913831
 20
18.95177659611749
 30
0.0
 10
-5.301604842450785
 20
18.93499075324701
 30
0.0
 10
-5.174714504530815
 20
18.91746421702883
 30
0.0
 10
-5.098684231963563
 20
18.8996453794865
 30
0.0
 10
-5.064009947867971
 20
18.89151893965755
 30
0.0
  0
CIRCLE
  5
BF
330
1F
100
AcDbEntity
  8
0
  6
Continuous
 62
     7
370
    15
100
AcDbCircle
 10
13.0399986549
 20
3.4940571089
 30
0.0
 40
1.149999999999999
  0
SPLINE
  5
C1
330
1F
100
AcDbEntity
  8
0
  6
Continuous
 62
     7
370
    15
100
AcDbSpline
210
0.0
220
0.0
230
1.0
 70
     8
 71
     3
 72
    23
 73
    19
 74
     0
 42
0.000000001
 43
0.00000001
 40
0.0
 40
0.0
 40
0.0
 40
0.0
 40
0.0645039992970558
 40
0.1268993215900403
 40
0.1877465401000116
 40
0.2481497329298263
 40
0.3085860647627419
 40
0.3695830050869941
 40
0.4318269653810495
 40
0.4961797225241574
 40
0.5606678546118796
 40
0.6235044551176645
 40
0.6852604113304277
 40
0.7465368217511666
 40
0.8083273517367074
 40
0.8704861878877675
 40
0.9343168833592462
 40
1.0
 40
1.0
 40
1.0
 40
1.0
 10
-15.16396988376541
 20
15.78648087876012
 30
0.0
 10
-15.16165691992815
 20
15.69474656387466
 30
0.0
 10
-15.15710660452122
 20
15.51427678754525
 30
0.0
 10
-15.11726929874057
 20
15.24981172649686
 30
0.0
 10
-15.05590657366186
 20
14.99565154984419
 30
0.0
 10
-14.96545106598384
 20
14.75318694298309
 30
0.0
 10
-14.85232923653354
 20
14.52033374413153
 30
0.0
 10
-14.71258044989235
 20
14.29915761134146
 30
0.0
 10
-14.54701039464569
 20
14.08959876785307
 30
0.0
 10
-14.35893513923955
 20
13.89312020843655
 30
0.0
 10
-14.15333537155174
 20
13.71378567788771
 30
0.0
 10
-13.93501741868058
 20
13.5563720650602
 30
0.0
 10
-13.7063201593822
 20
13.42318489752329
 30
0.0
 10
-13.46664720588955
 20
13.31468140905631
 30
0.0
 10
-13.21727809936491
 20
13.22870288476384
 30
0.0
 10
-12.95660597105413
 20
13.16977736828959
 30
0.0
 10
-12.68636728009528
 20
13.13099618497927
 30
0.0
 10
-12.50216166287624
 20
13.12727189923665
 30
0.0
 10
-12.40874151838079
 20
13.12538312234986
 30
0.0
  0
SPLINE
  5
C2
330
1F
100
AcDbEntity
  8
0
  6
Continuous
 62
     7
370
    15
100
AcDbSpline
210
0.0
220
0.0
230
1.0
 70
     8
 71
     3
 72
    31
 73
    27
 74
     0
 42
0.000000001
 43
0.00000001
 40
0.0
 40
0.0
 40
0.0
 40
0.0
 40
0.0420233285259236
 40
0.0836449111687116
 40
0.1249837954173948
 40
0.1662474611728954
 40
0.2077015560969882
 40
0.2496310707996496
 40
0.2917417703321311
 40
0.3347428753531985
 40
0.3774601685508653
 40
0.4195563188419398
 40
0.4610441763330337
 40
0.502096283944397
 40
0.5428907140755995
 40
0.5838008186265052
 40
0.6248635833101932
 40
0.6662246890691704
 40
0.7073991864779361
 40
0.7485566775366936
 40
0.7896545909521798
 40
0.8307397264898321
 40
0.8720701422586045
 40
0.9139933952421322
 40
0.9564981300675882
 40
1.0
 40
1.0
 40
1.0
 40
1.0
 10
-12.40874151838079
 20
18.49846004542679
 30
0.0
 10
-12.46900235352917
 20
18.49772545882448
 30
0.0
 10
-12.58894792613722
 20
18.4962633083178
 30
0.0
 10
-12.7672641561849
 20
18.47700336720836
 30
0.0
 10
-12.94323523613507
 20
18.44955342578887
 30
0.0
 10
-13.11689750750358
 20
18.41039838097322
 30
0.0
 10
-13.28752434680332
 20
18.35705102808393
 30
0.0
 10
-13.45670620150307
 20
18.29565395179744
 30
0.0
 10
-13.62290031352208
 20
18.22086711600289
 30
0.0
 10
-13.78555802706147
 20
18.13637092378938
 30
0.0
 10
-13.94324680625492
 20
18.0428464531883
 30
0.0
 10
-14.09204127889427
 20
17.93948339013889
 30
0.0
 10
-14.2323266472285
 20
17.82870572743308
 30
0.0
 10
-14.36375943101271
 20
17.71025493676281
 30
0.0
 10
-14.48595370052932
 20
17.58352780208455
 30
0.0
 10
-14.60131451602217
 20
17.45044552512809
 30
0.0
 10
-14.70521789986577
 20
17.30720423709176
 30
0.0
 10
-14.80044173210887
 20
17.15768821320469
 30
0.0
 10
-14.88565481375493
 20
17.00209220158847
 30
0.0
 10
-14.96142910018004
 20
16.84205430861667
 30
0.0
 10
-15.0234123732986
 20
16.67626907689019
 30
0.0
 10
-15.07396268455702
 20
16.50653510528757
 30
0.0
 10
-15.11587234137899
 20
16.33312121418383
 30
0.0
 10
-15.14242246080729
 20
16.15471188843266
 30
0.0
 10
-15.16189402723555
 20
15.97220361375035
 30
0.0
 10
-15.16327260398525
 20
15.84886510713095
 30
0.0
 10
-15.16396988376541
 20
15.78648087876012
 30
0.0
  0
SPLINE
  5
C3
330
1F
100
AcDbEntity
  8
0
  6
Continuous
 62
     7
370
    15
100
AcDbSpline
210
0.0
220
0.0
230
1.0
 70
     8
 71
     3
 72
    31
 73
    27
 74
     0
 42
0.000000001
 43
0.00000001
 40
0.0
 40
0.0
 40
0.0
 40
0.0
 40
0.0436332182657581
 40
0.0865377766972011
 40
0.129177336089892
 40
0.1714363236638287
 40
0.2134158945709081
 40
0.2552659545538504
 40
0.2973694811566241
 40
0.3399407478985554
 40
0.3823474587518118
 40
0.4239529468152707
 40
0.4648711632610172
 40
0.505572294118273
 40
0.5460025771083166
 40
0.5865679748069135
 40
0.6270647991481678
 40
0.6682706840331739
 40
0.7095492248503338
 40
0.7504281535131893
 40
0.7910961944485937
 40
0.8320271447794344
 40
0.8731359553359673
 40
0.9146107643654491
 40
0.956955986480438
 40
1.0
 40
1.0
 40
1.0
 40
1.0
 10
-12.40874151838079
 20
13.12538312234987
 30
0.0
 10
-12.34594999402723
 20
13.1262458231285
 30
0.0
 10
-12.22141554231912
 20
13.12795681787758
 30
0.0
 10
-12.03618509462192
 20
13.14519013156729
 30
0.0
 10
-11.85429168191005
 20
13.17282509465452
 30
0.0
 10
-11.67599043127012
 20
13.21261356983059
 30
0.0
 10
-11.50148370204037
 20
13.26241064435009
 30
0.0
 10
-11.33004313067469
 20
13.32157037936157
 30
0.0
 10
-11.1634948039521
 20
13.39537770604386
 30
0.0
 10
-10.99973766965568
 20
13.47692613248008
 30
0.0
 10
-10.84299020258743
 20
13.56989041829063
 30
0.0
 10
-10.69335602257406
 20
13.66974534695823
 30
0.0
 10
-10.55460674483735
 20
13.78035984453176
 30
0.0
 10
-10.42327228668793
 20
13.89705073300446
 30
0.0
 10
-10.30057633665854
 20
14.02217085697396
 30
0.0
 10
-10.18734860813574
 20
14.15555754518189
 30
0.0
 10
-10.08397036837762
 20
14.29805273759062
 30
0.0
 10
-9.988782695244124
 20
14.44734197371942
 30
0.0
 10
-9.903868204244318
 20
14.60336374644829
 30
0.0
 10
-9.829883267398083
 20
14.76398187644036
 30
0.0
 10
-9.767116028672996
 20
14.92880086057706
 30
0.0
 10
-9.716445741339905
 20
15.09805842597897
 30
0.0
 10
-9.676739260857607
 20
15.27143310874892
 30
0.0
 10
-9.649379977595995
 20
15.44915705055594
 30
0.0
 10
-9.630242096050733
 20
15.63087471478799
 30
0.0
 10
-9.628799598869184
 20
15.75378142488999
 30
0.0
 10
-9.628072447867972
 20
15.81573768965756
 30
0.0
  0
SPLINE
  5
C4
330
1F
100
AcDbEntity
  8
0
  6
Continuous
 62
     7
370
    15
100
AcDbSpline
210
0.0
220
0.0
230
1.0
 70
     8
 71
     3
 72
    31
 73
    27
 74
     0
 42
0.000000001
 43
0.00000001
 40
0.0
 40
0.0
 40
0.0
 40
0.0
 40
0.0429150821010504
 40
0.0851299705846996
 40
0.1264733185549993
 40
0.1674530378853888
 40
0.2079763328949881
 40
0.2482493780637607
 40
0.2887499869834431
 40
0.3296698569108732
 40
0.3705372867119747
 40
0.4111285639171179
 40
0.4518189126736378
 40
0.4924058769342637
 40
0.5334858617420232
 40
0.5752630624415515
 40
0.617440612802191
 40
0.6606716882923647
 40
0.7039402042434887
 40
0.7468675221598704
 40
0.7890793003947231
 40
0.8311040424574039
 40
0.8732379898547746
 40
0.9151657696593333
 40
0.9573806581429823
 40
1.0
 40
1.0
 40
1.0
 40
1.0
 10
-9.628072447867972
 20
15.81573768965756
 30
0.0
 10
-9.628800181414077
 20
15.87727010454461
 30
0.0
 10
-9.630243774956025
 20
15.99933098414414
 30
0.0
 10
-9.649370836060218
 20
16.17978132602828
 30
0.0
 10
-9.676768165731211
 20
16.35622643827364
 30
0.0
 10
-9.716251936031485
 20
16.52797362370931
 30
0.0
 10
-9.767142929237538
 20
16.69506666204472
 30
0.0
 10
-9.829894228657285
 20
16.85734861858829
 30
0.0
 10
-9.90389041484554
 20
17.0154240582393
 30
0.0
 10
-9.988813907652261
 20
17.16890228279609
 30
0.0
 10
-10.08427404453087
 20
17.31617645028766
 30
0.0
 10
-10.18858502882352
 20
17.45696939872665
 30
0.0
 10
-10.30354787473673
 20
17.58863708653299
 30
0.0
 10
-10.42587794843632
 20
17.7144300314403
 30
0.0
 10
-10.55863084039053
 20
17.83166534544303
 30
0.0
 10
-10.70120520250554
 20
17.940381918636
 30
0.0
 10
-10.85187016072991
 20
18.0432034305602
 30
0.0
 10
-11.01139528787263
 20
18.13595980704252
 30
0.0
 10
-11.17603074678614
 20
18.22161991496503
 30
0.0
 10
-11.34496607053641
 20
18.2950095920988
 30
0.0
 10
-11.51628743698305
 20
18.35737043727302
 30
0.0
 10
-11.68955918364278
 20
18.41055978815051
 30
0.0
 10
-11.86623973005127
 20
18.44940007141196
 30
0.0
 10
-12.0451352481021
 20
18.47702810472941
 30
0.0
 10
-12.22599823151781
 20
18.49625660485034
 30
0.0
 10
-12.34763378730199
 20
18.4977232344801
 30
0.0
 10
-12.40874151838079
 20
18.49846004542679
 30
0.0
  0
SPLINE
  5
C8
330
1F
100
AcDbEntity
  8
0
  6
Continuous
 62
     7
370
    15
100
AcDbSpline
210
0.0
220
0.0
230
1.0
 70
     8
 71
     3
 72
    23
 73
    19
 74
     0
 42
0.000000001
 43
0.00000001
 40
0.0
 40
0.0
 40
0.0
 40
0.0
 40
0.0725383714064943
 40
0.1400338305012517
 40
0.2024956806336238
 40
0.260575055669416
 40
0.3132283378464658
 40
0.3615831937532646
 40
0.4048783612951264
 40
0.4441274373055396
 40
0.5163996933371984
 40
0.5865066709977657
 40
0.655085373796049
 40
0.7243837831470358
 40
0.7939735287256622
 40
0.8616376821817767
 40
0.9301109423064029
 40
1.0
 40
1.0
 40
1.0
 40
1.0
 10
-6.074005941457716
 20
16.2049804781191
 30
0.0
 10
-6.019722647482958
 20
16.2049524227466
 30
0.0
 10
-5.914929867604939
 20
16.20489826242839
 30
0.0
 10
-5.763552719738922
 20
16.21212859645499
 30
0.0
 10
-5.623110155631959
 20
16.22047527714611
 30
0.0
 10
-5.494033568883214
 20
16.23269616685573
 30
0.0
 10
-5.376264773463489
 20
16.24997044829133
 30
0.0
 10
-5.269607399648412
 20
16.26740888708568
 30
0.0
 10
-5.174888472110515
 20
16.29263718780016
 30
0.0
 10
-5.064037063192475
 20
16.32660618466685
 30
0.0
 10
-4.940514418484588
 20
16.38454107308035
 30
0.0
 10
-4.806134723306799
 20
16.46863301646326
 30
0.0
 10
-4.692250945212354
 20
16.57582230134059
 30
0.0
 10
-4.593702035373509
 20
16.69634136674724
 30
0.0
 10
-4.515495656828129
 20
16.83041550156309
 30
0.0
 10
-4.458244070768238
 20
16.97386914390888
 30
0.0
 10
-4.424605113837228
 20
17.12523109946969
 30
0.0
 10
-4.420094448204797
 20
17.2288052942498
 30
0.0
 10
-4.417816037611561
 20
17.28112230504217
 30
0.0
  0
SPLINE
  5
C9
330
1F
100
AcDbEntity
  8
0
  6
Continuous
 62
     7
370
    15
100
AcDbSpline
210
0.0
220
0.0
230
1.0
 70
     8
 71
     3
 72
    23
 73
    19
 74
     0
 42
0.000000001
 43
0.00000001
 40
0.0
 40
0.0
 40
0.0
 40
0.0
 40
0.0700437554181557
 40
0.1392383167626448
 40
0.208197455044138
 40
0.2791733744245666
 40
0.3499868116864764
 40
0.4183538456626561
 40
0.4876095837571504
 40
0.5574110731083876
 40
0.595330156763241
 40
0.6379640515652192
 40
0.685912777711293
 40
0.738185164652479
 40
0.796102647184943
 40
0.8585165439469269
 40
0.9266577264685188
 40
1.0
 40
1.0
 40
1.0
 40
1.0
 10
-4.417816037611561
 20
17.28112230504217
 30
0.0
 10
-4.420106839110601
 20
17.33217360801368
 30
0.0
 10
-4.424660668968235
 20
17.43365727992498
 30
0.0
 10
-4.458507734988319
 20
17.58239017417405
 30
0.0
 10
-4.515384347283591
 20
17.72433209499007
 30
0.0
 10
-4.594227025903393
 20
17.85672612127414
 30
0.0
 10
-4.689914504546255
 20
17.97681152275396
 30
0.0
 10
-4.801129027042164
 20
18.08112773899657
 30
0.0
 10
-4.927608801176114
 20
18.16498711395159
 30
0.0
 10
-5.045262020335506
 20
18.21911321065706
 30
0.0
 10
-5.149767029271025
 20
18.25216092465719
 30
0.0
 10
-5.240539299345892
 20
18.27528370662959
 30
0.0
 10
-5.343029523056835
 20
18.29374516367397
 30
0.0
 10
-5.457271065882775
 20
18.30869397588992
 30
0.0
 10
-5.582378464494374
 20
18.32149096982373
 30
0.0
 10
-5.719426550088893
 20
18.33017409994826
 30
0.0
 10
-5.867896160011491
 20
18.3352567419774
 30
0.0
 10
-5.970966767152185
 20
18.33550884651452
 30
0.0
 10
-6.024396566457716
 20
18.33563953260628
 30
0.0
  0
LINE
  5
CA
330
1F
100
AcDbEntity
  8
0
  6
Continuous
 62
     7
370
    15
100
AcDbLine
 10
-17.7690980889
 20
12.6369215839
 30
0.0
 11
-18.3389698838
 21
12.6369215839
 31
0.0
  0
LINE
  5
CB
330
1F
100
AcDbEntity
  8
0
  6
Continuous
 62
     7
370
    15
100
AcDbLine
 10
-17.7690980889
 20
18.3356395326
 30
0.0
 11
-17.7690980889
 21
12.6369215839
 31
0.0
  0
LINE
  5
CC
330
1F
100
AcDbEntity
  8
0
  6
Continuous
 62
     7
370
    15
100
AcDbLine
 10
-16.3851237299
 20
18.3356395326
 30
0.0
 11
-17.7690980889
 21
18.3356395326
 31
0.0
  0
LINE
  5
CD
330
1F
100
AcDbEntity
  8
0
  6
Continuous
 62
     7
370
    15
100
AcDbLine
 10
-16.3851237299
 20
18.9869215839
 30
0.0
 11
-16.3851237299
 21
18.3356395326
 31
0.0
  0
LINE
  5
CE
330
1F
100
AcDbEntity
  8
0
  6
Continuous
 62
     7
370
    15
100
AcDbLine
 10
-19.7229442427
 20
18.9869215839
 30
0.0
 11
-16.3851237299
 21
18.9869215839
 31
0.0
  0
LINE
  5
CF
330
1F
100
AcDbEntity
  8
0
  6
Continuous
 62
     7
370
    15
100
AcDbLine
 10
-19.7229442427
 20
18.3356395326
 30
0.0
 11
-19.7229442427
 21
18.9869215839
 31
0.0
  0
LINE
  5
D0
330
1F
100
AcDbEntity
  8
0
  6
Continuous
 62
     7
370
    15
100
AcDbLine
 10
-18.3389698838
 20
18.3356395326
 30
0.0
 11
-19.7229442427
 21
18.3356395326
 31
0.0
  0
LINE
  5
D1
330
1F
100
AcDbEntity
  8
0
  6
Continuous
 62
     7
370
    15
100
AcDbLine
 10
-18.3389698838
 20
12.6369215839
 30
0.0
 11
-18.3389698838
 21
18.3356395326
 31
0.0
  0
LINE
  5
D2
330
1F
100
AcDbEntity
  8
0
  6
Continuous
 62
     7
370
    15
100
AcDbLine
 10
-44.5
 20
0.5
 30
0.0
 11
-44.5
 21
-0.5
 31
0.0
  0
LINE
  5
D3
330
1F
100
AcDbEntity
  8
0
  6
Continuous
 62
     7
370
    15
100
AcDbLine
 10
-45.6
 20
1.5
 30
0.0
 11
-45.5
 21
1.5
 31
0.0
  0
LINE
  5
D4
330
1F
100
AcDbEntity
  8
0
  6
Continuous
 62
     7
370
    15
100
AcDbLine
 10
-45.6
 20
16.0
 30
0.0
 11
-45.6
 21
1.5
 31
0.0
  0
LINE
  5
D5
330
1F
100
AcDbEntity
  8
0
  6
Continuous
 62
     7
370
    15
100
AcDbLine
 10
-50.0
 20
16.0
 30
0.0
 11
-45.6
 21
16.0
 31
0.0
  0
LINE
  5
D6
330
1F
100
AcDbEntity
  8
0
  6
Continuous
 62
     7
370
    15
100
AcDbLine
 10
-50.0
 20
29.4448637287
 30
0.0
 11
-50.0
 21
16.0
 31
0.0
  0
LINE
  5
D7
330
1F
100
AcDbEntity
  8
0
  6
Continuous
 62
     7
370
    15
100
AcDbLine
 10
-26.3325317547
 20
43.1092828911
 30
0.0
 11
-50.0
 21
29.4448637287
 31
0.0
  0
LINE
  5
D8
330
1F
100
AcDbEntity
  8
0
  6
Continuous
 62
     7
370
    15
100
AcDbLine
 10
-25.5825317547
 20
41.8102447854
 30
0.0
 11
-26.3325317547
 21
43.1092828911
 31
0.0
  0
LINE
  5
D9
330
1F
100
AcDbEntity
  8
0
  6
Continuous
 62
     7
370
    15
100
AcDbLine
 10
-23.783493649
 20
41.6942193817
 30
0.0
 11
-24.2165063509
 21
41.4442193817
 31
0.0
  0
LINE
  5
DA
330
1F
100
AcDbEntity
  8
0
  6
Continuous
 62
     7
370
    15
100
AcDbLine
 10
-24.1674682453
 20
44.3592828911
 30
0.0
 11
-23.4174682453
 21
43.0602447854
 31
0.0
  0
LINE
  5
DB
330
1F
100
AcDbEntity
  8
0
  6
Continuous
 62
     7
370
    15
100
AcDbLine
 10
-0.5
 20
58.0237020536
 30
0.0
 11
-24.1674682453
 21
44.3592828911
 31
0.0
  0
LINE
  5
DC
330
1F
100
AcDbEntity
  8
0
  6
Continuous
 62
     7
370
    15
100
AcDbLine
 10
11.1435935395
 20
51.3012701892
 30
0.0
 11
-0.5
 21
58.0237020536
 31
0.0
  0
LINE
  5
DD
330
1F
100
AcDbEntity
  8
0
  6
Continuous
 62
     7
370
    15
100
AcDbLine
 10
8.9435935395
 20
47.4907584126
 30
0.0
 11
11.1435935395
 21
51.3012701892
 31
0.0
  0
LINE
  5
DE
330
1F
100
AcDbEntity
  8
0
  6
Continuous
 62
     7
370
    15
100
AcDbLine
 10
21.4509618943
 20
40.1541558722
 30
0.0
 11
21.5009618943
 21
40.2407584126
 31
0.0
  0
LINE
  5
DF
330
1F
100
AcDbEntity
  8
0
  6
Continuous
 62
     7
370
    15
100
AcDbLine
 10
22.6830127019
 20
38.2881304684
 30
0.0
 11
21.8169872981
 21
38.7881304684
 31
0.0
  0
LINE
  5
E0
330
1F
100
AcDbEntity
  8
0
  6
Continuous
 62
     7
370
    15
100
AcDbLine
 10
24.0990381057
 20
38.7407584126
 30
0.0
 11
24.0490381057
 21
38.6541558722
 31
0.0
  0
LINE
  5
E1
330
1F
100
AcDbEntity
  8
0
  6
Continuous
 62
     7
370
    15
100
AcDbLine
 10
36.6564064606
 20
31.4907584126
 30
0.0
 11
24.0990381057
 21
38.7407584126
 31
0.0
  0
LINE
  5
E2
330
1F
100
AcDbEntity
  8
0
  6
Continuous
 62
     7
370
    15
100
AcDbLine
 10
38.8564064605
 20
35.3012701892
 30
0.0
 11
36.6564064606
 21
31.4907584126
 31
0.0
  0
LINE
  5
E3
330
1F
100
AcDbEntity
  8
0
  6
Continuous
 62
     7
370
    15
100
AcDbLine
 10
50.5
 20
28.5788383249
 30
0.0
 11
38.8564064605
 21
35.3012701892
 31
0.0
  0
LINE
  5
E4
330
1F
100
AcDbEntity
  8
0
  6
Continuous
 62
     7
370
    15
100
AcDbLine
 10
50.5
 20
-28.5788383249
 30
0.0
 11
50.5
 21
28.5788383249
 31
0.0
  0
LINE
  5
E5
330
1F
100
AcDbEntity
  8
0
  6
Continuous
 62
     7
370
    15
100
AcDbLine
 10
38.8564064606
 20
-35.3012701892
 30
0.0
 11
50.5
 21
-28.5788383249
 31
0.0
  0
LINE
  5
E6
330
1F
100
AcDbEntity
  8
0
  6
Continuous
 62
     7
370
    15
100
AcDbLine
 10
36.6564064605
 20
-31.4907584126
 30
0.0
 11
38.8564064606
 21
-35.3012701892
 31
0.0
  0
LINE
  5
E7
330
1F
100
AcDbEntity
  8
0
  6
Continuous
 62
     7
370
    15
100
AcDbLine
 10
24.0990381057
 20
-38.7407584126
 30
0.0
 11
36.6564064606
 21
-31.4907584126
 31
0.0
  0
LINE
  5
E8
330
1F
100
AcDbEntity
  8
0
  6
Continuous
 62
     7
370
    15
100
AcDbLine
 10
24.0490381057
 20
-38.6541558722
 30
0.0
 11
24.0990381057
 21
-38.7407584126
 31
0.0
  0
LINE
  5
E9
330
1F
100
AcDbEntity
  8
0
  6
Continuous
 62
     7
370
    15
100
AcDbLine
 10
21.8169872981
 20
-38.7881304684
 30
0.0
 11
22.6830127019
 21
-38.2881304684
 31
0.0
  0
LINE
  5
EA
330
1F
100
AcDbEntity
  8
0
  6
Continuous
 62
     7
370
    15
100
AcDbLine
 10
21.5009618943
 20
-40.2407584126
 30
0.0
 11
21.4509618943
 21
-40.1541558722
 31
0.0
  0
LINE
  5
EB
330
1F
100
AcDbEntity
  8
0
  6
Continuous
 62
     7
370
    15
100
AcDbLine
 10
8.9435935394
 20
-47.4907584126
 30
0.0
 11
21.5009618943
 21
-40.2407584126
 31
0.0
  0
LINE
  5
EC
330
1F
100
AcDbEntity
  8
0
  6
Continuous
 62
     7
370
    15
100
AcDbLine
 10
11.1435935395
 20
-51.3012701892
 30
0.0
 11
8.9435935394
 21
-47.4907584126
 31
0.0
  0
LINE
  5
ED
330
1F
100
AcDbEntity
  8
0
  6
Continuous
 62
     7
370
    15
100
AcDbLine
 10
-0.5
 20
-58.0237020536
 30
0.0
 11
11.1435935395
 21
-51.3012701892
 31
0.0
  0
LINE
  5
EE
330
1F
100
AcDbEntity
  8
0
  6
Continuous
 62
     7
370
    15
100
AcDbLine
 10
-50.0
 20
-29.4448637287
 30
0.0
 11
-0.5
 21
-58.0237020536
 31
0.0
  0
LINE
  5
EF
330
1F
100
AcDbEntity
  8
0
  6
Continuous
 62
     7
370
    15
100
AcDbLine
 10
-50.0
 20
-16.0
 30
0.0
 11
-50.0
 21
-29.4448637287
 31
0.0
  0
LINE
  5
F0
330
1F
100
AcDbEntity
  8
0
  6
Continuous
 62
     7
370
    15
100
AcDbLine
 10
-45.6
 20
-16.0
 30
0.0
 11
-50.0
 21
-16.0
 31
0.0
  0
LINE
  5
F1
330
1F
100
AcDbEntity
  8
0
  6
Continuous
 62
     7
370
    15
100
AcDbLine
 10
-45.6
 20
-1.5
 30
0.0
 11
-45.6
 21
-16.0
 31
0.0
  0
LINE
  5
F2
330
1F
100
AcDbEntity
  8
0
  6
Continuous
 62
     7
370
    15
100
AcDbLine
 10
-45.5
 20
-1.5
 30
0.0
 11
-45.6
 21
-1.5
 31
0.0
  0
LINE
  5
F3
330
1F
100
AcDbEntity
  8
0
  6
Continuous
 62
     7
370
    15
100
AcDbLine
 10
1.0
 20
8.6423376467
 30
0.0
 11
1.0
 21
9.0
 31
0.0
  0
LINE
  5
F4
330
1F
100
AcDbEntity
  8
0
  6
Continuous
 62
     7
370
    15
100
AcDbLine
 10
-1.0
 20
9.0
 30
0.0
 11
-1.0
 21
8.6423376467
 31
0.0
  0
LINE
  5
F5
330
1F
100
AcDbEntity
  8
0
  6
Continuous
 62
     7
370
    15
100
AcDbLine
 10
-7.1857647556
 20
15.5676908147
 30
0.0
 11
-7.1857647556
 21
12.6369215839
 31
0.0
  0
LINE
  5
F6
330
1F
100
AcDbEntity
  8
0
  6
Continuous
 62
     7
370
    15
100
AcDbLine
 10
-6.731648169
 20
15.5676908147
 30
0.0
 11
-7.1857647556
 21
15.5676908147
 31
0.0
  0
LINE
  5
F7
330
1F
100
AcDbEntity
  8
0
  6
Continuous
 62
     7
370
    15
100
AcDbLine
 10
-7.7556365504
 20
18.9869215839
 30
0.0
 11
-6.5103140344
 21
18.9869215839
 31
0.0
  0
LINE
  5
F8
330
1F
100
AcDbEntity
  8
0
  6
Continuous
 62
     7
370
    15
100
AcDbLine
 10
-7.7556365504
 20
12.6369215839
 30
0.0
 11
-7.7556365504
 21
18.9869215839
 31
0.0
  0
LINE
  5
F9
330
1F
100
AcDbEntity
  8
0
  6
Continuous
 62
     7
370
    15
100
AcDbLine
 10
-7.1857647556
 20
12.6369215839
 30
0.0
 11
-7.7556365504
 21
12.6369215839
 31
0.0
  0
LINE
  5
FA
330
1F
100
AcDbEntity
  8
0
  6
Continuous
 62
     7
370
    15
100
AcDbLine
 10
21.5009618943
 20
40.2407584126
 30
0.0
 11
8.9435935395
 21
47.4907584126
 31
0.0
  0
LINE
  5
FB
330
1F
100
AcDbEntity
  8
0
  6
Continuous
 62
     7
370
    15
100
AcDbLine
 10
-7.1857647556
 20
16.2189728659
 30
0.0
 11
-6.0740059415
 21
16.2049804781
 31
0.0
  0
LINE
  5
FC
330
1F
100
AcDbEntity
  8
0
  6
Continuous
 62
     7
370
    15
100
AcDbLine
 10
-7.1857647556
 20
18.3356395326
 30
0.0
 11
-7.1857647556
 21
16.2189728659
 31
0.0
  0
LINE
  5
FD
330
1F
100
AcDbEntity
  8
0
  6
Continuous
 62
     7
370
    15
100
AcDbLine
 10
-6.0243965665
 20
18.3356395326
 30
0.0
 11
-7.1857647556
 21
18.3356395326
 31
0.0
  0
ARC
  5
FE
330
1F
100
AcDbEntity
  8
0
  6
Continuous
 62
     7
370
    15
100
AcDbCircle
 10
-45.5
 20
-0.5
 30
0.0
 40
0.9999999999997016
100
AcDbArc
 50
270.0
 51
0.0
  0
ARC
  5
FF
330
1F
100
AcDbEntity
  8
0
  6
Continuous
 62
     7
370
    15
100
AcDbCircle
 10
-45.5
 20
0.5
 30
0.0
 40
0.9999999999998445
100
AcDbArc
 50
360.0
 51
90.0
  0
ARC
  5
100
330
1F
100
AcDbEntity
  8
0
  6
Continuous
 62
     7
370
    15
100
AcDbCircle
 10
-24.7165063509
 20
42.3102447854
 30
0.0
 40
0.9999999999932413
100
AcDbArc
 50
209.9999999996
 51
300.0000000002
  0
ARC
  5
101
330
1F
100
AcDbEntity
  8
0
  6
Continuous
 62
     7
370
    15
100
AcDbCircle
 10
-24.2834936491
 20
42.5602447854
 30
0.0
 40
1.000000000002813
100
AcDbArc
 50
300.0000000003
 51
30.0
  0
ARC
  5
102
330
1F
100
AcDbEntity
  8
0
  6
Continuous
 62
     7
370
    15
100
AcDbCircle
 10
22.3169872981
 20
39.6541558722
 30
0.0
 40
1.00000000000668
100
AcDbArc
 50
150.0000000006
 51
239.9999999996
  0
ARC
  5
103
330
1F
100
AcDbEntity
  8
0
  6
Continuous
 62
     7
370
    15
100
AcDbCircle
 10
23.1830127019
 20
39.1541558722
 30
0.0
 40
0.9999999999913431
100
AcDbArc
 50
239.9999999993
 51
330.0000000004
  0
ARC
  5
104
330
1F
100
AcDbEntity
  8
0
  6
Continuous
 62
     7
370
    15
100
AcDbCircle
 10
23.1830127019
 20
-39.1541558722
 30
0.0
 40
1.000000000006701
100
AcDbArc
 50
30.0000000004
 51
119.9999999999
  0
ARC
  5
105
330
1F
100
AcDbEntity
  8
0
  6
Continuous
 62
     7
370
    15
100
AcDbCircle
 10
22.3169872981
 20
-39.6541558722
 30
0.0
 40
0.9999999999886006
100
AcDbArc
 50
119.9999999993
 51
210.0000000005
  0
ARC
  5
106
330
1F
100
AcDbEntity
  8
0
  6
Continuous
 62
     7
370
    15
100
AcDbCircle
 10
0.0
 20
0.0
 30
0.0
 40
8.699999999999996
100
AcDbArc
 50
96.6003102066
 51
83.3996897935
  0
ARC
  5
107
330
1F
100
AcDbEntity
  8
0
  6
Continuous
 62
     7
370
    15
100
AcDbCircle
 10
0.0
 20
9.0
 30
0.0
 40
1.0
100
AcDbArc
 50
0.0
 51
180.0
  0
ENDSEC
  0
SECTION
  2
OBJECTS
  0
DICTIONARY
  5
C
330
0
100
AcDbDictionary
281
     1
  3
ACAD_GROUP
350
D
  3
ACAD_LAYOUT
350
1A
  3
ACAD_MLINESTYLE
350
17
  3
ACAD_PLOTSETTINGS
350
19
  3
ACAD_PLOTSTYLENAME
350
E
  3
ACAD_SCALELIST
350
47
  0
DICTIONARY
  5
D
102
{ACAD_REACTORS
330
C
102
}
330
C
100
AcDbDictionary
281
     1
  0
DICTIONARY
  5
1A
102
{ACAD_REACTORS
330
C
102
}
330
C
100
AcDbDictionary
281
     1
  3
Layout1
350
1E
  3
Layout2
350
26
  3
Model
350
22
  0
DICTIONARY
  5
17
102
{ACAD_REACTORS
330
C
102
}
330
C
100
AcDbDictionary
281
     1
  3
Standard
350
18
  0
DICTIONARY
  5
19
102
{ACAD_REACTORS
330
C
102
}
330
C
100
AcDbDictionary
281
     1
  0
ACDBDICTIONARYWDFLT
  5
E
102
{ACAD_REACTORS
330
C
102
}
330
C
100
AcDbDictionary
281
     1
  3
Normal
350
F
100
AcDbDictionaryWithDefault
340
F
  0
DICTIONARY
  5
47
102
{ACAD_REACTORS
330
C
102
}
330
C
100
AcDbDictionary
281
     1
  3
A0
350
48
  3
A1
350
49
  3
A2
350
4A
  3
A3
350
4B
  3
A4
350
4C
  3
A5
350
4D
  3
A6
350
4E
  3
A7
350
4F
  3
A8
350
50
  3
A9
350
51
  3
B0
350
52
  3
B1
350
53
  3
B2
350
54
  3
B3
350
55
  3
B4
350
56
  3
B5
350
57
  3
B6
350
58
  3
B7
350
59
  3
B8
350
5A
  3
B9
350
5B
  3
C0
350
5C
  3
C1
350
5D
  3
C2
350
5E
  3
C3
350
5F
  3
C4
350
60
  3
C5
350
61
  3
C6
350
62
  3
C7
350
63
  3
C8
350
64
  3
C9
350
65
  3
D0
350
66
  3
D1
350
67
  3
D2
350
68
  0
LAYOUT
  5
1E
102
{ACAD_REACTORS
330
1A
102
}
330
1A
100
AcDbPlotSettings
  1

  2
none_device
  4

  6

 40
0.0
 41
0.0
 42
0.0
 43
0.0
 44
0.0
 45
0.0
 46
0.0
 47
0.0
 48
0.0
 49
0.0
140
0.0
141
0.0
142
1.0
143
1.0
 70
   688
 72
     1
 73
     0
 74
     5
  7

 75
    16
147
1.0
148
0.0
149
0.0
100
AcDbLayout
  1
Layout1
 70
     1
 71
     1
 10
0.0
 20
0.0
 11
420.0
 21
297.0
 12
0.0
 22
0.0
 32
0.0
 14
1.0000000000E+20
 24
1.0000000000E+20
 34
1.0000000000E+20
 15
-1.0000000000E+20
 25
-1.0000000000E+20
 35
-1.0000000000E+20
146
0.0
 13
0.0
 23
0.0
 33
0.0
 16
1.0
 26
0.0
 36
0.0
 17
0.0
 27
1.0
 37
0.0
 76
     0
330
1B
  0
LAYOUT
  5
26
102
{ACAD_REACTORS
330
1A
102
}
330
1A
100
AcDbPlotSettings
  1

  2
none_device
  4

  6

 40
0.0
 41
0.0
 42
0.0
 43
0.0
 44
0.0
 45
0.0
 46
0.0
 47
0.0
 48
0.0
 49
0.0
140
0.0
141
0.0
142
1.0
143
1.0
 70
   688
 72
     1
 73
     0
 74
     5
  7

 75
    16
147
1.0
148
0.0
149
0.0
100
AcDbLayout
  1
Layout2
 70
     1
 71
     2
 10
0.0
 20
0.0
 11
0.0
 21
0.0
 12
0.0
 22
0.0
 32
0.0
 14
0.0
 24
0.0
 34
0.0
 15
0.0
 25
0.0
 35
0.0
146
0.0
 13
0.0
 23
0.0
 33
0.0
 16
1.0
 26
0.0
 36
0.0
 17
0.0
 27
1.0
 37
0.0
 76
     0
330
23
  0
LAYOUT
  5
22
102
{ACAD_REACTORS
330
1A
102
}
330
1A
100
AcDbPlotSettings
  1

  2
none_device
  4
ANSI_A_(11.00_x_8.50_Inches)
  6

 40
6.35
 41
19.05
 42
6.35000508
 43
19.05000254
 44
279.4
 45
215.9
 46
132.8895369231
 47
88.89999873
 48
0.0
 49
0.0
140
0.0
141
0.0
142
0.0725134704
143
1.0
 70
  1696
 72
     0
 73
     0
 74
     0
  7

 75
     0
147
0.0179189148
148
-1300.4909072572
149
0.0
100
AcDbLayout
  1
Model
 70
     1
 71
     0
 10
0.0
 20
0.0
 11
420.0
 21
297.0
 12
0.0
 22
0.0
 32
0.0
 14
-50.0
 24
-58.0237020536
 34
0.0
 15
50.5
 25
58.0237020536
 35
0.0
146
0.0
 13
0.0
 23
0.0
 33
0.0
 16
1.0
 26
0.0
 36
0.0
 17
0.0
 27
1.0
 37
0.0
 76
     0
330
1F
331
29
  0
MLINESTYLE
  5
18
102
{ACAD_REACTORS
330
17
102
}
330
17
100
AcDbMlineStyle
  2
Standard
 70
     0
  3

 62
   256
 51
90.0
 52
90.0
 71
     2
 49
0.5
 62
   256
  6
BYLAYER
 49
-0.5
 62
   256
  6
BYLAYER
  0
ACDBPLACEHOLDER
  5
F
102
{ACAD_REACTORS
330
E
102
}
330
E
  0
SCALE
  5
48
102
{ACAD_REACTORS
330
47
102
}
330
47
100
AcDbScale
 70
     0
300
1:1
140
1.0
141
1.0
290
     1
  0
SCALE
  5
49
102
{ACAD_REACTORS
330
47
102
}
330
47
100
AcDbScale
 70
     0
300
1:2
140
1.0
141
2.0
290
     0
  0
SCALE
  5
4A
102
{ACAD_REACTORS
330
47
102
}
330
47
100
AcDbScale
 70
     0
300
1:4
140
1.0
141
4.0
290
     0
  0
SCALE
  5
4B
102
{ACAD_REACTORS
330
47
102
}
330
47
100
AcDbScale
 70
     0
300
1:5
140
1.0
141
5.0
290
     0
  0
SCALE
  5
4C
102
{ACAD_REACTORS
330
47
102
}
330
47
100
AcDbScale
 70
     0
300
1:8
140
1.0
141
8.0
290
     0
  0
SCALE
  5
4D
102
{ACAD_REACTORS
330
47
102
}
330
47
100
AcDbScale
 70
     0
300
1:10
140
1.0
141
10.0
290
     0
  0
SCALE
  5
4E
102
{ACAD_REACTORS
330
47
102
}
330
47
100
AcDbScale
 70
     0
300
1:16
140
1.0
141
16.0
290
     0
  0
SCALE
  5
4F
102
{ACAD_REACTORS
330
47
102
}
330
47
100
AcDbScale
 70
     0
300
1:20
140
1.0
141
20.0
290
     0
  0
SCALE
  5
50
102
{ACAD_REACTORS
330
47
102
}
330
47
100
AcDbScale
 70
     0
300
1:30
140
1.0
141
30.0
290
     0
  0
SCALE
  5
51
102
{ACAD_REACTORS
330
47
102
}
330
47
100
AcDbScale
 70
     0
300
1:40
140
1.0
141
40.0
290
     0
  0
SCALE
  5
52
102
{ACAD_REACTORS
330
47
102
}
330
47
100
AcDbScale
 70
     0
300
1:50
140
1.0
141
50.0
290
     0
  0
SCALE
  5
53
102
{ACAD_REACTORS
330
47
102
}
330
47
100
AcDbScale
 70
     0
300
1:100
140
1.0
141
100.0
290
     0
  0
SCALE
  5
54
102
{ACAD_REACTORS
330
47
102
}
330
47
100
AcDbScale
 70
     0
300
2:1
140
2.0
141
1.0
290
     0
  0
SCALE
  5
55
102
{ACAD_REACTORS
330
47
102
}
330
47
100
AcDbScale
 70
     0
300
4:1
140
4.0
141
1.0
290
     0
  0
SCALE
  5
56
102
{ACAD_REACTORS
330
47
102
}
330
47
100
AcDbScale
 70
     0
300
8:1
140
8.0
141
1.0
290
     0
  0
SCALE
  5
57
102
{ACAD_REACTORS
330
47
102
}
330
47
100
AcDbScale
 70
     0
300
10:1
140
10.0
141
1.0
290
     0
  0
SCALE
  5
58
102
{ACAD_REACTORS
330
47
102
}
330
47
100
AcDbScale
 70
     0
300
100:1
140
100.0
141
1.0
290
     0
  0
SCALE
  5
59
102
{ACAD_REACTORS
330
47
102
}
330
47
100
AcDbScale
 70
     0
300
1/128" = 1'-0"
140
0.0078125
141
12.0
290
     0
  0
SCALE
  5
5A
102
{ACAD_REACTORS
330
47
102
}
330
47
100
AcDbScale
 70
     0
300
1/64" = 1'-0"
140
0.015625
141
12.0
290
     0
  0
SCALE
  5
5B
102
{ACAD_REACTORS
330
47
102
}
330
47
100
AcDbScale
 70
     0
300
1/32" = 1'-0"
140
0.03125
141
12.0
290
     0
  0
SCALE
  5
5C
102
{ACAD_REACTORS
330
47
102
}
330
47
100
AcDbScale
 70
     0
300
1/16" = 1'-0"
140
0.0625
141
12.0
290
     0
  0
SCALE
  5
5D
102
{ACAD_REACTORS
330
47
102
}
330
47
100
AcDbScale
 70
     0
300
3/32" = 1'-0"
140
0.09375
141
12.0
290
     0
  0
SCALE
  5
5E
102
{ACAD_REACTORS
330
47
102
}
330
47
100
AcDbScale
 70
     0
300
1/8" = 1'-0"
140
0.125
141
12.0
290
     0
  0
SCALE
  5
5F
102
{ACAD_REACTORS
330
47
102
}
330
47
100
AcDbScale
 70
     0
300
3/16" = 1'-0"
140
0.1875
141
12.0
290
     0
  0
SCALE
  5
60
102
{ACAD_REACTORS
330
47
102
}
330
47
100
AcDbScale
 70
     0
300
1/4" = 1'-0"
140
0.25
141
12.0
290
     0
  0
SCALE
  5
61
102
{ACAD_REACTORS
330
47
102
}
330
47
100
AcDbScale
 70
     0
300
3/8" = 1'-0"
140
0.375
141
12.0
290
     0
  0
SCALE
  5
62
102
{ACAD_REACTORS
330
47
102
}
330
47
100
AcDbScale
 70
     0
300
1/2" = 1'-0"
140
0.5
141
12.0
290
     0
  0
SCALE
  5
63
102
{ACAD_REACTORS
330
47
102
}
330
47
100
AcDbScale
 70
     0
300
3/4" = 1'-0"
140
0.75
141
12.0
290
     0
  0
SCALE
  5
64
102
{ACAD_REACTORS
330
47
102
}
330
47
100
AcDbScale
 70
     0
300
1" = 1'-0"
140
1.0
141
12.0
290
     0
  0
SCALE
  5
65
102
{ACAD_REACTORS
330
47
102
}
330
47
100
AcDbScale
 70
     0
300
1-1/2" = 1'-0"
140
1.5
141
12.0
290
     0
  0
SCALE
  5
66
102
{ACAD_REACTORS
330
47
102
}
330
47
100
AcDbScale
 70
     0
300
3" = 1'-0"
140
3.0
141
12.0
290
     0
  0
SCALE
  5
67
102
{ACAD_REACTORS
330
47
102
}
330
47
100
AcDbScale
 70
     0
300
6" = 1'-0"
140
6.0
141
12.0
290
     0
  0
SCALE
  5
68
102
{ACAD_REACTORS
330
47
102
}
330
47
100
AcDbScale
 70
     0
300
1'-0" = 1'-0"
140
12.0
141
12.0
290
     0
  0
ENDSEC
  0
EOF
