  0
SECTION
  2
HEADER
  9
$ACADVER
  1
AC1015
  9
$ACADMAINTVER
 70
     6
  9
$DWGCODEPAGE
  3
ANSI_1252
  9
$INSBASE
 10
0.0
 20
0.0
 30
0.0
  9
$EXTMIN
 10
-35.0
 20
-35.0
 30
0.0
  9
$EXTMAX
 10
35.0
 20
35.0
 30
0.0
  9
$LIMMIN
 10
0.0
 20
0.0
  9
$LIMMAX
 10
420.0
 20
297.0
  9
$ORTHOMODE
 70
     0
  9
$REGENMODE
 70
     1
  9
$FILLMODE
 70
     1
  9
$QTEXTMODE
 70
     0
  9
$MIRRTEXT
 70
     1
  9
$LTSCALE
 40
1.0
  9
$ATTMODE
 70
     1
  9
$TEXTSIZE
 40
6.35
  9
$TRACEWID
 40
1.0
  9
$TEXTSTYLE
  7
Standard
  9
$CLAYER
  8
0
  9
$CELTYPE
  6
ByLayer
  9
$CECOLOR
 62
   256
  9
$CELTSCALE
 40
1.0
  9
$DISPSILH
 70
     0
  9
$DIMSCALE
 40
1.0
  9
$DIMASZ
 40
5.9944
  9
$DIMEXO
 40
0.9906
  9
$DIMDLI
 40
3.75
  9
$DIMRND
 40
0.0
  9
$DIMDLE
 40
0.0
  9
$DIMEXE
 40
0.9906
  9
$DIMTP
 40
0.0
  9
$DIMTM
 40
0.0
  9
$DIMTXT
 40
6.35
  9
$DIMCEN
 40
2.5
  9
$DIMTSZ
 40
0.0
  9
$DIMTOL
 70
     0
  9
$DIMLIM
 70
     0
  9
$DIMTIH
 70
     1
  9
$DIMTOH
 70
     1
  9
$DIMSE1
 70
     0
  9
$DIMSE2
 70
     0
  9
$DIMTAD
 70
     1
  9
$DIMZIN
 70
     0
  9
$DIMBLK
  1

  9
$DIMASO
 70
     1
  9
$DIMSHO
 70
     1
  9
$DIMPOST
  1

  9
$DIMAPOST
  1

  9
$DIMALT
 70
     0
  9
$DIMALTD
 70
     3
  9
$DIMALTF
 40
0.0393700787
  9
$DIMLFAC
 40
1.0
  9
$DIMTOFL
 70
     1
  9
$DIMTVP
 40
0.0
  9
$DIMTIX
 70
     0
  9
$DIMSOXD
 70
     0
  9
$DIMSAH
 70
     0
  9
$DIMBLK1
  1

  9
$DIMBLK2
  1

  9
$DIMSTYLE
  2
ISO-25
  9
$DIMCLRD
 70
     0
  9
$DIMCLRE
 70
     0
  9
$DIMCLRT
 70
     0
  9
$DIMTFAC
 40
1.0
  9
$DIMGAP
 40
1.524
  9
$DIMJUST
 70
     0
  9
$DIMSD1
 70
     0
  9
$DIMSD2
 70
     0
  9
$DIMTOLJ
 70
     0
  9
$DIMTZIN
 70
     0
  9
$DIMALTZ
 70
     0
  9
$DIMALTTZ
 70
     0
  9
$DIMUPT
 70
     0
  9
$DIMDEC
 70
     2
  9
$DIMTDEC
 70
     2
  9
$DIMALTU
 70
     2
  9
$DIMALTTD
 70
     3
  9
$DIMTXSTY
  7
Standard
  9
$DIMAUNIT
 70
     0
  9
$DIMADEC
 70
     2
  9
$DIMALTRND
 40
0.0
  9
$DIMAZIN
 70
     0
  9
$DIMDSEP
 70
    44
  9
$DIMATFIT
 70
     3
  9
$DIMFRAC
 70
     0
  9
$DIMLDRBLK
  1

  9
$DIMLUNIT
 70
     2
  9
$DIMLWD
 70
    -2
  9
$DIMLWE
 70
    -2
  9
$DIMTMOVE
 70
     0
  9
$LUNITS
 70
     2
  9
$LUPREC
 70
     2
  9
$SKETCHINC
 40
1.0
  9
$FILLETRAD
 40
10.0
  9
$AUNITS
 70
     0
  9
$AUPREC
 70
     2
  9
$MENU
  1
.
  9
$ELEVATION
 40
0.0
  9
$PELEVATION
 40
0.0
  9
$THICKNESS
 40
0.0
  9
$LIMCHECK
 70
     0
  9
$CHAMFERA
 40
0.0
  9
$CHAMFERB
 40
0.0
  9
$CHAMFERC
 40
0.0
  9
$CHAMFERD
 40
0.0
  9
$SKPOLY
 70
     0
  9
$TDCREATE
 40
2457611.492882917
  9
$TDUCREATE
 40
2457611.784549583
  9
$TDUPDATE
 40
2457611.492922558
  9
$TDUUPDATE
 40
2457611.784589224
  9
$TDINDWG
 40
0.0000000116
  9
$TDUSRTIMER
 40
0.0000000116
  9
$USRTIMER
 70
     1
  9
$ANGBASE
 50
0.0
  9
$ANGDIR
 70
     0
  9
$PDMODE
 70
     0
  9
$PDSIZE
 40
-1.0
  9
$PLINEWID
 40
0.0
  9
$SPLFRAME
 70
     0
  9
$SPLINETYPE
 70
     6
  9
$SPLINESEGS
 70
     8
  9
$HANDSEED
  5
DA
  9
$SURFTAB1
 70
     6
  9
$SURFTAB2
 70
     6
  9
$SURFTYPE
 70
     6
  9
$SURFU
 70
     6
  9
$SURFV
 70
     6
  9
$UCSBASE
  2

  9
$UCSNAME
  2

  9
$UCSORG
 10
0.0
 20
0.0
 30
0.0
  9
$UCSXDIR
 10
1.0
 20
0.0
 30
0.0
  9
$UCSYDIR
 10
0.0
 20
1.0
 30
0.0
  9
$UCSORTHOREF
  2

  9
$UCSORTHOVIEW
 70
     0
  9
$UCSORGTOP
 10
0.0
 20
0.0
 30
0.0
  9
$UCSORGBOTTOM
 10
0.0
 20
0.0
 30
0.0
  9
$UCSORGLEFT
 10
0.0
 20
0.0
 30
0.0
  9
$UCSORGRIGHT
 10
0.0
 20
0.0
 30
0.0
  9
$UCSORGFRONT
 10
0.0
 20
0.0
 30
0.0
  9
$UCSORGBACK
 10
0.0
 20
0.0
 30
0.0
  9
$PUCSBASE
  2

  9
$PUCSNAME
  2

  9
$PUCSORG
 10
0.0
 20
0.0
 30
0.0
  9
$PUCSXDIR
 10
1.0
 20
0.0
 30
0.0
  9
$PUCSYDIR
 10
0.0
 20
1.0
 30
0.0
  9
$PUCSORTHOREF
  2

  9
$PUCSORTHOVIEW
 70
     0
  9
$PUCSORGTOP
 10
0.0
 20
0.0
 30
0.0
  9
$PUCSORGBOTTOM
 10
0.0
 20
0.0
 30
0.0
  9
$PUCSORGLEFT
 10
0.0
 20
0.0
 30
0.0
  9
$PUCSORGRIGHT
 10
0.0
 20
0.0
 30
0.0
  9
$PUCSORGFRONT
 10
0.0
 20
0.0
 30
0.0
  9
$PUCSORGBACK
 10
0.0
 20
0.0
 30
0.0
  9
$USERI1
 70
     0
  9
$USERI2
 70
     0
  9
$USERI3
 70
     0
  9
$USERI4
 70
     0
  9
$USERI5
 70
     0
  9
$USERR1
 40
0.0
  9
$USERR2
 40
0.0
  9
$USERR3
 40
0.0
  9
$USERR4
 40
0.0
  9
$USERR5
 40
0.0
  9
$WORLDVIEW
 70
     1
  9
$SHADEDGE
 70
     3
  9
$SHADEDIF
 70
    70
  9
$TILEMODE
 70
     1
  9
$MAXACTVP
 70
    64
  9
$PINSBASE
 10
0.0
 20
0.0
 30
0.0
  9
$PLIMCHECK
 70
     0
  9
$PEXTMIN
 10
1.0000000000E+20
 20
1.0000000000E+20
 30
1.0000000000E+20
  9
$PEXTMAX
 10
-1.0000000000E+20
 20
-1.0000000000E+20
 30
-1.0000000000E+20
  9
$PLIMMIN
 10
0.0
 20
0.0
  9
$PLIMMAX
 10
420.0
 20
297.0
  9
$UNITMODE
 70
     0
  9
$VISRETAIN
 70
     1
  9
$PLINEGEN
 70
     0
  9
$PSLTSCALE
 70
     1
  9
$TREEDEPTH
 70
  3020
  9
$CMLSTYLE
  2
Standard
  9
$CMLJUST
 70
     0
  9
$CMLSCALE
 40
20.0
  9
$PROXYGRAPHICS
 70
     1
  9
$MEASUREMENT
 70
     1
  9
$CELWEIGHT
370
    -1
  9
$ENDCAPS
280
     0
  9
$JOINSTYLE
280
     0
  9
$LWDISPLAY
290
     1
  9
$INSUNITS
 70
     4
  9
$HYPERLINKBASE
  1

  9
$STYLESHEET
  1

  9
$XEDIT
290
     1
  9
$CEPSNTYPE
380
     0
  9
$PSTYLEMODE
290
     1
  9
$FINGERPRINTGUID
  2
{D2A53ABB-9BA0-452D-AA74-70C3EAEF1428}
  9
$VERSIONGUID
  2
{FAEB1C32-E019-11D5-929B-00C0DF256EC4}
  9
$EXTNAMES
290
     1
  9
$PSVPSCALE
 40
0.0
  9
$OLESTARTUP
290
     0
  0
ENDSEC
  0
SECTION
  2
CLASSES
  0
CLASS
  1
ACDBDICTIONARYWDFLT
  2
AcDbDictionaryWithDefault
  3
ObjectDBX Classes
 90
        0
280
     0
281
     0
  0
CLASS
  1
VISUALSTYLE
  2
AcDbVisualStyle
  3
ObjectDBX Classes
 90
     4095
280
     0
281
     0
  0
CLASS
  1
MATERIAL
  2
AcDbMaterial
  3
ObjectDBX Classes
 90
     1153
280
     0
281
     0
  0
CLASS
  1
SCALE
  2
AcDbScale
  3
ObjectDBX Classes
 90
     1153
280
     0
281
     0
  0
CLASS
  1
TABLESTYLE
  2
AcDbTableStyle
  3
ObjectDBX Classes
 90
     4095
280
     0
281
     0
  0
CLASS
  1
MLEADERSTYLE
  2
AcDbMLeaderStyle
  3
ACDB_MLEADERSTYLE_CLASS
 90
     4095
280
     0
281
     0
  0
CLASS
  1
SUN
  2
AcDbSun
  3
SCENEOE
 90
     1153
280
     0
281
     0
  0
CLASS
  1
ACDBPLACEHOLDER
  2
AcDbPlaceHolder
  3
ObjectDBX Classes
 90
        0
280
     0
281
     0
  0
CLASS
  1
LAYOUT
  2
AcDbLayout
  3
ObjectDBX Classes
 90
        0
280
     0
281
     0
  0
ENDSEC
  0
SECTION
  2
TABLES
  0
TABLE
  2
VPORT
  5
8
330
0
100
AcDbSymbolTable
 70
     1
  0
VPORT
  5
29
330
8
100
AcDbSymbolTableRecord
100
AcDbViewportTableRecord
  2
*Active
 70
     0
 10
0.0
 20
0.0
 11
1.0
 21
1.0
 12
0.0
 22
0.0
 13
0.0
 23
0.0
 14
10.0
 24
10.0
 15
10.0
 25
10.0
 16
0.0
 26
0.0
 36
1.0
 17
0.0
 27
0.0
 37
0.0
 40
71.4
 41
1.0
 42
50.0
 43
0.0
 44
0.0
 50
0.0
 51
0.0
 71
     0
 72
   100
 73
     1
 74
     3
 75
     0
 76
     0
 77
     0
 78
     0
281
     0
 65
     1
110
0.0
120
0.0
130
0.0
111
1.0
121
0.0
131
0.0
112
0.0
122
1.0
132
0.0
 79
     0
146
0.0
  0
ENDTAB
  0
TABLE
  2
LTYPE
  5
5
330
0
100
AcDbSymbolTable
 70
     6
  0
LTYPE
  5
14
330
5
100
AcDbSymbolTableRecord
100
AcDbLinetypeTableRecord
  2
ByBlock
 70
     0
  3

 72
    65
 73
     0
 40
0.0
  0
LTYPE
  5
15
330
5
100
AcDbSymbolTableRecord
100
AcDbLinetypeTableRecord
  2
ByLayer
 70
     0
  3

 72
    65
 73
     0
 40
0.0
  0
LTYPE
  5
16
330
5
100
AcDbSymbolTableRecord
100
AcDbLinetypeTableRecord
  2
Continuous
 70
     0
  3
Solid line
 72
    65
 73
     0
 40
0.0
  0
LTYPE
  5
6E
330
5
100
AcDbSymbolTableRecord
100
AcDbLinetypeTableRecord
  2
HIDDEN
 70
     0
  3
Hidden __ __ __ __ __ __ __ __ __ __ __ __ __ __
 72
    65
 73
     2
 40
1.905
 49
1.27
 74
     0
 49
-0.635
 74
     0
  0
LTYPE
  5
6F
330
5
100
AcDbSymbolTableRecord
100
AcDbLinetypeTableRecord
  2
PHANTOM
 70
     0
  3
Phantom ______  __  __  ______  __  __  ______
 72
    65
 73
     6
 40
12.7
 49
6.35
 74
     0
 49
-1.27
 74
     0
 49
1.27
 74
     0
 49
-1.27
 74
     0
 49
1.27
 74
     0
 49
-1.27
 74
     0
  0
LTYPE
  5
70
330
5
100
AcDbSymbolTableRecord
100
AcDbLinetypeTableRecord
  2
CENTER
 70
     0
  3
Center ____ _ ____ _ ____ _ ____ _ ____ _ ____
 72
    65
 73
     4
 40
10.16
 49
6.35
 74
     0
 49
-1.27
 74
     0
 49
1.27
 74
     0
 49
-1.27
 74
     0
  0
LTYPE
  5
71
330
5
100
AcDbSymbolTableRecord
100
AcDbLinetypeTableRecord
  2
CENTERX2
 70
     0
  3
Center (2x) ________  __  ________  __  _____
 72
    65
 73
     4
 40
20.32
 49
12.7
 74
     0
 49
-2.54
 74
     0
 49
2.54
 74
     0
 49
-2.54
 74
     0
  0
LTYPE
  5
72
330
5
100
AcDbSymbolTableRecord
100
AcDbLinetypeTableRecord
  2
DOT2
 70
     0
  3
Dot (.5x) ........................................
 72
    65
 73
     2
 40
0.635
 49
0.0
 74
     0
 49
-0.635
 74
     0
  0
ENDTAB
  0
TABLE
  2
LAYER
  5
2
330
0
100
AcDbSymbolTable
 70
     1
  0
LAYER
  5
10
330
2
100
AcDbSymbolTableRecord
100
AcDbLayerTableRecord
  2
0
 70
     0
 62
     7
  6
Continuous
370
    -3
390
F
  0
ENDTAB
  0
TABLE
  2
STYLE
  5
3
330
0
100
AcDbSymbolTable
 70
     1
  0
STYLE
  5
11
330
3
100
AcDbSymbolTableRecord
100
AcDbTextStyleTableRecord
  2
Standard
 70
     0
 40
0.0
 41
1.0
 50
0.0
 71
     0
 42
6.35
  3
txt
  4

  0
ENDTAB
  0
TABLE
  2
VIEW
  5
6
330
0
100
AcDbSymbolTable
 70
     0
  0
ENDTAB
  0
TABLE
  2
UCS
  5
7
330
0
100
AcDbSymbolTable
 70
     0
  0
ENDTAB
  0
TABLE
  2
APPID
  5
9
330
0
100
AcDbSymbolTable
 70
     1
  0
APPID
  5
12
330
9
100
AcDbSymbolTableRecord
100
AcDbRegAppTableRecord
  2
ACAD
 70
     0
  0
ENDTAB
  0
TABLE
  2
DIMSTYLE
  5
A
330
0
100
AcDbSymbolTable
 70
     1
100
AcDbDimStyleTable
  0
DIMSTYLE
105
27
330
A
100
AcDbSymbolTableRecord
100
AcDbDimStyleTableRecord
  2
ISO-25
 70
     0
 41
2.5
 42
0.625
 43
3.75
 44
1.25
 73
     0
 74
     0
 77
     1
 78
     8
140
2.5
141
2.5
143
0.0393700787
147
0.625
171
     3
172
     1
178
     0
271
     2
272
     2
274
     3
278
    44
283
     0
284
     8
340
11
  0
ENDTAB
  0
TABLE
  2
BLOCK_RECORD
  5
1
330
0
100
AcDbSymbolTable
 70
     1
  0
BLOCK_RECORD
  5
1F
330
1
100
AcDbSymbolTableRecord
100
AcDbBlockTableRecord
  2
*Model_Space
340
22
  0
BLOCK_RECORD
  5
1B
330
1
100
AcDbSymbolTableRecord
100
AcDbBlockTableRecord
  2
*Paper_Space
340
1E
  0
BLOCK_RECORD
  5
23
330
1
100
AcDbSymbolTableRecord
100
AcDbBlockTableRecord
  2
*Paper_Space0
340
26
  0
ENDTAB
  0
ENDSEC
  0
SECTION
  2
BLOCKS
  0
BLOCK
  5
20
330
1F
100
AcDbEntity
  8
0
100
AcDbBlockBegin
  2
*Model_Space
 70
     0
 10
0.0
 20
0.0
 30
0.0
  3
*Model_Space
  1

  0
ENDBLK
  5
21
330
1F
100
AcDbEntity
  8
0
100
AcDbBlockEnd
  0
BLOCK
  5
1C
330
1B
100
AcDbEntity
 67
     1
  8
0
100
AcDbBlockBegin
  2
*Paper_Space
 70
     0
 10
0.0
 20
0.0
 30
0.0
  3
*Paper_Space
  1

  0
ENDBLK
  5
1D
330
1B
100
AcDbEntity
 67
     1
  8
0
100
AcDbBlockEnd
  0
BLOCK
  5
24
330
23
100
AcDbEntity
  8
0
100
AcDbBlockBegin
  2
*Paper_Space0
 70
     0
 10
0.0
 20
0.0
 30
0.0
  3
*Paper_Space0
  1

  0
ENDBLK
  5
25
330
23
100
AcDbEntity
  8
0
100
AcDbBlockEnd
  0
ENDSEC
  0
SECTION
  2
ENTITIES
  0
CIRCLE
  5
73
330
1F
100
AcDbEntity
  8
0
  6
Continuous
 62
     7
370
    15
100
AcDbCircle
 10
-14.0
 20
24.248711306
 30
0.0
 40
1.249999999999991
  0
CIRCLE
  5
74
330
1F
100
AcDbEntity
  8
0
  6
Continuous
 62
     7
370
    15
100
AcDbCircle
 10
14.0
 20
24.248711306
 30
0.0
 40
1.249999999999991
  0
CIRCLE
  5
75
330
1F
100
AcDbEntity
  8
0
  6
Continuous
 62
     7
370
    15
100
AcDbCircle
 10
24.248711306
 20
-14.0
 30
0.0
 40
1.25
  0
CIRCLE
  5
76
330
1F
100
AcDbEntity
  8
0
  6
Continuous
 62
     7
370
    15
100
AcDbCircle
 10
24.248711306
 20
14.0
 30
0.0
 40
1.25
  0
CIRCLE
  5
77
330
1F
100
AcDbEntity
  8
0
  6
Continuous
 62
     7
370
    15
100
AcDbCircle
 10
14.0
 20
-24.248711306
 30
0.0
 40
1.250000000000004
  0
CIRCLE
  5
78
330
1F
100
AcDbEntity
  8
0
  6
Continuous
 62
     7
370
    15
100
AcDbCircle
 10
28.0
 20
0.0
 30
0.0
 40
1.25
  0
CIRCLE
  5
79
330
1F
100
AcDbEntity
  8
0
  6
Continuous
 62
     7
370
    15
100
AcDbCircle
 10
0.0
 20
-28.0
 30
0.0
 40
1.25
  0
CIRCLE
  5
7A
330
1F
100
AcDbEntity
  8
0
  6
Continuous
 62
     7
370
    15
100
AcDbCircle
 10
-24.248711306
 20
-14.0
 30
0.0
 40
1.25
  0
CIRCLE
  5
7B
330
1F
100
AcDbEntity
  8
0
  6
Continuous
 62
     7
370
    15
100
AcDbCircle
 10
-28.0
 20
0.0
 30
0.0
 40
1.25
  0
CIRCLE
  5
7C
330
1F
100
AcDbEntity
  8
0
  6
Continuous
 62
     7
370
    15
100
AcDbCircle
 10
0.0
 20
28.0
 30
0.0
 40
1.250000000000008
  0
CIRCLE
  5
7D
330
1F
100
AcDbEntity
  8
0
  6
Continuous
 62
     7
370
    15
100
AcDbCircle
 10
-14.0
 20
-24.248711306
 30
0.0
 40
1.250000000000002
  0
CIRCLE
  5
7E
330
1F
100
AcDbEntity
  8
0
  6
Continuous
 62
     7
370
    15
100
AcDbCircle
 10
-24.248711306
 20
14.0
 30
0.0
 40
1.25
  0
SPLINE
  5
7F
330
1F
100
AcDbEntity
  8
0
  6
Continuous
 62
     7
370
    15
100
AcDbSpline
210
0.0
220
0.0
230
1.0
 70
     8
 71
     3
 72
    23
 73
    19
 74
     0
 42
0.000000001
 43
0.00000001
 40
0.0
 40
0.0
 40
0.0
 40
0.0
 40
0.0645039992970558
 40
0.1268993215900403
 40
0.1877465401000116
 40
0.2481497329298263
 40
0.3085860647627415
 40
0.3695830050869941
 40
0.4318269653810495
 40
0.4961797225241574
 40
0.5606678546118796
 40
0.6235044551176645
 40
0.6852604113304277
 40
0.7465368217511666
 40
0.8083273517367074
 40
0.8704861878877675
 40
0.9343168833592462
 40
1.0
 40
1.0
 40
1.0
 40
1.0
 10
-14.84751356290932
 20
15.47002455790435
 30
0.0
 10
-14.84520059907206
 20
15.37829024301889
 30
0.0
 10
-14.84065028366514
 20
15.19782046668948
 30
0.0
 10
-14.80081297788449
 20
14.93335540564108
 30
0.0
 10
-14.73945025280578
 20
14.67919522898842
 30
0.0
 10
-14.64899474512776
 20
14.43673062212732
 30
0.0
 10
-14.53587291567746
 20
14.20387742327576
 30
0.0
 10
-14.39612412903627
 20
13.98270129048569
 30
0.0
 10
-14.2305540737896
 20
13.7731424469973
 30
0.0
 10
-14.04247881838347
 20
13.57666388758078
 30
0.0
 10
-13.83687905069565
 20
13.39732935703194
 30
0.0
 10
-13.61856109782449
 20
13.23991574420443
 30
0.0
 10
-13.38986383852611
 20
13.10672857666752
 30
0.0
 10
-13.15019088503347
 20
12.99822508820054
 30
0.0
 10
-12.90082177850882
 20
12.91224656390807
 30
0.0
 10
-12.64014965019804
 20
12.85332104743381
 30
0.0
 10
-12.3699109592392
 20
12.8145398641235
 30
0.0
 10
-12.18570534202015
 20
12.81081557838088
 30
0.0
 10
-12.09228519752471
 20
12.8089268014941
 30
0.0
  0
SPLINE
  5
80
330
1F
100
AcDbEntity
  8
0
  6
Continuous
 62
     7
370
    15
100
AcDbSpline
210
0.0
220
0.0
230
1.0
 70
     8
 71
     3
 72
    31
 73
    27
 74
     0
 42
0.000000001
 43
0.00000001
 40
0.0
 40
0.0
 40
0.0
 40
0.0
 40
0.0420233285259235
 40
0.0836449111687117
 40
0.1249837954173947
 40
0.1662474611728953
 40
0.2077015560969881
 40
0.2496310707996498
 40
0.2917417703321309
 40
0.3347428753531984
 40
0.3774601685508656
 40
0.4195563188419396
 40
0.4610441763330341
 40
0.5020962839443968
 40
0.5428907140755999
 40
0.5838008186265056
 40
0.6248635833101929
 40
0.6662246890691707
 40
0.7073991864779363
 40
0.7485566775366932
 40
0.7896545909521802
 40
0.8307397264898324
 40
0.8720701422586048
 40
0.9139933952421326
 40
0.9564981300675887
 40
1.0
 40
1.0
 40
1.0
 40
1.0
 10
-12.09228519752471
 20
18.18200372457102
 30
0.0
 10
-12.15254603267308
 20
18.18126913796871
 30
0.0
 10
-12.27249160528114
 20
18.17980698746205
 30
0.0
 10
-12.45080783532881
 20
18.16054704635257
 30
0.0
 10
-12.62677891527899
 20
18.13309710493311
 30
0.0
 10
-12.8004411866475
 20
18.09394206011745
 30
0.0
 10
-12.97106802594724
 20
18.04059470722817
 30
0.0
 10
-13.14024988064698
 20
17.97919763094167
 30
0.0
 10
-13.306443992666
 20
17.90441079514713
 30
0.0
 10
-13.46910170620538
 20
17.81991460293361
 30
0.0
 10
-13.62679048539883
 20
17.72639013233253
 30
0.0
 10
-13.77558495803818
 20
17.62302706928311
 30
0.0
 10
-13.91587032637241
 20
17.51224940657731
 30
0.0
 10
-14.04730311015663
 20
17.39379861590703
 30
0.0
 10
-14.16949737967323
 20
17.26707148122878
 30
0.0
 10
-14.28485819516609
 20
17.13398920427232
 30
0.0
 10
-14.38876157900969
 20
16.99074791623598
 30
0.0
 10
-14.48398541125279
 20
16.84123189234892
 30
0.0
 10
-14.56919849289885
 20
16.68563588073269
 30
0.0
 10
-14.64497277932396
 20
16.5255979877609
 30
0.0
 10
-14.70695605244251
 20
16.35981275603441
 30
0.0
 10
-14.75750636370094
 20
16.1900787844318
 30
0.0
 10
-14.79941602052291
 20
16.01666489332806
 30
0.0
 10
-14.82596613995121
 20
15.8382555675769
 30
0.0
 10
-14.84543770637947
 20
15.65574729289458
 30
0.0
 10
-14.84681628312917
 20
15.53240878627519
 30
0.0
 10
-14.84751356290932
 20
15.47002455790435
 30
0.0
  0
SPLINE
  5
81
330
1F
100
AcDbEntity
  8
0
  6
Continuous
 62
     7
370
    15
100
AcDbSpline
210
0.0
220
0.0
230
1.0
 70
     8
 71
     3
 72
    31
 73
    27
 74
     0
 42
0.000000001
 43
0.00000001
 40
0.0
 40
0.0
 40
0.0
 40
0.0
 40
0.0429150821010496
 40
0.0851299705846988
 40
0.1264733185549985
 40
0.1674530378853888
 40
0.2079763328949881
 40
0.24824937806376
 40
0.2887499869834432
 40
0.3296698569108726
 40
0.3705372867119747
 40
0.4111285639171174
 40
0.4518189126736379
 40
0.4924058769342639
 40
0.5334858617420227
 40
0.5752630624415515
 40
0.6174406128021904
 40
0.6606716882923647
 40
0.7039402042434887
 40
0.7468675221598701
 40
0.7890793003947231
 40
0.8311040424574039
 40
0.8732379898547747
 40
0.915165769659333
 40
0.9573806581429823
 40
1.0
 40
1.0
 40
1.0
 40
1.0
 10
-9.311616127011886
 20
15.49928136880179
 30
0.0
 10
-9.312343860557991
 20
15.56081378368884
 30
0.0
 10
-9.313787454099943
 20
15.68287466328838
 30
0.0
 10
-9.332914515204129
 20
15.8633250051725
 30
0.0
 10
-9.360311844875127
 20
16.03977011741787
 30
0.0
 10
-9.3997956151754
 20
16.21151730285354
 30
0.0
 10
-9.45068660838145
 20
16.37861034118895
 30
0.0
 10
-9.513437907801205
 20
16.54089229773252
 30
0.0
 10
-9.587434093989451
 20
16.69896773738353
 30
0.0
 10
-9.672357586796181
 20
16.85244596194032
 30
0.0
 10
-9.767817723674792
 20
16.9997201294319
 30
0.0
 10
-9.87212870796744
 20
17.14051307787087
 30
0.0
 10
-9.987091553880644
 20
17.27218076567723
 30
0.0
 10
-10.10942162758023
 20
17.39797371058453
 30
0.0
 10
-10.24217451953445
 20
17.51520902458726
 30
0.0
 10
-10.38474888164946
 20
17.62392559778022
 30
0.0
 10
-10.53541383987383
 20
17.72674710970443
 30
0.0
 10
-10.69493896701654
 20
17.81950348618675
 30
0.0
 10
-10.85957442593006
 20
17.90516359410926
 30
0.0
 10
-11.02850974968032
 20
17.97855327124303
 30
0.0
 10
-11.19983111612697
 20
18.04091411641725
 30
0.0
 10
-11.3731028627867
 20
18.09410346729473
 30
0.0
 10
-11.54978340919519
 20
18.13294375055619
 30
0.0
 10
-11.72867892724601
 20
18.16057178387364
 30
0.0
 10
-11.90954191066173
 20
18.17980028399457
 30
0.0
 10
-12.03117746644591
 20
18.18126691362433
 30
0.0
 10
-12.09228519752471
 20
18.18200372457102
 30
0.0
  0
SPLINE
  5
82
330
1F
100
AcDbEntity
  8
0
  6
Continuous
 62
     7
370
    15
100
AcDbSpline
210
0.0
220
0.0
230
1.0
 70
     8
 71
     3
 72
    31
 73
    27
 74
     0
 42
0.000000001
 43
0.00000001
 40
0.0
 40
0.0
 40
0.0
 40
0.0
 40
0.0436332182657581
 40
0.0865377766972011
 40
0.129177336089892
 40
0.1714363236638287
 40
0.2134158945709081
 40
0.2552659545538503
 40
0.297369481156624
 40
0.3399407478985553
 40
0.3823474587518117
 40
0.4239529468152706
 40
0.4648711632610171
 40
0.5055722941182729
 40
0.5460025771083165
 40
0.5865679748069134
 40
0.6270647991481677
 40
0.6682706840331738
 40
0.7095492248503333
 40
0.7504281535131891
 40
0.7910961944485935
 40
0.8320271447794345
 40
0.8731359553359674
 40
0.9146107643654493
 40
0.9569559864804373
 40
1.0
 40
1.0
 40
1.0
 40
1.0
 10
-12.09228519752471
 20
12.8089268014941
 30
0.0
 10
-12.02949367317114
 20
12.80978950227273
 30
0.0
 10
-11.90495922146304
 20
12.81150049702181
 30
0.0
 10
-11.71972877376584
 20
12.82873381071152
 30
0.0
 10
-11.53783536105397
 20
12.85636877379875
 30
0.0
 10
-11.35953411041403
 20
12.89615724897481
 30
0.0
 10
-11.18502738118429
 20
12.94595432349433
 30
0.0
 10
-11.01358680981861
 20
13.0051140585058
 30
0.0
 10
-10.84703848309602
 20
13.07892138518809
 30
0.0
 10
-10.6832813487996
 20
13.16046981162431
 30
0.0
 10
-10.52653388173134
 20
13.25343409743486
 30
0.0
 10
-10.37689970171797
 20
13.35328902610246
 30
0.0
 10
-10.23815042398126
 20
13.46390352367599
 30
0.0
 10
-10.10681596583185
 20
13.58059441214869
 30
0.0
 10
-9.984120015802452
 20
13.70571453611819
 30
0.0
 10
-9.87089228727966
 20
13.83910122432612
 30
0.0
 10
-9.767514047521532
 20
13.98159641673485
 30
0.0
 10
-9.67232637438804
 20
14.13088565286365
 30
0.0
 10
-9.587411883388233
 20
14.28690742559252
 30
0.0
 10
-9.513426946542001
 20
14.44752555558459
 30
0.0
 10
-9.450659707816913
 20
14.6123445397213
 30
0.0
 10
-9.39998942048382
 20
14.78160210512321
 30
0.0
 10
-9.360282940001522
 20
14.95497678789315
 30
0.0
 10
-9.332923656739908
 20
15.13270072970017
 30
0.0
 10
-9.313785775194644
 20
15.31441839393222
 30
0.0
 10
-9.3123432780131
 20
15.43732510403421
 30
0.0
 10
-9.311616127011888
 20
15.49928136880179
 30
0.0
  0
SPLINE
  5
83
330
1F
100
AcDbEntity
  8
0
  6
Continuous
 62
     7
370
    15
100
AcDbSpline
210
0.0
220
0.0
230
1.0
 70
     8
 71
     3
 72
    23
 73
    19
 74
     0
 42
0.000000001
 43
0.00000001
 40
0.0
 40
0.0
 40
0.0
 40
0.0
 40
0.0652265038922755
 40
0.1285689957067288
 40
0.190320378104467
 40
0.251377988624063
 40
0.312387528333694
 40
0.3737887042767234
 40
0.4364311597804502
 40
0.5005667553098538
 40
0.5646867953847436
 40
0.6271355178835134
 40
0.6884554088949795
 40
0.7492457464637473
 40
0.8101551773646782
 40
0.8716709256529235
 40
0.9347734961077241
 40
1.0
 40
1.0
 40
1.0
 40
1.0
 10
-8.741744332140092
 20
15.49800933354538
 30
0.0
 10
-8.74455635257665
 20
15.38378653801276
 30
0.0
 10
-8.750099170631598
 20
15.15864017522903
 30
0.0
 10
-8.797576809874636
 20
14.8281799265193
 30
0.0
 10
-8.872036909827509
 20
14.51051537718728
 30
0.0
 10
-8.978347278473107
 20
14.20617683572419
 30
0.0
 10
-9.11482778939935
 20
13.91484325575053
 30
0.0
 10
-9.28293074273692
 20
13.6372812108506
 30
0.0
 10
-9.480944082226229
 20
13.37339970663614
 30
0.0
 10
-9.706290797672393
 20
13.12608958544462
 30
0.0
 10
-9.95194697389789
 20
12.89930846004336
 30
0.0
 10
-10.21543617225128
 20
12.70169849987441
 30
0.0
 10
-10.49083262410981
 20
12.53165615953072
 30
0.0
 10
-10.78168023748464
 20
12.39597720819378
 30
0.0
 10
-11.08412173286977
 20
12.28753386681485
 30
0.0
 10
-11.40086394761605
 20
12.21359695232935
 30
0.0
 10
-11.73042269566075
 20
12.16590474528632
 30
0.0
 10
-11.95516008827401
 20
12.16042829489602
 30
0.0
 10
-12.06938856290932
 20
12.15764475021204
 30
0.0
  0
SPLINE
  5
84
330
1F
100
AcDbEntity
  8
0
  6
Continuous
 62
     7
370
    15
100
AcDbSpline
210
0.0
220
0.0
230
1.0
 70
     8
 71
     3
 72
    23
 73
    19
 74
     0
 42
0.000000001
 43
0.00000001
 40
0.0
 40
0.0
 40
0.0
 40
0.0
 40
0.0665700352151799
 40
0.1307490414821778
 40
0.1934128000295041
 40
0.2549893988897086
 40
0.3161135558759002
 40
0.3772617579089843
 40
0.4394007841555528
 40
0.5029705893719761
 40
0.566524976360731
 40
0.628231102513309
 40
0.6890906105998631
 40
0.7493446689958043
 40
0.8101695933722061
 40
0.8716098243170436
 40
0.9348691840727638
 40
1.0
 40
1.0
 40
1.0
 40
1.0
 10
-12.12026997316573
 20
18.83328577585307
 30
0.0
 10
-12.00268955244687
 20
18.83030766327985
 30
0.0
 10
-11.77175190525518
 20
18.82445840447872
 30
0.0
 10
-11.43234459081309
 20
18.77968345945683
 30
0.0
 10
-11.1083220607968
 20
18.7022218233737
 30
0.0
 10
-10.79704480897073
 20
18.59905612658724
 30
0.0
 10
-10.50223612290946
 20
18.46143459882498
 30
0.0
 10
-10.22167698939083
 20
18.29509154398042
 30
0.0
 10
-9.956034946878717
 20
18.098284254519
 30
0.0
 10
-9.70889044039146
 20
17.87253408580251
 30
0.0
 10
-9.482727116306217
 20
17.62690981943824
 30
0.0
 10
-9.283471579789099
 20
17.36478561116309
 30
0.0
 10
-9.11648056116155
 20
17.08774635554955
 30
0.0
 10
-8.979346347304606
 20
16.79662456281385
 30
0.0
 10
-8.871761726860102
 20
16.492078620917
 30
0.0
 10
-8.797522890450004
 20
16.17248493022908
 30
0.0
 10
-8.75010081802968
 20
15.83991422109835
 30
0.0
 10
-8.744556764733293
 20
15.61307976652812
 30
0.0
 10
-8.741744332140092
 20
15.49800933354538
 30
0.0
  0
SPLINE
  5
85
330
1F
100
AcDbEntity
  8
0
  6
Continuous
 62
     7
370
    15
100
AcDbSpline
210
0.0
220
0.0
230
1.0
 70
     8
 71
     3
 72
    23
 73
    19
 74
     0
 42
0.000000001
 43
0.00000001
 40
0.0
 40
0.0
 40
0.0
 40
0.0
 40
0.065818876843307
 40
0.1297465269068312
 40
0.1920719544880058
 40
0.2534594242982025
 40
0.3145695877964202
 40
0.3762798811880263
 40
0.4390256536685598
 40
0.5032670288290859
 40
0.5674928228792948
 40
0.6297047956052448
 40
0.6909996492157556
 40
0.7514516509174468
 40
0.8120043642646944
 40
0.8731496810680428
 40
0.9356354837317855
 40
1.0
 40
1.0
 40
1.0
 40
1.0
 10
-12.06938856290932
 20
12.15764475021204
 30
0.0
 10
-12.18445839877227
 20
12.16045578064768
 30
0.0
 10
-12.41129167626043
 20
12.16599706991827
 30
0.0
 10
-12.7442802975923
 20
12.21349761863055
 30
0.0
 10
-13.06409849000183
 20
12.28777684124132
 30
0.0
 10
-13.36983167005853
 20
12.39392967552354
 30
0.0
 10
-13.66165032804434
 20
12.53112093698146
 30
0.0
 10
-13.9401251923616
 20
12.69840602471371
 30
0.0
 10
-14.20413850235718
 20
12.89690183799856
 30
0.0
 10
-14.45150138526481
 20
13.12217548045263
 30
0.0
 10
-14.67783207339582
 20
13.36741529625271
 30
0.0
 10
-14.87515265501007
 20
13.6301860161803
 30
0.0
 10
-15.04247536060346
 20
13.90533234466201
 30
0.0
 10
-15.17920597813059
 20
14.19361785269504
 30
0.0
 10
-15.28745435437027
 20
14.49364889873966
 30
0.0
 10
-15.36130452442262
 20
14.80742685075625
 30
0.0
 10
-15.40908546603325
 20
15.13316281130595
 30
0.0
 10
-15.41459154465009
 20
15.35494635541042
 30
0.0
 10
-15.41738535778112
 20
15.46748048739153
 30
0.0
  0
CIRCLE
  5
8E
330
1F
100
AcDbEntity
  8
0
  6
Continuous
 62
     7
370
    15
100
AcDbCircle
 10
0.0
 20
0.0
 30
0.0
 40
34.99999999999998
  0
CIRCLE
  5
93
330
1F
100
AcDbEntity
  8
0
  6
Continuous
 62
     7
370
    15
100
AcDbCircle
 10
4.6587428118
 20
17.3866648732
 30
0.0
 40
2.6
  0
CIRCLE
  5
94
330
1F
100
AcDbEntity
  8
0
  6
Continuous
 62
     7
370
    15
100
AcDbCircle
 10
-4.6587428118
 20
-17.3866648732
 30
0.0
 40
2.599999999999997
  0
CIRCLE
  5
95
330
1F
100
AcDbEntity
  8
0
  6
Continuous
 62
     7
370
    15
100
AcDbCircle
 10
-2.8470094961
 20
10.6251840892
 30
0.0
 40
1.142999999999997
  0
CIRCLE
  5
96
330
1F
100
AcDbEntity
  8
0
  6
Continuous
 62
     7
370
    15
100
AcDbCircle
 10
7.7781745931
 20
7.7781745931
 30
0.0
 40
1.142999999999998
  0
CIRCLE
  5
97
330
1F
100
AcDbEntity
  8
0
  6
Continuous
 62
     7
370
    15
100
AcDbCircle
 10
10.6251840892
 20
-2.8470094961
 30
0.0
 40
1.142999999999995
  0
CIRCLE
  5
98
330
1F
100
AcDbEntity
  8
0
  6
Continuous
 62
     7
370
    15
100
AcDbCircle
 10
2.8470094961
 20
-10.6251840892
 30
0.0
 40
1.143000000000001
  0
CIRCLE
  5
99
330
1F
100
AcDbEntity
  8
0
  6
Continuous
 62
     7
370
    15
100
AcDbCircle
 10
-7.7781745931
 20
-7.7781745931
 30
0.0
 40
1.142999999999997
  0
CIRCLE
  5
9A
330
1F
100
AcDbEntity
  8
0
  6
Continuous
 62
     7
370
    15
100
AcDbCircle
 10
-10.6251840892
 20
2.8470094961
 30
0.0
 40
1.142999999999997
  0
SPLINE
  5
9D
330
1F
100
AcDbEntity
  8
0
  6
Continuous
 62
     7
370
    15
100
AcDbSpline
210
0.0
220
0.0
230
1.0
 70
     8
 71
     3
 72
    15
 73
    11
 74
     0
 42
0.000000001
 43
0.00000001
 40
0.0
 40
0.0
 40
0.0
 40
0.0
 40
0.0751731173762219
 40
0.1647462575118012
 40
0.2680168809877796
 40
0.3859118756529554
 40
0.5177894792733976
 40
0.6636909770022812
 40
0.8244132205366416
 40
1.0
 40
1.0
 40
1.0
 40
1.0
 10
-4.798435037268298
 20
15.35554138482743
 30
0.0
 10
-4.838217486081291
 20
15.34708140487183
 30
0.0
 10
-4.925403035721257
 20
15.32854086691149
 30
0.0
 10
-5.068990545958024
 20
15.30784266663577
 30
0.0
 10
-5.23616860328784
 20
15.29017587682075
 30
0.0
 10
-5.426709025420366
 20
15.2769295272094
 30
0.0
 10
-5.640440781492368
 20
15.26558957299976
 30
0.0
 10
-5.877479491219187
 20
15.25657603122666
 30
0.0
 10
-6.138290459815935
 20
15.25162329641145
 30
0.0
 10
-6.320211145500233
 20
15.25136785804848
 30
0.0
 10
-6.415191848165732
 20
15.25123449380179
 30
0.0
  0
SPLINE
  5
9E
330
1F
100
AcDbEntity
  8
0
  6
Continuous
 62
     7
370
    15
100
AcDbSpline
210
0.0
220
0.0
230
1.0
 70
     8
 71
     3
 72
    23
 73
    19
 74
     0
 42
0.000000001
 43
0.00000001
 40
0.0
 40
0.0
 40
0.0
 40
0.0
 40
0.0701188944197161
 40
0.1371923527859709
 40
0.2020161807247504
 40
0.2646314069747445
 40
0.3261165471458186
 40
0.3860103046676416
 40
0.4458118469576792
 40
0.5052976967309597
 40
0.5646332777264881
 40
0.6242826253338398
 40
0.68390203190375
 40
0.7439527709382701
 40
0.8053877310076346
 40
0.8683880308962796
 40
0.933084028252477
 40
1.0
 40
1.0
 40
1.0
 40
1.0
 10
-3.53148792188368
 20
16.96721005469922
 30
0.0
 10
-3.53225250674908
 20
16.91499894538479
 30
0.0
 10
-3.533748468678553
 20
16.81284438365514
 30
0.0
 10
-3.551703157775164
 20
16.66339661079853
 30
0.0
 10
-3.575887933997683
 20
16.52057896013119
 30
0.0
 10
-3.613075443219889
 20
16.38470809999382
 30
0.0
 10
-3.66178116441271
 20
16.25659091642543
 30
0.0
 10
-3.718916746004172
 20
16.13426953833066
 30
0.0
 10
-3.787829722532194
 20
16.01982499074321
 30
0.0
 10
-3.867013913578391
 20
15.91284179177478
 30
0.0
 10
-3.955100377691208
 20
15.8132195222905
 30
0.0
 10
-4.051716422615526
 20
15.72168010942517
 30
0.0
 10
-4.156471996151722
 20
15.63875938114429
 30
0.0
 10
-4.269034179090268
 20
15.56427144332416
 30
0.0
 10
-4.390500333407991
 20
15.49994362194978
 30
0.0
 10
-4.519028240600996
 20
15.44232679729917
 30
0.0
 10
-4.655735061823622
 20
15.3939378729979
 30
0.0
 10
-4.750336480036078
 20
15.36848333298144
 30
0.0
 10
-4.798435037268298
 20
15.35554138482743
 30
0.0
  0
SPLINE
  5
9F
330
1F
100
AcDbEntity
  8
0
  6
Continuous
 62
     7
370
    15
100
AcDbSpline
210
0.0
220
0.0
230
1.0
 70
     8
 71
     3
 72
    23
 73
    19
 74
     0
 42
0.000000001
 43
0.00000001
 40
0.0
 40
0.0
 40
0.0
 40
0.0
 40
0.0624813386352047
 40
0.12349038268729
 40
0.1834110942063114
 40
0.2431532209997794
 40
0.3021267353720885
 40
0.3617096708329057
 40
0.4218422916948798
 40
0.482931901446669
 40
0.5445522544313237
 40
0.6056807199653579
 40
0.6676797383436885
 40
0.729984387538063
 40
0.7945509212861304
 40
0.8603456197120823
 40
0.9289073562657084
 40
1.0
 40
1.0
 40
1.0
 40
1.0
 10
-4.747553627011887
 20
18.57506261880179
 30
0.0
 10
-4.703659644287145
 20
18.56304850982142
 30
0.0
 10
-4.616905985630833
 20
18.53930338930961
 30
0.0
 10
-4.491899807432163
 20
18.4917442052895
 30
0.0
 10
-4.372966402060629
 20
18.43535227704254
 30
0.0
 10
-4.259697717452943
 20
18.37108312902734
 30
0.0
 10
-4.15348565245293
 20
18.29617931971638
 30
0.0
 10
-4.052745549557458
 20
18.21367718467511
 30
0.0
 10
-3.958366442449553
 20
18.12167191026511
 30
0.0
 10
-3.87087906003112
 20
18.02119542511335
 30
0.0
 10
-3.790533784414527
 20
17.91393447289978
 30
0.0
 10
-3.721355645752363
 20
17.79828785578191
 30
0.0
 10
-3.66343053384916
 20
17.67620220529163
 30
0.0
 10
-3.613749455585044
 20
17.54776244047759
 30
0.0
 10
-3.577992688190928
 20
17.41188999642903
 30
0.0
 10
-3.551056170153894
 20
17.26952896112157
 30
0.0
 10
-3.533959017194076
 20
17.12069459461315
 30
0.0
 10
-3.532321512295457
 20
17.0189859778253
 30
0.0
 10
-3.53148792188368
 20
16.96721005469922
 30
0.0
  0
SPLINE
  5
A0
330
1F
100
AcDbEntity
  8
0
  6
Continuous
 62
     7
370
    15
100
AcDbSpline
210
0.0
220
0.0
230
1.0
 70
     8
 71
     3
 72
    15
 73
    11
 74
     0
 42
0.000000001
 43
0.00000001
 40
0.0
 40
0.0
 40
0.0
 40
0.0
 40
0.1769557521312504
 40
0.3390550796425809
 40
0.4863182249420764
 40
0.6187809228353771
 40
0.7356188277673807
 40
0.8387424767201108
 40
0.9264570678763175
 40
1.0
 40
1.0
 40
1.0
 40
1.0
 10
-6.193857713550348
 20
18.67046526303256
 30
0.0
 10
-6.108203640960905
 20
18.67037110842417
 30
0.0
 10
-5.944086634004361
 20
18.67019070401312
 30
0.0
 10
-5.70874646150395
 20
18.66472109372944
 30
0.0
 10
-5.495005948410457
 20
18.65741552378971
 30
0.0
 10
-5.303325971586257
 20
18.64728837471077
 30
0.0
 10
-5.133116765057745
 20
18.63532027526172
 30
0.0
 10
-4.9851485215947
 20
18.61853443239123
 30
0.0
 10
-4.858258183674729
 20
18.60100789617306
 30
0.0
 10
-4.782227911107477
 20
18.58318905863073
 30
0.0
 10
-4.747553627011887
 20
18.57506261880179
 30
0.0
  0
CIRCLE
  5
A4
330
1F
100
AcDbEntity
  8
0
  6
Continuous
 62
     7
370
    15
100
AcDbCircle
 10
13.0399986549
 20
3.4940571089
 30
0.0
 40
1.143000000000002
  0
CIRCLE
  5
A5
330
1F
100
AcDbEntity
  8
0
  6
Continuous
 62
     7
370
    15
100
AcDbCircle
 10
-21.0
 20
0.0
 30
0.0
 40
1.999999999999996
  0
CIRCLE
  5
A6
330
1F
100
AcDbEntity
  8
0
  6
Continuous
 62
     7
370
    15
100
AcDbCircle
 10
10.5
 20
-18.1865334795
 30
0.0
 40
2.0
  0
CIRCLE
  5
A7
330
1F
100
AcDbEntity
  8
0
  6
Continuous
 62
     7
370
    15
100
AcDbCircle
 10
10.5
 20
18.1865334795
 30
0.0
 40
2.000000000000009
  0
CIRCLE
  5
A8
330
1F
100
AcDbEntity
  8
0
  6
Continuous
 62
     7
370
    15
100
AcDbCircle
 10
0.0
 20
28.0
 30
0.0
 40
3.55
  0
CIRCLE
  5
A9
330
1F
100
AcDbEntity
  8
0
  6
Continuous
 62
     7
370
    15
100
AcDbCircle
 10
-14.0
 20
24.248711306
 30
0.0
 40
3.550000000000006
  0
CIRCLE
  5
AA
330
1F
100
AcDbEntity
  8
0
  6
Continuous
 62
     7
370
    15
100
AcDbCircle
 10
14.0
 20
24.248711306
 30
0.0
 40
3.55
  0
CIRCLE
  5
AB
330
1F
100
AcDbEntity
  8
0
  6
Continuous
 62
     7
370
    15
100
AcDbCircle
 10
24.248711306
 20
14.0
 30
0.0
 40
3.550000000000002
  0
CIRCLE
  5
AC
330
1F
100
AcDbEntity
  8
0
  6
Continuous
 62
     7
370
    15
100
AcDbCircle
 10
28.0
 20
0.0
 30
0.0
 40
3.550000000000008
  0
CIRCLE
  5
AD
330
1F
100
AcDbEntity
  8
0
  6
Continuous
 62
     7
370
    15
100
AcDbCircle
 10
24.248711306
 20
-14.0
 30
0.0
 40
3.550000000000002
  0
CIRCLE
  5
AE
330
1F
100
AcDbEntity
  8
0
  6
Continuous
 62
     7
370
    15
100
AcDbCircle
 10
14.0
 20
-24.248711306
 30
0.0
 40
3.550000000000014
  0
CIRCLE
  5
AF
330
1F
100
AcDbEntity
  8
0
  6
Continuous
 62
     7
370
    15
100
AcDbCircle
 10
0.0
 20
-28.0
 30
0.0
 40
3.55
  0
CIRCLE
  5
B0
330
1F
100
AcDbEntity
  8
0
  6
Continuous
 62
     7
370
    15
100
AcDbCircle
 10
-14.0
 20
-24.248711306
 30
0.0
 40
3.549999999999996
  0
CIRCLE
  5
B1
330
1F
100
AcDbEntity
  8
0
  6
Continuous
 62
     7
370
    15
100
AcDbCircle
 10
-24.248711306
 20
-14.0
 30
0.0
 40
3.550000000000015
  0
CIRCLE
  5
B2
330
1F
100
AcDbEntity
  8
0
  6
Continuous
 62
     7
370
    15
100
AcDbCircle
 10
-28.0
 20
0.0
 30
0.0
 40
3.55
  0
CIRCLE
  5
B3
330
1F
100
AcDbEntity
  8
0
  6
Continuous
 62
     7
370
    15
100
AcDbCircle
 10
-24.248711306
 20
14.0
 30
0.0
 40
3.549999999999993
  0
SPLINE
  5
B4
330
1F
100
AcDbEntity
  8
0
  6
Continuous
 62
     7
370
    15
100
AcDbSpline
210
0.0
220
0.0
230
1.0
 70
     8
 71
     3
 72
    31
 73
    27
 74
     0
 42
0.000000001
 43
0.00000001
 40
0.0
 40
0.0
 40
0.0
 40
0.0
 40
0.0432089861713363
 40
0.0858728716306183
 40
0.1281200066967023
 40
0.1701519644541991
 40
0.2119176209878609
 40
0.2537530026191241
 40
0.2960064088559503
 40
0.338443357144784
 40
0.3810153681620335
 40
0.4228204794407608
 40
0.4640890557943133
 40
0.5051258486836863
 40
0.5459749706852408
 40
0.5869852111338596
 40
0.6283385916346623
 40
0.6700838015912063
 40
0.7119916023637222
 40
0.7530391548630189
 40
0.7940493953116377
 40
0.8348855427015817
 40
0.8754983129295132
 40
0.9165472998303793
 40
0.9580037786449609
 40
1.0
 40
1.0
 40
1.0
 40
1.0
 10
-15.41738535778112
 20
15.46748048739153
 30
0.0
 10
-15.41641537622184
 20
15.54301404425374
 30
0.0
 10
-15.41448764985508
 20
15.69312826833004
 30
0.0
 10
-15.39127986494735
 20
15.91604338574926
 30
0.0
 10
-15.35760363561515
 20
16.13537357912653
 30
0.0
 10
-15.30934016570411
 20
16.35049515614751
 30
0.0
 10
-15.24621814131432
 20
16.56088151410739
 30
0.0
 10
-15.17173803447769
 20
16.7679836123962
 30
0.0
 10
-15.08077002932906
 20
16.96970265404859
 30
0.0
 10
-14.97793513931573
 20
17.16699423615307
 30
0.0
 10
-14.86316014476003
 20
17.35678286531319
 30
0.0
 10
-14.73638557075429
 20
17.5361786804588
 30
0.0
 10
-14.60206425939115
 20
17.70668706033518
 30
0.0
 10
-14.45481067380883
 20
17.86388948158599
 30
0.0
 10
-14.29947798038276
 20
18.01235911532202
 30
0.0
 10
-14.1335463514821
 20
18.14981433048729
 30
0.0
 10
-13.95802827956173
 20
18.2774945986513
 30
0.0
 10
-13.7721685334156
 20
18.39255721746866
 30
0.0
 10
-13.58054680613411
 20
18.49662307598597
 30
0.0
 10
-13.38301322359154
 20
18.58592557705466
 30
0.0
 10
-13.182250586717
 20
18.66257200293806
 30
0.0
 10
-12.97731858262362
 20
18.72469464293841
 30
0.0
 10
-12.76876141042072
 20
18.77373847966675
 30
0.0
 10
-12.55612388698136
 20
18.80713467853852
 30
0.0
 10
-12.33957541358866
 20
18.83040165527724
 30
0.0
 10
-12.19368630635083
 20
18.83232026602927
 30
0.0
 10
-12.12026997316573
 20
18.83328577585307
 30
0.0
  0
SPLINE
  5
B8
330
1F
100
AcDbEntity
  8
0
  6
Continuous
 62
     7
370
    15
100
AcDbSpline
210
0.0
220
0.0
230
1.0
 70
     8
 71
     3
 72
    23
 73
    19
 74
     0
 42
0.000000001
 43
0.00000001
 40
0.0
 40
0.0
 40
0.0
 40
0.0
 40
0.0725383714064944
 40
0.1400338305012519
 40
0.202495680633624
 40
0.2605750556694164
 40
0.3132283378464659
 40
0.3615831937532652
 40
0.404878361295127
 40
0.4441274373055402
 40
0.5163996933371985
 40
0.5865066709977665
 40
0.6550853737960489
 40
0.7243837831470369
 40
0.7939735287256634
 40
0.8616376821817765
 40
0.9301109423064045
 40
1.0
 40
1.0
 40
1.0
 40
1.0
 10
-5.757549620601631
 20
15.88852415726332
 30
0.0
 10
-5.703266326626873
 20
15.88849610189082
 30
0.0
 10
-5.598473546748854
 20
15.88844194157262
 30
0.0
 10
-5.447096398882837
 20
15.89567227559922
 30
0.0
 10
-5.306653834775875
 20
15.90401895629033
 30
0.0
 10
-5.177577248027132
 20
15.91623984599997
 30
0.0
 10
-5.059808452607403
 20
15.93351412743556
 30
0.0
 10
-4.953151078792327
 20
15.95095256622992
 30
0.0
 10
-4.858432151254431
 20
15.97618086694439
 30
0.0
 10
-4.747580742336391
 20
16.01014986381108
 30
0.0
 10
-4.624058097628504
 20
16.06808475222459
 30
0.0
 10
-4.489678402450717
 20
16.1521766956075
 30
0.0
 10
-4.375794624356267
 20
16.25936598048482
 30
0.0
 10
-4.277245714517426
 20
16.37988504589147
 30
0.0
 10
-4.199039335972045
 20
16.51395918070731
 30
0.0
 10
-4.141787749912153
 20
16.65741282305311
 30
0.0
 10
-4.108148792981143
 20
16.80877477861391
 30
0.0
 10
-4.103638127348711
 20
16.91234897339402
 30
0.0
 10
-4.101359716755477
 20
16.9646659841864
 30
0.0
  0
SPLINE
  5
B9
330
1F
100
AcDbEntity
  8
0
  6
Continuous
 62
     7
370
    15
100
AcDbSpline
210
0.0
220
0.0
230
1.0
 70
     8
 71
     3
 72
    23
 73
    19
 74
     0
 42
0.000000001
 43
0.00000001
 40
0.0
 40
0.0
 40
0.0
 40
0.0
 40
0.0700437554181556
 40
0.1392383167626463
 40
0.2081974550441379
 40
0.2791733744245679
 40
0.3499868116864764
 40
0.418353845662656
 40
0.4876095837571502
 40
0.5574110731083873
 40
0.5953301567632409
 40
0.6379640515652191
 40
0.6859127777112931
 40
0.738185164652479
 40
0.7961026471849428
 40
0.8585165439469269
 40
0.926657726468519
 40
1.0
 40
1.0
 40
1.0
 40
1.0
 10
-4.101359716755477
 20
16.9646659841864
 30
0.0
 10
-4.103650518254518
 20
17.01571728715791
 30
0.0
 10
-4.108204348112151
 20
17.11720095906922
 30
0.0
 10
-4.142051414132233
 20
17.26593385331828
 30
0.0
 10
-4.19892802642751
 20
17.40787577413429
 30
0.0
 10
-4.277770705047306
 20
17.54026980041837
 30
0.0
 10
-4.373458183690171
 20
17.66035520189818
 30
0.0
 10
-4.484672706186081
 20
17.7646714181408
 30
0.0
 10
-4.611152480320029
 20
17.84853079309582
 30
0.0
 10
-4.728805699479422
 20
17.90265688980128
 30
0.0
 10
-4.83331070841494
 20
17.93570460380142
 30
0.0
 10
-4.924082978489809
 20
17.95882738577383
 30
0.0
 10
-5.026573202200748
 20
17.97728884281819
 30
0.0
 10
-5.140814745026691
 20
17.99223765503415
 30
0.0
 10
-5.265922143638289
 20
18.00503464896796
 30
0.0
 10
-5.402970229232809
 20
18.0137177790925
 30
0.0
 10
-5.551439839155407
 20
18.01880042112163
 30
0.0
 10
-5.6545104462961
 20
18.01905252565875
 30
0.0
 10
-5.707940245601631
 20
18.01918321175051
 30
0.0
  0
CIRCLE
  5
BA
330
1F
100
AcDbEntity
  8
0
  6
Continuous
 62
     7
370
    15
100
AcDbCircle
 10
-14.0
 20
24.248711306
 30
0.0
 40
1.549999999999998
  0
CIRCLE
  5
BB
330
1F
100
AcDbEntity
  8
0
  6
Continuous
 62
     7
370
    15
100
AcDbCircle
 10
14.0
 20
24.248711306
 30
0.0
 40
1.549999999999998
  0
CIRCLE
  5
BC
330
1F
100
AcDbEntity
  8
0
  6
Continuous
 62
     7
370
    15
100
AcDbCircle
 10
24.248711306
 20
14.0
 30
0.0
 40
1.55
  0
CIRCLE
  5
BD
330
1F
100
AcDbEntity
  8
0
  6
Continuous
 62
     7
370
    15
100
AcDbCircle
 10
28.0
 20
0.0
 30
0.0
 40
1.550000000000006
  0
CIRCLE
  5
BE
330
1F
100
AcDbEntity
  8
0
  6
Continuous
 62
     7
370
    15
100
AcDbCircle
 10
24.248711306
 20
-14.0
 30
0.0
 40
1.550000000000006
  0
CIRCLE
  5
BF
330
1F
100
AcDbEntity
  8
0
  6
Continuous
 62
     7
370
    15
100
AcDbCircle
 10
14.0
 20
-24.248711306
 30
0.0
 40
1.55
  0
CIRCLE
  5
C0
330
1F
100
AcDbEntity
  8
0
  6
Continuous
 62
     7
370
    15
100
AcDbCircle
 10
0.0
 20
-28.0
 30
0.0
 40
1.549999999999994
  0
CIRCLE
  5
C1
330
1F
100
AcDbEntity
  8
0
  6
Continuous
 62
     7
370
    15
100
AcDbCircle
 10
-14.0
 20
-24.248711306
 30
0.0
 40
1.550000000000004
  0
CIRCLE
  5
C2
330
1F
100
AcDbEntity
  8
0
  6
Continuous
 62
     7
370
    15
100
AcDbCircle
 10
-24.248711306
 20
-14.0
 30
0.0
 40
1.549999999999999
  0
CIRCLE
  5
C3
330
1F
100
AcDbEntity
  8
0
  6
Continuous
 62
     7
370
    15
100
AcDbCircle
 10
0.0
 20
28.0
 30
0.0
 40
1.549999999999994
  0
CIRCLE
  5
C4
330
1F
100
AcDbEntity
  8
0
  6
Continuous
 62
     7
370
    15
100
AcDbCircle
 10
-28.0
 20
0.0
 30
0.0
 40
1.550000000000006
  0
CIRCLE
  5
C5
330
1F
100
AcDbEntity
  8
0
  6
Continuous
 62
     7
370
    15
100
AcDbCircle
 10
-24.248711306
 20
14.0
 30
0.0
 40
1.550000000000009
  0
LINE
  5
C6
330
1F
100
AcDbEntity
  8
0
  6
Continuous
 62
     7
370
    15
100
AcDbLine
 10
-17.452641768
 20
12.320465263
 30
0.0
 11
-18.0225135629
 21
12.320465263
 31
0.0
  0
LINE
  5
C7
330
1F
100
AcDbEntity
  8
0
  6
Continuous
 62
     7
370
    15
100
AcDbLine
 10
-17.452641768
 20
18.0191832118
 30
0.0
 11
-17.452641768
 21
12.320465263
 31
0.0
  0
LINE
  5
C8
330
1F
100
AcDbEntity
  8
0
  6
Continuous
 62
     7
370
    15
100
AcDbLine
 10
-16.0686674091
 20
18.0191832118
 30
0.0
 11
-17.452641768
 21
18.0191832118
 31
0.0
  0
LINE
  5
C9
330
1F
100
AcDbEntity
  8
0
  6
Continuous
 62
     7
370
    15
100
AcDbLine
 10
-16.0686674091
 20
18.670465263
 30
0.0
 11
-16.0686674091
 21
18.0191832118
 31
0.0
  0
LINE
  5
CA
330
1F
100
AcDbEntity
  8
0
  6
Continuous
 62
     7
370
    15
100
AcDbLine
 10
-19.4064879219
 20
18.670465263
 30
0.0
 11
-16.0686674091
 21
18.670465263
 31
0.0
  0
LINE
  5
CB
330
1F
100
AcDbEntity
  8
0
  6
Continuous
 62
     7
370
    15
100
AcDbLine
 10
-19.4064879219
 20
18.0191832118
 30
0.0
 11
-19.4064879219
 21
18.670465263
 31
0.0
  0
LINE
  5
CC
330
1F
100
AcDbEntity
  8
0
  6
Continuous
 62
     7
370
    15
100
AcDbLine
 10
-18.0225135629
 20
18.0191832118
 30
0.0
 11
-19.4064879219
 21
18.0191832118
 31
0.0
  0
LINE
  5
CD
330
1F
100
AcDbEntity
  8
0
  6
Continuous
 62
     7
370
    15
100
AcDbLine
 10
-18.0225135629
 20
12.320465263
 30
0.0
 11
-18.0225135629
 21
18.0191832118
 31
0.0
  0
LINE
  5
CE
330
1F
100
AcDbEntity
  8
0
  6
Continuous
 62
     7
370
    15
100
AcDbLine
 10
-1.0
 20
7.9372539332
 30
0.0
 11
-1.0
 21
9.0
 31
0.0
  0
LINE
  5
CF
330
1F
100
AcDbEntity
  8
0
  6
Continuous
 62
     7
370
    15
100
AcDbLine
 10
1.0
 20
9.0
 30
0.0
 11
1.0
 21
7.9372539332
 31
0.0
  0
LINE
  5
D0
330
1F
100
AcDbEntity
  8
0
  6
Continuous
 62
     7
370
    15
100
AcDbLine
 10
-6.8693084347
 20
15.2512344938
 30
0.0
 11
-6.8693084347
 21
12.320465263
 31
0.0
  0
LINE
  5
D1
330
1F
100
AcDbEntity
  8
0
  6
Continuous
 62
     7
370
    15
100
AcDbLine
 10
-6.4151918482
 20
15.2512344938
 30
0.0
 11
-6.8693084347
 21
15.2512344938
 31
0.0
  0
LINE
  5
D2
330
1F
100
AcDbEntity
  8
0
  6
Continuous
 62
     7
370
    15
100
AcDbLine
 10
-7.4391802296
 20
18.670465263
 30
0.0
 11
-6.1938577136
 21
18.670465263
 31
0.0
  0
LINE
  5
D3
330
1F
100
AcDbEntity
  8
0
  6
Continuous
 62
     7
370
    15
100
AcDbLine
 10
-7.4391802296
 20
12.320465263
 30
0.0
 11
-7.4391802296
 21
18.670465263
 31
0.0
  0
LINE
  5
D4
330
1F
100
AcDbEntity
  8
0
  6
Continuous
 62
     7
370
    15
100
AcDbLine
 10
-6.8693084347
 20
12.320465263
 30
0.0
 11
-7.4391802296
 21
12.320465263
 31
0.0
  0
LINE
  5
D5
330
1F
100
AcDbEntity
  8
0
  6
Continuous
 62
     7
370
    15
100
AcDbLine
 10
-6.8693084347
 20
15.9025165451
 30
0.0
 11
-5.7575496206
 21
15.8885241573
 31
0.0
  0
LINE
  5
D6
330
1F
100
AcDbEntity
  8
0
  6
Continuous
 62
     7
370
    15
100
AcDbLine
 10
-6.8693084347
 20
18.0191832118
 30
0.0
 11
-6.8693084347
 21
15.9025165451
 31
0.0
  0
LINE
  5
D7
330
1F
100
AcDbEntity
  8
0
  6
Continuous
 62
     7
370
    15
100
AcDbLine
 10
-5.7079402456
 20
18.0191832118
 30
0.0
 11
-6.8693084347
 21
18.0191832118
 31
0.0
  0
ARC
  5
D8
330
1F
100
AcDbEntity
  8
0
  6
Continuous
 62
     7
370
    15
100
AcDbCircle
 10
0.0
 20
9.0
 30
0.0
 40
1.0
100
AcDbArc
 50
0.0
 51
180.0
  0
ARC
  5
D9
330
1F
100
AcDbEntity
  8
0
  6
Continuous
 62
     7
370
    15
100
AcDbCircle
 10
0.0
 20
0.0
 30
0.0
 40
8.000000000000012
100
AcDbArc
 50
97.1807557815
 51
82.8192442185
  0
ENDSEC
  0
SECTION
  2
OBJECTS
  0
DICTIONARY
  5
C
330
0
100
AcDbDictionary
281
     1
  3
ACAD_GROUP
350
D
  3
ACAD_LAYOUT
350
1A
  3
ACAD_MLINESTYLE
350
17
  3
ACAD_PLOTSETTINGS
350
19
  3
ACAD_PLOTSTYLENAME
350
E
  3
ACAD_SCALELIST
350
47
  0
DICTIONARY
  5
D
102
{ACAD_REACTORS
330
C
102
}
330
C
100
AcDbDictionary
281
     1
  0
DICTIONARY
  5
1A
102
{ACAD_REACTORS
330
C
102
}
330
C
100
AcDbDictionary
281
     1
  3
Layout1
350
1E
  3
Layout2
350
26
  3
Model
350
22
  0
DICTIONARY
  5
17
102
{ACAD_REACTORS
330
C
102
}
330
C
100
AcDbDictionary
281
     1
  3
Standard
350
18
  0
DICTIONARY
  5
19
102
{ACAD_REACTORS
330
C
102
}
330
C
100
AcDbDictionary
281
     1
  0
ACDBDICTIONARYWDFLT
  5
E
102
{ACAD_REACTORS
330
C
102
}
330
C
100
AcDbDictionary
281
     1
  3
Normal
350
F
100
AcDbDictionaryWithDefault
340
F
  0
DICTIONARY
  5
47
102
{ACAD_REACTORS
330
C
102
}
330
C
100
AcDbDictionary
281
     1
  3
A0
350
48
  3
A1
350
49
  3
A2
350
4A
  3
A3
350
4B
  3
A4
350
4C
  3
A5
350
4D
  3
A6
350
4E
  3
A7
350
4F
  3
A8
350
50
  3
A9
350
51
  3
B0
350
52
  3
B1
350
53
  3
B2
350
54
  3
B3
350
55
  3
B4
350
56
  3
B5
350
57
  3
B6
350
58
  3
B7
350
59
  3
B8
350
5A
  3
B9
350
5B
  3
C0
350
5C
  3
C1
350
5D
  3
C2
350
5E
  3
C3
350
5F
  3
C4
350
60
  3
C5
350
61
  3
C6
350
62
  3
C7
350
63
  3
C8
350
64
  3
C9
350
65
  3
D0
350
66
  3
D1
350
67
  3
D2
350
68
  0
LAYOUT
  5
1E
102
{ACAD_REACTORS
330
1A
102
}
330
1A
100
AcDbPlotSettings
  1

  2
none_device
  4

  6

 40
0.0
 41
0.0
 42
0.0
 43
0.0
 44
0.0
 45
0.0
 46
0.0
 47
0.0
 48
0.0
 49
0.0
140
0.0
141
0.0
142
1.0
143
1.0
 70
   688
 72
     1
 73
     0
 74
     5
  7

 75
    16
147
1.0
148
0.0
149
0.0
100
AcDbLayout
  1
Layout1
 70
     1
 71
     1
 10
0.0
 20
0.0
 11
420.0
 21
297.0
 12
0.0
 22
0.0
 32
0.0
 14
1.0000000000E+20
 24
1.0000000000E+20
 34
1.0000000000E+20
 15
-1.0000000000E+20
 25
-1.0000000000E+20
 35
-1.0000000000E+20
146
0.0
 13
0.0
 23
0.0
 33
0.0
 16
1.0
 26
0.0
 36
0.0
 17
0.0
 27
1.0
 37
0.0
 76
     0
330
1B
  0
LAYOUT
  5
26
102
{ACAD_REACTORS
330
1A
102
}
330
1A
100
AcDbPlotSettings
  1

  2
none_device
  4

  6

 40
0.0
 41
0.0
 42
0.0
 43
0.0
 44
0.0
 45
0.0
 46
0.0
 47
0.0
 48
0.0
 49
0.0
140
0.0
141
0.0
142
1.0
143
1.0
 70
   688
 72
     1
 73
     0
 74
     5
  7

 75
    16
147
1.0
148
0.0
149
0.0
100
AcDbLayout
  1
Layout2
 70
     1
 71
     2
 10
0.0
 20
0.0
 11
0.0
 21
0.0
 12
0.0
 22
0.0
 32
0.0
 14
0.0
 24
0.0
 34
0.0
 15
0.0
 25
0.0
 35
0.0
146
0.0
 13
0.0
 23
0.0
 33
0.0
 16
1.0
 26
0.0
 36
0.0
 17
0.0
 27
1.0
 37
0.0
 76
     0
330
23
  0
LAYOUT
  5
22
102
{ACAD_REACTORS
330
1A
102
}
330
1A
100
AcDbPlotSettings
  1

  2
none_device
  4
ANSI_A_(11.00_x_8.50_Inches)
  6

 40
6.35
 41
19.05
 42
6.35000508
 43
19.05000254
 44
279.4
 45
215.9
 46
133.34999746
 47
88.89999873
 48
0.0
 49
0.0
140
0.0
141
0.0
142
0.1202142857
143
1.0
 70
  1696
 72
     0
 73
     0
 74
     0
  7

 75
     0
147
0.0179189148
148
-1300.4909072572
149
0.0
100
AcDbLayout
  1
Model
 70
     1
 71
     0
 10
0.0
 20
0.0
 11
420.0
 21
297.0
 12
0.0
 22
0.0
 32
0.0
 14
-35.0
 24
-35.0
 34
0.0
 15
35.0
 25
35.0
 35
0.0
146
0.0
 13
0.0
 23
0.0
 33
0.0
 16
1.0
 26
0.0
 36
0.0
 17
0.0
 27
1.0
 37
0.0
 76
     0
330
1F
331
29
  0
MLINESTYLE
  5
18
102
{ACAD_REACTORS
330
17
102
}
330
17
100
AcDbMlineStyle
  2
Standard
 70
     0
  3

 62
   256
 51
90.0
 52
90.0
 71
     2
 49
0.5
 62
   256
  6
BYLAYER
 49
-0.5
 62
   256
  6
BYLAYER
  0
ACDBPLACEHOLDER
  5
F
102
{ACAD_REACTORS
330
E
102
}
330
E
  0
SCALE
  5
48
102
{ACAD_REACTORS
330
47
102
}
330
47
100
AcDbScale
 70
     0
300
1:1
140
1.0
141
1.0
290
     1
  0
SCALE
  5
49
102
{ACAD_REACTORS
330
47
102
}
330
47
100
AcDbScale
 70
     0
300
1:2
140
1.0
141
2.0
290
     0
  0
SCALE
  5
4A
102
{ACAD_REACTORS
330
47
102
}
330
47
100
AcDbScale
 70
     0
300
1:4
140
1.0
141
4.0
290
     0
  0
SCALE
  5
4B
102
{ACAD_REACTORS
330
47
102
}
330
47
100
AcDbScale
 70
     0
300
1:5
140
1.0
141
5.0
290
     0
  0
SCALE
  5
4C
102
{ACAD_REACTORS
330
47
102
}
330
47
100
AcDbScale
 70
     0
300
1:8
140
1.0
141
8.0
290
     0
  0
SCALE
  5
4D
102
{ACAD_REACTORS
330
47
102
}
330
47
100
AcDbScale
 70
     0
300
1:10
140
1.0
141
10.0
290
     0
  0
SCALE
  5
4E
102
{ACAD_REACTORS
330
47
102
}
330
47
100
AcDbScale
 70
     0
300
1:16
140
1.0
141
16.0
290
     0
  0
SCALE
  5
4F
102
{ACAD_REACTORS
330
47
102
}
330
47
100
AcDbScale
 70
     0
300
1:20
140
1.0
141
20.0
290
     0
  0
SCALE
  5
50
102
{ACAD_REACTORS
330
47
102
}
330
47
100
AcDbScale
 70
     0
300
1:30
140
1.0
141
30.0
290
     0
  0
SCALE
  5
51
102
{ACAD_REACTORS
330
47
102
}
330
47
100
AcDbScale
 70
     0
300
1:40
140
1.0
141
40.0
290
     0
  0
SCALE
  5
52
102
{ACAD_REACTORS
330
47
102
}
330
47
100
AcDbScale
 70
     0
300
1:50
140
1.0
141
50.0
290
     0
  0
SCALE
  5
53
102
{ACAD_REACTORS
330
47
102
}
330
47
100
AcDbScale
 70
     0
300
1:100
140
1.0
141
100.0
290
     0
  0
SCALE
  5
54
102
{ACAD_REACTORS
330
47
102
}
330
47
100
AcDbScale
 70
     0
300
2:1
140
2.0
141
1.0
290
     0
  0
SCALE
  5
55
102
{ACAD_REACTORS
330
47
102
}
330
47
100
AcDbScale
 70
     0
300
4:1
140
4.0
141
1.0
290
     0
  0
SCALE
  5
56
102
{ACAD_REACTORS
330
47
102
}
330
47
100
AcDbScale
 70
     0
300
8:1
140
8.0
141
1.0
290
     0
  0
SCALE
  5
57
102
{ACAD_REACTORS
330
47
102
}
330
47
100
AcDbScale
 70
     0
300
10:1
140
10.0
141
1.0
290
     0
  0
SCALE
  5
58
102
{ACAD_REACTORS
330
47
102
}
330
47
100
AcDbScale
 70
     0
300
100:1
140
100.0
141
1.0
290
     0
  0
SCALE
  5
59
102
{ACAD_REACTORS
330
47
102
}
330
47
100
AcDbScale
 70
     0
300
1/128" = 1'-0"
140
0.0078125
141
12.0
290
     0
  0
SCALE
  5
5A
102
{ACAD_REACTORS
330
47
102
}
330
47
100
AcDbScale
 70
     0
300
1/64" = 1'-0"
140
0.015625
141
12.0
290
     0
  0
SCALE
  5
5B
102
{ACAD_REACTORS
330
47
102
}
330
47
100
AcDbScale
 70
     0
300
1/32" = 1'-0"
140
0.03125
141
12.0
290
     0
  0
SCALE
  5
5C
102
{ACAD_REACTORS
330
47
102
}
330
47
100
AcDbScale
 70
     0
300
1/16" = 1'-0"
140
0.0625
141
12.0
290
     0
  0
SCALE
  5
5D
102
{ACAD_REACTORS
330
47
102
}
330
47
100
AcDbScale
 70
     0
300
3/32" = 1'-0"
140
0.09375
141
12.0
290
     0
  0
SCALE
  5
5E
102
{ACAD_REACTORS
330
47
102
}
330
47
100
AcDbScale
 70
     0
300
1/8" = 1'-0"
140
0.125
141
12.0
290
     0
  0
SCALE
  5
5F
102
{ACAD_REACTORS
330
47
102
}
330
47
100
AcDbScale
 70
     0
300
3/16" = 1'-0"
140
0.1875
141
12.0
290
     0
  0
SCALE
  5
60
102
{ACAD_REACTORS
330
47
102
}
330
47
100
AcDbScale
 70
     0
300
1/4" = 1'-0"
140
0.25
141
12.0
290
     0
  0
SCALE
  5
61
102
{ACAD_REACTORS
330
47
102
}
330
47
100
AcDbScale
 70
     0
300
3/8" = 1'-0"
140
0.375
141
12.0
290
     0
  0
SCALE
  5
62
102
{ACAD_REACTORS
330
47
102
}
330
47
100
AcDbScale
 70
     0
300
1/2" = 1'-0"
140
0.5
141
12.0
290
     0
  0
SCALE
  5
63
102
{ACAD_REACTORS
330
47
102
}
330
47
100
AcDbScale
 70
     0
300
3/4" = 1'-0"
140
0.75
141
12.0
290
     0
  0
SCALE
  5
64
102
{ACAD_REACTORS
330
47
102
}
330
47
100
AcDbScale
 70
     0
300
1" = 1'-0"
140
1.0
141
12.0
290
     0
  0
SCALE
  5
65
102
{ACAD_REACTORS
330
47
102
}
330
47
100
AcDbScale
 70
     0
300
1-1/2" = 1'-0"
140
1.5
141
12.0
290
     0
  0
SCALE
  5
66
102
{ACAD_REACTORS
330
47
102
}
330
47
100
AcDbScale
 70
     0
300
3" = 1'-0"
140
3.0
141
12.0
290
     0
  0
SCALE
  5
67
102
{ACAD_REACTORS
330
47
102
}
330
47
100
AcDbScale
 70
     0
300
6" = 1'-0"
140
6.0
141
12.0
290
     0
  0
SCALE
  5
68
102
{ACAD_REACTORS
330
47
102
}
330
47
100
AcDbScale
 70
     0
300
1'-0" = 1'-0"
140
12.0
141
12.0
290
     0
  0
ENDSEC
  0
EOF
