  0
SECTION
  2
HEADER
  9
$ACADVER
  1
AC1015
  9
$ACADMAINTVER
 70
     6
  9
$DWGCODEPAGE
  3
ANSI_1252
  9
$INSBASE
 10
0.0
 20
0.0
 30
0.0
  9
$EXTMIN
 10
-50.0
 20
-58.0664426319
 30
0.0
  9
$EXTMAX
 10
50.5740288533
 20
47.0947719928
 30
0.0
  9
$LIMMIN
 10
0.0
 20
0.0
  9
$LIMMAX
 10
420.0
 20
297.0
  9
$ORTHOMODE
 70
     0
  9
$REGENMODE
 70
     1
  9
$FILLMODE
 70
     1
  9
$QTEXTMODE
 70
     0
  9
$MIRRTEXT
 70
     1
  9
$LTSCALE
 40
1.0
  9
$ATTMODE
 70
     1
  9
$TEXTSIZE
 40
6.35
  9
$TRACEWID
 40
1.0
  9
$TEXTSTYLE
  7
Standard
  9
$CLAYER
  8
0
  9
$CELTYPE
  6
ByLayer
  9
$CECOLOR
 62
   256
  9
$CELTSCALE
 40
1.0
  9
$DISPSILH
 70
     0
  9
$DIMSCALE
 40
1.0
  9
$DIMASZ
 40
5.9944
  9
$DIMEXO
 40
0.9906
  9
$DIMDLI
 40
3.75
  9
$DIMRND
 40
0.0
  9
$DIMDLE
 40
0.0
  9
$DIMEXE
 40
0.9906
  9
$DIMTP
 40
0.0
  9
$DIMTM
 40
0.0
  9
$DIMTXT
 40
6.35
  9
$DIMCEN
 40
2.5
  9
$DIMTSZ
 40
0.0
  9
$DIMTOL
 70
     0
  9
$DIMLIM
 70
     0
  9
$DIMTIH
 70
     1
  9
$DIMTOH
 70
     1
  9
$DIMSE1
 70
     0
  9
$DIMSE2
 70
     0
  9
$DIMTAD
 70
     1
  9
$DIMZIN
 70
     0
  9
$DIMBLK
  1

  9
$DIMASO
 70
     1
  9
$DIMSHO
 70
     1
  9
$DIMPOST
  1

  9
$DIMAPOST
  1

  9
$DIMALT
 70
     0
  9
$DIMALTD
 70
     3
  9
$DIMALTF
 40
0.0393700787
  9
$DIMLFAC
 40
1.0
  9
$DIMTOFL
 70
     1
  9
$DIMTVP
 40
0.0
  9
$DIMTIX
 70
     0
  9
$DIMSOXD
 70
     0
  9
$DIMSAH
 70
     0
  9
$DIMBLK1
  1

  9
$DIMBLK2
  1

  9
$DIMSTYLE
  2
ISO-25
  9
$DIMCLRD
 70
     0
  9
$DIMCLRE
 70
     0
  9
$DIMCLRT
 70
     0
  9
$DIMTFAC
 40
1.0
  9
$DIMGAP
 40
1.524
  9
$DIMJUST
 70
     0
  9
$DIMSD1
 70
     0
  9
$DIMSD2
 70
     0
  9
$DIMTOLJ
 70
     0
  9
$DIMTZIN
 70
     0
  9
$DIMALTZ
 70
     0
  9
$DIMALTTZ
 70
     0
  9
$DIMUPT
 70
     0
  9
$DIMDEC
 70
     2
  9
$DIMTDEC
 70
     2
  9
$DIMALTU
 70
     2
  9
$DIMALTTD
 70
     3
  9
$DIMTXSTY
  7
Standard
  9
$DIMAUNIT
 70
     0
  9
$DIMADEC
 70
     2
  9
$DIMALTRND
 40
0.0
  9
$DIMAZIN
 70
     0
  9
$DIMDSEP
 70
    44
  9
$DIMATFIT
 70
     3
  9
$DIMFRAC
 70
     0
  9
$DIMLDRBLK
  1

  9
$DIMLUNIT
 70
     2
  9
$DIMLWD
 70
    -2
  9
$DIMLWE
 70
    -2
  9
$DIMTMOVE
 70
     0
  9
$LUNITS
 70
     2
  9
$LUPREC
 70
     2
  9
$SKETCHINC
 40
1.0
  9
$FILLETRAD
 40
10.0
  9
$AUNITS
 70
     0
  9
$AUPREC
 70
     2
  9
$MENU
  1
.
  9
$ELEVATION
 40
0.0
  9
$PELEVATION
 40
0.0
  9
$THICKNESS
 40
0.0
  9
$LIMCHECK
 70
     0
  9
$CHAMFERA
 40
0.0
  9
$CHAMFERB
 40
0.0
  9
$CHAMFERC
 40
0.0
  9
$CHAMFERD
 40
0.0
  9
$SKPOLY
 70
     0
  9
$TDCREATE
 40
2457611.499046563
  9
$TDUCREATE
 40
2457611.790713229
  9
$TDUPDATE
 40
2457611.499085741
  9
$TDUUPDATE
 40
2457611.790752408
  9
$TDINDWG
 40
0.0000000116
  9
$TDUSRTIMER
 40
0.0000000116
  9
$USRTIMER
 70
     1
  9
$ANGBASE
 50
0.0
  9
$ANGDIR
 70
     0
  9
$PDMODE
 70
     0
  9
$PDSIZE
 40
-1.0
  9
$PLINEWID
 40
0.0
  9
$SPLFRAME
 70
     0
  9
$SPLINETYPE
 70
     6
  9
$SPLINESEGS
 70
     8
  9
$HANDSEED
  5
193
  9
$SURFTAB1
 70
     6
  9
$SURFTAB2
 70
     6
  9
$SURFTYPE
 70
     6
  9
$SURFU
 70
     6
  9
$SURFV
 70
     6
  9
$UCSBASE
  2

  9
$UCSNAME
  2

  9
$UCSORG
 10
0.0
 20
0.0
 30
0.0
  9
$UCSXDIR
 10
1.0
 20
0.0
 30
0.0
  9
$UCSYDIR
 10
0.0
 20
1.0
 30
0.0
  9
$UCSORTHOREF
  2

  9
$UCSORTHOVIEW
 70
     0
  9
$UCSORGTOP
 10
0.0
 20
0.0
 30
0.0
  9
$UCSORGBOTTOM
 10
0.0
 20
0.0
 30
0.0
  9
$UCSORGLEFT
 10
0.0
 20
0.0
 30
0.0
  9
$UCSORGRIGHT
 10
0.0
 20
0.0
 30
0.0
  9
$UCSORGFRONT
 10
0.0
 20
0.0
 30
0.0
  9
$UCSORGBACK
 10
0.0
 20
0.0
 30
0.0
  9
$PUCSBASE
  2

  9
$PUCSNAME
  2

  9
$PUCSORG
 10
0.0
 20
0.0
 30
0.0
  9
$PUCSXDIR
 10
1.0
 20
0.0
 30
0.0
  9
$PUCSYDIR
 10
0.0
 20
1.0
 30
0.0
  9
$PUCSORTHOREF
  2

  9
$PUCSORTHOVIEW
 70
     0
  9
$PUCSORGTOP
 10
0.0
 20
0.0
 30
0.0
  9
$PUCSORGBOTTOM
 10
0.0
 20
0.0
 30
0.0
  9
$PUCSORGLEFT
 10
0.0
 20
0.0
 30
0.0
  9
$PUCSORGRIGHT
 10
0.0
 20
0.0
 30
0.0
  9
$PUCSORGFRONT
 10
0.0
 20
0.0
 30
0.0
  9
$PUCSORGBACK
 10
0.0
 20
0.0
 30
0.0
  9
$USERI1
 70
     0
  9
$USERI2
 70
     0
  9
$USERI3
 70
     0
  9
$USERI4
 70
     0
  9
$USERI5
 70
     0
  9
$USERR1
 40
0.0
  9
$USERR2
 40
0.0
  9
$USERR3
 40
0.0
  9
$USERR4
 40
0.0
  9
$USERR5
 40
0.0
  9
$WORLDVIEW
 70
     1
  9
$SHADEDGE
 70
     3
  9
$SHADEDIF
 70
    70
  9
$TILEMODE
 70
     1
  9
$MAXACTVP
 70
    64
  9
$PINSBASE
 10
0.0
 20
0.0
 30
0.0
  9
$PLIMCHECK
 70
     0
  9
$PEXTMIN
 10
1.0000000000E+20
 20
1.0000000000E+20
 30
1.0000000000E+20
  9
$PEXTMAX
 10
-1.0000000000E+20
 20
-1.0000000000E+20
 30
-1.0000000000E+20
  9
$PLIMMIN
 10
0.0
 20
0.0
  9
$PLIMMAX
 10
420.0
 20
297.0
  9
$UNITMODE
 70
     0
  9
$VISRETAIN
 70
     1
  9
$PLINEGEN
 70
     0
  9
$PSLTSCALE
 70
     1
  9
$TREEDEPTH
 70
  3020
  9
$CMLSTYLE
  2
Standard
  9
$CMLJUST
 70
     0
  9
$CMLSCALE
 40
20.0
  9
$PROXYGRAPHICS
 70
     1
  9
$MEASUREMENT
 70
     1
  9
$CELWEIGHT
370
    -1
  9
$ENDCAPS
280
     0
  9
$JOINSTYLE
280
     0
  9
$LWDISPLAY
290
     1
  9
$INSUNITS
 70
     4
  9
$HYPERLINKBASE
  1

  9
$STYLESHEET
  1

  9
$XEDIT
290
     1
  9
$CEPSNTYPE
380
     0
  9
$PSTYLEMODE
290
     1
  9
$FINGERPRINTGUID
  2
{2113FB50-B5DB-4A11-8065-B5F0755F3DCD}
  9
$VERSIONGUID
  2
{FAEB1C32-E019-11D5-929B-00C0DF256EC4}
  9
$EXTNAMES
290
     1
  9
$PSVPSCALE
 40
0.0
  9
$OLESTARTUP
290
     0
  0
ENDSEC
  0
SECTION
  2
CLASSES
  0
CLASS
  1
ACDBDICTIONARYWDFLT
  2
AcDbDictionaryWithDefault
  3
ObjectDBX Classes
 90
        0
280
     0
281
     0
  0
CLASS
  1
VISUALSTYLE
  2
AcDbVisualStyle
  3
ObjectDBX Classes
 90
     4095
280
     0
281
     0
  0
CLASS
  1
MATERIAL
  2
AcDbMaterial
  3
ObjectDBX Classes
 90
     1153
280
     0
281
     0
  0
CLASS
  1
SCALE
  2
AcDbScale
  3
ObjectDBX Classes
 90
     1153
280
     0
281
     0
  0
CLASS
  1
TABLESTYLE
  2
AcDbTableStyle
  3
ObjectDBX Classes
 90
     4095
280
     0
281
     0
  0
CLASS
  1
MLEADERSTYLE
  2
AcDbMLeaderStyle
  3
ACDB_MLEADERSTYLE_CLASS
 90
     4095
280
     0
281
     0
  0
CLASS
  1
SUN
  2
AcDbSun
  3
SCENEOE
 90
     1153
280
     0
281
     0
  0
CLASS
  1
ACDBPLACEHOLDER
  2
AcDbPlaceHolder
  3
ObjectDBX Classes
 90
        0
280
     0
281
     0
  0
CLASS
  1
LAYOUT
  2
AcDbLayout
  3
ObjectDBX Classes
 90
        0
280
     0
281
     0
  0
ENDSEC
  0
SECTION
  2
TABLES
  0
TABLE
  2
VPORT
  5
8
330
0
100
AcDbSymbolTable
 70
     1
  0
VPORT
  5
29
330
8
100
AcDbSymbolTableRecord
100
AcDbViewportTableRecord
  2
*Active
 70
     0
 10
0.0
 20
0.0
 11
1.0
 21
1.0
 12
0.2870144266
 22
-5.4858353196
 13
0.0
 23
0.0
 14
10.0
 24
10.0
 15
10.0
 25
10.0
 16
0.0
 26
0.0
 36
1.0
 17
0.0
 27
0.0
 37
0.0
 40
107.2644389172
 41
0.9563794904
 42
50.0
 43
0.0
 44
0.0
 50
0.0
 51
0.0
 71
     0
 72
   100
 73
     1
 74
     3
 75
     0
 76
     0
 77
     0
 78
     0
281
     0
 65
     1
110
0.0
120
0.0
130
0.0
111
1.0
121
0.0
131
0.0
112
0.0
122
1.0
132
0.0
 79
     0
146
0.0
  0
ENDTAB
  0
TABLE
  2
LTYPE
  5
5
330
0
100
AcDbSymbolTable
 70
     6
  0
LTYPE
  5
14
330
5
100
AcDbSymbolTableRecord
100
AcDbLinetypeTableRecord
  2
ByBlock
 70
     0
  3

 72
    65
 73
     0
 40
0.0
  0
LTYPE
  5
15
330
5
100
AcDbSymbolTableRecord
100
AcDbLinetypeTableRecord
  2
ByLayer
 70
     0
  3

 72
    65
 73
     0
 40
0.0
  0
LTYPE
  5
16
330
5
100
AcDbSymbolTableRecord
100
AcDbLinetypeTableRecord
  2
Continuous
 70
     0
  3
Solid line
 72
    65
 73
     0
 40
0.0
  0
LTYPE
  5
6E
330
5
100
AcDbSymbolTableRecord
100
AcDbLinetypeTableRecord
  2
HIDDEN
 70
     0
  3
Hidden __ __ __ __ __ __ __ __ __ __ __ __ __ __
 72
    65
 73
     2
 40
1.905
 49
1.27
 74
     0
 49
-0.635
 74
     0
  0
LTYPE
  5
6F
330
5
100
AcDbSymbolTableRecord
100
AcDbLinetypeTableRecord
  2
PHANTOM
 70
     0
  3
Phantom ______  __  __  ______  __  __  ______
 72
    65
 73
     6
 40
12.7
 49
6.35
 74
     0
 49
-1.27
 74
     0
 49
1.27
 74
     0
 49
-1.27
 74
     0
 49
1.27
 74
     0
 49
-1.27
 74
     0
  0
LTYPE
  5
70
330
5
100
AcDbSymbolTableRecord
100
AcDbLinetypeTableRecord
  2
CENTER
 70
     0
  3
Center ____ _ ____ _ ____ _ ____ _ ____ _ ____
 72
    65
 73
     4
 40
10.16
 49
6.35
 74
     0
 49
-1.27
 74
     0
 49
1.27
 74
     0
 49
-1.27
 74
     0
  0
LTYPE
  5
71
330
5
100
AcDbSymbolTableRecord
100
AcDbLinetypeTableRecord
  2
CENTERX2
 70
     0
  3
Center (2x) ________  __  ________  __  _____
 72
    65
 73
     4
 40
20.32
 49
12.7
 74
     0
 49
-2.54
 74
     0
 49
2.54
 74
     0
 49
-2.54
 74
     0
  0
LTYPE
  5
72
330
5
100
AcDbSymbolTableRecord
100
AcDbLinetypeTableRecord
  2
DOT2
 70
     0
  3
Dot (.5x) ........................................
 72
    65
 73
     2
 40
0.635
 49
0.0
 74
     0
 49
-0.635
 74
     0
  0
ENDTAB
  0
TABLE
  2
LAYER
  5
2
330
0
100
AcDbSymbolTable
 70
     1
  0
LAYER
  5
10
330
2
100
AcDbSymbolTableRecord
100
AcDbLayerTableRecord
  2
0
 70
     0
 62
     7
  6
Continuous
370
    -3
390
F
  0
ENDTAB
  0
TABLE
  2
STYLE
  5
3
330
0
100
AcDbSymbolTable
 70
     1
  0
STYLE
  5
11
330
3
100
AcDbSymbolTableRecord
100
AcDbTextStyleTableRecord
  2
Standard
 70
     0
 40
0.0
 41
1.0
 50
0.0
 71
     0
 42
6.35
  3
txt
  4

  0
ENDTAB
  0
TABLE
  2
VIEW
  5
6
330
0
100
AcDbSymbolTable
 70
     0
  0
ENDTAB
  0
TABLE
  2
UCS
  5
7
330
0
100
AcDbSymbolTable
 70
     0
  0
ENDTAB
  0
TABLE
  2
APPID
  5
9
330
0
100
AcDbSymbolTable
 70
     1
  0
APPID
  5
12
330
9
100
AcDbSymbolTableRecord
100
AcDbRegAppTableRecord
  2
ACAD
 70
     0
  0
ENDTAB
  0
TABLE
  2
DIMSTYLE
  5
A
330
0
100
AcDbSymbolTable
 70
     1
100
AcDbDimStyleTable
  0
DIMSTYLE
105
27
330
A
100
AcDbSymbolTableRecord
100
AcDbDimStyleTableRecord
  2
ISO-25
 70
     0
 41
2.5
 42
0.625
 43
3.75
 44
1.25
 73
     0
 74
     0
 77
     1
 78
     8
140
2.5
141
2.5
143
0.0393700787
147
0.625
171
     3
172
     1
178
     0
271
     2
272
     2
274
     3
278
    44
283
     0
284
     8
340
11
  0
ENDTAB
  0
TABLE
  2
BLOCK_RECORD
  5
1
330
0
100
AcDbSymbolTable
 70
     1
  0
BLOCK_RECORD
  5
1F
330
1
100
AcDbSymbolTableRecord
100
AcDbBlockTableRecord
  2
*Model_Space
340
22
  0
BLOCK_RECORD
  5
1B
330
1
100
AcDbSymbolTableRecord
100
AcDbBlockTableRecord
  2
*Paper_Space
340
1E
  0
BLOCK_RECORD
  5
23
330
1
100
AcDbSymbolTableRecord
100
AcDbBlockTableRecord
  2
*Paper_Space0
340
26
  0
ENDTAB
  0
ENDSEC
  0
SECTION
  2
BLOCKS
  0
BLOCK
  5
20
330
1F
100
AcDbEntity
  8
0
100
AcDbBlockBegin
  2
*Model_Space
 70
     0
 10
0.0
 20
0.0
 30
0.0
  3
*Model_Space
  1

  0
ENDBLK
  5
21
330
1F
100
AcDbEntity
  8
0
100
AcDbBlockEnd
  0
BLOCK
  5
1C
330
1B
100
AcDbEntity
 67
     1
  8
0
100
AcDbBlockBegin
  2
*Paper_Space
 70
     0
 10
0.0
 20
0.0
 30
0.0
  3
*Paper_Space
  1

  0
ENDBLK
  5
1D
330
1B
100
AcDbEntity
 67
     1
  8
0
100
AcDbBlockEnd
  0
BLOCK
  5
24
330
23
100
AcDbEntity
  8
0
100
AcDbBlockBegin
  2
*Paper_Space0
 70
     0
 10
0.0
 20
0.0
 30
0.0
  3
*Paper_Space0
  1

  0
ENDBLK
  5
25
330
23
100
AcDbEntity
  8
0
100
AcDbBlockEnd
  0
ENDSEC
  0
SECTION
  2
ENTITIES
  0
CIRCLE
  5
73
330
1F
100
AcDbEntity
  8
0
  6
Continuous
 62
     7
370
    15
100
AcDbCircle
 10
46.0
 20
0.0
 30
0.0
 40
1.5
  0
CIRCLE
  5
78
330
1F
100
AcDbEntity
  8
0
  6
Continuous
 62
     7
370
    15
100
AcDbCircle
 10
-2.8470094961
 20
10.6251840892
 30
0.0
 40
1.000000000000001
  0
CIRCLE
  5
79
330
1F
100
AcDbEntity
  8
0
  6
Continuous
 62
     7
370
    15
100
AcDbCircle
 10
7.7781745931
 20
7.7781745931
 30
0.0
 40
0.9999999999999982
  0
CIRCLE
  5
7A
330
1F
100
AcDbEntity
  8
0
  6
Continuous
 62
     7
370
    15
100
AcDbCircle
 10
2.8470094961
 20
-10.6251840892
 30
0.0
 40
1.000000000000002
  0
CIRCLE
  5
7B
330
1F
100
AcDbEntity
  8
0
  6
Continuous
 62
     7
370
    15
100
AcDbCircle
 10
13.0399986549
 20
3.4940571089
 30
0.0
 40
1.000000000000002
  0
CIRCLE
  5
7C
330
1F
100
AcDbEntity
  8
0
  6
Continuous
 62
     7
370
    15
100
AcDbCircle
 10
-7.7781745931
 20
-7.7781745931
 30
0.0
 40
0.9999999999999991
  0
CIRCLE
  5
7D
330
1F
100
AcDbEntity
  8
0
  6
Continuous
 62
     7
370
    15
100
AcDbCircle
 10
-10.6251840892
 20
2.8470094961
 30
0.0
 40
1.000000000000002
  0
CIRCLE
  5
7E
330
1F
100
AcDbEntity
  8
0
  6
Continuous
 62
     7
370
    15
100
AcDbCircle
 10
10.6251840892
 20
-2.8470094961
 30
0.0
 40
1.0
  0
CIRCLE
  5
D3
330
1F
100
AcDbEntity
  8
0
  6
Continuous
 62
     7
370
    15
100
AcDbCircle
 10
0.0
 20
0.0
 30
0.0
 40
27.99999999999999
  0
SPLINE
  5
D6
330
1F
100
AcDbEntity
  8
0
  6
Continuous
 62
     7
370
    15
100
AcDbSpline
210
0.0
220
0.0
230
1.0
 70
     8
 71
     3
 72
    15
 73
    11
 74
     0
 42
0.000000001
 43
0.00000001
 40
0.0
 40
0.0
 40
0.0
 40
0.0
 40
0.0751731173762219
 40
0.1647462575118012
 40
0.2680168809877796
 40
0.3859118756529554
 40
0.5177894792733976
 40
0.6636909770022812
 40
0.8244132205366416
 40
1.0
 40
1.0
 40
1.0
 40
1.0
 10
-6.182078854140109
 20
10.45816076317536
 30
0.0
 10
-6.221861302953101
 20
10.44970078321975
 30
0.0
 10
-6.309046852593068
 20
10.43116024525942
 30
0.0
 10
-6.452634362829834
 20
10.4104620449837
 30
0.0
 10
-6.619812420159651
 20
10.39279525516868
 30
0.0
 10
-6.810352842292176
 20
10.37954890555733
 30
0.0
 10
-7.02408459836418
 20
10.36820895134768
 30
0.0
 10
-7.261123308090996
 20
10.35919540957459
 30
0.0
 10
-7.521934276687746
 20
10.35424267475938
 30
0.0
 10
-7.703854962372041
 20
10.3539872363964
 30
0.0
 10
-7.798835665037543
 20
10.35385387214971
 30
0.0
  0
SPLINE
  5
D7
330
1F
100
AcDbEntity
  8
0
  6
Continuous
 62
     7
370
    15
100
AcDbSpline
210
0.0
220
0.0
230
1.0
 70
     8
 71
     3
 72
    23
 73
    19
 74
     0
 42
0.000000001
 43
0.00000001
 40
0.0
 40
0.0
 40
0.0
 40
0.0
 40
0.0701188944197153
 40
0.1371923527859709
 40
0.2020161807247512
 40
0.2646314069747437
 40
0.3261165471458178
 40
0.3860103046676408
 40
0.4458118469576798
 40
0.5052976967309603
 40
0.564633277726488
 40
0.6242826253338403
 40
0.6839020319037505
 40
0.7439527709382702
 40
0.8053877310076347
 40
0.8683880308962796
 40
0.9330840282524772
 40
1.0
 40
1.0
 40
1.0
 40
1.0
 10
-4.91513173875549
 20
12.06982943304715
 30
0.0
 10
-4.915896323620891
 20
12.01761832373272
 30
0.0
 10
-4.917392285550365
 20
11.91546376200308
 30
0.0
 10
-4.935346974646974
 20
11.76601598914645
 30
0.0
 10
-4.959531750869492
 20
11.62319833847912
 30
0.0
 10
-4.996719260091702
 20
11.48732747834175
 30
0.0
 10
-5.045424981284519
 20
11.35921029477336
 30
0.0
 10
-5.102560562875984
 20
11.23688891667859
 30
0.0
 10
-5.171473539404004
 20
11.12244436909113
 30
0.0
 10
-5.250657730450201
 20
11.01546117012271
 30
0.0
 10
-5.33874419456302
 20
10.91583890063843
 30
0.0
 10
-5.435360239487337
 20
10.82429948777309
 30
0.0
 10
-5.540115813023533
 20
10.74137875949221
 30
0.0
 10
-5.652677995962081
 20
10.66689082167209
 30
0.0
 10
-5.7741441502798
 20
10.60256300029771
 30
0.0
 10
-5.902672057472806
 20
10.5449461756471
 30
0.0
 10
-6.039378878695432
 20
10.49655725134583
 30
0.0
 10
-6.133980296907888
 20
10.47110271132937
 30
0.0
 10
-6.182078854140109
 20
10.45816076317536
 30
0.0
  0
SPLINE
  5
D8
330
1F
100
AcDbEntity
  8
0
  6
Continuous
 62
     7
370
    15
100
AcDbSpline
210
0.0
220
0.0
230
1.0
 70
     8
 71
     3
 72
    23
 73
    19
 74
     0
 42
0.000000001
 43
0.00000001
 40
0.0
 40
0.0
 40
0.0
 40
0.0
 40
0.0624813386352047
 40
0.1234903826872903
 40
0.1834110942063114
 40
0.2431532209997798
 40
0.3021267353720883
 40
0.3617096708329061
 40
0.4218422916948796
 40
0.482931901446669
 40
0.5445522544313236
 40
0.6056807199653579
 40
0.6676797383436885
 40
0.729984387538063
 40
0.7945509212861304
 40
0.8603456197120831
 40
0.9289073562657093
 40
1.0
 40
1.0
 40
1.0
 40
1.0
 10
-6.131197443883697
 20
13.67768199714971
 30
0.0
 10
-6.087303461158953
 20
13.66566788816934
 30
0.0
 10
-6.000549802502643
 20
13.64192276765753
 30
0.0
 10
-5.875543624303972
 20
13.59436358363742
 30
0.0
 10
-5.75661021893244
 20
13.53797165539046
 30
0.0
 10
-5.643341534324754
 20
13.47370250737527
 30
0.0
 10
-5.537129469324738
 20
13.39879869806431
 30
0.0
 10
-5.436389366429269
 20
13.31629656302303
 30
0.0
 10
-5.342010259321363
 20
13.22429128861304
 30
0.0
 10
-5.254522876902929
 20
13.12381480346127
 30
0.0
 10
-5.174177601286337
 20
13.0165538512477
 30
0.0
 10
-5.104999462624174
 20
12.90090723412984
 30
0.0
 10
-5.047074350720968
 20
12.77882158363955
 30
0.0
 10
-4.997393272456855
 20
12.65038181882552
 30
0.0
 10
-4.961636505062737
 20
12.51450937477695
 30
0.0
 10
-4.934699987025707
 20
12.3721483394695
 30
0.0
 10
-4.917602834065886
 20
12.22331397296108
 30
0.0
 10
-4.915965329167267
 20
12.12160535617322
 30
0.0
 10
-4.91513173875549
 20
12.06982943304715
 30
0.0
  0
SPLINE
  5
D9
330
1F
100
AcDbEntity
  8
0
  6
Continuous
 62
     7
370
    15
100
AcDbSpline
210
0.0
220
0.0
230
1.0
 70
     8
 71
     3
 72
    15
 73
    11
 74
     0
 42
0.000000001
 43
0.00000001
 40
0.0
 40
0.0
 40
0.0
 40
0.0
 40
0.1769557521312504
 40
0.3390550796425809
 40
0.4863182249420763
 40
0.6187809228353772
 40
0.7356188277673809
 40
0.8387424767201108
 40
0.9264570678763175
 40
1.0
 40
1.0
 40
1.0
 40
1.0
 10
-7.577501530422158
 20
13.77308464138048
 30
0.0
 10
-7.491847457832715
 20
13.7729904867721
 30
0.0
 10
-7.327730450876174
 20
13.77281008236105
 30
0.0
 10
-7.09239027837576
 20
13.76734047207737
 30
0.0
 10
-6.878649765282264
 20
13.76003490213764
 30
0.0
 10
-6.686969788458069
 20
13.74990775305869
 30
0.0
 10
-6.516760581929558
 20
13.73793965360964
 30
0.0
 10
-6.368792338466509
 20
13.72115381073916
 30
0.0
 10
-6.241902000546539
 20
13.70362727452098
 30
0.0
 10
-6.165871727979289
 20
13.68580843697866
 30
0.0
 10
-6.131197443883697
 20
13.67768199714971
 30
0.0
  0
CIRCLE
  5
E1
330
1F
100
AcDbEntity
  8
0
  6
Continuous
 62
     7
370
    15
100
AcDbCircle
 10
-11.75
 20
20.3515969889
 30
0.0
 40
0.8000000000000007
  0
SPLINE
  5
EA
330
1F
100
AcDbEntity
  8
0
  6
Continuous
 62
     7
370
    15
100
AcDbSpline
210
0.0
220
0.0
230
1.0
 70
     8
 71
     3
 72
    23
 73
    19
 74
     0
 42
0.000000001
 43
0.00000001
 40
0.0
 40
0.0
 40
0.0
 40
0.0
 40
0.06657003521518
 40
0.1307490414821778
 40
0.1934128000295041
 40
0.2549893988897086
 40
0.3161135558759002
 40
0.3772617579089843
 40
0.439400784155553
 40
0.502970589371976
 40
0.5665249763607312
 40
0.6282311025133089
 40
0.6890906105998628
 40
0.7493446689958043
 40
0.8101695933722064
 40
0.8716098243170436
 40
0.9348691840727638
 40
1.0
 40
1.0
 40
1.0
 40
1.0
 10
-13.50391379003754
 20
13.935905154201
 30
0.0
 10
-13.38633336931868
 20
13.93292704162778
 30
0.0
 10
-13.15539572212699
 20
13.92707778282665
 30
0.0
 10
-12.81598840768491
 20
13.88230283780476
 30
0.0
 10
-12.49196587766861
 20
13.80484120172162
 30
0.0
 10
-12.18068862584254
 20
13.70167550493517
 30
0.0
 10
-11.88587993978127
 20
13.5640539771729
 30
0.0
 10
-11.60532080626264
 20
13.39771092232835
 30
0.0
 10
-11.33967876375053
 20
13.20090363286692
 30
0.0
 10
-11.09253425726327
 20
12.97515346415044
 30
0.0
 10
-10.86637093317803
 20
12.72952919778617
 30
0.0
 10
-10.66711539666091
 20
12.46740498951101
 30
0.0
 10
-10.50012437803336
 20
12.19036573389748
 30
0.0
 10
-10.36299016417642
 20
11.89924394116178
 30
0.0
 10
-10.25540554373191
 20
11.59469799926493
 30
0.0
 10
-10.18116670732181
 20
11.275104308577
 30
0.0
 10
-10.13374463490149
 20
10.94253359944627
 30
0.0
 10
-10.12820058160511
 20
10.71569914487605
 30
0.0
 10
-10.1253881490119
 20
10.6006287118933
 30
0.0
  0
SPLINE
  5
EB
330
1F
100
AcDbEntity
  8
0
  6
Continuous
 62
     7
370
    15
100
AcDbSpline
210
0.0
220
0.0
230
1.0
 70
     8
 71
     3
 72
    31
 73
    27
 74
     0
 42
0.000000001
 43
0.00000001
 40
0.0
 40
0.0
 40
0.0
 40
0.0
 40
0.0432089861713363
 40
0.0858728716306186
 40
0.1281200066967025
 40
0.1701519644541991
 40
0.2119176209878609
 40
0.2537530026191241
 40
0.2960064088559503
 40
0.338443357144784
 40
0.3810153681620335
 40
0.4228204794407608
 40
0.464089055794313
 40
0.5051258486836863
 40
0.5459749706852406
 40
0.5869852111338596
 40
0.6283385916346624
 40
0.6700838015912063
 40
0.7119916023637222
 40
0.7530391548630189
 40
0.7940493953116377
 40
0.8348855427015817
 40
0.8754983129295132
 40
0.9165472998303793
 40
0.9580037786449609
 40
1.0
 40
1.0
 40
1.0
 40
1.0
 10
-16.80102917465292
 20
10.57009986573946
 30
0.0
 10
-16.80005919309365
 20
10.64563342260167
 30
0.0
 10
-16.79813146672688
 20
10.79574764667796
 30
0.0
 10
-16.77492368181916
 20
11.01866276409719
 30
0.0
 10
-16.74124745248697
 20
11.23799295747446
 30
0.0
 10
-16.69298398257592
 20
11.45311453449543
 30
0.0
 10
-16.62986195818612
 20
11.66350089245532
 30
0.0
 10
-16.55538185134951
 20
11.87060299074412
 30
0.0
 10
-16.46441384620087
 20
12.07232203239652
 30
0.0
 10
-16.36157895618754
 20
12.269613614501
 30
0.0
 10
-16.24680396163184
 20
12.45940224366112
 30
0.0
 10
-16.1200293876261
 20
12.63879805880672
 30
0.0
 10
-15.98570807626296
 20
12.8093064386831
 30
0.0
 10
-15.83845449068065
 20
12.96650885993392
 30
0.0
 10
-15.68312179725457
 20
13.11497849366995
 30
0.0
 10
-15.5171901683539
 20
13.25243370883521
 30
0.0
 10
-15.34167209643354
 20
13.38011397699922
 30
0.0
 10
-15.15581235028741
 20
13.49517659581659
 30
0.0
 10
-14.96419062300592
 20
13.59924245433389
 30
0.0
 10
-14.76665704046335
 20
13.68854495540259
 30
0.0
 10
-14.56589440358881
 20
13.76519138128599
 30
0.0
 10
-14.36096239949543
 20
13.82731402128633
 30
0.0
 10
-14.15240522729252
 20
13.87635785801467
 30
0.0
 10
-13.93976770385317
 20
13.90975405688645
 30
0.0
 10
-13.72321923046047
 20
13.93302103362516
 30
0.0
 10
-13.57733012322264
 20
13.9349396443772
 30
0.0
 10
-13.50391379003754
 20
13.935905154201
 30
0.0
  0
SPLINE
  5
EC
330
1F
100
AcDbEntity
  8
0
  6
Continuous
 62
     7
370
    15
100
AcDbSpline
210
0.0
220
0.0
230
1.0
 70
     8
 71
     3
 72
    23
 73
    19
 74
     0
 42
0.000000001
 43
0.00000001
 40
0.0
 40
0.0
 40
0.0
 40
0.0
 40
0.065818876843307
 40
0.1297465269068312
 40
0.1920719544880058
 40
0.2534594242982024
 40
0.3145695877964202
 40
0.3762798811880263
 40
0.4390256536685597
 40
0.5032670288290859
 40
0.5674928228792949
 40
0.6297047956052448
 40
0.6909996492157555
 40
0.751451650917447
 40
0.8120043642646944
 40
0.8731496810680428
 40
0.9356354837317855
 40
1.0
 40
1.0
 40
1.0
 40
1.0
 10
-13.45303237978113
 20
7.260264128559971
 30
0.0
 10
-13.56810221564408
 20
7.263075158995613
 30
0.0
 10
-13.79493549313225
 20
7.268616448266197
 30
0.0
 10
-14.1279241144641
 20
7.31611699697847
 30
0.0
 10
-14.44774230687364
 20
7.390396219589246
 30
0.0
 10
-14.75347548693034
 20
7.496549053871465
 30
0.0
 10
-15.04529414491615
 20
7.633740315329384
 30
0.0
 10
-15.32376900923341
 20
7.801025403061641
 30
0.0
 10
-15.58778231922899
 20
7.999521216346487
 30
0.0
 10
-15.83514520213662
 20
8.224794858800557
 30
0.0
 10
-16.06147589026763
 20
8.470034674600639
 30
0.0
 10
-16.25879647188188
 20
8.732805394528222
 30
0.0
 10
-16.42611917747527
 20
9.007951723009937
 30
0.0
 10
-16.5628497950024
 20
9.296237231042962
 30
0.0
 10
-16.67109817124209
 20
9.596268277087596
 30
0.0
 10
-16.74494834129442
 20
9.91004622910418
 30
0.0
 10
-16.79272928290506
 20
10.23578218965388
 30
0.0
 10
-16.7982353615219
 20
10.45756573375835
 30
0.0
 10
-16.80102917465292
 20
10.57009986573946
 30
0.0
  0
SPLINE
  5
ED
330
1F
100
AcDbEntity
  8
0
  6
Continuous
 62
     7
370
    15
100
AcDbSpline
210
0.0
220
0.0
230
1.0
 70
     8
 71
     3
 72
    23
 73
    19
 74
     0
 42
0.000000001
 43
0.00000001
 40
0.0
 40
0.0
 40
0.0
 40
0.0
 40
0.0652265038922755
 40
0.1285689957067288
 40
0.190320378104467
 40
0.251377988624063
 40
0.312387528333694
 40
0.3737887042767234
 40
0.4364311597804502
 40
0.5005667553098538
 40
0.5646867953847436
 40
0.6271355178835134
 40
0.6884554088949795
 40
0.7492457464637472
 40
0.8101551773646782
 40
0.8716709256529235
 40
0.9347734961077241
 40
1.0
 40
1.0
 40
1.0
 40
1.0
 10
-10.1253881490119
 20
10.6006287118933
 30
0.0
 10
-10.12820016944846
 20
10.48640591636068
 30
0.0
 10
-10.13374298750341
 20
10.26125955357696
 30
0.0
 10
-10.18122062674644
 20
9.930799304867225
 30
0.0
 10
-10.25568072669932
 20
9.613134755535201
 30
0.0
 10
-10.36199109534492
 20
9.308796214072121
 30
0.0
 10
-10.49847160627116
 20
9.017462634098454
 30
0.0
 10
-10.66657455960873
 20
8.739900589198522
 30
0.0
 10
-10.86458789909804
 20
8.47601908498407
 30
0.0
 10
-11.0899346145442
 20
8.228708963792545
 30
0.0
 10
-11.3355907907697
 20
8.001927838391282
 30
0.0
 10
-11.59907998912309
 20
7.804317878222339
 30
0.0
 10
-11.87447644098162
 20
7.63427553787864
 30
0.0
 10
-12.16532405435645
 20
7.498596586541706
 30
0.0
 10
-12.46776554974158
 20
7.390153245162773
 30
0.0
 10
-12.78450776448786
 20
7.31621633067727
 30
0.0
 10
-13.11406651253256
 20
7.268524123634243
 30
0.0
 10
-13.33880390514582
 20
7.263047673243948
 30
0.0
 10
-13.45303237978113
 20
7.260264128559971
 30
0.0
  0
SPLINE
  5
EE
330
1F
100
AcDbEntity
  8
0
  6
Continuous
 62
     7
370
    15
100
AcDbSpline
210
0.0
220
0.0
230
1.0
 70
     8
 71
     3
 72
    23
 73
    19
 74
     0
 42
0.000000001
 43
0.00000001
 40
0.0
 40
0.0
 40
0.0
 40
0.0
 40
0.0645039992970558
 40
0.1268993215900403
 40
0.1877465401000115
 40
0.2481497329298262
 40
0.3085860647627415
 40
0.369583005086994
 40
0.4318269653810494
 40
0.4961797225241573
 40
0.5606678546118796
 40
0.6235044551176645
 40
0.6852604113304277
 40
0.7465368217511666
 40
0.8083273517367074
 40
0.8704861878877675
 40
0.9343168833592462
 40
1.0
 40
1.0
 40
1.0
 40
1.0
 10
-16.23115737978113
 20
10.57264393625228
 30
0.0
 10
-16.22884441594388
 20
10.48090962136682
 30
0.0
 10
-16.22429410053694
 20
10.3004398450374
 30
0.0
 10
-16.1844567947563
 20
10.03597478398901
 30
0.0
 10
-16.1230940696776
 20
9.781814607336349
 30
0.0
 10
-16.03263856199956
 20
9.539350000475245
 30
0.0
 10
-15.91951673254927
 20
9.306496801623688
 30
0.0
 10
-15.77976794590808
 20
9.085320668833617
 30
0.0
 10
-15.61419789066142
 20
8.875761825345222
 30
0.0
 10
-15.42612263525528
 20
8.679283265928706
 30
0.0
 10
-15.22052286756746
 20
8.499948735379872
 30
0.0
 10
-15.0022049146963
 20
8.342535122552357
 30
0.0
 10
-14.77350765539792
 20
8.209347955015451
 30
0.0
 10
-14.53383470190528
 20
8.100844466548468
 30
0.0
 10
-14.28446559538063
 20
8.014865942255993
 30
0.0
 10
-14.02379346706985
 20
7.955940425781741
 30
0.0
 10
-13.75355477611101
 20
7.917159242471427
 30
0.0
 10
-13.56934915889196
 20
7.913434956728802
 30
0.0
 10
-13.47592901439652
 20
7.911546179842022
 30
0.0
  0
SPLINE
  5
EF
330
1F
100
AcDbEntity
  8
0
  6
Continuous
 62
     7
370
    15
100
AcDbSpline
210
0.0
220
0.0
230
1.0
 70
     8
 71
     3
 72
    31
 73
    27
 74
     0
 42
0.000000001
 43
0.00000001
 40
0.0
 40
0.0
 40
0.0
 40
0.0
 40
0.0429150821010496
 40
0.0851299705846992
 40
0.1264733185549985
 40
0.1674530378853884
 40
0.2079763328949881
 40
0.24824937806376
 40
0.2887499869834432
 40
0.3296698569108726
 40
0.3705372867119747
 40
0.4111285639171174
 40
0.4518189126736376
 40
0.4924058769342636
 40
0.5334858617420227
 40
0.5752630624415515
 40
0.6174406128021904
 40
0.6606716882923644
 40
0.7039402042434887
 40
0.7468675221598703
 40
0.789079300394723
 40
0.8311040424574038
 40
0.8732379898547747
 40
0.915165769659333
 40
0.9573806581429823
 40
1.0
 40
1.0
 40
1.0
 40
1.0
 10
-10.6952599438837
 20
10.60190074714972
 30
0.0
 10
-10.6959876774298
 20
10.66343316203677
 30
0.0
 10
-10.69743127097175
 20
10.78549404163629
 30
0.0
 10
-10.71655833207594
 20
10.96594438352044
 30
0.0
 10
-10.74395566174694
 20
11.14238949576579
 30
0.0
 10
-10.78343943204722
 20
11.31413668120147
 30
0.0
 10
-10.83433042525326
 20
11.48122971953687
 30
0.0
 10
-10.89708172467302
 20
11.64351167608045
 30
0.0
 10
-10.97107791086126
 20
11.80158711573145
 30
0.0
 10
-11.05600140366799
 20
11.95506534028824
 30
0.0
 10
-11.1514615405466
 20
12.10233950777982
 30
0.0
 10
-11.25577252483925
 20
12.24313245621881
 30
0.0
 10
-11.37073537075245
 20
12.37480014402514
 30
0.0
 10
-11.49306544445204
 20
12.50059308893246
 30
0.0
 10
-11.62581833640626
 20
12.61782840293518
 30
0.0
 10
-11.76839269852127
 20
12.72654497612815
 30
0.0
 10
-11.91905765674563
 20
12.82936648805235
 30
0.0
 10
-12.07858278388836
 20
12.92212286453468
 30
0.0
 10
-12.24321824280187
 20
13.00778297245719
 30
0.0
 10
-12.41215356655213
 20
13.08117264959095
 30
0.0
 10
-12.58347493299878
 20
13.14353349476517
 30
0.0
 10
-12.75674667965851
 20
13.19672284564265
 30
0.0
 10
-12.933427226067
 20
13.23556312890411
 30
0.0
 10
-13.11232274411782
 20
13.26319116222156
 30
0.0
 10
-13.29318572753354
 20
13.28241966234249
 30
0.0
 10
-13.41482128331772
 20
13.28388629197226
 30
0.0
 10
-13.47592901439652
 20
13.28462310291895
 30
0.0
  0
SPLINE
  5
F0
330
1F
100
AcDbEntity
  8
0
  6
Continuous
 62
     7
370
    15
100
AcDbSpline
210
0.0
220
0.0
230
1.0
 70
     8
 71
     3
 72
    31
 73
    27
 74
     0
 42
0.000000001
 43
0.00000001
 40
0.0
 40
0.0
 40
0.0
 40
0.0
 40
0.0436332182657581
 40
0.0865377766972011
 40
0.129177336089892
 40
0.1714363236638287
 40
0.2134158945709081
 40
0.2552659545538503
 40
0.297369481156624
 40
0.3399407478985553
 40
0.3823474587518117
 40
0.4239529468152706
 40
0.4648711632610171
 40
0.5055722941182729
 40
0.5460025771083165
 40
0.5865679748069134
 40
0.6270647991481677
 40
0.6682706840331738
 40
0.7095492248503333
 40
0.7504281535131891
 40
0.7910961944485935
 40
0.8320271447794345
 40
0.8731359553359674
 40
0.9146107643654493
 40
0.9569559864804373
 40
1.0
 40
1.0
 40
1.0
 40
1.0
 10
-13.47592901439652
 20
7.911546179842023
 30
0.0
 10
-13.41313749004295
 20
7.912408880620657
 30
0.0
 10
-13.28860303833485
 20
7.914119875369736
 30
0.0
 10
-13.10337259063765
 20
7.931353189059442
 30
0.0
 10
-12.92147917792578
 20
7.958988152146677
 30
0.0
 10
-12.74317792728584
 20
7.99877662732274
 30
0.0
 10
-12.56867119805611
 20
8.048573701842257
 30
0.0
 10
-12.39723062669042
 20
8.107733436853731
 30
0.0
 10
-12.23068229996783
 20
8.181540763536015
 30
0.0
 10
-12.06692516567141
 20
8.263089189972238
 30
0.0
 10
-11.91017769860315
 20
8.356053475782783
 30
0.0
 10
-11.76054351858978
 20
8.455908404450385
 30
0.0
 10
-11.62179424085307
 20
8.566522902023921
 30
0.0
 10
-11.49045978270366
 20
8.683213790496618
 30
0.0
 10
-11.36776383267426
 20
8.808333914466115
 30
0.0
 10
-11.25453610415147
 20
8.941720602674051
 30
0.0
 10
-11.15115786439334
 20
9.084215795082775
 30
0.0
 10
-11.05597019125985
 20
9.233505031211573
 30
0.0
 10
-10.97105570026005
 20
9.389526803940448
 30
0.0
 10
-10.89707076341381
 20
9.550144933932515
 30
0.0
 10
-10.83430352468872
 20
9.714963918069222
 30
0.0
 10
-10.78363323735563
 20
9.884221483471133
 30
0.0
 10
-10.74392675687333
 20
10.05759616624108
 30
0.0
 10
-10.71656747361172
 20
10.2353201080481
 30
0.0
 10
-10.69742959206645
 20
10.41703777228014
 30
0.0
 10
-10.69598709488491
 20
10.53994448238214
 30
0.0
 10
-10.6952599438837
 20
10.60190074714972
 30
0.0
  0
SPLINE
  5
F1
330
1F
100
AcDbEntity
  8
0
  6
Continuous
 62
     7
370
    15
100
AcDbSpline
210
0.0
220
0.0
230
1.0
 70
     8
 71
     3
 72
    31
 73
    27
 74
     0
 42
0.000000001
 43
0.00000001
 40
0.0
 40
0.0
 40
0.0
 40
0.0
 40
0.0420233285259236
 40
0.0836449111687117
 40
0.1249837954173947
 40
0.1662474611728954
 40
0.2077015560969883
 40
0.2496310707996497
 40
0.2917417703321309
 40
0.3347428753531986
 40
0.3774601685508656
 40
0.4195563188419399
 40
0.4610441763330339
 40
0.5020962839443971
 40
0.5428907140755999
 40
0.5838008186265052
 40
0.6248635833101932
 40
0.6662246890691708
 40
0.7073991864779365
 40
0.7485566775366933
 40
0.7896545909521804
 40
0.8307397264898323
 40
0.8720701422586046
 40
0.9139933952421329
 40
0.9564981300675882
 40
1.0
 40
1.0
 40
1.0
 40
1.0
 10
-13.47592901439652
 20
13.28462310291895
 30
0.0
 10
-13.5361898495449
 20
13.28388851631663
 30
0.0
 10
-13.65613542215295
 20
13.28242636580997
 30
0.0
 10
-13.83445165220062
 20
13.2631664247005
 30
0.0
 10
-14.0104227321508
 20
13.23571648328103
 30
0.0
 10
-14.18408500351931
 20
13.19656143846537
 30
0.0
 10
-14.35471184281904
 20
13.14321408557609
 30
0.0
 10
-14.5238936975188
 20
13.0818170092896
 30
0.0
 10
-14.69008780953781
 20
13.00703017349505
 30
0.0
 10
-14.85274552307719
 20
12.92253398128154
 30
0.0
 10
-15.01043430227064
 20
12.82900951068045
 30
0.0
 10
-15.15922877491
 20
12.72564644763105
 30
0.0
 10
-15.29951414324422
 20
12.61486878492523
 30
0.0
 10
-15.43094692702844
 20
12.49641799425496
 30
0.0
 10
-15.55314119654503
 20
12.3696908595767
 30
0.0
 10
-15.6685020120379
 20
12.23660858262024
 30
0.0
 10
-15.7724053958815
 20
12.09336729458391
 30
0.0
 10
-15.8676292281246
 20
11.94385127069684
 30
0.0
 10
-15.95284230977066
 20
11.78825525908062
 30
0.0
 10
-16.02861659619577
 20
11.62821736610883
 30
0.0
 10
-16.09059986931432
 20
11.46243213438234
 30
0.0
 10
-16.14115018057274
 20
11.29269816277972
 30
0.0
 10
-16.18305983739472
 20
11.11928427167598
 30
0.0
 10
-16.20960995682302
 20
10.94087494592482
 30
0.0
 10
-16.22908152325128
 20
10.75836667124251
 30
0.0
 10
-16.23046010000098
 20
10.63502816462311
 30
0.0
 10
-16.23115737978113
 20
10.57264393625228
 30
0.0
  0
SPLINE
  5
F5
330
1F
100
AcDbEntity
  8
0
  6
Continuous
 62
     7
370
    15
100
AcDbSpline
210
0.0
220
0.0
230
1.0
 70
     8
 71
     3
 72
    23
 73
    19
 74
     0
 42
0.000000001
 43
0.00000001
 40
0.0
 40
0.0
 40
0.0
 40
0.0
 40
0.0700437554181556
 40
0.1392383167626463
 40
0.2081974550441379
 40
0.2791733744245679
 40
0.349986811686477
 40
0.4183538456626561
 40
0.4876095837571503
 40
0.5574110731083877
 40
0.595330156763241
 40
0.6379640515652193
 40
0.6859127777112933
 40
0.7381851646524791
 40
0.796102647184943
 40
0.858516543946927
 40
0.926657726468519
 40
1.0
 40
1.0
 40
1.0
 40
1.0
 10
-5.485003533627287
 20
12.06728536253433
 30
0.0
 10
-5.487294335126328
 20
12.11833666550583
 30
0.0
 10
-5.49184816498396
 20
12.21982033741714
 30
0.0
 10
-5.525695231004044
 20
12.3685532316662
 30
0.0
 10
-5.582571843299319
 20
12.51049515248222
 30
0.0
 10
-5.661414521919117
 20
12.64288917876629
 30
0.0
 10
-5.75710200056198
 20
12.76297458024611
 30
0.0
 10
-5.86831652305789
 20
12.86729079648873
 30
0.0
 10
-5.994796297191842
 20
12.95115017144374
 30
0.0
 10
-6.112449516351231
 20
13.00527626814921
 30
0.0
 10
-6.216954525286751
 20
13.03832398214935
 30
0.0
 10
-6.30772679536162
 20
13.06144676412175
 30
0.0
 10
-6.410217019072556
 20
13.07990822116612
 30
0.0
 10
-6.524458561898502
 20
13.09485703338207
 30
0.0
 10
-6.649565960510101
 20
13.10765402731589
 30
0.0
 10
-6.786614046104621
 20
13.11633715744042
 30
0.0
 10
-6.935083656027217
 20
13.12141979946955
 30
0.0
 10
-7.038154263167911
 20
13.12167190400668
 30
0.0
 10
-7.091584062473441
 20
13.12180259009843
 30
0.0
  0
SPLINE
  5
F6
330
1F
100
AcDbEntity
  8
0
  6
Continuous
 62
     7
370
    15
100
AcDbSpline
210
0.0
220
0.0
230
1.0
 70
     8
 71
     3
 72
    23
 73
    19
 74
     0
 42
0.000000001
 43
0.00000001
 40
0.0
 40
0.0
 40
0.0
 40
0.0
 40
0.0725383714064943
 40
0.1400338305012519
 40
0.202495680633624
 40
0.2605750556694164
 40
0.313228337846466
 40
0.3615831937532652
 40
0.404878361295127
 40
0.4441274373055402
 40
0.5163996933371985
 40
0.5865066709977665
 40
0.6550853737960489
 40
0.7243837831470369
 40
0.7939735287256634
 40
0.8616376821817773
 40
0.9301109423064045
 40
1.0
 40
1.0
 40
1.0
 40
1.0
 10
-7.141193437473443
 20
10.99114353561125
 30
0.0
 10
-7.086910143498686
 20
10.99111548023875
 30
0.0
 10
-6.982117363620666
 20
10.99106131992055
 30
0.0
 10
-6.830740215754646
 20
10.99829165394714
 30
0.0
 10
-6.690297651647687
 20
11.00663833463826
 30
0.0
 10
-6.561221064898941
 20
11.01885922434789
 30
0.0
 10
-6.443452269479213
 20
11.03613350578348
 30
0.0
 10
-6.336794895664139
 20
11.05357194457785
 30
0.0
 10
-6.242075968126242
 20
11.07880024529231
 30
0.0
 10
-6.1312245592082
 20
11.11276924215901
 30
0.0
 10
-6.007701914500315
 20
11.17070413057251
 30
0.0
 10
-5.873322219322526
 20
11.25479607395542
 30
0.0
 10
-5.759438441228077
 20
11.36198535883275
 30
0.0
 10
-5.660889531389236
 20
11.4825044242394
 30
0.0
 10
-5.582683152843855
 20
11.61657855905525
 30
0.0
 10
-5.52543156678396
 20
11.76003220140103
 30
0.0
 10
-5.491792609852954
 20
11.91139415696184
 30
0.0
 10
-5.487281944220522
 20
12.01496835174195
 30
0.0
 10
-5.485003533627287
 20
12.06728536253433
 30
0.0
  0
CIRCLE
  5
F7
330
1F
100
AcDbEntity
  8
0
  6
Continuous
 62
     7
370
    15
100
AcDbCircle
 10
-0.6
 20
-53.9966665638
 30
0.0
 40
1.900000000000015
  0
CIRCLE
  5
FE
330
1F
100
AcDbEntity
  8
0
  6
Continuous
 62
     7
370
    15
100
AcDbCircle
 10
-46.4624849639
 20
27.5179485242
 30
0.0
 40
1.900000000000013
  0
CIRCLE
  5
10A
330
1F
100
AcDbEntity
  8
0
  6
Continuous
 62
     7
370
    15
100
AcDbCircle
 10
47.0624849639
 20
26.4787180396
 30
0.0
 40
1.900000000000006
  0
LINE
  5
118
330
1F
100
AcDbEntity
  8
0
  6
Continuous
 62
     7
370
    15
100
AcDbLine
 10
43.75
 20
-2.25
 30
0.0
 11
43.75
 21
2.25
 31
0.0
  0
LINE
  5
119
330
1F
100
AcDbEntity
  8
0
  6
Continuous
 62
     7
370
    15
100
AcDbLine
 10
43.75
 20
2.25
 30
0.0
 11
48.25
 21
2.25
 31
0.0
  0
LINE
  5
11A
330
1F
100
AcDbEntity
  8
0
  6
Continuous
 62
     7
370
    15
100
AcDbLine
 10
48.25
 20
2.25
 30
0.0
 11
48.25
 21
-2.25
 31
0.0
  0
LINE
  5
11B
330
1F
100
AcDbEntity
  8
0
  6
Continuous
 62
     7
370
    15
100
AcDbLine
 10
48.25
 20
-2.25
 30
0.0
 11
43.75
 21
-2.25
 31
0.0
  0
LINE
  5
11C
330
1F
100
AcDbEntity
  8
0
  6
Continuous
 62
     7
370
    15
100
AcDbLine
 10
-32.7933866225
 20
19.2146674954
 30
0.0
 11
-32.7933866225
 21
20.5146674954
 31
0.0
  0
LINE
  5
11D
330
1F
100
AcDbEntity
  8
0
  6
Continuous
 62
     7
370
    15
100
AcDbLine
 10
-30.1624331382
 20
19.2146674954
 30
0.0
 11
-32.7933866225
 21
19.2146674954
 31
0.0
  0
LINE
  5
11E
330
1F
100
AcDbEntity
  8
0
  6
Continuous
 62
     7
370
    15
100
AcDbLine
 10
-26.9433866224
 20
25.0646674954
 30
0.0
 11
-26.9433866224
 21
22.4337140112
 31
0.0
  0
LINE
  5
11F
330
1F
100
AcDbEntity
  8
0
  6
Continuous
 62
     7
370
    15
100
AcDbLine
 10
-28.2433866225
 20
25.0646674954
 30
0.0
 11
-26.9433866224
 21
25.0646674954
 31
0.0
  0
LINE
  5
120
330
1F
100
AcDbEntity
  8
0
  6
Continuous
 62
     7
370
    15
100
AcDbLine
 10
-28.2433866225
 20
22.4337140112
 30
0.0
 11
-28.2433866225
 21
25.0646674954
 31
0.0
  0
LINE
  5
121
330
1F
100
AcDbEntity
  8
0
  6
Continuous
 62
     7
370
    15
100
AcDbLine
 10
-32.7933866225
 20
20.5146674954
 30
0.0
 11
-30.1624331382
 21
20.5146674954
 31
0.0
  0
LINE
  5
122
330
1F
100
AcDbEntity
  8
0
  6
Continuous
 62
     7
370
    15
100
AcDbLine
 10
-0.2436968651
 20
-38.0072396389
 30
0.0
 11
-1.36952989
 21
-38.6572396389
 31
0.0
  0
LINE
  5
123
330
1F
100
AcDbEntity
  8
0
  6
Continuous
 62
     7
370
    15
100
AcDbLine
 10
-1.5591736072
 20
-35.7287670853
 30
0.0
 11
-0.2436968651
 21
-38.0072396389
 31
0.0
  0
LINE
  5
124
330
1F
100
AcDbEntity
  8
0
  6
Continuous
 62
     7
370
    15
100
AcDbLine
 10
-8.2349454772
 20
-35.8659910267
 30
0.0
 11
-5.9564729237
 21
-34.5505142846
 31
0.0
  0
LINE
  5
125
330
1F
100
AcDbEntity
  8
0
  6
Continuous
 62
     7
370
    15
100
AcDbLine
 10
-7.5849454772
 20
-36.9918240517
 30
0.0
 11
-8.2349454772
 21
-35.8659910267
 31
0.0
  0
LINE
  5
126
330
1F
100
AcDbEntity
  8
0
  6
Continuous
 62
     7
370
    15
100
AcDbLine
 10
-5.3064729237
 20
-35.6763473095
 30
0.0
 11
-7.5849454772
 21
-36.9918240517
 31
0.0
  0
LINE
  5
127
330
1F
100
AcDbEntity
  8
0
  6
Continuous
 62
     7
370
    15
100
AcDbLine
 10
-1.36952989
 20
-38.6572396389
 30
0.0
 11
-2.6850066321
 21
-36.3787670853
 31
0.0
  0
LINE
  5
128
330
1F
100
AcDbEntity
  8
0
  6
Continuous
 62
     7
370
    15
100
AcDbLine
 10
37.9377804012
 20
-13.8882978881
 30
0.0
 11
26.7565847427
 21
-20.3437642114
 31
0.0
  0
LINE
  5
129
330
1F
100
AcDbEntity
  8
0
  6
Continuous
 62
     7
370
    15
100
AcDbLine
 10
26.7452389505
 20
-20.3241127228
 30
0.0
 11
25.7926110063
 21
-20.8741127228
 31
0.0
  0
LINE
  5
12A
330
1F
100
AcDbEntity
  8
0
  6
Continuous
 62
     7
370
    15
100
AcDbLine
 10
25.7926110063
 20
-20.8741127228
 30
0.0
 11
24.605702305
 21
-18.8183265482
 31
0.0
  0
LINE
  5
12B
330
1F
100
AcDbEntity
  8
0
  6
Continuous
 62
     7
370
    15
100
AcDbLine
 10
24.605702305
 20
-18.8183265482
 30
0.0
 11
23.4798692801
 21
-19.4683265482
 31
0.0
  0
LINE
  5
12C
330
1F
100
AcDbEntity
  8
0
  6
Continuous
 62
     7
370
    15
100
AcDbLine
 10
23.4798692801
 20
-19.4683265482
 30
0.0
 11
24.1798692801
 21
-20.6807621135
 31
0.0
  0
LINE
  5
12D
330
1F
100
AcDbEntity
  8
0
  6
Continuous
 62
     7
370
    15
100
AcDbLine
 10
10.1502577388
 20
-28.7807621135
 30
0.0
 11
24.1798692801
 21
-20.6807621135
 31
0.0
  0
LINE
  5
12E
330
1F
100
AcDbEntity
  8
0
  6
Continuous
 62
     7
370
    15
100
AcDbLine
 10
10.1502577388
 20
-28.7807621135
 30
0.0
 11
9.4502577388
 21
-27.5683265482
 31
0.0
  0
LINE
  5
12F
330
1F
100
AcDbEntity
  8
0
  6
Continuous
 62
     7
370
    15
100
AcDbLine
 10
9.4502577388
 20
-27.5683265482
 30
0.0
 11
8.3244247139
 21
-28.2183265482
 31
0.0
  0
LINE
  5
130
330
1F
100
AcDbEntity
  8
0
  6
Continuous
 62
     7
370
    15
100
AcDbLine
 10
8.3244247139
 20
-28.2183265482
 30
0.0
 11
9.5113334152
 21
-30.2741127228
 31
0.0
  0
LINE
  5
131
330
1F
100
AcDbEntity
  8
0
  6
Continuous
 62
     7
370
    15
100
AcDbLine
 10
9.5113334152
 20
-30.2741127228
 30
0.0
 11
8.558705471
 21
-30.8241127228
 31
0.0
  0
LINE
  5
132
330
1F
100
AcDbEntity
  8
0
  6
Continuous
 62
     7
370
    15
100
AcDbLine
 10
8.5700512632
 20
-30.8437642114
 30
0.0
 11
3.3738988405
 21
-33.8437642114
 31
0.0
  0
LINE
  5
133
330
1F
100
AcDbEntity
  8
0
  6
Continuous
 62
     7
370
    15
100
AcDbLine
 10
2.8249749809
 20
-35.893000197
 30
0.0
 11
4.2016062413
 21
-38.2773954834
 31
0.0
  0
LINE
  5
134
330
1F
100
AcDbEntity
  8
0
  6
Continuous
 62
     7
370
    15
100
AcDbLine
 10
-20.5734185715
 20
-46.5197895945
 30
0.0
 11
-0.5740288533
 21
-58.0664426319
 31
0.0
  0
LINE
  5
135
330
1F
100
AcDbEntity
  8
0
  6
Continuous
 62
     7
370
    15
100
AcDbLine
 10
-30.996508987
 20
-25.9109326466
 30
0.0
 11
-30.996508987
 21
-13.0
 31
0.0
  0
LINE
  5
136
330
1F
100
AcDbEntity
  8
0
  6
Continuous
 62
     7
370
    15
100
AcDbLine
 10
-30.9738174026
 20
-13.0
 30
0.0
 11
-30.9738174026
 21
-11.9
 31
0.0
  0
LINE
  5
137
330
1F
100
AcDbEntity
  8
0
  6
Continuous
 62
     7
370
    15
100
AcDbLine
 10
-30.9738174026
 20
-11.9
 30
0.0
 11
-28.6
 21
-11.9
 31
0.0
  0
LINE
  5
138
330
1F
100
AcDbEntity
  8
0
  6
Continuous
 62
     7
370
    15
100
AcDbLine
 10
-28.6
 20
-11.9
 30
0.0
 11
-28.6
 21
-10.6
 31
0.0
  0
LINE
  5
139
330
1F
100
AcDbEntity
  8
0
  6
Continuous
 62
     7
370
    15
100
AcDbLine
 10
-28.6
 20
-10.6
 30
0.0
 11
-30.0
 21
-10.6
 31
0.0
  0
LINE
  5
13A
330
1F
100
AcDbEntity
  8
0
  6
Continuous
 62
     7
370
    15
100
AcDbLine
 10
-30.0
 20
5.6
 30
0.0
 11
-30.0
 21
-10.6
 31
0.0
  0
LINE
  5
13B
330
1F
100
AcDbEntity
  8
0
  6
Continuous
 62
     7
370
    15
100
AcDbLine
 10
-30.0
 20
5.6
 30
0.0
 11
-28.6
 21
5.6
 31
0.0
  0
LINE
  5
13C
330
1F
100
AcDbEntity
  8
0
  6
Continuous
 62
     7
370
    15
100
AcDbLine
 10
-28.6
 20
5.6
 30
0.0
 11
-28.6
 21
6.9
 31
0.0
  0
LINE
  5
13D
330
1F
100
AcDbEntity
  8
0
  6
Continuous
 62
     7
370
    15
100
AcDbLine
 10
-28.6
 20
6.9
 30
0.0
 11
-30.9738174026
 21
6.9
 31
0.0
  0
LINE
  5
13E
330
1F
100
AcDbEntity
  8
0
  6
Continuous
 62
     7
370
    15
100
AcDbLine
 10
-30.9738174026
 20
6.9
 30
0.0
 11
-30.9738174026
 21
8.0
 31
0.0
  0
LINE
  5
13F
330
1F
100
AcDbEntity
  8
0
  6
Continuous
 62
     7
370
    15
100
AcDbLine
 10
-30.996508987
 20
8.0
 30
0.0
 11
-30.996508987
 21
14.0
 31
0.0
  0
LINE
  5
140
330
1F
100
AcDbEntity
  8
0
  6
Continuous
 62
     7
370
    15
100
AcDbLine
 10
-32.4967374791
 20
15.5
 30
0.0
 11
-35.25
 21
15.5
 31
0.0
  0
LINE
  5
141
330
1F
100
AcDbEntity
  8
0
  6
Continuous
 62
     7
370
    15
100
AcDbLine
 10
-30.0004363926
 20
41.0770983178
 30
0.0
 11
-50.0
 21
29.5303448854
 31
0.0
  0
LINE
  5
142
330
1F
100
AcDbEntity
  8
0
  6
Continuous
 62
     7
370
    15
100
AcDbLine
 10
5.1812063963
 20
32.7741127228
 30
0.0
 11
3.994297695
 21
30.7183265482
 31
0.0
  0
LINE
  5
143
330
1F
100
AcDbEntity
  8
0
  6
Continuous
 62
     7
370
    15
100
AcDbLine
 10
3.994297695
 20
30.7183265482
 30
0.0
 11
5.1201307199
 21
30.0683265482
 31
0.0
  0
LINE
  5
144
330
1F
100
AcDbEntity
  8
0
  6
Continuous
 62
     7
370
    15
100
AcDbLine
 10
5.1201307199
 20
30.0683265482
 30
0.0
 11
5.8201307199
 21
31.2807621135
 31
0.0
  0
LINE
  5
145
330
1F
100
AcDbEntity
  8
0
  6
Continuous
 62
     7
370
    15
100
AcDbLine
 10
19.8497422612
 20
23.1807621135
 30
0.0
 11
5.8201307199
 21
31.2807621135
 31
0.0
  0
LINE
  5
146
330
1F
100
AcDbEntity
  8
0
  6
Continuous
 62
     7
370
    15
100
AcDbLine
 10
19.8497422612
 20
23.1807621135
 30
0.0
 11
19.1497422612
 21
21.9683265482
 31
0.0
  0
LINE
  5
147
330
1F
100
AcDbEntity
  8
0
  6
Continuous
 62
     7
370
    15
100
AcDbLine
 10
19.1497422612
 20
21.9683265482
 30
0.0
 11
20.2755752861
 21
21.3183265482
 31
0.0
  0
LINE
  5
148
330
1F
100
AcDbEntity
  8
0
  6
Continuous
 62
     7
370
    15
100
AcDbLine
 10
20.2755752861
 20
21.3183265482
 30
0.0
 11
21.4624839874
 21
23.3741127228
 31
0.0
  0
LINE
  5
149
330
1F
100
AcDbEntity
  8
0
  6
Continuous
 62
     7
370
    15
100
AcDbLine
 10
21.4624839874
 20
23.3741127228
 30
0.0
 11
22.4151119316
 21
22.8241127228
 31
0.0
  0
LINE
  5
14A
330
1F
100
AcDbEntity
  8
0
  6
Continuous
 62
     7
370
    15
100
AcDbLine
 10
22.4264577238
 20
22.8437642114
 30
0.0
 11
27.6226101465
 21
19.8437642114
 31
0.0
  0
LINE
  5
14B
330
1F
100
AcDbEntity
  8
0
  6
Continuous
 62
     7
370
    15
100
AcDbLine
 10
29.6717624982
 20
20.393000197
 30
0.0
 11
31.0483937587
 21
22.7773954834
 31
0.0
  0
LINE
  5
14C
330
1F
100
AcDbEntity
  8
0
  6
Continuous
 62
     7
370
    15
100
AcDbLine
 10
50.5740288533
 20
5.4425420761
 30
0.0
 11
50.5740288533
 21
28.5360977465
 31
0.0
  0
LINE
  5
14D
330
1F
100
AcDbEntity
  8
0
  6
Continuous
 62
     7
370
    15
100
AcDbLine
 10
33.0370834875
 20
18.7925721435
 30
0.0
 11
34.1629165125
 21
18.1425721434
 31
0.0
  0
LINE
  5
14E
330
1F
100
AcDbEntity
  8
0
  6
Continuous
 62
     7
370
    15
100
AcDbLine
 10
31.7216067454
 20
16.5140995899
 30
0.0
 11
33.0370834875
 21
18.7925721435
 31
0.0
  0
LINE
  5
14F
330
1F
100
AcDbEntity
  8
0
  6
Continuous
 62
     7
370
    15
100
AcDbLine
 10
35.1783320997
 20
10.8013235313
 30
0.0
 11
32.8998595461
 21
12.1168002734
 31
0.0
  0
LINE
  5
150
330
1F
100
AcDbEntity
  8
0
  6
Continuous
 62
     7
370
    15
100
AcDbLine
 10
35.8283320997
 20
11.9271565562
 30
0.0
 11
35.1783320997
 21
10.8013235313
 31
0.0
  0
LINE
  5
151
330
1F
100
AcDbEntity
  8
0
  6
Continuous
 62
     7
370
    15
100
AcDbLine
 10
33.5498595461
 20
13.2426332984
 30
0.0
 11
35.8283320997
 21
11.9271565562
 31
0.0
  0
LINE
  5
152
330
1F
100
AcDbEntity
  8
0
  6
Continuous
 62
     7
370
    15
100
AcDbLine
 10
34.1629165125
 20
18.1425721434
 30
0.0
 11
32.8474397703
 21
15.8640995899
 31
0.0
  0
LINE
  5
153
330
1F
100
AcDbEntity
  8
0
  6
Continuous
 62
     7
370
    15
100
AcDbLine
 10
-6.9412714142
 20
39.7992305347
 30
0.0
 11
4.2399242443
 21
33.3437642114
 31
0.0
  0
LINE
  5
154
330
1F
100
AcDbEntity
  8
0
  6
Continuous
 62
     7
370
    15
100
AcDbLine
 10
4.2285784521
 20
33.3241127228
 30
0.0
 11
5.1812063963
 21
32.7741127228
 31
0.0
  0
LINE
  5
155
330
1F
100
AcDbEntity
  8
0
  6
Continuous
 62
     7
370
    15
100
AcDbLine
 10
-19.5740288311
 20
47.0947719928
 30
0.0
 11
-29.9995636394
 21
41.0755866648
 31
0.0
  0
LINE
  5
156
330
1F
100
AcDbEntity
  8
0
  6
Continuous
 62
     7
370
    15
100
AcDbLine
 10
-31.1872288662
 20
25.6810583047
 30
0.0
 11
-31.1872288662
 21
40.3919033637
 31
0.0
  0
LINE
  5
157
330
1F
100
AcDbEntity
  8
0
  6
Continuous
 62
     7
370
    15
100
AcDbLine
 10
-6.9385901795
 20
39.7996980844
 30
0.0
 11
-19.5740288311
 21
47.0947719928
 31
0.0
  0
LINE
  5
158
330
1F
100
AcDbEntity
  8
0
  6
Continuous
 62
     7
370
    15
100
AcDbLine
 10
-6.6468344549
 20
-39.8494616241
 30
0.0
 11
-19.3867999871
 21
-47.2048841536
 31
0.0
  0
LINE
  5
159
330
1F
100
AcDbEntity
  8
0
  6
Continuous
 62
     7
370
    15
100
AcDbLine
 10
-30.9982544874
 20
-40.4989922349
 30
0.0
 11
-20.5725458182
 21
-46.5182779415
 31
0.0
  0
LINE
  5
15A
330
1F
100
AcDbEntity
  8
0
  6
Continuous
 62
     7
370
    15
100
AcDbLine
 10
-30.9982544935
 20
-25.9088444041
 30
0.0
 11
-30.9982544874
 21
-40.4989922349
 31
0.0
  0
LINE
  5
15B
330
1F
100
AcDbEntity
  8
0
  6
Continuous
 62
     7
370
    15
100
AcDbLine
 10
50.5722833468
 20
-6.5957797743
 30
0.0
 11
50.5722833468
 21
5.4425420761
 31
0.0
  0
LINE
  5
15C
330
1F
100
AcDbEntity
  8
0
  6
Continuous
 62
     7
370
    15
100
AcDbLine
 10
37.834063321
 20
14.1684033194
 30
0.0
 11
50.5740288533
 21
6.8129807899
 31
0.0
  0
LINE
  5
15D
330
1F
100
AcDbEntity
  8
0
  6
Continuous
 62
     7
370
    15
100
AcDbLine
 10
37.9368446938
 20
-13.8908536803
 30
0.0
 11
50.5722833468
 21
-6.5957797743
 31
0.0
  0
LINE
  5
15E
330
1F
100
AcDbEntity
  8
0
  6
Continuous
 62
     7
370
    15
100
AcDbLine
 10
-8.2529522516
 20
10.3538538721
 30
0.0
 11
-8.2529522516
 21
7.4230846414
 31
0.0
  0
LINE
  5
15F
330
1F
100
AcDbEntity
  8
0
  6
Continuous
 62
     7
370
    15
100
AcDbLine
 10
-7.798835665
 20
10.3538538721
 30
0.0
 11
-8.2529522516
 21
10.3538538721
 31
0.0
  0
LINE
  5
160
330
1F
100
AcDbEntity
  8
0
  6
Continuous
 62
     7
370
    15
100
AcDbLine
 10
-8.8228240464
 20
13.7730846414
 30
0.0
 11
-7.5775015304
 21
13.7730846414
 31
0.0
  0
LINE
  5
161
330
1F
100
AcDbEntity
  8
0
  6
Continuous
 62
     7
370
    15
100
AcDbLine
 10
-8.8228240464
 20
7.4230846414
 30
0.0
 11
-8.8228240464
 21
13.7730846414
 31
0.0
  0
LINE
  5
162
330
1F
100
AcDbEntity
  8
0
  6
Continuous
 62
     7
370
    15
100
AcDbLine
 10
-8.2529522516
 20
7.4230846414
 30
0.0
 11
-8.8228240464
 21
7.4230846414
 31
0.0
  0
LINE
  5
163
330
1F
100
AcDbEntity
  8
0
  6
Continuous
 62
     7
370
    15
100
AcDbLine
 10
1.0
 20
6.4226162893
 30
0.0
 11
1.0
 21
9.0
 31
0.0
  0
LINE
  5
164
330
1F
100
AcDbEntity
  8
0
  6
Continuous
 62
     7
370
    15
100
AcDbLine
 10
-1.0
 20
9.0
 30
0.0
 11
-1.0
 21
6.4226162893
 31
0.0
  0
LINE
  5
165
330
1F
100
AcDbEntity
  8
0
  6
Continuous
 62
     7
370
    15
100
AcDbLine
 10
-18.8362855849
 20
7.4230846414
 30
0.0
 11
-19.4061573798
 21
7.4230846414
 31
0.0
  0
LINE
  5
166
330
1F
100
AcDbEntity
  8
0
  6
Continuous
 62
     7
370
    15
100
AcDbLine
 10
-18.8362855849
 20
13.1218025901
 30
0.0
 11
-18.8362855849
 21
7.4230846414
 31
0.0
  0
LINE
  5
167
330
1F
100
AcDbEntity
  8
0
  6
Continuous
 62
     7
370
    15
100
AcDbLine
 10
-17.4523112259
 20
13.1218025901
 30
0.0
 11
-18.8362855849
 21
13.1218025901
 31
0.0
  0
LINE
  5
168
330
1F
100
AcDbEntity
  8
0
  6
Continuous
 62
     7
370
    15
100
AcDbLine
 10
-17.4523112259
 20
13.7730846414
 30
0.0
 11
-17.4523112259
 21
13.1218025901
 31
0.0
  0
LINE
  5
169
330
1F
100
AcDbEntity
  8
0
  6
Continuous
 62
     7
370
    15
100
AcDbLine
 10
-20.7901317388
 20
13.7730846414
 30
0.0
 11
-17.4523112259
 21
13.7730846414
 31
0.0
  0
LINE
  5
16A
330
1F
100
AcDbEntity
  8
0
  6
Continuous
 62
     7
370
    15
100
AcDbLine
 10
-20.7901317388
 20
13.1218025901
 30
0.0
 11
-20.7901317388
 21
13.7730846414
 31
0.0
  0
LINE
  5
16B
330
1F
100
AcDbEntity
  8
0
  6
Continuous
 62
     7
370
    15
100
AcDbLine
 10
-19.4061573798
 20
13.1218025901
 30
0.0
 11
-20.7901317388
 21
13.1218025901
 31
0.0
  0
LINE
  5
16C
330
1F
100
AcDbEntity
  8
0
  6
Continuous
 62
     7
370
    15
100
AcDbLine
 10
-19.4061573798
 20
7.4230846414
 30
0.0
 11
-19.4061573798
 21
13.1218025901
 31
0.0
  0
LINE
  5
16D
330
1F
100
AcDbEntity
  8
0
  6
Continuous
 62
     7
370
    15
100
AcDbLine
 10
-8.2529522516
 20
11.0051359234
 30
0.0
 11
-7.1411934375
 21
10.9911435356
 31
0.0
  0
LINE
  5
16E
330
1F
100
AcDbEntity
  8
0
  6
Continuous
 62
     7
370
    15
100
AcDbLine
 10
-8.2529522516
 20
13.1218025901
 30
0.0
 11
-8.2529522516
 21
11.0051359234
 31
0.0
  0
LINE
  5
16F
330
1F
100
AcDbEntity
  8
0
  6
Continuous
 62
     7
370
    15
100
AcDbLine
 10
-7.0915840625
 20
13.1218025901
 30
0.0
 11
-8.2529522516
 21
13.1218025901
 31
0.0
  0
LINE
  5
170
330
1F
100
AcDbEntity
  8
0
  6
Continuous
 62
     7
370
    15
100
AcDbLine
 10
11.5766062413
 20
-51.0512701892
 30
0.0
 11
7.2016062413
 21
-43.4735479061
 31
0.0
  0
LINE
  5
171
330
1F
100
AcDbEntity
  8
0
  6
Continuous
 62
     7
370
    15
100
AcDbLine
 10
-0.5740288533
 20
-58.0664426319
 30
0.0
 11
14.1746824527
 21
-49.5512701892
 31
0.0
  0
LINE
  5
172
330
1F
100
AcDbEntity
  8
0
  6
Continuous
 62
     7
370
    15
100
AcDbLine
 10
-17.8339068352
 20
-48.1014474329
 30
0.0
 11
-4.1283122846
 21
-40.1885187296
 31
0.0
  0
LINE
  5
173
330
1F
100
AcDbEntity
  8
0
  6
Continuous
 62
     7
370
    15
100
AcDbLine
 10
-50.0
 20
15.5
 30
0.0
 11
-41.25
 21
15.5
 31
0.0
  0
LINE
  5
174
330
1F
100
AcDbEntity
  8
0
  6
Continuous
 62
     7
370
    15
100
AcDbLine
 10
-50.0
 20
29.5303448854
 30
0.0
 11
-50.0
 21
12.5
 31
0.0
  0
LINE
  5
175
330
1F
100
AcDbEntity
  8
0
  6
Continuous
 62
     7
370
    15
100
AcDbLine
 10
-32.740122018
 20
39.4953400845
 30
0.0
 11
-32.740122018
 21
23.669482678
 31
0.0
  0
LINE
  5
176
330
1F
100
AcDbEntity
  8
0
  6
Continuous
 62
     7
370
    15
100
AcDbLine
 10
50.5740288533
 20
8.6061073484
 30
0.0
 11
36.8684343026
 21
16.5190360516
 31
0.0
  0
LINE
  5
177
330
1F
100
AcDbEntity
  8
0
  6
Continuous
 62
     7
370
    15
100
AcDbLine
 10
38.4233937587
 20
35.5512701892
 30
0.0
 11
34.0483937587
 21
27.9735479061
 31
0.0
  0
LINE
  5
178
330
1F
100
AcDbEntity
  8
0
  6
Continuous
 62
     7
370
    15
100
AcDbLine
 10
50.5740288533
 20
28.5360977465
 30
0.0
 11
35.8253175473
 21
37.0512701892
 31
0.0
  0
LINE
  5
179
330
1F
100
AcDbEntity
  8
0
  6
Continuous
 62
     7
370
    15
100
AcDbLine
 10
-43.5
 20
15.5
 30
0.0
 11
-43.5
 21
12.5
 31
0.0
  0
LINE
  5
17A
330
1F
100
AcDbEntity
  8
0
  6
Continuous
 62
     7
370
    15
100
AcDbLine
 10
-43.5
 20
12.5
 30
0.0
 11
-50.0
 21
12.5
 31
0.0
  0
LINE
  5
17B
330
1F
100
AcDbEntity
  8
0
  6
Continuous
 62
     7
370
    15
100
AcDbLine
 10
35.1733937587
 20
29.9221050646
 30
0.0
 11
32.5753175473
 21
31.4221050646
 31
0.0
  0
LINE
  5
17C
330
1F
100
AcDbEntity
  8
0
  6
Continuous
 62
     7
370
    15
100
AcDbLine
 10
32.5753175473
 20
31.4221050646
 30
0.0
 11
35.8253175473
 21
37.0512701892
 31
0.0
  0
LINE
  5
17D
330
1F
100
AcDbEntity
  8
0
  6
Continuous
 62
     7
370
    15
100
AcDbLine
 10
8.3266062413
 20
-45.4221050646
 30
0.0
 11
10.9246824527
 21
-43.9221050646
 31
0.0
  0
LINE
  5
17E
330
1F
100
AcDbEntity
  8
0
  6
Continuous
 62
     7
370
    15
100
AcDbLine
 10
10.9246824527
 20
-43.9221050646
 30
0.0
 11
14.1746824527
 21
-49.5512701892
 31
0.0
  0
ARC
  5
17F
330
1F
100
AcDbEntity
  8
0
  6
Continuous
 62
     7
370
    15
100
AcDbCircle
 10
-27.5933866224
 20
19.8646674954
 30
0.0
 40
2.650000000002127
100
AcDbArc
 50
194.198559875
 51
75.801440125
  0
ARC
  5
180
330
1F
100
AcDbEntity
  8
0
  6
Continuous
 62
     7
370
    15
100
AcDbCircle
 10
-27.5933866224
 20
19.8646674954
 30
0.0
 40
2.650000000014309
100
AcDbArc
 50
104.1985598752
 51
165.8014401248
  0
ARC
  5
181
330
1F
100
AcDbEntity
  8
0
  6
Continuous
 62
     7
370
    15
100
AcDbCircle
 10
-3.4066133776
 20
-33.8289075392
 30
0.0
 40
2.650000000000379
100
AcDbArc
 50
314.1985598751
 51
195.801440125
  0
ARC
  5
182
330
1F
100
AcDbEntity
  8
0
  6
Continuous
 62
     7
370
    15
100
AcDbCircle
 10
-3.4066133776
 20
-33.8289075392
 30
0.0
 40
2.650000000006119
100
AcDbArc
 50
224.1985598752
 51
285.8014401249
  0
ARC
  5
183
330
1F
100
AcDbEntity
  8
0
  6
Continuous
 62
     7
370
    15
100
AcDbCircle
 10
4.1240485033
 20
-35.1428424196
 30
0.0
 40
1.500109565223284
100
AcDbArc
 50
120.0041845974
 51
210.0045424919
  0
ARC
  5
184
330
1F
100
AcDbEntity
  8
0
  6
Continuous
 62
     7
370
    15
100
AcDbCircle
 10
5.7016062413
 20
-40.8754716948
 30
0.0
 40
2.999999999999975
100
AcDbArc
 50
119.9999999999
 51
300.0
  0
ARC
  5
185
330
1F
100
AcDbEntity
  8
0
  6
Continuous
 62
     7
370
    15
100
AcDbCircle
 10
-32.4966232417
 20
13.9998857453
 30
0.0
 40
1.500114259084114
100
AcDbArc
 50
0.0043638775
 51
90.0043632127
  0
ARC
  5
186
330
1F
100
AcDbEntity
  8
0
  6
Continuous
 62
     7
370
    15
100
AcDbCircle
 10
-38.25
 20
15.5
 30
0.0
 40
3.00000000000005
100
AcDbArc
 50
0.0
 51
180.0
  0
ARC
  5
187
330
1F
100
AcDbEntity
  8
0
  6
Continuous
 62
     7
370
    15
100
AcDbCircle
 10
28.3725683264
 20
21.1429583919
 30
0.0
 40
1.50011425908411
100
AcDbArc
 50
240.0043638788
 51
330.0043632129
  0
ARC
  5
188
330
1F
100
AcDbEntity
  8
0
  6
Continuous
 62
     7
370
    15
100
AcDbCircle
 10
32.5483937587
 20
25.3754716947
 30
0.0
 40
3.000000000000014
100
AcDbArc
 50
239.9999999999
 51
60.0
  0
ARC
  5
189
330
1F
100
AcDbEntity
  8
0
  6
Continuous
 62
     7
370
    15
100
AcDbCircle
 10
31.0
 20
13.9642400438
 30
0.0
 40
2.650000000000775
100
AcDbArc
 50
74.1985598751
 51
315.8014401249
  0
ARC
  5
18A
330
1F
100
AcDbEntity
  8
0
  6
Continuous
 62
     7
370
    15
100
AcDbCircle
 10
31.0
 20
13.9642400438
 30
0.0
 40
2.650000000004404
100
AcDbArc
 50
344.1985598751
 51
45.8014401249
  0
ARC
  5
18B
330
1F
100
AcDbEntity
  8
0
  6
Continuous
 62
     7
370
    15
100
AcDbCircle
 10
0.0
 20
0.0
 30
0.0
 40
40.40000000000009
100
AcDbArc
 50
99.8894252788
 51
140.5303229663
  0
ARC
  5
18C
330
1F
100
AcDbEntity
  8
0
  6
Continuous
 62
     7
370
    15
100
AcDbCircle
 10
0.0
 20
0.0
 30
0.0
 40
40.40000000000003
100
AcDbArc
 50
219.8894252788
 51
260.5303229663
  0
ARC
  5
18D
330
1F
100
AcDbEntity
  8
0
  6
Continuous
 62
     7
370
    15
100
AcDbCircle
 10
0.0
 20
0.0
 30
0.0
 40
40.39999999999968
100
AcDbArc
 50
339.8894252788
 51
20.5303229663
  0
ARC
  5
18E
330
1F
100
AcDbEntity
  8
0
  6
Continuous
 62
     7
370
    15
100
AcDbCircle
 10
0.0
 20
0.0
 30
0.0
 40
6.499999999999996
100
AcDbArc
 50
98.8498830984
 51
81.1501169016
  0
ARC
  5
18F
330
1F
100
AcDbEntity
  8
0
  6
Continuous
 62
     7
370
    15
100
AcDbCircle
 10
0.0
 20
9.0
 30
0.0
 40
1.0
100
AcDbArc
 50
0.0
 51
180.0
  0
ARC
  5
190
330
1F
100
AcDbEntity
  8
0
  6
Continuous
 62
     7
370
    15
100
AcDbCircle
 10
0.0
 20
0.0
 30
0.0
 40
40.40000000000031
100
AcDbArc
 50
264.1349389835
 51
273.9118815353
  0
ARC
  5
191
330
1F
100
AcDbEntity
  8
0
  6
Continuous
 62
     7
370
    15
100
AcDbCircle
 10
0.0
 20
0.0
 30
0.0
 40
40.40000000000226
100
AcDbArc
 50
144.1349389835
 51
153.9118815353
  0
ARC
  5
192
330
1F
100
AcDbEntity
  8
0
  6
Continuous
 62
     7
370
    15
100
AcDbCircle
 10
0.0
 20
0.0
 30
0.0
 40
40.40000000000381
100
AcDbArc
 50
24.1349389835
 51
33.9118815353
  0
ENDSEC
  0
SECTION
  2
OBJECTS
  0
DICTIONARY
  5
C
330
0
100
AcDbDictionary
281
     1
  3
ACAD_GROUP
350
D
  3
ACAD_LAYOUT
350
1A
  3
ACAD_MLINESTYLE
350
17
  3
ACAD_PLOTSETTINGS
350
19
  3
ACAD_PLOTSTYLENAME
350
E
  3
ACAD_SCALELIST
350
47
  0
DICTIONARY
  5
D
102
{ACAD_REACTORS
330
C
102
}
330
C
100
AcDbDictionary
281
     1
  0
DICTIONARY
  5
1A
102
{ACAD_REACTORS
330
C
102
}
330
C
100
AcDbDictionary
281
     1
  3
Layout1
350
1E
  3
Layout2
350
26
  3
Model
350
22
  0
DICTIONARY
  5
17
102
{ACAD_REACTORS
330
C
102
}
330
C
100
AcDbDictionary
281
     1
  3
Standard
350
18
  0
DICTIONARY
  5
19
102
{ACAD_REACTORS
330
C
102
}
330
C
100
AcDbDictionary
281
     1
  0
ACDBDICTIONARYWDFLT
  5
E
102
{ACAD_REACTORS
330
C
102
}
330
C
100
AcDbDictionary
281
     1
  3
Normal
350
F
100
AcDbDictionaryWithDefault
340
F
  0
DICTIONARY
  5
47
102
{ACAD_REACTORS
330
C
102
}
330
C
100
AcDbDictionary
281
     1
  3
A0
350
48
  3
A1
350
49
  3
A2
350
4A
  3
A3
350
4B
  3
A4
350
4C
  3
A5
350
4D
  3
A6
350
4E
  3
A7
350
4F
  3
A8
350
50
  3
A9
350
51
  3
B0
350
52
  3
B1
350
53
  3
B2
350
54
  3
B3
350
55
  3
B4
350
56
  3
B5
350
57
  3
B6
350
58
  3
B7
350
59
  3
B8
350
5A
  3
B9
350
5B
  3
C0
350
5C
  3
C1
350
5D
  3
C2
350
5E
  3
C3
350
5F
  3
C4
350
60
  3
C5
350
61
  3
C6
350
62
  3
C7
350
63
  3
C8
350
64
  3
C9
350
65
  3
D0
350
66
  3
D1
350
67
  3
D2
350
68
  0
LAYOUT
  5
1E
102
{ACAD_REACTORS
330
1A
102
}
330
1A
100
AcDbPlotSettings
  1

  2
none_device
  4

  6

 40
0.0
 41
0.0
 42
0.0
 43
0.0
 44
0.0
 45
0.0
 46
0.0
 47
0.0
 48
0.0
 49
0.0
140
0.0
141
0.0
142
1.0
143
1.0
 70
   688
 72
     1
 73
     0
 74
     5
  7

 75
    16
147
1.0
148
0.0
149
0.0
100
AcDbLayout
  1
Layout1
 70
     1
 71
     1
 10
0.0
 20
0.0
 11
420.0
 21
297.0
 12
0.0
 22
0.0
 32
0.0
 14
1.0000000000E+20
 24
1.0000000000E+20
 34
1.0000000000E+20
 15
-1.0000000000E+20
 25
-1.0000000000E+20
 35
-1.0000000000E+20
146
0.0
 13
0.0
 23
0.0
 33
0.0
 16
1.0
 26
0.0
 36
0.0
 17
0.0
 27
1.0
 37
0.0
 76
     0
330
1B
  0
LAYOUT
  5
26
102
{ACAD_REACTORS
330
1A
102
}
330
1A
100
AcDbPlotSettings
  1

  2
none_device
  4

  6

 40
0.0
 41
0.0
 42
0.0
 43
0.0
 44
0.0
 45
0.0
 46
0.0
 47
0.0
 48
0.0
 49
0.0
140
0.0
141
0.0
142
1.0
143
1.0
 70
   688
 72
     1
 73
     0
 74
     5
  7

 75
    16
147
1.0
148
0.0
149
0.0
100
AcDbLayout
  1
Layout2
 70
     1
 71
     2
 10
0.0
 20
0.0
 11
0.0
 21
0.0
 12
0.0
 22
0.0
 32
0.0
 14
0.0
 24
0.0
 34
0.0
 15
0.0
 25
0.0
 35
0.0
146
0.0
 13
0.0
 23
0.0
 33
0.0
 16
1.0
 26
0.0
 36
0.0
 17
0.0
 27
1.0
 37
0.0
 76
     0
330
23
  0
LAYOUT
  5
22
102
{ACAD_REACTORS
330
1A
102
}
330
1A
100
AcDbPlotSettings
  1

  2
none_device
  4
ANSI_A_(11.00_x_8.50_Inches)
  6

 40
6.35
 41
19.05
 42
6.35000508
 43
19.05000254
 44
279.4
 45
215.9
 46
132.7666383691
 47
100.0500023813
 48
0.0
 49
0.0
140
0.0
141
0.0
142
0.0800199963
143
1.0
 70
  1696
 72
     0
 73
     0
 74
     0
  7

 75
     0
147
0.0179189148
148
-1300.4909072572
149
0.0
100
AcDbLayout
  1
Model
 70
     1
 71
     0
 10
0.0
 20
0.0
 11
420.0
 21
297.0
 12
0.0
 22
0.0
 32
0.0
 14
-50.0
 24
-58.0664426319
 34
0.0
 15
50.5740288533
 25
47.0947719928
 35
0.0
146
0.0
 13
0.0
 23
0.0
 33
0.0
 16
1.0
 26
0.0
 36
0.0
 17
0.0
 27
1.0
 37
0.0
 76
     0
330
1F
331
29
  0
MLINESTYLE
  5
18
102
{ACAD_REACTORS
330
17
102
}
330
17
100
AcDbMlineStyle
  2
Standard
 70
     0
  3

 62
   256
 51
90.0
 52
90.0
 71
     2
 49
0.5
 62
   256
  6
BYLAYER
 49
-0.5
 62
   256
  6
BYLAYER
  0
ACDBPLACEHOLDER
  5
F
102
{ACAD_REACTORS
330
E
102
}
330
E
  0
SCALE
  5
48
102
{ACAD_REACTORS
330
47
102
}
330
47
100
AcDbScale
 70
     0
300
1:1
140
1.0
141
1.0
290
     1
  0
SCALE
  5
49
102
{ACAD_REACTORS
330
47
102
}
330
47
100
AcDbScale
 70
     0
300
1:2
140
1.0
141
2.0
290
     0
  0
SCALE
  5
4A
102
{ACAD_REACTORS
330
47
102
}
330
47
100
AcDbScale
 70
     0
300
1:4
140
1.0
141
4.0
290
     0
  0
SCALE
  5
4B
102
{ACAD_REACTORS
330
47
102
}
330
47
100
AcDbScale
 70
     0
300
1:5
140
1.0
141
5.0
290
     0
  0
SCALE
  5
4C
102
{ACAD_REACTORS
330
47
102
}
330
47
100
AcDbScale
 70
     0
300
1:8
140
1.0
141
8.0
290
     0
  0
SCALE
  5
4D
102
{ACAD_REACTORS
330
47
102
}
330
47
100
AcDbScale
 70
     0
300
1:10
140
1.0
141
10.0
290
     0
  0
SCALE
  5
4E
102
{ACAD_REACTORS
330
47
102
}
330
47
100
AcDbScale
 70
     0
300
1:16
140
1.0
141
16.0
290
     0
  0
SCALE
  5
4F
102
{ACAD_REACTORS
330
47
102
}
330
47
100
AcDbScale
 70
     0
300
1:20
140
1.0
141
20.0
290
     0
  0
SCALE
  5
50
102
{ACAD_REACTORS
330
47
102
}
330
47
100
AcDbScale
 70
     0
300
1:30
140
1.0
141
30.0
290
     0
  0
SCALE
  5
51
102
{ACAD_REACTORS
330
47
102
}
330
47
100
AcDbScale
 70
     0
300
1:40
140
1.0
141
40.0
290
     0
  0
SCALE
  5
52
102
{ACAD_REACTORS
330
47
102
}
330
47
100
AcDbScale
 70
     0
300
1:50
140
1.0
141
50.0
290
     0
  0
SCALE
  5
53
102
{ACAD_REACTORS
330
47
102
}
330
47
100
AcDbScale
 70
     0
300
1:100
140
1.0
141
100.0
290
     0
  0
SCALE
  5
54
102
{ACAD_REACTORS
330
47
102
}
330
47
100
AcDbScale
 70
     0
300
2:1
140
2.0
141
1.0
290
     0
  0
SCALE
  5
55
102
{ACAD_REACTORS
330
47
102
}
330
47
100
AcDbScale
 70
     0
300
4:1
140
4.0
141
1.0
290
     0
  0
SCALE
  5
56
102
{ACAD_REACTORS
330
47
102
}
330
47
100
AcDbScale
 70
     0
300
8:1
140
8.0
141
1.0
290
     0
  0
SCALE
  5
57
102
{ACAD_REACTORS
330
47
102
}
330
47
100
AcDbScale
 70
     0
300
10:1
140
10.0
141
1.0
290
     0
  0
SCALE
  5
58
102
{ACAD_REACTORS
330
47
102
}
330
47
100
AcDbScale
 70
     0
300
100:1
140
100.0
141
1.0
290
     0
  0
SCALE
  5
59
102
{ACAD_REACTORS
330
47
102
}
330
47
100
AcDbScale
 70
     0
300
1/128" = 1'-0"
140
0.0078125
141
12.0
290
     0
  0
SCALE
  5
5A
102
{ACAD_REACTORS
330
47
102
}
330
47
100
AcDbScale
 70
     0
300
1/64" = 1'-0"
140
0.015625
141
12.0
290
     0
  0
SCALE
  5
5B
102
{ACAD_REACTORS
330
47
102
}
330
47
100
AcDbScale
 70
     0
300
1/32" = 1'-0"
140
0.03125
141
12.0
290
     0
  0
SCALE
  5
5C
102
{ACAD_REACTORS
330
47
102
}
330
47
100
AcDbScale
 70
     0
300
1/16" = 1'-0"
140
0.0625
141
12.0
290
     0
  0
SCALE
  5
5D
102
{ACAD_REACTORS
330
47
102
}
330
47
100
AcDbScale
 70
     0
300
3/32" = 1'-0"
140
0.09375
141
12.0
290
     0
  0
SCALE
  5
5E
102
{ACAD_REACTORS
330
47
102
}
330
47
100
AcDbScale
 70
     0
300
1/8" = 1'-0"
140
0.125
141
12.0
290
     0
  0
SCALE
  5
5F
102
{ACAD_REACTORS
330
47
102
}
330
47
100
AcDbScale
 70
     0
300
3/16" = 1'-0"
140
0.1875
141
12.0
290
     0
  0
SCALE
  5
60
102
{ACAD_REACTORS
330
47
102
}
330
47
100
AcDbScale
 70
     0
300
1/4" = 1'-0"
140
0.25
141
12.0
290
     0
  0
SCALE
  5
61
102
{ACAD_REACTORS
330
47
102
}
330
47
100
AcDbScale
 70
     0
300
3/8" = 1'-0"
140
0.375
141
12.0
290
     0
  0
SCALE
  5
62
102
{ACAD_REACTORS
330
47
102
}
330
47
100
AcDbScale
 70
     0
300
1/2" = 1'-0"
140
0.5
141
12.0
290
     0
  0
SCALE
  5
63
102
{ACAD_REACTORS
330
47
102
}
330
47
100
AcDbScale
 70
     0
300
3/4" = 1'-0"
140
0.75
141
12.0
290
     0
  0
SCALE
  5
64
102
{ACAD_REACTORS
330
47
102
}
330
47
100
AcDbScale
 70
     0
300
1" = 1'-0"
140
1.0
141
12.0
290
     0
  0
SCALE
  5
65
102
{ACAD_REACTORS
330
47
102
}
330
47
100
AcDbScale
 70
     0
300
1-1/2" = 1'-0"
140
1.5
141
12.0
290
     0
  0
SCALE
  5
66
102
{ACAD_REACTORS
330
47
102
}
330
47
100
AcDbScale
 70
     0
300
3" = 1'-0"
140
3.0
141
12.0
290
     0
  0
SCALE
  5
67
102
{ACAD_REACTORS
330
47
102
}
330
47
100
AcDbScale
 70
     0
300
6" = 1'-0"
140
6.0
141
12.0
290
     0
  0
SCALE
  5
68
102
{ACAD_REACTORS
330
47
102
}
330
47
100
AcDbScale
 70
     0
300
1'-0" = 1'-0"
140
12.0
141
12.0
290
     0
  0
ENDSEC
  0
EOF
