  0
SECTION
  2
HEADER
  9
$ACADVER
  1
AC1015
  9
$ACADMAINTVER
 70
     6
  9
$DWGCODEPAGE
  3
ANSI_1252
  9
$INSBASE
 10
0.0
 20
0.0
 30
0.0
  9
$EXTMIN
 10
-35.0
 20
-35.0
 30
0.0
  9
$EXTMAX
 10
35.0
 20
35.0
 30
0.0
  9
$LIMMIN
 10
0.0
 20
0.0
  9
$LIMMAX
 10
420.0
 20
297.0
  9
$ORTHOMODE
 70
     0
  9
$REGENMODE
 70
     1
  9
$FILLMODE
 70
     1
  9
$QTEXTMODE
 70
     0
  9
$MIRRTEXT
 70
     1
  9
$LTSCALE
 40
1.0
  9
$ATTMODE
 70
     1
  9
$TEXTSIZE
 40
6.35
  9
$TRACEWID
 40
1.0
  9
$TEXTSTYLE
  7
Standard
  9
$CLAYER
  8
0
  9
$CELTYPE
  6
ByLayer
  9
$CECOLOR
 62
   256
  9
$CELTSCALE
 40
1.0
  9
$DISPSILH
 70
     0
  9
$DIMSCALE
 40
1.0
  9
$DIMASZ
 40
5.9944
  9
$DIMEXO
 40
0.9906
  9
$DIMDLI
 40
3.75
  9
$DIMRND
 40
0.0
  9
$DIMDLE
 40
0.0
  9
$DIMEXE
 40
0.9906
  9
$DIMTP
 40
0.0
  9
$DIMTM
 40
0.0
  9
$DIMTXT
 40
6.35
  9
$DIMCEN
 40
2.5
  9
$DIMTSZ
 40
0.0
  9
$DIMTOL
 70
     0
  9
$DIMLIM
 70
     0
  9
$DIMTIH
 70
     1
  9
$DIMTOH
 70
     1
  9
$DIMSE1
 70
     0
  9
$DIMSE2
 70
     0
  9
$DIMTAD
 70
     1
  9
$DIMZIN
 70
     0
  9
$DIMBLK
  1

  9
$DIMASO
 70
     1
  9
$DIMSHO
 70
     1
  9
$DIMPOST
  1

  9
$DIMAPOST
  1

  9
$DIMALT
 70
     0
  9
$DIMALTD
 70
     3
  9
$DIMALTF
 40
0.0393700787
  9
$DIMLFAC
 40
1.0
  9
$DIMTOFL
 70
     1
  9
$DIMTVP
 40
0.0
  9
$DIMTIX
 70
     0
  9
$DIMSOXD
 70
     0
  9
$DIMSAH
 70
     0
  9
$DIMBLK1
  1

  9
$DIMBLK2
  1

  9
$DIMSTYLE
  2
ISO-25
  9
$DIMCLRD
 70
     0
  9
$DIMCLRE
 70
     0
  9
$DIMCLRT
 70
     0
  9
$DIMTFAC
 40
1.0
  9
$DIMGAP
 40
1.524
  9
$DIMJUST
 70
     0
  9
$DIMSD1
 70
     0
  9
$DIMSD2
 70
     0
  9
$DIMTOLJ
 70
     0
  9
$DIMTZIN
 70
     0
  9
$DIMALTZ
 70
     0
  9
$DIMALTTZ
 70
     0
  9
$DIMUPT
 70
     0
  9
$DIMDEC
 70
     2
  9
$DIMTDEC
 70
     2
  9
$DIMALTU
 70
     2
  9
$DIMALTTD
 70
     3
  9
$DIMTXSTY
  7
Standard
  9
$DIMAUNIT
 70
     0
  9
$DIMADEC
 70
     2
  9
$DIMALTRND
 40
0.0
  9
$DIMAZIN
 70
     0
  9
$DIMDSEP
 70
    44
  9
$DIMATFIT
 70
     3
  9
$DIMFRAC
 70
     0
  9
$DIMLDRBLK
  1

  9
$DIMLUNIT
 70
     2
  9
$DIMLWD
 70
    -2
  9
$DIMLWE
 70
    -2
  9
$DIMTMOVE
 70
     0
  9
$LUNITS
 70
     2
  9
$LUPREC
 70
     2
  9
$SKETCHINC
 40
1.0
  9
$FILLETRAD
 40
10.0
  9
$AUNITS
 70
     0
  9
$AUPREC
 70
     2
  9
$MENU
  1
.
  9
$ELEVATION
 40
0.0
  9
$PELEVATION
 40
0.0
  9
$THICKNESS
 40
0.0
  9
$LIMCHECK
 70
     0
  9
$CHAMFERA
 40
0.0
  9
$CHAMFERB
 40
0.0
  9
$CHAMFERC
 40
0.0
  9
$CHAMFERD
 40
0.0
  9
$SKPOLY
 70
     0
  9
$TDCREATE
 40
2457611.496733333
  9
$TDUCREATE
 40
2457611.7884
  9
$TDUPDATE
 40
2457611.496784722
  9
$TDUUPDATE
 40
2457611.788451389
  9
$TDINDWG
 40
0.0000000116
  9
$TDUSRTIMER
 40
0.0000000116
  9
$USRTIMER
 70
     1
  9
$ANGBASE
 50
0.0
  9
$ANGDIR
 70
     0
  9
$PDMODE
 70
     0
  9
$PDSIZE
 40
-1.0
  9
$PLINEWID
 40
0.0
  9
$SPLFRAME
 70
     0
  9
$SPLINETYPE
 70
     6
  9
$SPLINESEGS
 70
     8
  9
$HANDSEED
  5
B5
  9
$SURFTAB1
 70
     6
  9
$SURFTAB2
 70
     6
  9
$SURFTYPE
 70
     6
  9
$SURFU
 70
     6
  9
$SURFV
 70
     6
  9
$UCSBASE
  2

  9
$UCSNAME
  2

  9
$UCSORG
 10
0.0
 20
0.0
 30
0.0
  9
$UCSXDIR
 10
1.0
 20
0.0
 30
0.0
  9
$UCSYDIR
 10
0.0
 20
1.0
 30
0.0
  9
$UCSORTHOREF
  2

  9
$UCSORTHOVIEW
 70
     0
  9
$UCSORGTOP
 10
0.0
 20
0.0
 30
0.0
  9
$UCSORGBOTTOM
 10
0.0
 20
0.0
 30
0.0
  9
$UCSORGLEFT
 10
0.0
 20
0.0
 30
0.0
  9
$UCSORGRIGHT
 10
0.0
 20
0.0
 30
0.0
  9
$UCSORGFRONT
 10
0.0
 20
0.0
 30
0.0
  9
$UCSORGBACK
 10
0.0
 20
0.0
 30
0.0
  9
$PUCSBASE
  2

  9
$PUCSNAME
  2

  9
$PUCSORG
 10
0.0
 20
0.0
 30
0.0
  9
$PUCSXDIR
 10
1.0
 20
0.0
 30
0.0
  9
$PUCSYDIR
 10
0.0
 20
1.0
 30
0.0
  9
$PUCSORTHOREF
  2

  9
$PUCSORTHOVIEW
 70
     0
  9
$PUCSORGTOP
 10
0.0
 20
0.0
 30
0.0
  9
$PUCSORGBOTTOM
 10
0.0
 20
0.0
 30
0.0
  9
$PUCSORGLEFT
 10
0.0
 20
0.0
 30
0.0
  9
$PUCSORGRIGHT
 10
0.0
 20
0.0
 30
0.0
  9
$PUCSORGFRONT
 10
0.0
 20
0.0
 30
0.0
  9
$PUCSORGBACK
 10
0.0
 20
0.0
 30
0.0
  9
$USERI1
 70
     0
  9
$USERI2
 70
     0
  9
$USERI3
 70
     0
  9
$USERI4
 70
     0
  9
$USERI5
 70
     0
  9
$USERR1
 40
0.0
  9
$USERR2
 40
0.0
  9
$USERR3
 40
0.0
  9
$USERR4
 40
0.0
  9
$USERR5
 40
0.0
  9
$WORLDVIEW
 70
     1
  9
$SHADEDGE
 70
     3
  9
$SHADEDIF
 70
    70
  9
$TILEMODE
 70
     1
  9
$MAXACTVP
 70
    64
  9
$PINSBASE
 10
0.0
 20
0.0
 30
0.0
  9
$PLIMCHECK
 70
     0
  9
$PEXTMIN
 10
1.0000000000E+20
 20
1.0000000000E+20
 30
1.0000000000E+20
  9
$PEXTMAX
 10
-1.0000000000E+20
 20
-1.0000000000E+20
 30
-1.0000000000E+20
  9
$PLIMMIN
 10
0.0
 20
0.0
  9
$PLIMMAX
 10
420.0
 20
297.0
  9
$UNITMODE
 70
     0
  9
$VISRETAIN
 70
     1
  9
$PLINEGEN
 70
     0
  9
$PSLTSCALE
 70
     1
  9
$TREEDEPTH
 70
  3020
  9
$CMLSTYLE
  2
Standard
  9
$CMLJUST
 70
     0
  9
$CMLSCALE
 40
20.0
  9
$PROXYGRAPHICS
 70
     1
  9
$MEASUREMENT
 70
     1
  9
$CELWEIGHT
370
    -1
  9
$ENDCAPS
280
     0
  9
$JOINSTYLE
280
     0
  9
$LWDISPLAY
290
     1
  9
$INSUNITS
 70
     4
  9
$HYPERLINKBASE
  1

  9
$STYLESHEET
  1

  9
$XEDIT
290
     1
  9
$CEPSNTYPE
380
     0
  9
$PSTYLEMODE
290
     1
  9
$FINGERPRINTGUID
  2
{176AA12F-CE3C-47F9-AE87-C678511502DF}
  9
$VERSIONGUID
  2
{FAEB1C32-E019-11D5-929B-00C0DF256EC4}
  9
$EXTNAMES
290
     1
  9
$PSVPSCALE
 40
0.0
  9
$OLESTARTUP
290
     0
  0
ENDSEC
  0
SECTION
  2
CLASSES
  0
CLASS
  1
ACDBDICTIONARYWDFLT
  2
AcDbDictionaryWithDefault
  3
ObjectDBX Classes
 90
        0
280
     0
281
     0
  0
CLASS
  1
VISUALSTYLE
  2
AcDbVisualStyle
  3
ObjectDBX Classes
 90
     4095
280
     0
281
     0
  0
CLASS
  1
MATERIAL
  2
AcDbMaterial
  3
ObjectDBX Classes
 90
     1153
280
     0
281
     0
  0
CLASS
  1
SCALE
  2
AcDbScale
  3
ObjectDBX Classes
 90
     1153
280
     0
281
     0
  0
CLASS
  1
TABLESTYLE
  2
AcDbTableStyle
  3
ObjectDBX Classes
 90
     4095
280
     0
281
     0
  0
CLASS
  1
MLEADERSTYLE
  2
AcDbMLeaderStyle
  3
ACDB_MLEADERSTYLE_CLASS
 90
     4095
280
     0
281
     0
  0
CLASS
  1
SUN
  2
AcDbSun
  3
SCENEOE
 90
     1153
280
     0
281
     0
  0
CLASS
  1
ACDBPLACEHOLDER
  2
AcDbPlaceHolder
  3
ObjectDBX Classes
 90
        0
280
     0
281
     0
  0
CLASS
  1
LAYOUT
  2
AcDbLayout
  3
ObjectDBX Classes
 90
        0
280
     0
281
     0
  0
ENDSEC
  0
SECTION
  2
TABLES
  0
TABLE
  2
VPORT
  5
8
330
0
100
AcDbSymbolTable
 70
     1
  0
VPORT
  5
29
330
8
100
AcDbSymbolTableRecord
100
AcDbViewportTableRecord
  2
*Active
 70
     0
 10
0.0
 20
0.0
 11
1.0
 21
1.0
 12
0.0
 22
0.0
 13
0.0
 23
0.0
 14
10.0
 24
10.0
 15
10.0
 25
10.0
 16
0.0
 26
0.0
 36
1.0
 17
0.0
 27
0.0
 37
0.0
 40
71.4
 41
1.0
 42
50.0
 43
0.0
 44
0.0
 50
0.0
 51
0.0
 71
     0
 72
   100
 73
     1
 74
     3
 75
     0
 76
     0
 77
     0
 78
     0
281
     0
 65
     1
110
0.0
120
0.0
130
0.0
111
1.0
121
0.0
131
0.0
112
0.0
122
1.0
132
0.0
 79
     0
146
0.0
  0
ENDTAB
  0
TABLE
  2
LTYPE
  5
5
330
0
100
AcDbSymbolTable
 70
     6
  0
LTYPE
  5
14
330
5
100
AcDbSymbolTableRecord
100
AcDbLinetypeTableRecord
  2
ByBlock
 70
     0
  3

 72
    65
 73
     0
 40
0.0
  0
LTYPE
  5
15
330
5
100
AcDbSymbolTableRecord
100
AcDbLinetypeTableRecord
  2
ByLayer
 70
     0
  3

 72
    65
 73
     0
 40
0.0
  0
LTYPE
  5
16
330
5
100
AcDbSymbolTableRecord
100
AcDbLinetypeTableRecord
  2
Continuous
 70
     0
  3
Solid line
 72
    65
 73
     0
 40
0.0
  0
LTYPE
  5
6E
330
5
100
AcDbSymbolTableRecord
100
AcDbLinetypeTableRecord
  2
HIDDEN
 70
     0
  3
Hidden __ __ __ __ __ __ __ __ __ __ __ __ __ __
 72
    65
 73
     2
 40
1.905
 49
1.27
 74
     0
 49
-0.635
 74
     0
  0
LTYPE
  5
6F
330
5
100
AcDbSymbolTableRecord
100
AcDbLinetypeTableRecord
  2
PHANTOM
 70
     0
  3
Phantom ______  __  __  ______  __  __  ______
 72
    65
 73
     6
 40
12.7
 49
6.35
 74
     0
 49
-1.27
 74
     0
 49
1.27
 74
     0
 49
-1.27
 74
     0
 49
1.27
 74
     0
 49
-1.27
 74
     0
  0
LTYPE
  5
70
330
5
100
AcDbSymbolTableRecord
100
AcDbLinetypeTableRecord
  2
CENTER
 70
     0
  3
Center ____ _ ____ _ ____ _ ____ _ ____ _ ____
 72
    65
 73
     4
 40
10.16
 49
6.35
 74
     0
 49
-1.27
 74
     0
 49
1.27
 74
     0
 49
-1.27
 74
     0
  0
LTYPE
  5
71
330
5
100
AcDbSymbolTableRecord
100
AcDbLinetypeTableRecord
  2
CENTERX2
 70
     0
  3
Center (2x) ________  __  ________  __  _____
 72
    65
 73
     4
 40
20.32
 49
12.7
 74
     0
 49
-2.54
 74
     0
 49
2.54
 74
     0
 49
-2.54
 74
     0
  0
LTYPE
  5
72
330
5
100
AcDbSymbolTableRecord
100
AcDbLinetypeTableRecord
  2
DOT2
 70
     0
  3
Dot (.5x) ........................................
 72
    65
 73
     2
 40
0.635
 49
0.0
 74
     0
 49
-0.635
 74
     0
  0
ENDTAB
  0
TABLE
  2
LAYER
  5
2
330
0
100
AcDbSymbolTable
 70
     1
  0
LAYER
  5
10
330
2
100
AcDbSymbolTableRecord
100
AcDbLayerTableRecord
  2
0
 70
     0
 62
     7
  6
Continuous
370
    -3
390
F
  0
ENDTAB
  0
TABLE
  2
STYLE
  5
3
330
0
100
AcDbSymbolTable
 70
     1
  0
STYLE
  5
11
330
3
100
AcDbSymbolTableRecord
100
AcDbTextStyleTableRecord
  2
Standard
 70
     0
 40
0.0
 41
1.0
 50
0.0
 71
     0
 42
6.35
  3
txt
  4

  0
ENDTAB
  0
TABLE
  2
VIEW
  5
6
330
0
100
AcDbSymbolTable
 70
     0
  0
ENDTAB
  0
TABLE
  2
UCS
  5
7
330
0
100
AcDbSymbolTable
 70
     0
  0
ENDTAB
  0
TABLE
  2
APPID
  5
9
330
0
100
AcDbSymbolTable
 70
     1
  0
APPID
  5
12
330
9
100
AcDbSymbolTableRecord
100
AcDbRegAppTableRecord
  2
ACAD
 70
     0
  0
ENDTAB
  0
TABLE
  2
DIMSTYLE
  5
A
330
0
100
AcDbSymbolTable
 70
     1
100
AcDbDimStyleTable
  0
DIMSTYLE
105
27
330
A
100
AcDbSymbolTableRecord
100
AcDbDimStyleTableRecord
  2
ISO-25
 70
     0
 41
2.5
 42
0.625
 43
3.75
 44
1.25
 73
     0
 74
     0
 77
     1
 78
     8
140
2.5
141
2.5
143
0.0393700787
147
0.625
171
     3
172
     1
178
     0
271
     2
272
     2
274
     3
278
    44
283
     0
284
     8
340
11
  0
ENDTAB
  0
TABLE
  2
BLOCK_RECORD
  5
1
330
0
100
AcDbSymbolTable
 70
     1
  0
BLOCK_RECORD
  5
1F
330
1
100
AcDbSymbolTableRecord
100
AcDbBlockTableRecord
  2
*Model_Space
340
22
  0
BLOCK_RECORD
  5
1B
330
1
100
AcDbSymbolTableRecord
100
AcDbBlockTableRecord
  2
*Paper_Space
340
1E
  0
BLOCK_RECORD
  5
23
330
1
100
AcDbSymbolTableRecord
100
AcDbBlockTableRecord
  2
*Paper_Space0
340
26
  0
ENDTAB
  0
ENDSEC
  0
SECTION
  2
BLOCKS
  0
BLOCK
  5
20
330
1F
100
AcDbEntity
  8
0
100
AcDbBlockBegin
  2
*Model_Space
 70
     0
 10
0.0
 20
0.0
 30
0.0
  3
*Model_Space
  1

  0
ENDBLK
  5
21
330
1F
100
AcDbEntity
  8
0
100
AcDbBlockEnd
  0
BLOCK
  5
1C
330
1B
100
AcDbEntity
 67
     1
  8
0
100
AcDbBlockBegin
  2
*Paper_Space
 70
     0
 10
0.0
 20
0.0
 30
0.0
  3
*Paper_Space
  1

  0
ENDBLK
  5
1D
330
1B
100
AcDbEntity
 67
     1
  8
0
100
AcDbBlockEnd
  0
BLOCK
  5
24
330
23
100
AcDbEntity
  8
0
100
AcDbBlockBegin
  2
*Paper_Space0
 70
     0
 10
0.0
 20
0.0
 30
0.0
  3
*Paper_Space0
  1

  0
ENDBLK
  5
25
330
23
100
AcDbEntity
  8
0
100
AcDbBlockEnd
  0
ENDSEC
  0
SECTION
  2
ENTITIES
  0
CIRCLE
  5
73
330
1F
100
AcDbEntity
  8
0
  6
Continuous
 62
     7
370
    15
100
AcDbCircle
 10
-10.6251840891
 20
2.8470094963
 30
0.0
 40
1.499999999999998
  0
CIRCLE
  5
74
330
1F
100
AcDbEntity
  8
0
  6
Continuous
 62
     7
370
    15
100
AcDbCircle
 10
-7.7781745931
 20
-7.7781745931
 30
0.0
 40
1.499999999999999
  0
CIRCLE
  5
75
330
1F
100
AcDbEntity
  8
0
  6
Continuous
 62
     7
370
    15
100
AcDbCircle
 10
-2.8470094963
 20
10.6251840891
 30
0.0
 40
1.499999999999996
  0
CIRCLE
  5
76
330
1F
100
AcDbEntity
  8
0
  6
Continuous
 62
     7
370
    15
100
AcDbCircle
 10
7.7781745931
 20
7.7781745931
 30
0.0
 40
1.499999999999997
  0
CIRCLE
  5
77
330
1F
100
AcDbEntity
  8
0
  6
Continuous
 62
     7
370
    15
100
AcDbCircle
 10
10.6251840891
 20
-2.8470094963
 30
0.0
 40
1.5
  0
CIRCLE
  5
78
330
1F
100
AcDbEntity
  8
0
  6
Continuous
 62
     7
370
    15
100
AcDbCircle
 10
2.8470094963
 20
-10.6251840891
 30
0.0
 40
1.499999999999999
  0
CIRCLE
  5
79
330
1F
100
AcDbEntity
  8
0
  6
Continuous
 62
     7
370
    15
100
AcDbCircle
 10
13.0399986549
 20
3.4940571089
 30
0.0
 40
1.500000000000002
  0
SPLINE
  5
7A
330
1F
100
AcDbEntity
  8
0
  6
Continuous
 62
     7
370
    15
100
AcDbSpline
210
0.0
220
0.0
230
1.0
 70
     8
 71
     3
 72
    23
 73
    19
 74
     0
 42
0.000000001
 43
0.00000001
 40
0.0
 40
0.0
 40
0.0
 40
0.0
 40
0.0725383714064943
 40
0.1400338305012517
 40
0.2024956806336238
 40
0.260575055669416
 40
0.3132283378464658
 40
0.3615831937532646
 40
0.4048783612951264
 40
0.4441274373055396
 40
0.5163996933371984
 40
0.5865066709977657
 40
0.655085373796049
 40
0.7243837831470358
 40
0.7939735287256622
 40
0.8616376821817767
 40
0.9301109423064029
 40
1.0
 40
1.0
 40
1.0
 40
1.0
 10
-5.915777781029674
 20
15.88852415726293
 30
0.0
 10
-5.861494487054917
 20
15.88849610189042
 30
0.0
 10
-5.756701707176897
 20
15.88844194157222
 30
0.0
 10
-5.60532455931088
 20
15.89567227559883
 30
0.0
 10
-5.464881995203916
 20
15.90401895628994
 30
0.0
 10
-5.335805408455174
 20
15.91623984599957
 30
0.0
 10
-5.218036613035447
 20
15.93351412743516
 30
0.0
 10
-5.111379239220369
 20
15.95095256622951
 30
0.0
 10
-5.016660311682474
 20
15.97618086694399
 30
0.0
 10
-4.905808902764432
 20
16.01014986381069
 30
0.0
 10
-4.782286258056548
 20
16.06808475222419
 30
0.0
 10
-4.647906562878755
 20
16.15217669560709
 30
0.0
 10
-4.534022784784312
 20
16.25936598048443
 30
0.0
 10
-4.435473874945466
 20
16.37988504589107
 30
0.0
 10
-4.357267496400087
 20
16.51395918070692
 30
0.0
 10
-4.300015910340194
 20
16.65741282305271
 30
0.0
 10
-4.266376953409187
 20
16.80877477861352
 30
0.0
 10
-4.261866287776753
 20
16.91234897339363
 30
0.0
 10
-4.259587877183519
 20
16.96466598418601
 30
0.0
  0
SPLINE
  5
7D
330
1F
100
AcDbEntity
  8
0
  6
Continuous
 62
     7
370
    15
100
AcDbSpline
210
0.0
220
0.0
230
1.0
 70
     8
 71
     3
 72
    23
 73
    19
 74
     0
 42
0.000000001
 43
0.00000001
 40
0.0
 40
0.0
 40
0.0
 40
0.0
 40
0.0700437554181557
 40
0.1392383167626448
 40
0.208197455044138
 40
0.2791733744245666
 40
0.3499868116864764
 40
0.4183538456626561
 40
0.4876095837571504
 40
0.5574110731083876
 40
0.595330156763241
 40
0.6379640515652192
 40
0.685912777711293
 40
0.738185164652479
 40
0.796102647184943
 40
0.8585165439469269
 40
0.9266577264685188
 40
1.0
 40
1.0
 40
1.0
 40
1.0
 10
-4.259587877183519
 20
16.96466598418601
 30
0.0
 10
-4.26187867868256
 20
17.01571728715751
 30
0.0
 10
-4.266432508540193
 20
17.11720095906882
 30
0.0
 10
-4.300279574560276
 20
17.26593385331788
 30
0.0
 10
-4.35715618685555
 20
17.4078757741339
 30
0.0
 10
-4.435998865475352
 20
17.54026980041797
 30
0.0
 10
-4.531686344118214
 20
17.66035520189779
 30
0.0
 10
-4.642900866614122
 20
17.7646714181404
 30
0.0
 10
-4.769380640748072
 20
17.84853079309542
 30
0.0
 10
-4.887033859907464
 20
17.90265688980089
 30
0.0
 10
-4.991538868842982
 20
17.93570460380102
 30
0.0
 10
-5.082311138917851
 20
17.95882738577343
 30
0.0
 10
-5.184801362628792
 20
17.9772888428178
 30
0.0
 10
-5.299042905454733
 20
17.99223765503375
 30
0.0
 10
-5.424150304066333
 20
18.00503464896757
 30
0.0
 10
-5.56119838966085
 20
18.01371777909209
 30
0.0
 10
-5.709667999583449
 20
18.01880042112124
 30
0.0
 10
-5.812738606724142
 20
18.01905252565835
 30
0.0
 10
-5.866168406029673
 20
18.01918321175011
 30
0.0
  0
CIRCLE
  5
7F
330
1F
100
AcDbEntity
  8
0
  6
Continuous
 62
     7
370
    15
100
AcDbCircle
 10
0.0
 20
0.0
 30
0.0
 40
28.00000000000001
  0
SPLINE
  5
82
330
1F
100
AcDbEntity
  8
0
  6
Continuous
 62
     7
370
    15
100
AcDbSpline
210
0.0
220
0.0
230
1.0
 70
     8
 71
     3
 72
    15
 73
    11
 74
     0
 42
0.000000001
 43
0.00000001
 40
0.0
 40
0.0
 40
0.0
 40
0.0
 40
0.0751731173762219
 40
0.1647462575118012
 40
0.2680168809877795
 40
0.3859118756529553
 40
0.5177894792733976
 40
0.6636909770022812
 40
0.8244132205366416
 40
1.0
 40
1.0
 40
1.0
 40
1.0
 10
-4.95666319769634
 20
15.35554138482703
 30
0.0
 10
-4.996445646509335
 20
15.34708140487143
 30
0.0
 10
-5.0836311961493
 20
15.32854086691109
 30
0.0
 10
-5.227218706386068
 20
15.30784266663538
 30
0.0
 10
-5.394396763715881
 20
15.29017587682035
 30
0.0
 10
-5.58493718584841
 20
15.27692952720901
 30
0.0
 10
-5.79866894192041
 20
15.26558957299936
 30
0.0
 10
-6.03570765164723
 20
15.25657603122627
 30
0.0
 10
-6.296518620243976
 20
15.25162329641105
 30
0.0
 10
-6.478439305928274
 20
15.25136785804808
 30
0.0
 10
-6.573420008593775
 20
15.25123449380139
 30
0.0
  0
SPLINE
  5
83
330
1F
100
AcDbEntity
  8
0
  6
Continuous
 62
     7
370
    15
100
AcDbSpline
210
0.0
220
0.0
230
1.0
 70
     8
 71
     3
 72
    23
 73
    19
 74
     0
 42
0.000000001
 43
0.00000001
 40
0.0
 40
0.0
 40
0.0
 40
0.0
 40
0.0701188944197146
 40
0.137192352785971
 40
0.2020161807247506
 40
0.2646314069747431
 40
0.3261165471458173
 40
0.3860103046676404
 40
0.4458118469576793
 40
0.5052976967309598
 40
0.5646332777264871
 40
0.6242826253338399
 40
0.6839020319037503
 40
0.74395277093827
 40
0.8053877310076346
 40
0.8683880308962795
 40
0.933084028252477
 40
1.0
 40
1.0
 40
1.0
 40
1.0
 10
-3.689716082311723
 20
16.96721005469882
 30
0.0
 10
-3.690480667177122
 20
16.91499894538439
 30
0.0
 10
-3.691976629106597
 20
16.81284438365475
 30
0.0
 10
-3.709931318203204
 20
16.66339661079812
 30
0.0
 10
-3.734116094425726
 20
16.52057896013079
 30
0.0
 10
-3.771303603647933
 20
16.38470809999342
 30
0.0
 10
-3.820009324840752
 20
16.25659091642503
 30
0.0
 10
-3.877144906432217
 20
16.13426953833027
 30
0.0
 10
-3.946057882960235
 20
16.0198249907428
 30
0.0
 10
-4.025242074006433
 20
15.91284179177439
 30
0.0
 10
-4.113328538119251
 20
15.8132195222901
 30
0.0
 10
-4.209944583043568
 20
15.72168010942477
 30
0.0
 10
-4.314700156579763
 20
15.63875938114389
 30
0.0
 10
-4.427262339518311
 20
15.56427144332377
 30
0.0
 10
-4.548728493836036
 20
15.49994362194939
 30
0.0
 10
-4.677256401029036
 20
15.44232679729877
 30
0.0
 10
-4.813963222251665
 20
15.39393787299751
 30
0.0
 10
-4.908564640464122
 20
15.36848333298104
 30
0.0
 10
-4.95666319769634
 20
15.35554138482703
 30
0.0
  0
SPLINE
  5
84
330
1F
100
AcDbEntity
  8
0
  6
Continuous
 62
     7
370
    15
100
AcDbSpline
210
0.0
220
0.0
230
1.0
 70
     8
 71
     3
 72
    23
 73
    19
 74
     0
 42
0.000000001
 43
0.00000001
 40
0.0
 40
0.0
 40
0.0
 40
0.0
 40
0.0624813386352042
 40
0.1234903826872901
 40
0.1834110942063107
 40
0.2431532209997795
 40
0.3021267353720875
 40
0.3617096708329058
 40
0.4218422916948797
 40
0.482931901446669
 40
0.5445522544313236
 40
0.6056807199653579
 40
0.6676797383436871
 40
0.729984387538063
 40
0.7945509212861288
 40
0.8603456197120822
 40
0.9289073562657085
 40
1.0
 40
1.0
 40
1.0
 40
1.0
 10
-4.905781787439929
 20
18.57506261880139
 30
0.0
 10
-4.861887804715185
 20
18.56304850982102
 30
0.0
 10
-4.775134146058873
 20
18.53930338930921
 30
0.0
 10
-4.650127967860207
 20
18.49174420528909
 30
0.0
 10
-4.531194562488668
 20
18.43535227704214
 30
0.0
 10
-4.417925877880988
 20
18.37108312902695
 30
0.0
 10
-4.31171381288097
 20
18.29617931971599
 30
0.0
 10
-4.2109737099855
 20
18.2136771846747
 30
0.0
 10
-4.116594602877596
 20
18.12167191026472
 30
0.0
 10
-4.029107220459161
 20
18.02119542511295
 30
0.0
 10
-3.948761944842571
 20
17.91393447289938
 30
0.0
 10
-3.879583806180404
 20
17.7982878557815
 30
0.0
 10
-3.821658694277199
 20
17.67620220529123
 30
0.0
 10
-3.771977616013088
 20
17.5477624404772
 30
0.0
 10
-3.736220848618968
 20
17.41188999642863
 30
0.0
 10
-3.709284330581938
 20
17.26952896112118
 30
0.0
 10
-3.692187177622118
 20
17.12069459461275
 30
0.0
 10
-3.690549672723499
 20
17.0189859778249
 30
0.0
 10
-3.689716082311723
 20
16.96721005469882
 30
0.0
  0
SPLINE
  5
85
330
1F
100
AcDbEntity
  8
0
  6
Continuous
 62
     7
370
    15
100
AcDbSpline
210
0.0
220
0.0
230
1.0
 70
     8
 71
     3
 72
    15
 73
    11
 74
     0
 42
0.000000001
 43
0.00000001
 40
0.0
 40
0.0
 40
0.0
 40
0.0
 40
0.1769557521312504
 40
0.3390550796425809
 40
0.4863182249420762
 40
0.6187809228353771
 40
0.7356188277673805
 40
0.8387424767201105
 40
0.9264570678763175
 40
1.0
 40
1.0
 40
1.0
 40
1.0
 10
-6.35208587397839
 20
18.67046526303216
 30
0.0
 10
-6.266431801388947
 20
18.67037110842377
 30
0.0
 10
-6.102314794432401
 20
18.67019070401272
 30
0.0
 10
-5.866974621931992
 20
18.66472109372904
 30
0.0
 10
-5.653234108838497
 20
18.65741552378931
 30
0.0
 10
-5.461554132014302
 20
18.64728837471037
 30
0.0
 10
-5.291344925485789
 20
18.63532027526132
 30
0.0
 10
-5.143376682022743
 20
18.61853443239084
 30
0.0
 10
-5.016486344102772
 20
18.60100789617267
 30
0.0
 10
-4.940456071535521
 20
18.58318905863033
 30
0.0
 10
-4.905781787439929
 20
18.57506261880139
 30
0.0
  0
CIRCLE
  5
89
330
1F
100
AcDbEntity
  8
0
  6
Continuous
 62
     7
370
    15
100
AcDbCircle
 10
-4.6587428118
 20
-17.3866648732
 30
0.0
 40
2.400000000000007
  0
CIRCLE
  5
8A
330
1F
100
AcDbEntity
  8
0
  6
Continuous
 62
     7
370
    15
100
AcDbCircle
 10
4.6587428118
 20
17.3866648732
 30
0.0
 40
2.400000000000008
  0
SPLINE
  5
97
330
1F
100
AcDbEntity
  8
0
  6
Continuous
 62
     7
370
    15
100
AcDbSpline
210
0.0
220
0.0
230
1.0
 70
     8
 71
     3
 72
    23
 73
    19
 74
     0
 42
0.000000001
 43
0.00000001
 40
0.0
 40
0.0
 40
0.0
 40
0.0
 40
0.0652265038922759
 40
0.1285689957067288
 40
0.190320378104467
 40
0.251377988624063
 40
0.312387528333694
 40
0.3737887042767234
 40
0.4364311597804502
 40
0.5005667553098538
 40
0.5646867953847436
 40
0.6271355178835134
 40
0.6884554088949795
 40
0.7492457464637473
 40
0.8101551773646782
 40
0.8716709256529235
 40
0.9347734961077241
 40
1.0
 40
1.0
 40
1.0
 40
1.0
 10
-8.899972492568134
 20
15.49800933354498
 30
0.0
 10
-8.902784513004695
 20
15.38378653801236
 30
0.0
 10
-8.90832733105964
 20
15.15864017522863
 30
0.0
 10
-8.955804970302678
 20
14.8281799265189
 30
0.0
 10
-9.03026507025555
 20
14.51051537718688
 30
0.0
 10
-9.136575438901145
 20
14.2061768357238
 30
0.0
 10
-9.273055949827393
 20
13.91484325575013
 30
0.0
 10
-9.441158903164963
 20
13.6372812108502
 30
0.0
 10
-9.639172242654272
 20
13.37339970663575
 30
0.0
 10
-9.864518958100435
 20
13.12608958544422
 30
0.0
 10
-10.11017513432593
 20
12.89930846004296
 30
0.0
 10
-10.37366433267932
 20
12.70169849987401
 30
0.0
 10
-10.64906078453785
 20
12.53165615953032
 30
0.0
 10
-10.93990839791268
 20
12.39597720819338
 30
0.0
 10
-11.24234989329781
 20
12.28753386681445
 30
0.0
 10
-11.55909210804409
 20
12.21359695232895
 30
0.0
 10
-11.8886508560888
 20
12.16590474528592
 30
0.0
 10
-12.11338824870205
 20
12.16042829489562
 30
0.0
 10
-12.22761672333737
 20
12.15764475021165
 30
0.0
  0
SPLINE
  5
98
330
1F
100
AcDbEntity
  8
0
  6
Continuous
 62
     7
370
    15
100
AcDbSpline
210
0.0
220
0.0
230
1.0
 70
     8
 71
     3
 72
    23
 73
    19
 74
     0
 42
0.000000001
 43
0.00000001
 40
0.0
 40
0.0
 40
0.0
 40
0.0
 40
0.0665700352151799
 40
0.1307490414821778
 40
0.193412800029504
 40
0.2549893988897086
 40
0.3161135558759002
 40
0.3772617579089842
 40
0.4394007841555532
 40
0.502970589371976
 40
0.5665249763607313
 40
0.6282311025133088
 40
0.689090610599863
 40
0.7493446689958041
 40
0.8101695933722064
 40
0.8716098243170439
 40
0.9348691840727634
 40
1.0
 40
1.0
 40
1.0
 40
1.0
 10
-12.27849813359378
 20
18.83328577585267
 30
0.0
 10
-12.16091771287492
 20
18.83030766327946
 30
0.0
 10
-11.92998006568322
 20
18.82445840447832
 30
0.0
 10
-11.59057275124114
 20
18.77968345945644
 30
0.0
 10
-11.26655022122485
 20
18.70222182337331
 30
0.0
 10
-10.95527296939877
 20
18.59905612658685
 30
0.0
 10
-10.6604642833375
 20
18.46143459882458
 30
0.0
 10
-10.37990514981887
 20
18.29509154398003
 30
0.0
 10
-10.11426310730676
 20
18.0982842545186
 30
0.0
 10
-9.867118600819499
 20
17.87253408580212
 30
0.0
 10
-9.640955276734264
 20
17.62690981943785
 30
0.0
 10
-9.441699740217134
 20
17.36478561116268
 30
0.0
 10
-9.2747087215896
 20
17.08774635554916
 30
0.0
 10
-9.13757450773265
 20
16.79662456281346
 30
0.0
 10
-9.029989887288144
 20
16.4920786209166
 30
0.0
 10
-8.955751050878048
 20
16.17248493022868
 30
0.0
 10
-8.90832897845772
 20
15.83991422109795
 30
0.0
 10
-8.902784925161333
 20
15.61307976652772
 30
0.0
 10
-8.899972492568134
 20
15.49800933354498
 30
0.0
  0
SPLINE
  5
99
330
1F
100
AcDbEntity
  8
0
  6
Continuous
 62
     7
370
    15
100
AcDbSpline
210
0.0
220
0.0
230
1.0
 70
     8
 71
     3
 72
    31
 73
    27
 74
     0
 42
0.000000001
 43
0.00000001
 40
0.0
 40
0.0
 40
0.0
 40
0.0
 40
0.043208986171337
 40
0.0858728716306189
 40
0.1281200066967029
 40
0.1701519644541991
 40
0.2119176209878615
 40
0.2537530026191241
 40
0.2960064088559508
 40
0.3384433571447845
 40
0.3810153681620341
 40
0.4228204794407614
 40
0.4640890557943133
 40
0.5051258486836867
 40
0.5459749706852414
 40
0.5869852111338597
 40
0.6283385916346628
 40
0.6700838015912064
 40
0.7119916023637222
 40
0.7530391548630189
 40
0.7940493953116377
 40
0.8348855427015817
 40
0.8754983129295132
 40
0.9165472998303793
 40
0.9580037786449609
 40
1.0
 40
1.0
 40
1.0
 40
1.0
 10
-15.57561351820916
 20
15.46748048739113
 30
0.0
 10
-15.57464353664988
 20
15.54301404425335
 30
0.0
 10
-15.57271581028311
 20
15.69312826832963
 30
0.0
 10
-15.5495080253754
 20
15.91604338574887
 30
0.0
 10
-15.5158317960432
 20
16.13537357912614
 30
0.0
 10
-15.46756832613214
 20
16.35049515614711
 30
0.0
 10
-15.40444630174237
 20
16.560881514107
 30
0.0
 10
-15.32996619490573
 20
16.7679836123958
 30
0.0
 10
-15.23899818975711
 20
16.9697026540482
 30
0.0
 10
-15.13616329974377
 20
17.16699423615268
 30
0.0
 10
-15.02138830518807
 20
17.35678286531279
 30
0.0
 10
-14.89461373118233
 20
17.53617868045841
 30
0.0
 10
-14.76029241981919
 20
17.70668706033477
 30
0.0
 10
-14.61303883423688
 20
17.86388948158561
 30
0.0
 10
-14.4577061408108
 20
18.01235911532162
 30
0.0
 10
-14.29177451191014
 20
18.14981433048689
 30
0.0
 10
-14.11625643998977
 20
18.2774945986509
 30
0.0
 10
-13.93039669384365
 20
18.39255721746827
 30
0.0
 10
-13.73877496656215
 20
18.49662307598556
 30
0.0
 10
-13.54124138401958
 20
18.58592557705427
 30
0.0
 10
-13.34047874714505
 20
18.66257200293765
 30
0.0
 10
-13.13554674305167
 20
18.72469464293801
 30
0.0
 10
-12.92698957084875
 20
18.77373847966635
 30
0.0
 10
-12.7143520474094
 20
18.80713467853812
 30
0.0
 10
-12.4978035740167
 20
18.83040165527684
 30
0.0
 10
-12.35191446677887
 20
18.83232026602887
 30
0.0
 10
-12.27849813359378
 20
18.83328577585267
 30
0.0
  0
SPLINE
  5
9A
330
1F
100
AcDbEntity
  8
0
  6
Continuous
 62
     7
370
    15
100
AcDbSpline
210
0.0
220
0.0
230
1.0
 70
     8
 71
     3
 72
    23
 73
    19
 74
     0
 42
0.000000001
 43
0.00000001
 40
0.0
 40
0.0
 40
0.0
 40
0.0
 40
0.065818876843307
 40
0.1297465269068313
 40
0.1920719544880059
 40
0.2534594242982025
 40
0.3145695877964203
 40
0.3762798811880264
 40
0.4390256536685598
 40
0.503267028829086
 40
0.5674928228792949
 40
0.629704795605245
 40
0.6909996492157554
 40
0.7514516509174471
 40
0.8120043642646942
 40
0.8731496810680427
 40
0.9356354837317858
 40
1.0
 40
1.0
 40
1.0
 40
1.0
 10
-12.22761672333737
 20
12.15764475021165
 30
0.0
 10
-12.34268655920032
 20
12.16045578064729
 30
0.0
 10
-12.56951983668848
 20
12.16599706991787
 30
0.0
 10
-12.90250845802034
 20
12.21349761863015
 30
0.0
 10
-13.22232665042987
 20
12.28777684124092
 30
0.0
 10
-13.52805983048657
 20
12.39392967552314
 30
0.0
 10
-13.81987848847239
 20
12.53112093698106
 30
0.0
 10
-14.09835335278964
 20
12.69840602471331
 30
0.0
 10
-14.36236666278522
 20
12.89690183799817
 30
0.0
 10
-14.60972954569285
 20
13.12217548045223
 30
0.0
 10
-14.83606023382386
 20
13.36741529625232
 30
0.0
 10
-15.03338081543811
 20
13.6301860161799
 30
0.0
 10
-15.2007035210315
 20
13.90533234466161
 30
0.0
 10
-15.33743413855863
 20
14.19361785269464
 30
0.0
 10
-15.44568251479831
 20
14.49364889873927
 30
0.0
 10
-15.51953268485066
 20
14.80742685075585
 30
0.0
 10
-15.56731362646128
 20
15.13316281130554
 30
0.0
 10
-15.57281970507813
 20
15.35494635541002
 30
0.0
 10
-15.57561351820916
 20
15.46748048739113
 30
0.0
  0
SPLINE
  5
9B
330
1F
100
AcDbEntity
  8
0
  6
Continuous
 62
     7
370
    15
100
AcDbSpline
210
0.0
220
0.0
230
1.0
 70
     8
 71
     3
 72
    23
 73
    19
 74
     0
 42
0.000000001
 43
0.00000001
 40
0.0
 40
0.0
 40
0.0
 40
0.0
 40
0.0645039992970558
 40
0.1268993215900403
 40
0.1877465401000116
 40
0.2481497329298263
 40
0.3085860647627419
 40
0.3695830050869941
 40
0.4318269653810495
 40
0.4961797225241574
 40
0.5606678546118796
 40
0.6235044551176645
 40
0.6852604113304277
 40
0.7465368217511666
 40
0.8083273517367074
 40
0.8704861878877675
 40
0.9343168833592462
 40
1.0
 40
1.0
 40
1.0
 40
1.0
 10
-15.00574172333737
 20
15.47002455790395
 30
0.0
 10
-15.00342875950011
 20
15.37829024301849
 30
0.0
 10
-14.99887844409318
 20
15.19782046668908
 30
0.0
 10
-14.95904113831253
 20
14.93335540564069
 30
0.0
 10
-14.89767841323382
 20
14.67919522898802
 30
0.0
 10
-14.80722290555579
 20
14.43673062212692
 30
0.0
 10
-14.69410107610551
 20
14.20387742327536
 30
0.0
 10
-14.55435228946431
 20
13.98270129048529
 30
0.0
 10
-14.38878223421765
 20
13.7731424469969
 30
0.0
 10
-14.20070697881151
 20
13.57666388758038
 30
0.0
 10
-13.9951072111237
 20
13.39732935703155
 30
0.0
 10
-13.77678925825253
 20
13.23991574420404
 30
0.0
 10
-13.54809199895416
 20
13.10672857666713
 30
0.0
 10
-13.30841904546151
 20
12.99822508820015
 30
0.0
 10
-13.05904993893687
 20
12.91224656390767
 30
0.0
 10
-12.79837781062608
 20
12.85332104743342
 30
0.0
 10
-12.52813911966724
 20
12.8145398641231
 30
0.0
 10
-12.34393350244819
 20
12.81081557838048
 30
0.0
 10
-12.25051335795275
 20
12.8089268014937
 30
0.0
  0
SPLINE
  5
9C
330
1F
100
AcDbEntity
  8
0
  6
Continuous
 62
     7
370
    15
100
AcDbSpline
210
0.0
220
0.0
230
1.0
 70
     8
 71
     3
 72
    31
 73
    27
 74
     0
 42
0.000000001
 43
0.00000001
 40
0.0
 40
0.0
 40
0.0
 40
0.0
 40
0.0420233285259236
 40
0.0836449111687116
 40
0.1249837954173948
 40
0.1662474611728954
 40
0.2077015560969882
 40
0.2496310707996496
 40
0.2917417703321311
 40
0.3347428753531985
 40
0.3774601685508653
 40
0.4195563188419398
 40
0.4610441763330337
 40
0.502096283944397
 40
0.5428907140755995
 40
0.5838008186265052
 40
0.6248635833101932
 40
0.6662246890691704
 40
0.7073991864779361
 40
0.7485566775366936
 40
0.7896545909521798
 40
0.8307397264898321
 40
0.8720701422586045
 40
0.9139933952421322
 40
0.9564981300675882
 40
1.0
 40
1.0
 40
1.0
 40
1.0
 10
-12.25051335795275
 20
18.18200372457062
 30
0.0
 10
-12.31077419310113
 20
18.18126913796831
 30
0.0
 10
-12.43071976570918
 20
18.17980698746164
 30
0.0
 10
-12.60903599575686
 20
18.16054704635219
 30
0.0
 10
-12.78500707570703
 20
18.1330971049327
 30
0.0
 10
-12.95866934707554
 20
18.09394206011705
 30
0.0
 10
-13.12929618637527
 20
18.04059470722776
 30
0.0
 10
-13.29847804107503
 20
17.97919763094128
 30
0.0
 10
-13.46467215309404
 20
17.90441079514672
 30
0.0
 10
-13.62732986663343
 20
17.81991460293321
 30
0.0
 10
-13.78501864582687
 20
17.72639013233213
 30
0.0
 10
-13.93381311846623
 20
17.62302706928272
 30
0.0
 10
-14.07409848680046
 20
17.51224940657692
 30
0.0
 10
-14.20553127058467
 20
17.39379861590663
 30
0.0
 10
-14.32772554010127
 20
17.26707148122838
 30
0.0
 10
-14.44308635559413
 20
17.13398920427192
 30
0.0
 10
-14.54698973943773
 20
16.99074791623559
 30
0.0
 10
-14.64221357168083
 20
16.84123189234852
 30
0.0
 10
-14.7274266533269
 20
16.6856358807323
 30
0.0
 10
-14.803200939752
 20
16.5255979877605
 30
0.0
 10
-14.86518421287056
 20
16.35981275603402
 30
0.0
 10
-14.91573452412898
 20
16.1900787844314
 30
0.0
 10
-14.95764418095095
 20
16.01666489332765
 30
0.0
 10
-14.98419430037925
 20
15.8382555675765
 30
0.0
 10
-15.00366586680751
 20
15.65574729289418
 30
0.0
 10
-15.00504444355721
 20
15.53240878627479
 30
0.0
 10
-15.00574172333737
 20
15.47002455790395
 30
0.0
  0
SPLINE
  5
9D
330
1F
100
AcDbEntity
  8
0
  6
Continuous
 62
     7
370
    15
100
AcDbSpline
210
0.0
220
0.0
230
1.0
 70
     8
 71
     3
 72
    31
 73
    27
 74
     0
 42
0.000000001
 43
0.00000001
 40
0.0
 40
0.0
 40
0.0
 40
0.0
 40
0.04291508210105
 40
0.0851299705846992
 40
0.1264733185549989
 40
0.1674530378853885
 40
0.2079763328949878
 40
0.2482493780637604
 40
0.2887499869834428
 40
0.329669856910873
 40
0.3705372867119744
 40
0.4111285639171177
 40
0.4518189126736376
 40
0.4924058769342635
 40
0.533485861742023
 40
0.5752630624415512
 40
0.6174406128021908
 40
0.6606716882923646
 40
0.7039402042434886
 40
0.7468675221598703
 40
0.789079300394723
 40
0.8311040424574038
 40
0.8732379898547746
 40
0.9151657696593332
 40
0.9573806581429822
 40
1.0
 40
1.0
 40
1.0
 40
1.0
 10
-9.46984428743993
 20
15.49928136880139
 30
0.0
 10
-9.470572020986035
 20
15.56081378368844
 30
0.0
 10
-9.472015614527983
 20
15.68287466328797
 30
0.0
 10
-9.491142675632178
 20
15.86332500517212
 30
0.0
 10
-9.518540005303167
 20
16.03977011741747
 30
0.0
 10
-9.558023775603443
 20
16.21151730285315
 30
0.0
 10
-9.608914768809493
 20
16.37861034118855
 30
0.0
 10
-9.671666068229246
 20
16.54089229773212
 30
0.0
 10
-9.745662254417496
 20
16.69896773738313
 30
0.0
 10
-9.83058574722422
 20
16.85244596193992
 30
0.0
 10
-9.926045884102836
 20
16.99972012943149
 30
0.0
 10
-10.03035686839548
 20
17.14051307787049
 30
0.0
 10
-10.14531971430869
 20
17.27218076567683
 30
0.0
 10
-10.26764978800827
 20
17.39797371058413
 30
0.0
 10
-10.40040267996249
 20
17.51520902458686
 30
0.0
 10
-10.5429770420775
 20
17.62392559777982
 30
0.0
 10
-10.69364200030187
 20
17.72674710970404
 30
0.0
 10
-10.85316712744459
 20
17.81950348618635
 30
0.0
 10
-11.0178025863581
 20
17.90516359410886
 30
0.0
 10
-11.18673791010836
 20
17.97855327124263
 30
0.0
 10
-11.35805927655501
 20
18.04091411641685
 30
0.0
 10
-11.53133102321474
 20
18.09410346729434
 30
0.0
 10
-11.70801156962323
 20
18.13294375055579
 30
0.0
 10
-11.88690708767405
 20
18.16057178387324
 30
0.0
 10
-12.06777007108977
 20
18.17980028399418
 30
0.0
 10
-12.18940562687395
 20
18.18126691362394
 30
0.0
 10
-12.25051335795275
 20
18.18200372457062
 30
0.0
  0
SPLINE
  5
9E
330
1F
100
AcDbEntity
  8
0
  6
Continuous
 62
     7
370
    15
100
AcDbSpline
210
0.0
220
0.0
230
1.0
 70
     8
 71
     3
 72
    31
 73
    27
 74
     0
 42
0.000000001
 43
0.00000001
 40
0.0
 40
0.0
 40
0.0
 40
0.0
 40
0.0436332182657581
 40
0.0865377766972011
 40
0.1291773360898919
 40
0.1714363236638286
 40
0.213415894570908
 40
0.2552659545538502
 40
0.297369481156624
 40
0.3399407478985552
 40
0.3823474587518116
 40
0.4239529468152705
 40
0.464871163261017
 40
0.5055722941182728
 40
0.5460025771083162
 40
0.5865679748069133
 40
0.6270647991481675
 40
0.6682706840331736
 40
0.7095492248503334
 40
0.7504281535131889
 40
0.7910961944485932
 40
0.832027144779434
 40
0.8731359553359669
 40
0.9146107643654486
 40
0.9569559864804374
 40
0.9999999999999999
 40
0.9999999999999999
 40
0.9999999999999999
 40
0.9999999999999999
 10
-12.25051335795275
 20
12.8089268014937
 30
0.0
 10
-12.18772183359918
 20
12.80978950227233
 30
0.0
 10
-12.06318738189108
 20
12.8115004970214
 30
0.0
 10
-11.87795693419389
 20
12.82873381071113
 30
0.0
 10
-11.69606352148201
 20
12.85636877379835
 30
0.0
 10
-11.51776227084207
 20
12.89615724897441
 30
0.0
 10
-11.34325554161234
 20
12.94595432349393
 30
0.0
 10
-11.17181497024664
 20
13.00511405850541
 30
0.0
 10
-11.00526664352406
 20
13.07892138518769
 30
0.0
 10
-10.84150950922764
 20
13.16046981162391
 30
0.0
 10
-10.68476204215938
 20
13.25343409743446
 30
0.0
 10
-10.53512786214601
 20
13.35328902610206
 30
0.0
 10
-10.39637858440931
 20
13.4639035236756
 30
0.0
 10
-10.26504412625989
 20
13.58059441214829
 30
0.0
 10
-10.1423481762305
 20
13.7057145361178
 30
0.0
 10
-10.0291204477077
 20
13.83910122432572
 30
0.0
 10
-9.925742207949575
 20
13.98159641673445
 30
0.0
 10
-9.830554534816084
 20
14.13088565286325
 30
0.0
 10
-9.745640043816277
 20
14.28690742559213
 30
0.0
 10
-9.67165510697004
 20
14.44752555558419
 30
0.0
 10
-9.608887868244956
 20
14.6123445397209
 30
0.0
 10
-9.558217580911863
 20
14.78160210512281
 30
0.0
 10
-9.518511100429563
 20
14.95497678789275
 30
0.0
 10
-9.491151817167951
 20
15.13270072969977
 30
0.0
 10
-9.472013935622691
 20
15.31441839393183
 30
0.0
 10
-9.47057143844114
 20
15.43732510403381
 30
0.0
 10
-9.46984428743993
 20
15.49928136880139
 30
0.0
  0
CIRCLE
  5
9F
330
1F
100
AcDbEntity
  8
0
  6
Continuous
 62
     7
370
    15
100
AcDbCircle
 10
0.0
 20
0.0
 30
0.0
 40
33.99999999999997
  0
CIRCLE
  5
A0
330
1F
100
AcDbEntity
  8
0
  6
Continuous
 62
     7
370
    15
100
AcDbCircle
 10
0.0
 20
0.0
 30
0.0
 40
34.99999999999998
  0
LINE
  5
A1
330
1F
100
AcDbEntity
  8
0
  6
Continuous
 62
     7
370
    15
100
AcDbLine
 10
-7.0275365951
 20
15.9025165451
 30
0.0
 11
-5.915777781
 21
15.8885241573
 31
0.0
  0
LINE
  5
A2
330
1F
100
AcDbEntity
  8
0
  6
Continuous
 62
     7
370
    15
100
AcDbLine
 10
-7.0275365951
 20
18.0191832118
 30
0.0
 11
-7.0275365951
 21
15.9025165451
 31
0.0
  0
LINE
  5
A3
330
1F
100
AcDbEntity
  8
0
  6
Continuous
 62
     7
370
    15
100
AcDbLine
 10
-5.866168406
 20
18.0191832118
 30
0.0
 11
-7.0275365951
 21
18.0191832118
 31
0.0
  0
LINE
  5
A4
330
1F
100
AcDbEntity
  8
0
  6
Continuous
 62
     7
370
    15
100
AcDbLine
 10
-7.0275365951
 20
15.2512344938
 30
0.0
 11
-7.0275365951
 21
12.320465263
 31
0.0
  0
LINE
  5
A5
330
1F
100
AcDbEntity
  8
0
  6
Continuous
 62
     7
370
    15
100
AcDbLine
 10
-6.5734200086
 20
15.2512344938
 30
0.0
 11
-7.0275365951
 21
15.2512344938
 31
0.0
  0
LINE
  5
A6
330
1F
100
AcDbEntity
  8
0
  6
Continuous
 62
     7
370
    15
100
AcDbLine
 10
-7.59740839
 20
18.670465263
 30
0.0
 11
-6.352085874
 21
18.670465263
 31
0.0
  0
LINE
  5
A7
330
1F
100
AcDbEntity
  8
0
  6
Continuous
 62
     7
370
    15
100
AcDbLine
 10
-7.59740839
 20
12.320465263
 30
0.0
 11
-7.59740839
 21
18.670465263
 31
0.0
  0
LINE
  5
A8
330
1F
100
AcDbEntity
  8
0
  6
Continuous
 62
     7
370
    15
100
AcDbLine
 10
-7.0275365951
 20
12.320465263
 30
0.0
 11
-7.59740839
 21
12.320465263
 31
0.0
  0
LINE
  5
A9
330
1F
100
AcDbEntity
  8
0
  6
Continuous
 62
     7
370
    15
100
AcDbLine
 10
1.0
 20
8.9999999996
 30
0.0
 11
1.0000000012
 21
7.937253933
 31
0.0
  0
LINE
  5
AA
330
1F
100
AcDbEntity
  8
0
  6
Continuous
 62
     7
370
    15
100
AcDbLine
 10
-1.0
 20
7.9372539332
 30
0.0
 11
-1.0
 21
9.0
 31
0.0
  0
LINE
  5
AB
330
1F
100
AcDbEntity
  8
0
  6
Continuous
 62
     7
370
    15
100
AcDbLine
 10
-17.6108699285
 20
12.320465263
 30
0.0
 11
-18.1807417233
 21
12.320465263
 31
0.0
  0
LINE
  5
AC
330
1F
100
AcDbEntity
  8
0
  6
Continuous
 62
     7
370
    15
100
AcDbLine
 10
-17.6108699285
 20
18.0191832118
 30
0.0
 11
-17.6108699285
 21
12.320465263
 31
0.0
  0
LINE
  5
AD
330
1F
100
AcDbEntity
  8
0
  6
Continuous
 62
     7
370
    15
100
AcDbLine
 10
-16.2268955695
 20
18.0191832118
 30
0.0
 11
-17.6108699285
 21
18.0191832118
 31
0.0
  0
LINE
  5
AE
330
1F
100
AcDbEntity
  8
0
  6
Continuous
 62
     7
370
    15
100
AcDbLine
 10
-16.2268955695
 20
18.670465263
 30
0.0
 11
-16.2268955695
 21
18.0191832118
 31
0.0
  0
LINE
  5
AF
330
1F
100
AcDbEntity
  8
0
  6
Continuous
 62
     7
370
    15
100
AcDbLine
 10
-19.5647160823
 20
18.670465263
 30
0.0
 11
-16.2268955695
 21
18.670465263
 31
0.0
  0
LINE
  5
B0
330
1F
100
AcDbEntity
  8
0
  6
Continuous
 62
     7
370
    15
100
AcDbLine
 10
-19.5647160823
 20
18.0191832118
 30
0.0
 11
-19.5647160823
 21
18.670465263
 31
0.0
  0
LINE
  5
B1
330
1F
100
AcDbEntity
  8
0
  6
Continuous
 62
     7
370
    15
100
AcDbLine
 10
-18.1807417233
 20
18.0191832118
 30
0.0
 11
-19.5647160823
 21
18.0191832118
 31
0.0
  0
LINE
  5
B2
330
1F
100
AcDbEntity
  8
0
  6
Continuous
 62
     7
370
    15
100
AcDbLine
 10
-18.1807417233
 20
12.320465263
 30
0.0
 11
-18.1807417233
 21
18.0191832118
 31
0.0
  0
ARC
  5
B3
330
1F
100
AcDbEntity
  8
0
  6
Continuous
 62
     7
370
    15
100
AcDbCircle
 10
0.0
 20
9.0
 30
0.0
 40
1.0
100
AcDbArc
 50
359.9999999795
 51
180.0
  0
ARC
  5
B4
330
1F
100
AcDbEntity
  8
0
  6
Continuous
 62
     7
370
    15
100
AcDbCircle
 10
0.0
 20
0.0
 30
0.0
 40
7.999999999999981
100
AcDbArc
 50
97.1807557815
 51
82.8192442099
  0
ENDSEC
  0
SECTION
  2
OBJECTS
  0
DICTIONARY
  5
C
330
0
100
AcDbDictionary
281
     1
  3
ACAD_GROUP
350
D
  3
ACAD_LAYOUT
350
1A
  3
ACAD_MLINESTYLE
350
17
  3
ACAD_PLOTSETTINGS
350
19
  3
ACAD_PLOTSTYLENAME
350
E
  3
ACAD_SCALELIST
350
47
  0
DICTIONARY
  5
D
102
{ACAD_REACTORS
330
C
102
}
330
C
100
AcDbDictionary
281
     1
  0
DICTIONARY
  5
1A
102
{ACAD_REACTORS
330
C
102
}
330
C
100
AcDbDictionary
281
     1
  3
Layout1
350
1E
  3
Layout2
350
26
  3
Model
350
22
  0
DICTIONARY
  5
17
102
{ACAD_REACTORS
330
C
102
}
330
C
100
AcDbDictionary
281
     1
  3
Standard
350
18
  0
DICTIONARY
  5
19
102
{ACAD_REACTORS
330
C
102
}
330
C
100
AcDbDictionary
281
     1
  0
ACDBDICTIONARYWDFLT
  5
E
102
{ACAD_REACTORS
330
C
102
}
330
C
100
AcDbDictionary
281
     1
  3
Normal
350
F
100
AcDbDictionaryWithDefault
340
F
  0
DICTIONARY
  5
47
102
{ACAD_REACTORS
330
C
102
}
330
C
100
AcDbDictionary
281
     1
  3
A0
350
48
  3
A1
350
49
  3
A2
350
4A
  3
A3
350
4B
  3
A4
350
4C
  3
A5
350
4D
  3
A6
350
4E
  3
A7
350
4F
  3
A8
350
50
  3
A9
350
51
  3
B0
350
52
  3
B1
350
53
  3
B2
350
54
  3
B3
350
55
  3
B4
350
56
  3
B5
350
57
  3
B6
350
58
  3
B7
350
59
  3
B8
350
5A
  3
B9
350
5B
  3
C0
350
5C
  3
C1
350
5D
  3
C2
350
5E
  3
C3
350
5F
  3
C4
350
60
  3
C5
350
61
  3
C6
350
62
  3
C7
350
63
  3
C8
350
64
  3
C9
350
65
  3
D0
350
66
  3
D1
350
67
  3
D2
350
68
  0
LAYOUT
  5
1E
102
{ACAD_REACTORS
330
1A
102
}
330
1A
100
AcDbPlotSettings
  1

  2
none_device
  4

  6

 40
0.0
 41
0.0
 42
0.0
 43
0.0
 44
0.0
 45
0.0
 46
0.0
 47
0.0
 48
0.0
 49
0.0
140
0.0
141
0.0
142
1.0
143
1.0
 70
   688
 72
     1
 73
     0
 74
     5
  7

 75
    16
147
1.0
148
0.0
149
0.0
100
AcDbLayout
  1
Layout1
 70
     1
 71
     1
 10
0.0
 20
0.0
 11
420.0
 21
297.0
 12
0.0
 22
0.0
 32
0.0
 14
1.0000000000E+20
 24
1.0000000000E+20
 34
1.0000000000E+20
 15
-1.0000000000E+20
 25
-1.0000000000E+20
 35
-1.0000000000E+20
146
0.0
 13
0.0
 23
0.0
 33
0.0
 16
1.0
 26
0.0
 36
0.0
 17
0.0
 27
1.0
 37
0.0
 76
     0
330
1B
  0
LAYOUT
  5
26
102
{ACAD_REACTORS
330
1A
102
}
330
1A
100
AcDbPlotSettings
  1

  2
none_device
  4

  6

 40
0.0
 41
0.0
 42
0.0
 43
0.0
 44
0.0
 45
0.0
 46
0.0
 47
0.0
 48
0.0
 49
0.0
140
0.0
141
0.0
142
1.0
143
1.0
 70
   688
 72
     1
 73
     0
 74
     5
  7

 75
    16
147
1.0
148
0.0
149
0.0
100
AcDbLayout
  1
Layout2
 70
     1
 71
     2
 10
0.0
 20
0.0
 11
0.0
 21
0.0
 12
0.0
 22
0.0
 32
0.0
 14
0.0
 24
0.0
 34
0.0
 15
0.0
 25
0.0
 35
0.0
146
0.0
 13
0.0
 23
0.0
 33
0.0
 16
1.0
 26
0.0
 36
0.0
 17
0.0
 27
1.0
 37
0.0
 76
     0
330
23
  0
LAYOUT
  5
22
102
{ACAD_REACTORS
330
1A
102
}
330
1A
100
AcDbPlotSettings
  1

  2
none_device
  4
ANSI_A_(11.00_x_8.50_Inches)
  6

 40
6.35
 41
19.05
 42
6.35000508
 43
19.05000254
 44
279.4
 45
215.9
 46
133.34999746
 47
88.89999873
 48
0.0
 49
0.0
140
0.0
141
0.0
142
0.1202142857
143
1.0
 70
  1696
 72
     0
 73
     0
 74
     0
  7

 75
     0
147
0.0179189148
148
-1300.4909072572
149
0.0
100
AcDbLayout
  1
Model
 70
     1
 71
     0
 10
0.0
 20
0.0
 11
420.0
 21
297.0
 12
0.0
 22
0.0
 32
0.0
 14
-35.0
 24
-35.0
 34
0.0
 15
35.0
 25
35.0
 35
0.0
146
0.0
 13
0.0
 23
0.0
 33
0.0
 16
1.0
 26
0.0
 36
0.0
 17
0.0
 27
1.0
 37
0.0
 76
     0
330
1F
331
29
  0
MLINESTYLE
  5
18
102
{ACAD_REACTORS
330
17
102
}
330
17
100
AcDbMlineStyle
  2
Standard
 70
     0
  3

 62
   256
 51
90.0
 52
90.0
 71
     2
 49
0.5
 62
   256
  6
BYLAYER
 49
-0.5
 62
   256
  6
BYLAYER
  0
ACDBPLACEHOLDER
  5
F
102
{ACAD_REACTORS
330
E
102
}
330
E
  0
SCALE
  5
48
102
{ACAD_REACTORS
330
47
102
}
330
47
100
AcDbScale
 70
     0
300
1:1
140
1.0
141
1.0
290
     1
  0
SCALE
  5
49
102
{ACAD_REACTORS
330
47
102
}
330
47
100
AcDbScale
 70
     0
300
1:2
140
1.0
141
2.0
290
     0
  0
SCALE
  5
4A
102
{ACAD_REACTORS
330
47
102
}
330
47
100
AcDbScale
 70
     0
300
1:4
140
1.0
141
4.0
290
     0
  0
SCALE
  5
4B
102
{ACAD_REACTORS
330
47
102
}
330
47
100
AcDbScale
 70
     0
300
1:5
140
1.0
141
5.0
290
     0
  0
SCALE
  5
4C
102
{ACAD_REACTORS
330
47
102
}
330
47
100
AcDbScale
 70
     0
300
1:8
140
1.0
141
8.0
290
     0
  0
SCALE
  5
4D
102
{ACAD_REACTORS
330
47
102
}
330
47
100
AcDbScale
 70
     0
300
1:10
140
1.0
141
10.0
290
     0
  0
SCALE
  5
4E
102
{ACAD_REACTORS
330
47
102
}
330
47
100
AcDbScale
 70
     0
300
1:16
140
1.0
141
16.0
290
     0
  0
SCALE
  5
4F
102
{ACAD_REACTORS
330
47
102
}
330
47
100
AcDbScale
 70
     0
300
1:20
140
1.0
141
20.0
290
     0
  0
SCALE
  5
50
102
{ACAD_REACTORS
330
47
102
}
330
47
100
AcDbScale
 70
     0
300
1:30
140
1.0
141
30.0
290
     0
  0
SCALE
  5
51
102
{ACAD_REACTORS
330
47
102
}
330
47
100
AcDbScale
 70
     0
300
1:40
140
1.0
141
40.0
290
     0
  0
SCALE
  5
52
102
{ACAD_REACTORS
330
47
102
}
330
47
100
AcDbScale
 70
     0
300
1:50
140
1.0
141
50.0
290
     0
  0
SCALE
  5
53
102
{ACAD_REACTORS
330
47
102
}
330
47
100
AcDbScale
 70
     0
300
1:100
140
1.0
141
100.0
290
     0
  0
SCALE
  5
54
102
{ACAD_REACTORS
330
47
102
}
330
47
100
AcDbScale
 70
     0
300
2:1
140
2.0
141
1.0
290
     0
  0
SCALE
  5
55
102
{ACAD_REACTORS
330
47
102
}
330
47
100
AcDbScale
 70
     0
300
4:1
140
4.0
141
1.0
290
     0
  0
SCALE
  5
56
102
{ACAD_REACTORS
330
47
102
}
330
47
100
AcDbScale
 70
     0
300
8:1
140
8.0
141
1.0
290
     0
  0
SCALE
  5
57
102
{ACAD_REACTORS
330
47
102
}
330
47
100
AcDbScale
 70
     0
300
10:1
140
10.0
141
1.0
290
     0
  0
SCALE
  5
58
102
{ACAD_REACTORS
330
47
102
}
330
47
100
AcDbScale
 70
     0
300
100:1
140
100.0
141
1.0
290
     0
  0
SCALE
  5
59
102
{ACAD_REACTORS
330
47
102
}
330
47
100
AcDbScale
 70
     0
300
1/128" = 1'-0"
140
0.0078125
141
12.0
290
     0
  0
SCALE
  5
5A
102
{ACAD_REACTORS
330
47
102
}
330
47
100
AcDbScale
 70
     0
300
1/64" = 1'-0"
140
0.015625
141
12.0
290
     0
  0
SCALE
  5
5B
102
{ACAD_REACTORS
330
47
102
}
330
47
100
AcDbScale
 70
     0
300
1/32" = 1'-0"
140
0.03125
141
12.0
290
     0
  0
SCALE
  5
5C
102
{ACAD_REACTORS
330
47
102
}
330
47
100
AcDbScale
 70
     0
300
1/16" = 1'-0"
140
0.0625
141
12.0
290
     0
  0
SCALE
  5
5D
102
{ACAD_REACTORS
330
47
102
}
330
47
100
AcDbScale
 70
     0
300
3/32" = 1'-0"
140
0.09375
141
12.0
290
     0
  0
SCALE
  5
5E
102
{ACAD_REACTORS
330
47
102
}
330
47
100
AcDbScale
 70
     0
300
1/8" = 1'-0"
140
0.125
141
12.0
290
     0
  0
SCALE
  5
5F
102
{ACAD_REACTORS
330
47
102
}
330
47
100
AcDbScale
 70
     0
300
3/16" = 1'-0"
140
0.1875
141
12.0
290
     0
  0
SCALE
  5
60
102
{ACAD_REACTORS
330
47
102
}
330
47
100
AcDbScale
 70
     0
300
1/4" = 1'-0"
140
0.25
141
12.0
290
     0
  0
SCALE
  5
61
102
{ACAD_REACTORS
330
47
102
}
330
47
100
AcDbScale
 70
     0
300
3/8" = 1'-0"
140
0.375
141
12.0
290
     0
  0
SCALE
  5
62
102
{ACAD_REACTORS
330
47
102
}
330
47
100
AcDbScale
 70
     0
300
1/2" = 1'-0"
140
0.5
141
12.0
290
     0
  0
SCALE
  5
63
102
{ACAD_REACTORS
330
47
102
}
330
47
100
AcDbScale
 70
     0
300
3/4" = 1'-0"
140
0.75
141
12.0
290
     0
  0
SCALE
  5
64
102
{ACAD_REACTORS
330
47
102
}
330
47
100
AcDbScale
 70
     0
300
1" = 1'-0"
140
1.0
141
12.0
290
     0
  0
SCALE
  5
65
102
{ACAD_REACTORS
330
47
102
}
330
47
100
AcDbScale
 70
     0
300
1-1/2" = 1'-0"
140
1.5
141
12.0
290
     0
  0
SCALE
  5
66
102
{ACAD_REACTORS
330
47
102
}
330
47
100
AcDbScale
 70
     0
300
3" = 1'-0"
140
3.0
141
12.0
290
     0
  0
SCALE
  5
67
102
{ACAD_REACTORS
330
47
102
}
330
47
100
AcDbScale
 70
     0
300
6" = 1'-0"
140
6.0
141
12.0
290
     0
  0
SCALE
  5
68
102
{ACAD_REACTORS
330
47
102
}
330
47
100
AcDbScale
 70
     0
300
1'-0" = 1'-0"
140
12.0
141
12.0
290
     0
  0
ENDSEC
  0
EOF
